G75*
G70*
%OFA0B0*%
%FSLAX24Y24*%
%IPPOS*%
%LPD*%
%AMOC8*
5,1,8,0,0,1.08239X$1,22.5*
%
%ADD10C,0.0080*%
%ADD11C,0.0000*%
%ADD12C,0.0010*%
D10*
X006371Y004935D02*
X006371Y022931D01*
X031271Y022931D01*
X031271Y004935D01*
X006371Y004935D01*
X012931Y016110D02*
X012931Y016760D01*
X012933Y016777D01*
X012937Y016794D01*
X012944Y016810D01*
X012954Y016824D01*
X012967Y016837D01*
X012981Y016847D01*
X012997Y016854D01*
X013014Y016858D01*
X013031Y016860D01*
X013631Y016860D02*
X013648Y016858D01*
X013665Y016854D01*
X013681Y016847D01*
X013695Y016837D01*
X013708Y016824D01*
X013718Y016810D01*
X013725Y016794D01*
X013729Y016777D01*
X013731Y016760D01*
X013731Y016110D01*
X013729Y016093D01*
X013725Y016076D01*
X013718Y016060D01*
X013708Y016046D01*
X013695Y016033D01*
X013681Y016023D01*
X013665Y016016D01*
X013648Y016012D01*
X013631Y016010D01*
X013031Y016010D02*
X013014Y016012D01*
X012997Y016016D01*
X012981Y016023D01*
X012967Y016033D01*
X012954Y016046D01*
X012944Y016060D01*
X012937Y016076D01*
X012933Y016093D01*
X012931Y016110D01*
X022431Y017110D02*
X022431Y017760D01*
X022433Y017777D01*
X022437Y017794D01*
X022444Y017810D01*
X022454Y017824D01*
X022467Y017837D01*
X022481Y017847D01*
X022497Y017854D01*
X022514Y017858D01*
X022531Y017860D01*
X023131Y017860D02*
X023148Y017858D01*
X023165Y017854D01*
X023181Y017847D01*
X023195Y017837D01*
X023208Y017824D01*
X023218Y017810D01*
X023225Y017794D01*
X023229Y017777D01*
X023231Y017760D01*
X023231Y017110D01*
X023229Y017093D01*
X023225Y017076D01*
X023218Y017060D01*
X023208Y017046D01*
X023195Y017033D01*
X023181Y017023D01*
X023165Y017016D01*
X023148Y017012D01*
X023131Y017010D01*
X022531Y017010D02*
X022514Y017012D01*
X022497Y017016D01*
X022481Y017023D01*
X022467Y017033D01*
X022454Y017046D01*
X022444Y017060D01*
X022437Y017076D01*
X022433Y017093D01*
X022431Y017110D01*
X025431Y017110D02*
X025431Y017760D01*
X025433Y017777D01*
X025437Y017794D01*
X025444Y017810D01*
X025454Y017824D01*
X025467Y017837D01*
X025481Y017847D01*
X025497Y017854D01*
X025514Y017858D01*
X025531Y017860D01*
X026131Y017860D02*
X026148Y017858D01*
X026165Y017854D01*
X026181Y017847D01*
X026195Y017837D01*
X026208Y017824D01*
X026218Y017810D01*
X026225Y017794D01*
X026229Y017777D01*
X026231Y017760D01*
X026231Y017110D01*
X026229Y017093D01*
X026225Y017076D01*
X026218Y017060D01*
X026208Y017046D01*
X026195Y017033D01*
X026181Y017023D01*
X026165Y017016D01*
X026148Y017012D01*
X026131Y017010D01*
X025531Y017010D02*
X025514Y017012D01*
X025497Y017016D01*
X025481Y017023D01*
X025467Y017033D01*
X025454Y017046D01*
X025444Y017060D01*
X025437Y017076D01*
X025433Y017093D01*
X025431Y017110D01*
X028431Y017110D02*
X028431Y017760D01*
X028433Y017777D01*
X028437Y017794D01*
X028444Y017810D01*
X028454Y017824D01*
X028467Y017837D01*
X028481Y017847D01*
X028497Y017854D01*
X028514Y017858D01*
X028531Y017860D01*
X029131Y017860D02*
X029148Y017858D01*
X029165Y017854D01*
X029181Y017847D01*
X029195Y017837D01*
X029208Y017824D01*
X029218Y017810D01*
X029225Y017794D01*
X029229Y017777D01*
X029231Y017760D01*
X029231Y017110D01*
X029229Y017093D01*
X029225Y017076D01*
X029218Y017060D01*
X029208Y017046D01*
X029195Y017033D01*
X029181Y017023D01*
X029165Y017016D01*
X029148Y017012D01*
X029131Y017010D01*
X028531Y017010D02*
X028514Y017012D01*
X028497Y017016D01*
X028481Y017023D01*
X028467Y017033D01*
X028454Y017046D01*
X028444Y017060D01*
X028437Y017076D01*
X028433Y017093D01*
X028431Y017110D01*
D11*
X029181Y021435D02*
X029183Y021485D01*
X029189Y021535D01*
X029199Y021585D01*
X029212Y021633D01*
X029229Y021681D01*
X029250Y021727D01*
X029274Y021771D01*
X029302Y021813D01*
X029333Y021853D01*
X029367Y021890D01*
X029404Y021925D01*
X029443Y021956D01*
X029484Y021985D01*
X029528Y022010D01*
X029574Y022032D01*
X029621Y022050D01*
X029669Y022064D01*
X029718Y022075D01*
X029768Y022082D01*
X029818Y022085D01*
X029869Y022084D01*
X029919Y022079D01*
X029969Y022070D01*
X030017Y022058D01*
X030065Y022041D01*
X030111Y022021D01*
X030156Y021998D01*
X030199Y021971D01*
X030239Y021941D01*
X030277Y021908D01*
X030312Y021872D01*
X030345Y021833D01*
X030374Y021792D01*
X030400Y021749D01*
X030423Y021704D01*
X030442Y021657D01*
X030457Y021609D01*
X030469Y021560D01*
X030477Y021510D01*
X030481Y021460D01*
X030481Y021410D01*
X030477Y021360D01*
X030469Y021310D01*
X030457Y021261D01*
X030442Y021213D01*
X030423Y021166D01*
X030400Y021121D01*
X030374Y021078D01*
X030345Y021037D01*
X030312Y020998D01*
X030277Y020962D01*
X030239Y020929D01*
X030199Y020899D01*
X030156Y020872D01*
X030111Y020849D01*
X030065Y020829D01*
X030017Y020812D01*
X029969Y020800D01*
X029919Y020791D01*
X029869Y020786D01*
X029818Y020785D01*
X029768Y020788D01*
X029718Y020795D01*
X029669Y020806D01*
X029621Y020820D01*
X029574Y020838D01*
X029528Y020860D01*
X029484Y020885D01*
X029443Y020914D01*
X029404Y020945D01*
X029367Y020980D01*
X029333Y021017D01*
X029302Y021057D01*
X029274Y021099D01*
X029250Y021143D01*
X029229Y021189D01*
X029212Y021237D01*
X029199Y021285D01*
X029189Y021335D01*
X029183Y021385D01*
X029181Y021435D01*
X029181Y006435D02*
X029183Y006485D01*
X029189Y006535D01*
X029199Y006585D01*
X029212Y006633D01*
X029229Y006681D01*
X029250Y006727D01*
X029274Y006771D01*
X029302Y006813D01*
X029333Y006853D01*
X029367Y006890D01*
X029404Y006925D01*
X029443Y006956D01*
X029484Y006985D01*
X029528Y007010D01*
X029574Y007032D01*
X029621Y007050D01*
X029669Y007064D01*
X029718Y007075D01*
X029768Y007082D01*
X029818Y007085D01*
X029869Y007084D01*
X029919Y007079D01*
X029969Y007070D01*
X030017Y007058D01*
X030065Y007041D01*
X030111Y007021D01*
X030156Y006998D01*
X030199Y006971D01*
X030239Y006941D01*
X030277Y006908D01*
X030312Y006872D01*
X030345Y006833D01*
X030374Y006792D01*
X030400Y006749D01*
X030423Y006704D01*
X030442Y006657D01*
X030457Y006609D01*
X030469Y006560D01*
X030477Y006510D01*
X030481Y006460D01*
X030481Y006410D01*
X030477Y006360D01*
X030469Y006310D01*
X030457Y006261D01*
X030442Y006213D01*
X030423Y006166D01*
X030400Y006121D01*
X030374Y006078D01*
X030345Y006037D01*
X030312Y005998D01*
X030277Y005962D01*
X030239Y005929D01*
X030199Y005899D01*
X030156Y005872D01*
X030111Y005849D01*
X030065Y005829D01*
X030017Y005812D01*
X029969Y005800D01*
X029919Y005791D01*
X029869Y005786D01*
X029818Y005785D01*
X029768Y005788D01*
X029718Y005795D01*
X029669Y005806D01*
X029621Y005820D01*
X029574Y005838D01*
X029528Y005860D01*
X029484Y005885D01*
X029443Y005914D01*
X029404Y005945D01*
X029367Y005980D01*
X029333Y006017D01*
X029302Y006057D01*
X029274Y006099D01*
X029250Y006143D01*
X029229Y006189D01*
X029212Y006237D01*
X029199Y006285D01*
X029189Y006335D01*
X029183Y006385D01*
X029181Y006435D01*
X007181Y006435D02*
X007183Y006485D01*
X007189Y006535D01*
X007199Y006585D01*
X007212Y006633D01*
X007229Y006681D01*
X007250Y006727D01*
X007274Y006771D01*
X007302Y006813D01*
X007333Y006853D01*
X007367Y006890D01*
X007404Y006925D01*
X007443Y006956D01*
X007484Y006985D01*
X007528Y007010D01*
X007574Y007032D01*
X007621Y007050D01*
X007669Y007064D01*
X007718Y007075D01*
X007768Y007082D01*
X007818Y007085D01*
X007869Y007084D01*
X007919Y007079D01*
X007969Y007070D01*
X008017Y007058D01*
X008065Y007041D01*
X008111Y007021D01*
X008156Y006998D01*
X008199Y006971D01*
X008239Y006941D01*
X008277Y006908D01*
X008312Y006872D01*
X008345Y006833D01*
X008374Y006792D01*
X008400Y006749D01*
X008423Y006704D01*
X008442Y006657D01*
X008457Y006609D01*
X008469Y006560D01*
X008477Y006510D01*
X008481Y006460D01*
X008481Y006410D01*
X008477Y006360D01*
X008469Y006310D01*
X008457Y006261D01*
X008442Y006213D01*
X008423Y006166D01*
X008400Y006121D01*
X008374Y006078D01*
X008345Y006037D01*
X008312Y005998D01*
X008277Y005962D01*
X008239Y005929D01*
X008199Y005899D01*
X008156Y005872D01*
X008111Y005849D01*
X008065Y005829D01*
X008017Y005812D01*
X007969Y005800D01*
X007919Y005791D01*
X007869Y005786D01*
X007818Y005785D01*
X007768Y005788D01*
X007718Y005795D01*
X007669Y005806D01*
X007621Y005820D01*
X007574Y005838D01*
X007528Y005860D01*
X007484Y005885D01*
X007443Y005914D01*
X007404Y005945D01*
X007367Y005980D01*
X007333Y006017D01*
X007302Y006057D01*
X007274Y006099D01*
X007250Y006143D01*
X007229Y006189D01*
X007212Y006237D01*
X007199Y006285D01*
X007189Y006335D01*
X007183Y006385D01*
X007181Y006435D01*
X007181Y021435D02*
X007183Y021485D01*
X007189Y021535D01*
X007199Y021585D01*
X007212Y021633D01*
X007229Y021681D01*
X007250Y021727D01*
X007274Y021771D01*
X007302Y021813D01*
X007333Y021853D01*
X007367Y021890D01*
X007404Y021925D01*
X007443Y021956D01*
X007484Y021985D01*
X007528Y022010D01*
X007574Y022032D01*
X007621Y022050D01*
X007669Y022064D01*
X007718Y022075D01*
X007768Y022082D01*
X007818Y022085D01*
X007869Y022084D01*
X007919Y022079D01*
X007969Y022070D01*
X008017Y022058D01*
X008065Y022041D01*
X008111Y022021D01*
X008156Y021998D01*
X008199Y021971D01*
X008239Y021941D01*
X008277Y021908D01*
X008312Y021872D01*
X008345Y021833D01*
X008374Y021792D01*
X008400Y021749D01*
X008423Y021704D01*
X008442Y021657D01*
X008457Y021609D01*
X008469Y021560D01*
X008477Y021510D01*
X008481Y021460D01*
X008481Y021410D01*
X008477Y021360D01*
X008469Y021310D01*
X008457Y021261D01*
X008442Y021213D01*
X008423Y021166D01*
X008400Y021121D01*
X008374Y021078D01*
X008345Y021037D01*
X008312Y020998D01*
X008277Y020962D01*
X008239Y020929D01*
X008199Y020899D01*
X008156Y020872D01*
X008111Y020849D01*
X008065Y020829D01*
X008017Y020812D01*
X007969Y020800D01*
X007919Y020791D01*
X007869Y020786D01*
X007818Y020785D01*
X007768Y020788D01*
X007718Y020795D01*
X007669Y020806D01*
X007621Y020820D01*
X007574Y020838D01*
X007528Y020860D01*
X007484Y020885D01*
X007443Y020914D01*
X007404Y020945D01*
X007367Y020980D01*
X007333Y021017D01*
X007302Y021057D01*
X007274Y021099D01*
X007250Y021143D01*
X007229Y021189D01*
X007212Y021237D01*
X007199Y021285D01*
X007189Y021335D01*
X007183Y021385D01*
X007181Y021435D01*
D12*
X013836Y016435D02*
X013836Y016385D01*
X013861Y016360D01*
X013911Y016312D02*
X013886Y016287D01*
X013886Y016212D01*
X013836Y016212D02*
X013986Y016212D01*
X013986Y016287D01*
X013961Y016312D01*
X013911Y016312D01*
X013961Y016360D02*
X013986Y016385D01*
X013986Y016435D01*
X013961Y016460D01*
X013936Y016460D01*
X013911Y016435D01*
X013886Y016460D01*
X013861Y016460D01*
X013836Y016435D01*
X013911Y016435D02*
X013911Y016410D01*
X013911Y016165D02*
X013911Y016115D01*
X013911Y016165D02*
X013861Y016165D01*
X013836Y016140D01*
X013836Y016090D01*
X013861Y016065D01*
X013961Y016065D01*
X013986Y016090D01*
X013986Y016140D01*
X013961Y016165D01*
X023336Y016965D02*
X023336Y017015D01*
X023361Y017040D01*
X023411Y017040D01*
X023411Y016990D01*
X023361Y016940D02*
X023336Y016965D01*
X023361Y016940D02*
X023461Y016940D01*
X023486Y016965D01*
X023486Y017015D01*
X023461Y017040D01*
X023486Y017087D02*
X023486Y017162D01*
X023461Y017187D01*
X023411Y017187D01*
X023386Y017162D01*
X023386Y017087D01*
X023336Y017087D02*
X023486Y017087D01*
X023461Y017235D02*
X023486Y017260D01*
X023486Y017310D01*
X023461Y017335D01*
X023436Y017335D01*
X023336Y017235D01*
X023336Y017335D01*
X026336Y017310D02*
X026336Y017260D01*
X026361Y017235D01*
X026411Y017235D02*
X026436Y017285D01*
X026436Y017310D01*
X026411Y017335D01*
X026361Y017335D01*
X026336Y017310D01*
X026411Y017235D02*
X026486Y017235D01*
X026486Y017335D01*
X026461Y017187D02*
X026486Y017162D01*
X026486Y017087D01*
X026336Y017087D01*
X026386Y017087D02*
X026386Y017162D01*
X026411Y017187D01*
X026461Y017187D01*
X026461Y017040D02*
X026486Y017015D01*
X026486Y016965D01*
X026461Y016940D01*
X026361Y016940D01*
X026336Y016965D01*
X026336Y017015D01*
X026361Y017040D01*
X026411Y017040D01*
X026411Y016990D01*
X029336Y016965D02*
X029336Y017015D01*
X029361Y017040D01*
X029411Y017040D01*
X029411Y016990D01*
X029361Y016940D02*
X029336Y016965D01*
X029361Y016940D02*
X029461Y016940D01*
X029486Y016965D01*
X029486Y017015D01*
X029461Y017040D01*
X029486Y017087D02*
X029486Y017162D01*
X029461Y017187D01*
X029411Y017187D01*
X029386Y017162D01*
X029386Y017087D01*
X029336Y017087D02*
X029486Y017087D01*
X029411Y017235D02*
X029411Y017335D01*
X029336Y017310D02*
X029486Y017310D01*
X029411Y017235D01*
M02*
