%
M48
M72
T01C0.0236
T02C0.0320
T03C0.0400
T04C0.0440
T05C0.0669
T06C0.1300
%
T01
X9000Y7894
X9000Y7106
T02
X2000Y9100
X2000Y9900
X9000Y10500
X9000Y9500
X11500Y12250
X10500Y12250
X24000Y12000
X24000Y8000
X22500Y10500
X22500Y9500
X11000Y7000
X11000Y11000
X12500Y10000
X12500Y9000
X5000Y12500
X1000Y12500
X4500Y13500
X4500Y14500
X1500Y14500
X1500Y13500
X12500Y13500
X12500Y14500
X12500Y15500
X12500Y16500
X9500Y16500
X9500Y15500
X9500Y14500
X9500Y13500
X21000Y12000
X21000Y8000
X19500Y10500
X19500Y9500
X18000Y12000
X18000Y8000
X5000Y11500
X1000Y11500
X7000Y7000
X7000Y8000
X7000Y9000
X7000Y10000
X4000Y10000
X4000Y9000
X4000Y8000
X4000Y7000
X16500Y10500
X16500Y9500
T03
X22500Y8400
X22500Y7500
X22500Y6600
X19500Y8400
X19500Y7500
X19500Y6600
X16500Y8400
X16500Y7500
X16500Y6600
X3750Y16550
X4750Y16450
X5750Y16550
X13950Y13500
X14050Y14500
X13950Y15500
X14050Y16500
X7950Y13500
X8050Y14500
X7950Y15500
X8050Y16500
X19500Y11500
X22500Y11500
X6000Y11500
X16500Y11500
X21500Y16500
X20500Y16500
X19500Y16500
X18500Y16500
X17500Y16500
X16500Y16500
T04
X1000Y4000
X1000Y8000
X2500Y8000
X2500Y4000
X14500Y11000
X14500Y7000
T05
X6280Y3500
X4720Y3500
X20957Y3500
X19398Y3500
X17839Y3500
X16280Y3500
X14720Y3500
X13161Y3500
X11602Y3500
X10043Y3500
T06
X23500Y1500
X23500Y16500
X1500Y1500
X1500Y16500
M30
