G75*
G70*
%OFA0B0*%
%FSLAX24Y24*%
%IPPOS*%
%LPD*%
%AMOC8*
5,1,8,0,0,1.08239X$1,22.5*
%
%ADD10C,0.0080*%
%ADD11C,0.0070*%
%ADD12C,0.0030*%
%ADD13C,0.0060*%
%ADD14C,0.0100*%
%ADD15C,0.0050*%
%ADD16C,0.0000*%
%ADD17C,0.0120*%
%ADD18R,0.0240X0.0340*%
%ADD19C,0.0040*%
%ADD20C,0.0010*%
%ADD21R,0.0340X0.0240*%
%ADD22R,0.1000X0.0200*%
%ADD23R,0.0300X0.0750*%
%ADD24R,0.0670X0.0900*%
D10*
X006371Y004935D02*
X031291Y004935D01*
X031291Y010895D01*
X031291Y017695D01*
X031291Y022935D01*
X006371Y022935D01*
X006371Y019145D01*
X006371Y016395D01*
X006371Y015435D01*
X006371Y007935D01*
X006371Y004935D01*
X006371Y022931D01*
X031271Y022931D01*
X031271Y004935D01*
X006371Y004935D01*
X014081Y017935D02*
X013831Y018185D01*
X013831Y018685D01*
X014081Y018935D01*
X013831Y019185D01*
X013831Y019685D01*
X014081Y019935D01*
X013831Y020185D01*
X013831Y020685D01*
X014081Y020935D01*
X013831Y021185D01*
X013831Y021685D01*
X014081Y021935D01*
X014581Y021935D01*
X014831Y021685D01*
X014831Y021185D01*
X014581Y020935D01*
X014831Y020685D01*
X014831Y020185D01*
X014581Y019935D01*
X014831Y019685D01*
X014831Y019185D01*
X014581Y018935D01*
X014831Y018685D01*
X014831Y018185D01*
X014581Y017935D01*
X014081Y017935D01*
X019831Y018185D02*
X020081Y017935D01*
X020581Y017935D01*
X020831Y018185D01*
X020831Y018685D01*
X020581Y018935D01*
X020831Y019185D01*
X020831Y019685D01*
X020581Y019935D01*
X020831Y020185D01*
X020831Y020685D01*
X020581Y020935D01*
X020831Y021185D01*
X020831Y021685D01*
X020581Y021935D01*
X020081Y021935D01*
X019831Y021685D01*
X019831Y021185D01*
X020081Y020935D01*
X019831Y020685D01*
X019831Y020185D01*
X020081Y019935D01*
X019831Y019685D01*
X019831Y019185D01*
X020081Y018935D01*
X019831Y018685D01*
X019831Y018185D01*
D11*
X022366Y019602D02*
X022498Y019470D01*
X022761Y019470D01*
X022893Y019602D01*
X022893Y019865D01*
X022630Y019865D01*
X022893Y020129D02*
X022761Y020261D01*
X022498Y020261D01*
X022366Y020129D01*
X022366Y019602D01*
X023158Y019602D02*
X023290Y019470D01*
X023553Y019470D01*
X023685Y019602D01*
X023950Y019602D02*
X024082Y019470D01*
X024345Y019470D01*
X024477Y019602D01*
X024477Y019734D01*
X024345Y019865D01*
X024082Y019865D01*
X023950Y019997D01*
X023950Y020129D01*
X024082Y020261D01*
X024345Y020261D01*
X024477Y020129D01*
X024742Y020129D02*
X024742Y019602D01*
X024873Y019470D01*
X025137Y019470D01*
X025269Y019602D01*
X025533Y019865D02*
X026061Y019865D01*
X026325Y020261D02*
X026589Y020261D01*
X026457Y020261D02*
X026457Y019470D01*
X026325Y019470D02*
X026589Y019470D01*
X026853Y019470D02*
X027117Y019470D01*
X026985Y019470D02*
X026985Y020261D01*
X026853Y020261D02*
X027117Y020261D01*
X025269Y020129D02*
X025137Y020261D01*
X024873Y020261D01*
X024742Y020129D01*
X023685Y020129D02*
X023553Y020261D01*
X023290Y020261D01*
X023158Y020129D01*
X023158Y019602D01*
D12*
X024260Y018289D02*
X024260Y018240D01*
X024260Y018143D02*
X024260Y017950D01*
X024212Y017950D02*
X024309Y017950D01*
X024409Y017950D02*
X024409Y018143D01*
X024554Y018143D01*
X024602Y018095D01*
X024602Y017950D01*
X024703Y017950D02*
X024703Y018143D01*
X024752Y018143D01*
X024800Y018095D01*
X024848Y018143D01*
X024897Y018095D01*
X024897Y017950D01*
X024800Y017950D02*
X024800Y018095D01*
X024998Y018095D02*
X025095Y018095D01*
X025194Y018095D02*
X025194Y017998D01*
X025243Y017950D01*
X025339Y017950D01*
X025388Y017998D01*
X025388Y018095D01*
X025339Y018143D01*
X025243Y018143D01*
X025194Y018095D01*
X025095Y018240D02*
X025046Y018192D01*
X025046Y017950D01*
X025096Y017520D02*
X025096Y017150D01*
X025343Y017150D01*
X025464Y017150D02*
X025464Y017397D01*
X025588Y017520D01*
X025711Y017397D01*
X025711Y017150D01*
X025833Y017150D02*
X025833Y017520D01*
X025956Y017397D01*
X026079Y017520D01*
X026079Y017150D01*
X026201Y017150D02*
X026201Y017520D01*
X026386Y017520D01*
X026448Y017459D01*
X026448Y017335D01*
X026386Y017273D01*
X026201Y017273D01*
X026569Y017150D02*
X026816Y017397D01*
X026816Y017459D01*
X026754Y017520D01*
X026631Y017520D01*
X026569Y017459D01*
X026569Y017150D02*
X026816Y017150D01*
X026814Y017950D02*
X026766Y017998D01*
X026766Y018095D01*
X026814Y018143D01*
X026911Y018143D01*
X026959Y018095D01*
X026959Y017998D01*
X026911Y017950D01*
X026814Y017950D01*
X026665Y017950D02*
X026519Y017950D01*
X026471Y017998D01*
X026471Y018095D01*
X026519Y018143D01*
X026665Y018143D01*
X026372Y017998D02*
X026372Y017950D01*
X026324Y017950D01*
X026324Y017998D01*
X026372Y017998D01*
X026223Y018143D02*
X026175Y018143D01*
X026078Y018047D01*
X026078Y018143D02*
X026078Y017950D01*
X025977Y017998D02*
X025929Y017950D01*
X025832Y017950D01*
X025784Y017998D01*
X025784Y018095D01*
X025832Y018143D01*
X025929Y018143D01*
X025977Y018095D01*
X025977Y017998D01*
X025682Y017950D02*
X025537Y017950D01*
X025489Y017998D01*
X025489Y018095D01*
X025537Y018143D01*
X025682Y018143D01*
X025682Y018240D02*
X025682Y017950D01*
X025711Y017335D02*
X025464Y017335D01*
X024260Y018143D02*
X024212Y018143D01*
X024111Y018143D02*
X024014Y017950D01*
X023917Y018143D01*
X023816Y018095D02*
X023816Y018047D01*
X023623Y018047D01*
X023623Y018095D02*
X023671Y018143D01*
X023768Y018143D01*
X023816Y018095D01*
X023768Y017950D02*
X023671Y017950D01*
X023623Y017998D01*
X023623Y018095D01*
X023522Y018143D02*
X023377Y018047D01*
X023522Y017950D01*
X023377Y017950D02*
X023377Y018240D01*
X023278Y017998D02*
X023278Y017950D01*
X023230Y017950D01*
X023230Y017998D01*
X023278Y017998D01*
X023129Y017998D02*
X023129Y018143D01*
X023129Y017998D02*
X023080Y017950D01*
X023032Y017998D01*
X022984Y017950D01*
X022935Y017998D01*
X022935Y018143D01*
X022834Y018143D02*
X022834Y017998D01*
X022786Y017950D01*
X022737Y017998D01*
X022689Y017950D01*
X022641Y017998D01*
X022641Y018143D01*
X022539Y018143D02*
X022539Y017998D01*
X022491Y017950D01*
X022443Y017998D01*
X022394Y017950D01*
X022346Y017998D01*
X022346Y018143D01*
X022346Y017520D02*
X022531Y017520D01*
X022593Y017459D01*
X022593Y017397D01*
X022531Y017335D01*
X022346Y017335D01*
X022346Y017150D02*
X022531Y017150D01*
X022593Y017212D01*
X022593Y017273D01*
X022531Y017335D01*
X022714Y017335D02*
X022838Y017335D01*
X022714Y017150D02*
X022961Y017150D01*
X023083Y017150D02*
X023083Y017520D01*
X022961Y017520D02*
X022714Y017520D01*
X022714Y017150D01*
X023083Y017150D02*
X023329Y017150D01*
X023451Y017150D02*
X023451Y017520D01*
X023451Y017150D02*
X023698Y017150D01*
X022346Y017150D02*
X022346Y017520D01*
X021657Y018450D02*
X021754Y018547D01*
X021754Y018740D01*
X021560Y018740D02*
X021560Y018547D01*
X021657Y018450D01*
X021459Y018498D02*
X021411Y018450D01*
X021314Y018450D01*
X021266Y018498D01*
X021266Y018595D02*
X021362Y018643D01*
X021411Y018643D01*
X021459Y018595D01*
X021459Y018498D01*
X021266Y018595D02*
X021266Y018740D01*
X021459Y018740D01*
X021164Y018595D02*
X020971Y018595D01*
X021068Y018692D02*
X021068Y018498D01*
X021116Y019450D02*
X021164Y019498D01*
X021164Y019595D01*
X021068Y019595D01*
X021164Y019692D02*
X021116Y019740D01*
X021019Y019740D01*
X020971Y019692D01*
X020971Y019498D01*
X021019Y019450D01*
X021116Y019450D01*
X021266Y019450D02*
X021266Y019740D01*
X021411Y019740D01*
X021459Y019692D01*
X021459Y019595D01*
X021411Y019547D01*
X021266Y019547D01*
X021560Y019595D02*
X021657Y019643D01*
X021705Y019643D01*
X021754Y019595D01*
X021754Y019498D01*
X021705Y019450D01*
X021609Y019450D01*
X021560Y019498D01*
X021560Y019595D02*
X021560Y019740D01*
X021754Y019740D01*
X021705Y020450D02*
X021705Y020740D01*
X021560Y020595D01*
X021754Y020595D01*
X021459Y020595D02*
X021411Y020547D01*
X021266Y020547D01*
X021266Y020450D02*
X021266Y020740D01*
X021411Y020740D01*
X021459Y020692D01*
X021459Y020595D01*
X021164Y020595D02*
X021068Y020595D01*
X021164Y020595D02*
X021164Y020498D01*
X021116Y020450D01*
X021019Y020450D01*
X020971Y020498D01*
X020971Y020692D01*
X021019Y020740D01*
X021116Y020740D01*
X021164Y020692D01*
X021116Y021450D02*
X021164Y021498D01*
X021164Y021595D01*
X021068Y021595D01*
X021164Y021692D02*
X021116Y021740D01*
X021019Y021740D01*
X020971Y021692D01*
X020971Y021498D01*
X021019Y021450D01*
X021116Y021450D01*
X021266Y021450D02*
X021266Y021740D01*
X021411Y021740D01*
X021459Y021692D01*
X021459Y021595D01*
X021411Y021547D01*
X021266Y021547D01*
X021560Y021498D02*
X021609Y021450D01*
X021705Y021450D01*
X021754Y021498D01*
X021754Y021547D01*
X021705Y021595D01*
X021657Y021595D01*
X021705Y021595D02*
X021754Y021643D01*
X021754Y021692D01*
X021705Y021740D01*
X021609Y021740D01*
X021560Y021692D01*
X021926Y021698D02*
X022216Y021698D01*
X022216Y021650D02*
X022216Y021747D01*
X022168Y021846D02*
X022216Y021895D01*
X022216Y021992D01*
X022168Y022040D01*
X022168Y022141D02*
X022216Y022189D01*
X022216Y022286D01*
X022168Y022335D01*
X022119Y022335D01*
X022071Y022286D01*
X022071Y022189D01*
X022022Y022141D01*
X021974Y022141D01*
X021926Y022189D01*
X021926Y022286D01*
X021974Y022335D01*
X021926Y022436D02*
X021926Y022581D01*
X021974Y022629D01*
X022071Y022629D01*
X022119Y022581D01*
X022119Y022436D01*
X022216Y022436D02*
X021926Y022436D01*
X021974Y022040D02*
X021926Y021992D01*
X021926Y021895D01*
X021974Y021846D01*
X022168Y021846D01*
X021926Y021747D02*
X021926Y021650D01*
X027060Y018143D02*
X027060Y017950D01*
X027157Y017950D02*
X027157Y018095D01*
X027206Y018143D01*
X027254Y018095D01*
X027254Y017950D01*
X027157Y018095D02*
X027109Y018143D01*
X027060Y018143D01*
X028096Y017520D02*
X028096Y017150D01*
X028343Y017150D01*
X028464Y017150D02*
X028464Y017397D01*
X028588Y017520D01*
X028711Y017397D01*
X028711Y017150D01*
X028833Y017150D02*
X028833Y017520D01*
X028956Y017397D01*
X029079Y017520D01*
X029079Y017150D01*
X029201Y017150D02*
X029201Y017520D01*
X029386Y017520D01*
X029448Y017459D01*
X029448Y017335D01*
X029386Y017273D01*
X029201Y017273D01*
X029569Y017150D02*
X029816Y017150D01*
X029693Y017150D02*
X029693Y017520D01*
X029569Y017397D01*
X028711Y017335D02*
X028464Y017335D01*
X027316Y012065D02*
X027316Y011818D01*
X027069Y012065D01*
X027007Y012065D01*
X026946Y012003D01*
X026946Y011880D01*
X027007Y011818D01*
X027007Y011697D02*
X027254Y011697D01*
X027316Y011635D01*
X027316Y011512D01*
X027254Y011450D01*
X027007Y011450D01*
X026946Y011512D01*
X026946Y011635D01*
X027007Y011697D01*
X027193Y011573D02*
X027316Y011697D01*
X027243Y010720D02*
X027243Y010350D01*
X027366Y010350D02*
X027119Y010350D01*
X026936Y010473D02*
X026998Y010535D01*
X026998Y010659D01*
X026936Y010720D01*
X026751Y010720D01*
X026751Y010350D01*
X026629Y010350D02*
X026629Y010720D01*
X026506Y010597D01*
X026383Y010720D01*
X026383Y010350D01*
X026261Y010350D02*
X026261Y010597D01*
X026138Y010720D01*
X026014Y010597D01*
X026014Y010350D01*
X025893Y010350D02*
X025646Y010350D01*
X025646Y010720D01*
X026014Y010535D02*
X026261Y010535D01*
X026751Y010473D02*
X026936Y010473D01*
X027119Y010597D02*
X027243Y010720D01*
X029946Y011512D02*
X029946Y011635D01*
X030007Y011697D01*
X030254Y011697D01*
X030316Y011635D01*
X030316Y011512D01*
X030254Y011450D01*
X030007Y011450D01*
X029946Y011512D01*
X030193Y011573D02*
X030316Y011697D01*
X030316Y011818D02*
X030316Y012065D01*
X030316Y011942D02*
X029946Y011942D01*
X030069Y011818D01*
X030574Y010545D02*
X030526Y010497D01*
X030526Y010400D01*
X030574Y010352D01*
X030574Y010545D02*
X030622Y010545D01*
X030816Y010352D01*
X030816Y010545D01*
X030816Y010251D02*
X030816Y010057D01*
X030816Y010154D02*
X030526Y010154D01*
X030622Y010057D01*
X030574Y009956D02*
X030768Y009956D01*
X030816Y009908D01*
X030816Y009811D01*
X030768Y009763D01*
X030574Y009956D01*
X030526Y009908D01*
X030526Y009811D01*
X030574Y009763D01*
X030768Y009763D01*
X030816Y009661D02*
X030816Y009468D01*
X030622Y009661D01*
X030574Y009661D01*
X030526Y009613D01*
X030526Y009516D01*
X030574Y009468D01*
X030671Y009367D02*
X030671Y009173D01*
X030671Y009072D02*
X030671Y008927D01*
X030622Y008879D01*
X030574Y008879D01*
X030526Y008927D01*
X030526Y009024D01*
X030574Y009072D01*
X030768Y009072D01*
X030816Y009024D01*
X030816Y008927D01*
X030768Y008879D01*
X030816Y008777D02*
X030816Y008584D01*
X030622Y008777D01*
X030574Y008777D01*
X030526Y008729D01*
X030526Y008632D01*
X030574Y008584D01*
X030671Y008483D02*
X030671Y008289D01*
X030671Y008188D02*
X030671Y007995D01*
X030526Y008140D01*
X030816Y008140D01*
X030768Y007893D02*
X030574Y007893D01*
X030768Y007700D01*
X030816Y007748D01*
X030816Y007845D01*
X030768Y007893D01*
X030768Y007700D02*
X030574Y007700D01*
X030526Y007748D01*
X030526Y007845D01*
X030574Y007893D01*
X024316Y011512D02*
X024254Y011450D01*
X024007Y011450D01*
X023946Y011512D01*
X023946Y011635D01*
X024007Y011697D01*
X024254Y011697D01*
X024316Y011635D01*
X024316Y011512D01*
X024193Y011573D02*
X024316Y011697D01*
X024254Y011818D02*
X024316Y011880D01*
X024316Y012003D01*
X024254Y012065D01*
X024193Y012065D01*
X024131Y012003D01*
X024131Y011942D01*
X024131Y012003D02*
X024069Y012065D01*
X024007Y012065D01*
X023946Y012003D01*
X023946Y011880D01*
X024007Y011818D01*
X024081Y010720D02*
X024019Y010659D01*
X024081Y010720D02*
X024204Y010720D01*
X024266Y010659D01*
X024266Y010597D01*
X024019Y010350D01*
X024266Y010350D01*
X023898Y010535D02*
X023836Y010473D01*
X023651Y010473D01*
X023651Y010350D02*
X023651Y010720D01*
X023836Y010720D01*
X023898Y010659D01*
X023898Y010535D01*
X023529Y010720D02*
X023529Y010350D01*
X023283Y010350D02*
X023283Y010720D01*
X023406Y010597D01*
X023529Y010720D01*
X023161Y010597D02*
X023161Y010350D01*
X023161Y010535D02*
X022914Y010535D01*
X022914Y010597D02*
X023038Y010720D01*
X023161Y010597D01*
X022914Y010597D02*
X022914Y010350D01*
X022793Y010350D02*
X022546Y010350D01*
X022546Y010720D01*
X020998Y010350D02*
X020751Y010350D01*
X020751Y010720D01*
X020383Y010720D02*
X020383Y010350D01*
X020629Y010350D01*
X020261Y010350D02*
X020014Y010350D01*
X020014Y010720D01*
X020261Y010720D01*
X020138Y010535D02*
X020014Y010535D01*
X019893Y010473D02*
X019893Y010412D01*
X019831Y010350D01*
X019646Y010350D01*
X019646Y010720D01*
X019831Y010720D01*
X019893Y010659D01*
X019893Y010597D01*
X019831Y010535D01*
X019646Y010535D01*
X019831Y010535D02*
X019893Y010473D01*
X018380Y010535D02*
X018318Y010473D01*
X018133Y010473D01*
X018133Y010350D02*
X018133Y010720D01*
X018318Y010720D01*
X018380Y010659D01*
X018380Y010535D01*
X018257Y010473D02*
X018380Y010350D01*
X018012Y010350D02*
X017765Y010350D01*
X017765Y010720D01*
X018012Y010720D01*
X017888Y010535D02*
X017765Y010535D01*
X017643Y010535D02*
X017643Y010412D01*
X017582Y010350D01*
X017458Y010350D01*
X017396Y010412D01*
X017396Y010659D01*
X017458Y010720D01*
X017582Y010720D01*
X017643Y010659D01*
X017643Y010535D02*
X017520Y010535D01*
X017275Y010535D02*
X017275Y010412D01*
X017213Y010350D01*
X017090Y010350D01*
X017028Y010412D01*
X017028Y010659D01*
X017090Y010720D01*
X017213Y010720D01*
X017275Y010659D01*
X017275Y010535D02*
X017152Y010535D01*
X016906Y010350D02*
X016783Y010350D01*
X016844Y010350D02*
X016844Y010720D01*
X016783Y010720D02*
X016906Y010720D01*
X016661Y010659D02*
X016661Y010535D01*
X016599Y010473D01*
X016414Y010473D01*
X016414Y010350D02*
X016414Y010720D01*
X016599Y010720D01*
X016661Y010659D01*
X016538Y010473D02*
X016661Y010350D01*
X016169Y010350D02*
X016169Y010720D01*
X016046Y010720D02*
X016293Y010720D01*
X016346Y011213D02*
X016716Y011213D01*
X016716Y011460D01*
X016716Y011582D02*
X016716Y011829D01*
X016716Y011705D02*
X016346Y011705D01*
X016469Y011582D01*
X016407Y013213D02*
X016346Y013275D01*
X016346Y013399D01*
X016407Y013460D01*
X016407Y013582D02*
X016346Y013643D01*
X016346Y013767D01*
X016407Y013829D01*
X016469Y013829D01*
X016716Y013582D01*
X016716Y013829D01*
X016654Y013460D02*
X016716Y013399D01*
X016716Y013275D01*
X016654Y013213D01*
X016407Y013213D01*
X018046Y015600D02*
X018046Y015970D01*
X018231Y015970D01*
X018293Y015909D01*
X018293Y015785D01*
X018231Y015723D01*
X018046Y015723D01*
X018414Y015662D02*
X018414Y015909D01*
X018476Y015970D01*
X018599Y015970D01*
X018661Y015909D01*
X018661Y015662D01*
X018599Y015600D01*
X018476Y015600D01*
X018414Y015662D01*
X018783Y015600D02*
X018783Y015970D01*
X019029Y015970D02*
X019029Y015600D01*
X018906Y015723D01*
X018783Y015600D01*
X019151Y015600D02*
X019151Y015970D01*
X019398Y015970D01*
X019519Y015970D02*
X019704Y015970D01*
X019766Y015909D01*
X019766Y015785D01*
X019704Y015723D01*
X019519Y015723D01*
X019519Y015600D02*
X019519Y015970D01*
X019643Y015723D02*
X019766Y015600D01*
X019398Y015600D02*
X019151Y015600D01*
X019151Y015785D02*
X019274Y015785D01*
X020196Y015503D02*
X020196Y015380D01*
X020257Y015318D01*
X020257Y015197D02*
X020196Y015135D01*
X020196Y014950D01*
X020566Y014950D01*
X020566Y015135D01*
X020504Y015197D01*
X020257Y015197D01*
X020381Y015442D02*
X020381Y015503D01*
X020443Y015565D01*
X020504Y015565D01*
X020566Y015503D01*
X020566Y015380D01*
X020504Y015318D01*
X020381Y015503D02*
X020319Y015565D01*
X020257Y015565D01*
X020196Y015503D01*
X016216Y017025D02*
X016216Y017149D01*
X016154Y017210D01*
X016154Y017332D02*
X016216Y017393D01*
X016216Y017517D01*
X016154Y017579D01*
X016093Y017579D01*
X016031Y017517D01*
X016031Y017455D01*
X016031Y017517D02*
X015969Y017579D01*
X015907Y017579D01*
X015846Y017517D01*
X015846Y017393D01*
X015907Y017332D01*
X015907Y017210D02*
X015846Y017149D01*
X015846Y017025D01*
X015907Y016963D01*
X016154Y016963D01*
X016216Y017025D01*
X014180Y016950D02*
X014057Y017073D01*
X014118Y017073D02*
X013933Y017073D01*
X013933Y016950D02*
X013933Y017320D01*
X014118Y017320D01*
X014180Y017259D01*
X014180Y017135D01*
X014118Y017073D01*
X013812Y016950D02*
X013565Y016950D01*
X013565Y017320D01*
X013812Y017320D01*
X013688Y017135D02*
X013565Y017135D01*
X013443Y017135D02*
X013443Y017012D01*
X013382Y016950D01*
X013258Y016950D01*
X013196Y017012D01*
X013196Y017259D01*
X013258Y017320D01*
X013382Y017320D01*
X013443Y017259D01*
X013443Y017135D02*
X013320Y017135D01*
X013075Y017135D02*
X013075Y017012D01*
X013013Y016950D01*
X012890Y016950D01*
X012828Y017012D01*
X012828Y017259D01*
X012890Y017320D01*
X013013Y017320D01*
X013075Y017259D01*
X013075Y017135D02*
X012952Y017135D01*
X012706Y016950D02*
X012583Y016950D01*
X012644Y016950D02*
X012644Y017320D01*
X012583Y017320D02*
X012706Y017320D01*
X012461Y017259D02*
X012461Y017135D01*
X012399Y017073D01*
X012214Y017073D01*
X012214Y016950D02*
X012214Y017320D01*
X012399Y017320D01*
X012461Y017259D01*
X012338Y017073D02*
X012461Y016950D01*
X012093Y017320D02*
X011846Y017320D01*
X011969Y017320D02*
X011969Y016950D01*
X012894Y018450D02*
X012991Y018450D01*
X013039Y018498D01*
X013039Y018595D01*
X012943Y018595D01*
X013039Y018692D02*
X012991Y018740D01*
X012894Y018740D01*
X012846Y018692D01*
X012846Y018498D01*
X012894Y018450D01*
X013141Y018450D02*
X013141Y018740D01*
X013334Y018450D01*
X013334Y018740D01*
X013435Y018740D02*
X013580Y018740D01*
X013629Y018692D01*
X013629Y018498D01*
X013580Y018450D01*
X013435Y018450D01*
X013435Y018740D01*
X013484Y019450D02*
X013435Y019498D01*
X013629Y019692D01*
X013629Y019498D01*
X013580Y019450D01*
X013484Y019450D01*
X013435Y019498D02*
X013435Y019692D01*
X013484Y019740D01*
X013580Y019740D01*
X013629Y019692D01*
X013334Y019692D02*
X013334Y019595D01*
X013286Y019547D01*
X013141Y019547D01*
X013141Y019450D02*
X013141Y019740D01*
X013286Y019740D01*
X013334Y019692D01*
X013039Y019692D02*
X012991Y019740D01*
X012894Y019740D01*
X012846Y019692D01*
X012846Y019498D01*
X012894Y019450D01*
X012991Y019450D01*
X013039Y019498D01*
X013039Y019595D01*
X012943Y019595D01*
X012894Y020450D02*
X012991Y020450D01*
X013039Y020498D01*
X013039Y020595D01*
X012943Y020595D01*
X013039Y020692D02*
X012991Y020740D01*
X012894Y020740D01*
X012846Y020692D01*
X012846Y020498D01*
X012894Y020450D01*
X013141Y020450D02*
X013141Y020740D01*
X013286Y020740D01*
X013334Y020692D01*
X013334Y020595D01*
X013286Y020547D01*
X013141Y020547D01*
X013435Y020643D02*
X013532Y020740D01*
X013532Y020450D01*
X013435Y020450D02*
X013629Y020450D01*
X013629Y021450D02*
X013435Y021450D01*
X013629Y021643D01*
X013629Y021692D01*
X013580Y021740D01*
X013484Y021740D01*
X013435Y021692D01*
X013334Y021692D02*
X013334Y021595D01*
X013286Y021547D01*
X013141Y021547D01*
X013141Y021450D02*
X013141Y021740D01*
X013286Y021740D01*
X013334Y021692D01*
X013039Y021692D02*
X012991Y021740D01*
X012894Y021740D01*
X012846Y021692D01*
X012846Y021498D01*
X012894Y021450D01*
X012991Y021450D01*
X013039Y021498D01*
X013039Y021595D01*
X012943Y021595D01*
X009416Y020890D02*
X009416Y020793D01*
X009368Y020745D01*
X009271Y020745D02*
X009222Y020841D01*
X009222Y020890D01*
X009271Y020938D01*
X009368Y020938D01*
X009416Y020890D01*
X009271Y020745D02*
X009126Y020745D01*
X009126Y020938D01*
X009126Y020643D02*
X009126Y020547D01*
X009126Y020595D02*
X009368Y020595D01*
X009416Y020547D01*
X009416Y020498D01*
X009368Y020450D01*
X007316Y015565D02*
X007316Y015318D01*
X007316Y015442D02*
X006946Y015442D01*
X007069Y015318D01*
X007007Y015197D02*
X006946Y015135D01*
X006946Y015012D01*
X007007Y014950D01*
X007254Y014950D01*
X007316Y015012D01*
X007316Y015135D01*
X007254Y015197D01*
X007066Y012565D02*
X007066Y012318D01*
X007066Y012442D02*
X006696Y012442D01*
X006819Y012318D01*
X006757Y012197D02*
X006696Y012135D01*
X006696Y011950D01*
X007066Y011950D01*
X007066Y012135D01*
X007004Y012197D01*
X006757Y012197D01*
X008196Y012135D02*
X008196Y011950D01*
X008566Y011950D01*
X008566Y012135D01*
X008504Y012197D01*
X008257Y012197D01*
X008196Y012135D01*
X008257Y012318D02*
X008196Y012380D01*
X008196Y012503D01*
X008257Y012565D01*
X008319Y012565D01*
X008566Y012318D01*
X008566Y012565D01*
X010969Y010259D02*
X010969Y010012D01*
X010846Y010135D02*
X011093Y010135D01*
X011214Y010073D02*
X011338Y009950D01*
X011461Y010073D01*
X011461Y010320D01*
X011214Y010320D02*
X011214Y010073D01*
X012346Y010012D02*
X012408Y009950D01*
X012531Y009950D01*
X012593Y010012D01*
X012593Y010135D01*
X012469Y010135D01*
X012346Y010012D02*
X012346Y010259D01*
X012408Y010320D01*
X012531Y010320D01*
X012593Y010259D01*
X012714Y010320D02*
X012714Y009950D01*
X012961Y009950D02*
X012714Y010320D01*
X012961Y010320D02*
X012961Y009950D01*
X013083Y009950D02*
X013268Y009950D01*
X013329Y010012D01*
X013329Y010259D01*
X013268Y010320D01*
X013083Y010320D01*
X013083Y009950D01*
D13*
X012831Y011435D02*
X012081Y011435D01*
X012079Y011465D01*
X012074Y011495D01*
X012065Y011524D01*
X012052Y011551D01*
X012037Y011577D01*
X012018Y011601D01*
X011997Y011622D01*
X011973Y011641D01*
X011947Y011656D01*
X011920Y011669D01*
X011891Y011678D01*
X011861Y011683D01*
X011831Y011685D01*
X011801Y011683D01*
X011771Y011678D01*
X011742Y011669D01*
X011715Y011656D01*
X011689Y011641D01*
X011665Y011622D01*
X011644Y011601D01*
X011625Y011577D01*
X011610Y011551D01*
X011597Y011524D01*
X011588Y011495D01*
X011583Y011465D01*
X011581Y011435D01*
X010831Y011435D01*
X010831Y011685D01*
X010831Y012185D02*
X010831Y012685D01*
X010831Y013185D02*
X010831Y013685D01*
X010831Y014185D02*
X010831Y014685D01*
X010831Y015185D02*
X010831Y015435D01*
X012831Y015435D01*
X012831Y015185D01*
X012831Y014685D02*
X012831Y014185D01*
X012831Y013685D02*
X012831Y013185D01*
X012831Y012685D02*
X012831Y012185D01*
X012831Y011685D02*
X012831Y011435D01*
X014713Y014135D02*
X014713Y014285D01*
X014563Y014285D01*
X014713Y014285D02*
X014713Y014435D01*
X014713Y014285D02*
X014863Y014285D01*
X014091Y014935D02*
X014093Y015005D01*
X014099Y015075D01*
X014109Y015145D01*
X014123Y015213D01*
X014140Y015281D01*
X014162Y015348D01*
X014187Y015414D01*
X014216Y015478D01*
X014248Y015540D01*
X014284Y015600D01*
X014324Y015658D01*
X014366Y015714D01*
X014412Y015767D01*
X014460Y015818D01*
X014512Y015866D01*
X014566Y015911D01*
X014622Y015952D01*
X014681Y015991D01*
X014742Y016026D01*
X014804Y016058D01*
X014869Y016086D01*
X014934Y016110D01*
X015002Y016130D01*
X015070Y016147D01*
X015139Y016160D01*
X015208Y016169D01*
X015278Y016174D01*
X015349Y016175D01*
X015419Y016172D01*
X015489Y016165D01*
X015558Y016154D01*
X015626Y016139D01*
X015694Y016121D01*
X015761Y016098D01*
X015826Y016072D01*
X015889Y016042D01*
X015951Y016009D01*
X016011Y015972D01*
X016068Y015932D01*
X016124Y015889D01*
X016176Y015842D01*
X016226Y015793D01*
X016273Y015741D01*
X016317Y015686D01*
X016358Y015629D01*
X016396Y015570D01*
X016430Y015509D01*
X016461Y015446D01*
X016488Y015381D01*
X016511Y015315D01*
X016531Y015247D01*
X016547Y015179D01*
X016559Y015110D01*
X016567Y015040D01*
X016571Y014970D01*
X016571Y014900D01*
X016567Y014830D01*
X016559Y014760D01*
X016547Y014691D01*
X016531Y014623D01*
X016511Y014555D01*
X016488Y014489D01*
X016461Y014424D01*
X016430Y014361D01*
X016396Y014300D01*
X016358Y014241D01*
X016317Y014184D01*
X016273Y014129D01*
X016226Y014077D01*
X016176Y014028D01*
X016124Y013981D01*
X016068Y013938D01*
X016011Y013898D01*
X015951Y013861D01*
X015889Y013828D01*
X015826Y013798D01*
X015761Y013772D01*
X015694Y013749D01*
X015626Y013731D01*
X015558Y013716D01*
X015489Y013705D01*
X015419Y013698D01*
X015349Y013695D01*
X015278Y013696D01*
X015208Y013701D01*
X015139Y013710D01*
X015070Y013723D01*
X015002Y013740D01*
X014934Y013760D01*
X014869Y013784D01*
X014804Y013812D01*
X014742Y013844D01*
X014681Y013879D01*
X014622Y013918D01*
X014566Y013959D01*
X014512Y014004D01*
X014460Y014052D01*
X014412Y014103D01*
X014366Y014156D01*
X014324Y014212D01*
X014284Y014270D01*
X014248Y014330D01*
X014216Y014392D01*
X014187Y014456D01*
X014162Y014522D01*
X014140Y014589D01*
X014123Y014657D01*
X014109Y014725D01*
X014099Y014795D01*
X014093Y014865D01*
X014091Y014935D01*
X012831Y016335D02*
X012806Y016335D01*
X012831Y016335D02*
X012831Y016535D01*
X012806Y016535D01*
X011856Y016535D02*
X011831Y016535D01*
X011831Y016335D01*
X011856Y016335D01*
X010581Y016085D02*
X010581Y016785D01*
X010579Y016802D01*
X010575Y016819D01*
X010568Y016835D01*
X010558Y016849D01*
X010545Y016862D01*
X010531Y016872D01*
X010515Y016879D01*
X010498Y016883D01*
X010481Y016885D01*
X010331Y016885D01*
X010281Y016835D01*
X008381Y016835D01*
X008331Y016885D01*
X008181Y016885D01*
X008164Y016883D01*
X008147Y016879D01*
X008131Y016872D01*
X008117Y016862D01*
X008104Y016849D01*
X008094Y016835D01*
X008087Y016819D01*
X008083Y016802D01*
X008081Y016785D01*
X008081Y016085D01*
X008083Y016068D01*
X008087Y016051D01*
X008094Y016035D01*
X008104Y016021D01*
X008117Y016008D01*
X008131Y015998D01*
X008147Y015991D01*
X008164Y015987D01*
X008181Y015985D01*
X008331Y015985D01*
X008381Y016035D01*
X010281Y016035D01*
X010331Y015985D01*
X010481Y015985D01*
X010498Y015987D01*
X010515Y015991D01*
X010531Y015998D01*
X010545Y016008D01*
X010558Y016021D01*
X010568Y016035D01*
X010575Y016051D01*
X010579Y016068D01*
X010581Y016085D01*
X010481Y016985D02*
X010331Y016985D01*
X010281Y017035D01*
X008381Y017035D01*
X008331Y016985D01*
X008181Y016985D01*
X008164Y016987D01*
X008147Y016991D01*
X008131Y016998D01*
X008117Y017008D01*
X008104Y017021D01*
X008094Y017035D01*
X008087Y017051D01*
X008083Y017068D01*
X008081Y017085D01*
X008081Y017785D01*
X008083Y017802D01*
X008087Y017819D01*
X008094Y017835D01*
X008104Y017849D01*
X008117Y017862D01*
X008131Y017872D01*
X008147Y017879D01*
X008164Y017883D01*
X008181Y017885D01*
X008331Y017885D01*
X008381Y017835D01*
X010281Y017835D01*
X010331Y017885D01*
X010481Y017885D01*
X010481Y017935D02*
X009731Y017935D01*
X009729Y017974D01*
X009723Y018013D01*
X009714Y018051D01*
X009701Y018088D01*
X009684Y018124D01*
X009664Y018157D01*
X009640Y018189D01*
X009614Y018218D01*
X009585Y018244D01*
X009553Y018268D01*
X009520Y018288D01*
X009484Y018305D01*
X009447Y018318D01*
X009409Y018327D01*
X009370Y018333D01*
X009331Y018335D01*
X009292Y018333D01*
X009253Y018327D01*
X009215Y018318D01*
X009178Y018305D01*
X009142Y018288D01*
X009109Y018268D01*
X009077Y018244D01*
X009048Y018218D01*
X009022Y018189D01*
X008998Y018157D01*
X008978Y018124D01*
X008961Y018088D01*
X008948Y018051D01*
X008939Y018013D01*
X008933Y017974D01*
X008931Y017935D01*
X008181Y017935D01*
X008181Y019935D01*
X010481Y019935D01*
X010481Y017935D01*
X010481Y017885D02*
X010498Y017883D01*
X010515Y017879D01*
X010531Y017872D01*
X010545Y017862D01*
X010558Y017849D01*
X010568Y017835D01*
X010575Y017819D01*
X010579Y017802D01*
X010581Y017785D01*
X010581Y017085D01*
X010579Y017068D01*
X010575Y017051D01*
X010568Y017035D01*
X010558Y017021D01*
X010545Y017008D01*
X010531Y016998D01*
X010515Y016991D01*
X010498Y016987D01*
X010481Y016985D01*
X009031Y014935D02*
X009031Y014735D01*
X008931Y014835D02*
X009131Y014835D01*
X007331Y014435D02*
X007333Y014498D01*
X007339Y014560D01*
X007349Y014622D01*
X007362Y014684D01*
X007380Y014744D01*
X007401Y014803D01*
X007426Y014861D01*
X007455Y014917D01*
X007487Y014971D01*
X007522Y015023D01*
X007560Y015072D01*
X007602Y015120D01*
X007646Y015164D01*
X007694Y015206D01*
X007743Y015244D01*
X007795Y015279D01*
X007849Y015311D01*
X007905Y015340D01*
X007963Y015365D01*
X008022Y015386D01*
X008082Y015404D01*
X008144Y015417D01*
X008206Y015427D01*
X008268Y015433D01*
X008331Y015435D01*
X008394Y015433D01*
X008456Y015427D01*
X008518Y015417D01*
X008580Y015404D01*
X008640Y015386D01*
X008699Y015365D01*
X008757Y015340D01*
X008813Y015311D01*
X008867Y015279D01*
X008919Y015244D01*
X008968Y015206D01*
X009016Y015164D01*
X009060Y015120D01*
X009102Y015072D01*
X009140Y015023D01*
X009175Y014971D01*
X009207Y014917D01*
X009236Y014861D01*
X009261Y014803D01*
X009282Y014744D01*
X009300Y014684D01*
X009313Y014622D01*
X009323Y014560D01*
X009329Y014498D01*
X009331Y014435D01*
X009329Y014372D01*
X009323Y014310D01*
X009313Y014248D01*
X009300Y014186D01*
X009282Y014126D01*
X009261Y014067D01*
X009236Y014009D01*
X009207Y013953D01*
X009175Y013899D01*
X009140Y013847D01*
X009102Y013798D01*
X009060Y013750D01*
X009016Y013706D01*
X008968Y013664D01*
X008919Y013626D01*
X008867Y013591D01*
X008813Y013559D01*
X008757Y013530D01*
X008699Y013505D01*
X008640Y013484D01*
X008580Y013466D01*
X008518Y013453D01*
X008456Y013443D01*
X008394Y013437D01*
X008331Y013435D01*
X008268Y013437D01*
X008206Y013443D01*
X008144Y013453D01*
X008082Y013466D01*
X008022Y013484D01*
X007963Y013505D01*
X007905Y013530D01*
X007849Y013559D01*
X007795Y013591D01*
X007743Y013626D01*
X007694Y013664D01*
X007646Y013706D01*
X007602Y013750D01*
X007560Y013798D01*
X007522Y013847D01*
X007487Y013899D01*
X007455Y013953D01*
X007426Y014009D01*
X007401Y014067D01*
X007380Y014126D01*
X007362Y014186D01*
X007349Y014248D01*
X007339Y014310D01*
X007333Y014372D01*
X007331Y014435D01*
X007831Y011735D02*
X006831Y011735D01*
X006831Y010135D01*
X007831Y010135D01*
X007831Y011735D01*
X007331Y011185D02*
X007331Y010935D01*
X007081Y010935D01*
X007331Y010935D02*
X007081Y010535D01*
X007581Y010535D01*
X007331Y010935D01*
X007581Y010935D01*
X007331Y010935D02*
X007331Y010335D01*
X008331Y010135D02*
X009331Y010135D01*
X009331Y011735D01*
X008331Y011735D01*
X008331Y010135D01*
X008831Y010685D02*
X008831Y010935D01*
X009081Y010935D01*
X008831Y010935D02*
X008581Y010935D01*
X008831Y010935D02*
X008581Y011335D01*
X009081Y011335D01*
X008831Y010935D01*
X008831Y011535D01*
X016331Y017935D02*
X016331Y018185D01*
X016331Y017935D02*
X017081Y017935D01*
X017083Y017965D01*
X017088Y017995D01*
X017097Y018024D01*
X017110Y018051D01*
X017125Y018077D01*
X017144Y018101D01*
X017165Y018122D01*
X017189Y018141D01*
X017215Y018156D01*
X017242Y018169D01*
X017271Y018178D01*
X017301Y018183D01*
X017331Y018185D01*
X017361Y018183D01*
X017391Y018178D01*
X017420Y018169D01*
X017447Y018156D01*
X017473Y018141D01*
X017497Y018122D01*
X017518Y018101D01*
X017537Y018077D01*
X017552Y018051D01*
X017565Y018024D01*
X017574Y017995D01*
X017579Y017965D01*
X017581Y017935D01*
X018331Y017935D01*
X018331Y018185D01*
X018331Y018685D02*
X018331Y019185D01*
X018331Y019685D02*
X018331Y020185D01*
X018331Y020685D02*
X018331Y021185D01*
X018331Y021685D02*
X018331Y021935D01*
X016331Y021935D01*
X016331Y021685D01*
X016331Y021185D02*
X016331Y020685D01*
X016331Y020185D02*
X016331Y019685D01*
X016331Y019185D02*
X016331Y018685D01*
X016681Y017635D02*
X017981Y017635D01*
X018007Y017633D01*
X018033Y017628D01*
X018058Y017620D01*
X018081Y017608D01*
X018103Y017594D01*
X018122Y017576D01*
X018140Y017557D01*
X018154Y017535D01*
X018166Y017512D01*
X018174Y017487D01*
X018179Y017461D01*
X018181Y017435D01*
X018181Y016935D01*
X018179Y016909D01*
X018174Y016883D01*
X018166Y016858D01*
X018154Y016835D01*
X018140Y016813D01*
X018122Y016794D01*
X018103Y016776D01*
X018081Y016762D01*
X018058Y016750D01*
X018033Y016742D01*
X018007Y016737D01*
X017981Y016735D01*
X016681Y016735D01*
X016655Y016737D01*
X016629Y016742D01*
X016604Y016750D01*
X016581Y016762D01*
X016559Y016776D01*
X016540Y016794D01*
X016522Y016813D01*
X016508Y016835D01*
X016496Y016858D01*
X016488Y016883D01*
X016483Y016909D01*
X016481Y016935D01*
X016481Y017435D01*
X016483Y017461D01*
X016488Y017487D01*
X016496Y017512D01*
X016508Y017535D01*
X016522Y017557D01*
X016540Y017576D01*
X016559Y017594D01*
X016581Y017608D01*
X016604Y017620D01*
X016629Y017628D01*
X016655Y017633D01*
X016681Y017635D01*
X016981Y015185D02*
X017681Y015185D01*
X017698Y015183D01*
X017715Y015179D01*
X017731Y015172D01*
X017745Y015162D01*
X017758Y015149D01*
X017768Y015135D01*
X017775Y015119D01*
X017779Y015102D01*
X017781Y015085D01*
X017781Y014935D01*
X017731Y014885D01*
X017731Y012985D01*
X017781Y012935D01*
X017781Y012785D01*
X017779Y012768D01*
X017775Y012751D01*
X017768Y012735D01*
X017758Y012721D01*
X017745Y012708D01*
X017731Y012698D01*
X017715Y012691D01*
X017698Y012687D01*
X017681Y012685D01*
X016981Y012685D01*
X016964Y012687D01*
X016947Y012691D01*
X016931Y012698D01*
X016917Y012708D01*
X016904Y012721D01*
X016894Y012735D01*
X016887Y012751D01*
X016883Y012768D01*
X016881Y012785D01*
X016881Y012935D01*
X016931Y012985D01*
X016931Y014885D01*
X016881Y014935D01*
X016881Y015085D01*
X016883Y015102D01*
X016887Y015119D01*
X016894Y015135D01*
X016904Y015149D01*
X016917Y015162D01*
X016931Y015172D01*
X016947Y015179D01*
X016964Y015183D01*
X016981Y015185D01*
X020331Y014735D02*
X020331Y013135D01*
X021331Y013135D01*
X021331Y014735D01*
X020331Y014735D01*
X020581Y014335D02*
X020831Y013935D01*
X021081Y013935D01*
X020831Y013935D02*
X020581Y013935D01*
X020831Y013935D02*
X020831Y014535D01*
X021081Y014335D02*
X020831Y013935D01*
X020831Y013685D01*
X020581Y014335D02*
X021081Y014335D01*
X022731Y015935D02*
X022731Y015960D01*
X022731Y015935D02*
X022931Y015935D01*
X022931Y015960D01*
X022931Y016910D02*
X022931Y016935D01*
X022731Y016935D01*
X022731Y016910D01*
X023881Y016085D02*
X023881Y015935D01*
X023931Y015885D01*
X023931Y013985D01*
X023881Y013935D01*
X023881Y013785D01*
X023883Y013768D01*
X023887Y013751D01*
X023894Y013735D01*
X023904Y013721D01*
X023917Y013708D01*
X023931Y013698D01*
X023947Y013691D01*
X023964Y013687D01*
X023981Y013685D01*
X024681Y013685D01*
X024698Y013687D01*
X024715Y013691D01*
X024731Y013698D01*
X024745Y013708D01*
X024758Y013721D01*
X024768Y013735D01*
X024775Y013751D01*
X024779Y013768D01*
X024781Y013785D01*
X024781Y013935D01*
X024731Y013985D01*
X024731Y015885D01*
X024781Y015935D01*
X024781Y016085D01*
X024779Y016102D01*
X024775Y016119D01*
X024768Y016135D01*
X024758Y016149D01*
X024745Y016162D01*
X024731Y016172D01*
X024715Y016179D01*
X024698Y016183D01*
X024681Y016185D01*
X023981Y016185D01*
X023964Y016183D01*
X023947Y016179D01*
X023931Y016172D01*
X023917Y016162D01*
X023904Y016149D01*
X023894Y016135D01*
X023887Y016119D01*
X023883Y016102D01*
X023881Y016085D01*
X025731Y015960D02*
X025731Y015935D01*
X025931Y015935D01*
X025931Y015960D01*
X025931Y016910D02*
X025931Y016935D01*
X025731Y016935D01*
X025731Y016910D01*
X026881Y016085D02*
X026881Y015935D01*
X026931Y015885D01*
X026931Y013985D01*
X026881Y013935D01*
X026881Y013785D01*
X026883Y013768D01*
X026887Y013751D01*
X026894Y013735D01*
X026904Y013721D01*
X026917Y013708D01*
X026931Y013698D01*
X026947Y013691D01*
X026964Y013687D01*
X026981Y013685D01*
X027681Y013685D01*
X027698Y013687D01*
X027715Y013691D01*
X027731Y013698D01*
X027745Y013708D01*
X027758Y013721D01*
X027768Y013735D01*
X027775Y013751D01*
X027779Y013768D01*
X027781Y013785D01*
X027781Y013935D01*
X027731Y013985D01*
X027731Y015885D01*
X027781Y015935D01*
X027781Y016085D01*
X027779Y016102D01*
X027775Y016119D01*
X027768Y016135D01*
X027758Y016149D01*
X027745Y016162D01*
X027731Y016172D01*
X027715Y016179D01*
X027698Y016183D01*
X027681Y016185D01*
X026981Y016185D01*
X026964Y016183D01*
X026947Y016179D01*
X026931Y016172D01*
X026917Y016162D01*
X026904Y016149D01*
X026894Y016135D01*
X026887Y016119D01*
X026883Y016102D01*
X026881Y016085D01*
X028731Y015960D02*
X028731Y015935D01*
X028931Y015935D01*
X028931Y015960D01*
X028931Y016910D02*
X028931Y016935D01*
X028731Y016935D01*
X028731Y016910D01*
X029881Y016085D02*
X029881Y015935D01*
X029931Y015885D01*
X029931Y013985D01*
X029881Y013935D01*
X029881Y013785D01*
X029883Y013768D01*
X029887Y013751D01*
X029894Y013735D01*
X029904Y013721D01*
X029917Y013708D01*
X029931Y013698D01*
X029947Y013691D01*
X029964Y013687D01*
X029981Y013685D01*
X030681Y013685D01*
X030698Y013687D01*
X030715Y013691D01*
X030731Y013698D01*
X030745Y013708D01*
X030758Y013721D01*
X030768Y013735D01*
X030775Y013751D01*
X030779Y013768D01*
X030781Y013785D01*
X030781Y013935D01*
X030731Y013985D01*
X030731Y015885D01*
X030781Y015935D01*
X030781Y016085D01*
X030779Y016102D01*
X030775Y016119D01*
X030768Y016135D01*
X030758Y016149D01*
X030745Y016162D01*
X030731Y016172D01*
X030715Y016179D01*
X030698Y016183D01*
X030681Y016185D01*
X029981Y016185D01*
X029964Y016183D01*
X029947Y016179D01*
X029931Y016172D01*
X029917Y016162D01*
X029904Y016149D01*
X029894Y016135D01*
X029887Y016119D01*
X029883Y016102D01*
X029881Y016085D01*
X025531Y018548D02*
X025447Y018465D01*
X025280Y018465D01*
X025197Y018548D01*
X025531Y018882D01*
X025531Y018548D01*
X025197Y018548D02*
X025197Y018882D01*
X025280Y018965D01*
X025447Y018965D01*
X025531Y018882D01*
X025023Y018548D02*
X025023Y018465D01*
X024939Y018465D01*
X024939Y018548D01*
X025023Y018548D01*
X024757Y018548D02*
X024757Y018632D01*
X024674Y018715D01*
X024424Y018715D01*
X024242Y018715D02*
X023908Y018715D01*
X023726Y018799D02*
X023559Y018465D01*
X023392Y018799D01*
X023210Y018715D02*
X023210Y018632D01*
X022877Y018632D01*
X022877Y018715D02*
X022960Y018799D01*
X023127Y018799D01*
X023210Y018715D01*
X023127Y018465D02*
X022960Y018465D01*
X022877Y018548D01*
X022877Y018715D01*
X022695Y018715D02*
X022611Y018632D01*
X022361Y018632D01*
X022528Y018632D02*
X022695Y018465D01*
X022695Y018715D02*
X022695Y018882D01*
X022611Y018965D01*
X022361Y018965D01*
X022361Y018465D01*
X024424Y018465D02*
X024674Y018465D01*
X024757Y018548D01*
X024674Y018715D02*
X024757Y018799D01*
X024757Y018882D01*
X024674Y018965D01*
X024424Y018965D01*
X024424Y018465D01*
D14*
X024924Y017688D02*
X023923Y017687D01*
X023652Y017686D02*
X023603Y017686D01*
X023332Y017686D02*
X022331Y017685D01*
X021831Y017685D01*
X022331Y017685D01*
X021831Y017685D02*
X021331Y017685D01*
X020081Y016435D02*
X018625Y016435D01*
X018354Y016435D02*
X018305Y016435D01*
X018034Y016435D02*
X016578Y016435D01*
X016307Y016435D02*
X016258Y016435D01*
X015987Y016435D02*
X014531Y016435D01*
X014331Y016435D02*
X014297Y016436D01*
X014263Y016433D01*
X014229Y016427D01*
X014197Y016417D01*
X014165Y016404D01*
X014135Y016388D01*
X014107Y016368D01*
X014081Y016346D01*
X014058Y016321D01*
X014037Y016294D01*
X014019Y016265D01*
X014005Y016234D01*
X013993Y016202D01*
X013985Y016169D01*
X013981Y016135D01*
X013979Y016093D01*
X013973Y016052D01*
X013964Y016012D01*
X013951Y015972D01*
X013934Y015934D01*
X013914Y015898D01*
X013890Y015864D01*
X013864Y015832D01*
X013834Y015802D01*
X013802Y015776D01*
X013768Y015752D01*
X013732Y015732D01*
X013694Y015715D01*
X013654Y015702D01*
X013614Y015693D01*
X013573Y015687D01*
X013531Y015685D01*
X006831Y015685D01*
X006831Y015686D02*
X006788Y015685D01*
X006746Y015681D01*
X006705Y015674D01*
X006664Y015663D01*
X006624Y015649D01*
X006586Y015632D01*
X006548Y015612D01*
X006513Y015589D01*
X006480Y015563D01*
X006449Y015535D01*
X006420Y015504D01*
X006394Y015471D01*
X006370Y015436D01*
X010331Y010935D02*
X011464Y010935D01*
X011735Y010935D02*
X011784Y010935D01*
X012054Y010935D02*
X013187Y010935D01*
X013458Y010935D02*
X013507Y010935D01*
X013778Y010935D02*
X014911Y010935D01*
X015181Y010935D02*
X015230Y010935D01*
X015501Y010935D02*
X016634Y010935D01*
X016905Y010935D02*
X016954Y010935D01*
X017225Y010935D02*
X018358Y010935D01*
X018628Y010935D02*
X018677Y010935D01*
X018948Y010935D02*
X020081Y010935D01*
X021176Y010931D01*
X021447Y010930D02*
X021496Y010930D01*
X021767Y010929D02*
X022862Y010925D01*
X023133Y010924D02*
X023182Y010924D01*
X023453Y010923D02*
X024548Y010919D01*
X024819Y010918D02*
X024868Y010918D01*
X025138Y010917D02*
X026234Y010913D01*
X026504Y010912D02*
X026553Y010912D01*
X026824Y010911D02*
X027919Y010907D01*
X028190Y010906D02*
X028239Y010906D01*
X028510Y010905D02*
X029605Y010901D01*
X029876Y010900D02*
X029925Y010900D01*
X030196Y010899D02*
X031291Y010895D01*
X029331Y014315D02*
X029281Y014315D01*
X028381Y014315D02*
X028331Y014315D01*
X026331Y014315D02*
X026281Y014315D01*
X025381Y014315D02*
X025331Y014315D01*
X023331Y014315D02*
X023281Y014315D01*
X022381Y014315D02*
X022331Y014315D01*
X020488Y017243D02*
X020523Y017278D01*
X020081Y016435D02*
X020081Y015935D01*
X020081Y014662D01*
X020081Y014391D02*
X020081Y014342D01*
X020081Y014071D02*
X020081Y012799D01*
X020081Y012528D02*
X020081Y012479D01*
X020081Y012208D02*
X020081Y010935D01*
X019431Y010135D02*
X021131Y010135D01*
X021173Y010138D01*
X021215Y010137D01*
X021256Y010132D01*
X021297Y010123D01*
X021337Y010110D01*
X021375Y010094D01*
X021412Y010074D01*
X021447Y010051D01*
X021480Y010025D01*
X021510Y009996D01*
X021537Y009965D01*
X021562Y009930D01*
X021583Y009894D01*
X021600Y009856D01*
X021614Y009817D01*
X021625Y009776D01*
X021631Y009735D01*
X022031Y009735D02*
X022037Y009776D01*
X022048Y009817D01*
X022062Y009856D01*
X022079Y009894D01*
X022100Y009930D01*
X022125Y009965D01*
X022152Y009996D01*
X022182Y010025D01*
X022215Y010051D01*
X022250Y010074D01*
X022287Y010094D01*
X022325Y010110D01*
X022365Y010123D01*
X022406Y010132D01*
X022447Y010137D01*
X022489Y010138D01*
X022531Y010135D01*
X024231Y010135D01*
X024273Y010138D01*
X024315Y010137D01*
X024356Y010132D01*
X024397Y010123D01*
X024437Y010110D01*
X024475Y010094D01*
X024512Y010074D01*
X024547Y010051D01*
X024580Y010025D01*
X024610Y009996D01*
X024637Y009965D01*
X024662Y009930D01*
X024683Y009894D01*
X024700Y009856D01*
X024714Y009817D01*
X024725Y009776D01*
X024731Y009735D01*
X025131Y009735D02*
X025137Y009776D01*
X025148Y009817D01*
X025162Y009856D01*
X025179Y009894D01*
X025200Y009930D01*
X025225Y009965D01*
X025252Y009996D01*
X025282Y010025D01*
X025315Y010051D01*
X025350Y010074D01*
X025387Y010094D01*
X025425Y010110D01*
X025465Y010123D01*
X025506Y010132D01*
X025547Y010137D01*
X025589Y010138D01*
X025631Y010135D01*
X027331Y010135D01*
X027373Y010138D01*
X027415Y010137D01*
X027456Y010132D01*
X027497Y010123D01*
X027537Y010110D01*
X027575Y010094D01*
X027612Y010074D01*
X027647Y010051D01*
X027680Y010025D01*
X027710Y009996D01*
X027737Y009965D01*
X027762Y009930D01*
X027783Y009894D01*
X027800Y009856D01*
X027814Y009817D01*
X027825Y009776D01*
X027831Y009735D01*
X021831Y017685D02*
X021760Y017695D01*
X021689Y017702D01*
X021617Y017706D01*
X021545Y017706D01*
X021473Y017702D01*
X021402Y017695D01*
X021331Y017685D01*
X021260Y017672D01*
X021190Y017655D01*
X021121Y017635D01*
X021053Y017611D01*
X020986Y017585D01*
X020921Y017555D01*
X020856Y017522D01*
X020794Y017487D01*
X020733Y017448D01*
X020318Y017033D02*
X020279Y016972D01*
X020244Y016910D01*
X020211Y016845D01*
X020181Y016780D01*
X020155Y016713D01*
X020131Y016645D01*
X020111Y016576D01*
X020094Y016506D01*
X020081Y016435D01*
X019331Y013815D02*
X019281Y013815D01*
X018381Y013815D02*
X018331Y013815D01*
X018031Y010135D02*
X016331Y010135D01*
X016289Y010138D01*
X016247Y010137D01*
X016206Y010132D01*
X016165Y010123D01*
X016125Y010110D01*
X016087Y010094D01*
X016050Y010074D01*
X016015Y010051D01*
X015982Y010025D01*
X015952Y009996D01*
X015925Y009965D01*
X015900Y009930D01*
X015879Y009894D01*
X015862Y009856D01*
X015848Y009817D01*
X015837Y009776D01*
X015831Y009735D01*
X018031Y010135D02*
X018073Y010138D01*
X018115Y010137D01*
X018156Y010132D01*
X018197Y010123D01*
X018237Y010110D01*
X018275Y010094D01*
X018312Y010074D01*
X018347Y010051D01*
X018380Y010025D01*
X018410Y009996D01*
X018437Y009965D01*
X018462Y009930D01*
X018483Y009894D01*
X018500Y009856D01*
X018514Y009817D01*
X018525Y009776D01*
X018531Y009735D01*
X018931Y009735D02*
X018937Y009776D01*
X018948Y009817D01*
X018962Y009856D01*
X018979Y009894D01*
X019000Y009930D01*
X019025Y009965D01*
X019052Y009996D01*
X019082Y010025D01*
X019115Y010051D01*
X019150Y010074D01*
X019187Y010094D01*
X019225Y010110D01*
X019265Y010123D01*
X019306Y010132D01*
X019347Y010137D01*
X019389Y010138D01*
X019431Y010135D01*
X025195Y017688D02*
X025244Y017688D01*
X025514Y017689D02*
X026516Y017690D01*
X026786Y017690D02*
X026835Y017690D01*
X027106Y017690D02*
X028107Y017691D01*
X028378Y017692D02*
X028427Y017692D01*
X028698Y017692D02*
X029699Y017693D01*
X029970Y017694D02*
X030019Y017694D01*
X030290Y017694D02*
X031291Y017695D01*
X010331Y010935D02*
X010287Y010933D01*
X010244Y010927D01*
X010202Y010918D01*
X010160Y010905D01*
X010120Y010888D01*
X010081Y010868D01*
X010044Y010845D01*
X010010Y010818D01*
X009977Y010789D01*
X009948Y010756D01*
X009921Y010722D01*
X009898Y010685D01*
X009878Y010646D01*
X009861Y010606D01*
X009848Y010564D01*
X009839Y010522D01*
X009833Y010479D01*
X009831Y010435D01*
X009831Y009935D01*
X009831Y008435D01*
X009829Y008391D01*
X009823Y008348D01*
X009814Y008306D01*
X009801Y008264D01*
X009784Y008224D01*
X009764Y008185D01*
X009741Y008148D01*
X009714Y008114D01*
X009685Y008081D01*
X009652Y008052D01*
X009618Y008025D01*
X009581Y008002D01*
X009542Y007982D01*
X009502Y007965D01*
X009460Y007952D01*
X009418Y007943D01*
X009375Y007937D01*
X009331Y007935D01*
X008146Y007935D01*
X007875Y007935D02*
X007826Y007935D01*
X007556Y007935D02*
X006371Y007935D01*
D15*
X010271Y009595D02*
X010271Y006195D01*
X010271Y006105D01*
X010271Y004895D01*
X013391Y004895D01*
X013391Y006105D01*
X013391Y006195D01*
X013391Y009595D01*
X010271Y009595D01*
X010271Y006195D02*
X010271Y006105D01*
X010271Y006195D02*
X013391Y006195D01*
X013391Y006105D01*
X012326Y005690D02*
X012326Y005240D01*
X012176Y005240D02*
X012476Y005240D01*
X012176Y005540D02*
X012326Y005690D01*
X010916Y005615D02*
X010916Y005540D01*
X010616Y005240D01*
X010916Y005240D01*
X010916Y005615D02*
X010841Y005690D01*
X010691Y005690D01*
X010616Y005615D01*
X015591Y006095D02*
X015591Y004885D01*
X028071Y004885D01*
X028071Y006095D01*
X028071Y009610D01*
X015591Y009610D01*
X015591Y006095D01*
X015591Y006185D01*
X028071Y006185D01*
X028071Y006095D01*
X027156Y005230D02*
X026856Y005230D01*
X027006Y005230D02*
X027006Y005680D01*
X026856Y005530D01*
X025596Y005530D02*
X025596Y005605D01*
X025521Y005680D01*
X025371Y005680D01*
X025296Y005605D01*
X025596Y005530D02*
X025296Y005230D01*
X025596Y005230D01*
X024036Y005305D02*
X023961Y005230D01*
X023811Y005230D01*
X023736Y005305D01*
X023886Y005455D02*
X023961Y005455D01*
X024036Y005380D01*
X024036Y005305D01*
X023961Y005455D02*
X024036Y005530D01*
X024036Y005605D01*
X023961Y005680D01*
X023811Y005680D01*
X023736Y005605D01*
X022476Y005455D02*
X022176Y005455D01*
X022401Y005680D01*
X022401Y005230D01*
X020916Y005305D02*
X020841Y005230D01*
X020691Y005230D01*
X020616Y005305D01*
X020616Y005455D02*
X020766Y005530D01*
X020841Y005530D01*
X020916Y005455D01*
X020916Y005305D01*
X020616Y005455D02*
X020616Y005680D01*
X020916Y005680D01*
X019356Y005680D02*
X019206Y005605D01*
X019056Y005455D01*
X019281Y005455D01*
X019356Y005380D01*
X019356Y005305D01*
X019281Y005230D01*
X019131Y005230D01*
X019056Y005305D01*
X019056Y005455D01*
X017796Y005605D02*
X017496Y005305D01*
X017496Y005230D01*
X017496Y005680D02*
X017796Y005680D01*
X017796Y005605D01*
X016236Y005605D02*
X016236Y005530D01*
X016161Y005455D01*
X016011Y005455D01*
X015936Y005530D01*
X015936Y005605D01*
X016011Y005680D01*
X016161Y005680D01*
X016236Y005605D01*
X016161Y005455D02*
X016236Y005380D01*
X016236Y005305D01*
X016161Y005230D01*
X016011Y005230D01*
X015936Y005305D01*
X015936Y005380D01*
X016011Y005455D01*
X022331Y010935D02*
X022331Y011035D01*
X022331Y010935D02*
X023331Y010935D01*
X023581Y011185D01*
X023581Y013685D01*
X023331Y013935D01*
X023331Y013835D01*
X023331Y013935D02*
X022331Y013935D01*
X022331Y013835D01*
X022331Y012935D02*
X022331Y012835D01*
X022331Y012035D02*
X022331Y011935D01*
X023331Y011935D02*
X023331Y012035D01*
X023331Y012835D02*
X023331Y012935D01*
X023331Y011035D02*
X023331Y010935D01*
X025331Y010935D02*
X025331Y011035D01*
X025331Y010935D02*
X026331Y010935D01*
X026581Y011185D01*
X026581Y013685D01*
X026331Y013935D01*
X026331Y013835D01*
X026331Y013935D02*
X025331Y013935D01*
X025331Y013835D01*
X025331Y012935D02*
X025331Y012835D01*
X025331Y012035D02*
X025331Y011935D01*
X026331Y011935D02*
X026331Y012035D01*
X026331Y012835D02*
X026331Y012935D01*
X026331Y011035D02*
X026331Y010935D01*
X028331Y010935D02*
X028331Y011035D01*
X028331Y010935D02*
X029331Y010935D01*
X029581Y011185D01*
X029581Y013685D01*
X029331Y013935D01*
X029331Y013835D01*
X029331Y013935D02*
X028331Y013935D01*
X028331Y013835D01*
X028331Y012935D02*
X028331Y012835D01*
X028331Y012035D02*
X028331Y011935D01*
X029331Y011935D02*
X029331Y012035D01*
X029331Y012835D02*
X029331Y012935D01*
X029331Y011035D02*
X029331Y010935D01*
X029511Y015665D02*
X029511Y015955D01*
X029661Y015815D02*
X029351Y015815D01*
X026661Y015815D02*
X026351Y015815D01*
X026511Y015955D02*
X026511Y015665D01*
X023661Y015815D02*
X023351Y015815D01*
X023511Y015955D02*
X023511Y015665D01*
X019661Y015315D02*
X019351Y015315D01*
X019511Y015455D02*
X019511Y015165D01*
X014367Y012425D02*
X014369Y012487D01*
X014375Y012550D01*
X014385Y012611D01*
X014399Y012672D01*
X014416Y012732D01*
X014437Y012791D01*
X014463Y012848D01*
X014491Y012903D01*
X014523Y012957D01*
X014559Y013008D01*
X014597Y013058D01*
X014639Y013104D01*
X014683Y013148D01*
X014731Y013189D01*
X014780Y013227D01*
X014832Y013261D01*
X014886Y013292D01*
X014942Y013320D01*
X015000Y013344D01*
X015059Y013365D01*
X015119Y013381D01*
X015180Y013394D01*
X015242Y013403D01*
X015304Y013408D01*
X015367Y013409D01*
X015429Y013406D01*
X015491Y013399D01*
X015553Y013388D01*
X015613Y013373D01*
X015673Y013355D01*
X015731Y013333D01*
X015788Y013307D01*
X015843Y013277D01*
X015896Y013244D01*
X015947Y013208D01*
X015995Y013169D01*
X016041Y013126D01*
X016084Y013081D01*
X016124Y013033D01*
X016161Y012983D01*
X016195Y012930D01*
X016226Y012876D01*
X016252Y012820D01*
X016276Y012762D01*
X016295Y012702D01*
X016311Y012642D01*
X016323Y012580D01*
X016331Y012519D01*
X016335Y012456D01*
X016335Y012394D01*
X016331Y012331D01*
X016323Y012270D01*
X016311Y012208D01*
X016295Y012148D01*
X016276Y012088D01*
X016252Y012030D01*
X016226Y011974D01*
X016195Y011920D01*
X016161Y011867D01*
X016124Y011817D01*
X016084Y011769D01*
X016041Y011724D01*
X015995Y011681D01*
X015947Y011642D01*
X015896Y011606D01*
X015843Y011573D01*
X015788Y011543D01*
X015731Y011517D01*
X015673Y011495D01*
X015613Y011477D01*
X015553Y011462D01*
X015491Y011451D01*
X015429Y011444D01*
X015367Y011441D01*
X015304Y011442D01*
X015242Y011447D01*
X015180Y011456D01*
X015119Y011469D01*
X015059Y011485D01*
X015000Y011506D01*
X014942Y011530D01*
X014886Y011558D01*
X014832Y011589D01*
X014780Y011623D01*
X014731Y011661D01*
X014683Y011702D01*
X014639Y011746D01*
X014597Y011792D01*
X014559Y011842D01*
X014523Y011893D01*
X014491Y011947D01*
X014463Y012002D01*
X014437Y012059D01*
X014416Y012118D01*
X014399Y012178D01*
X014385Y012239D01*
X014375Y012300D01*
X014369Y012363D01*
X014367Y012425D01*
X014554Y012415D02*
X014556Y012471D01*
X014562Y012526D01*
X014572Y012580D01*
X014585Y012634D01*
X014603Y012687D01*
X014624Y012738D01*
X014648Y012788D01*
X014676Y012836D01*
X014708Y012882D01*
X014742Y012926D01*
X014780Y012967D01*
X014820Y013005D01*
X014863Y013040D01*
X014908Y013072D01*
X014956Y013101D01*
X015005Y013127D01*
X015056Y013149D01*
X015108Y013167D01*
X015162Y013181D01*
X015217Y013192D01*
X015272Y013199D01*
X015327Y013202D01*
X015383Y013201D01*
X015438Y013196D01*
X015493Y013187D01*
X015547Y013175D01*
X015600Y013158D01*
X015652Y013138D01*
X015702Y013114D01*
X015750Y013087D01*
X015797Y013057D01*
X015841Y013023D01*
X015883Y012986D01*
X015921Y012946D01*
X015958Y012904D01*
X015991Y012859D01*
X016020Y012813D01*
X016047Y012764D01*
X016069Y012713D01*
X016089Y012661D01*
X016104Y012607D01*
X016116Y012553D01*
X016124Y012498D01*
X016128Y012443D01*
X016128Y012387D01*
X016124Y012332D01*
X016116Y012277D01*
X016104Y012223D01*
X016089Y012169D01*
X016069Y012117D01*
X016047Y012066D01*
X016020Y012017D01*
X015991Y011971D01*
X015958Y011926D01*
X015921Y011884D01*
X015883Y011844D01*
X015841Y011807D01*
X015797Y011773D01*
X015750Y011743D01*
X015702Y011716D01*
X015652Y011692D01*
X015600Y011672D01*
X015547Y011655D01*
X015493Y011643D01*
X015438Y011634D01*
X015383Y011629D01*
X015327Y011628D01*
X015272Y011631D01*
X015217Y011638D01*
X015162Y011649D01*
X015108Y011663D01*
X015056Y011681D01*
X015005Y011703D01*
X014956Y011729D01*
X014908Y011758D01*
X014863Y011790D01*
X014820Y011825D01*
X014780Y011863D01*
X014742Y011904D01*
X014708Y011948D01*
X014676Y011994D01*
X014648Y012042D01*
X014624Y012092D01*
X014603Y012143D01*
X014585Y012196D01*
X014572Y012250D01*
X014562Y012304D01*
X014556Y012359D01*
X014554Y012415D01*
X012581Y020435D02*
X012081Y020435D01*
X012081Y020935D01*
X010081Y020935D01*
X010081Y020435D01*
X009581Y020435D01*
X009581Y022635D01*
X012581Y022635D01*
X012581Y020435D01*
X012081Y020435D02*
X010081Y020435D01*
X022331Y020935D02*
X027831Y020935D01*
X028081Y020560D01*
X027581Y020560D01*
X027831Y020935D01*
X028331Y020935D01*
X028331Y021935D01*
X022331Y021935D01*
X022331Y020935D01*
X022331Y021935D02*
X022331Y022685D01*
X022831Y022685D01*
X027831Y022685D01*
X028331Y022685D01*
X028331Y021935D01*
X027860Y020892D02*
X027802Y020892D01*
X027770Y020843D02*
X027892Y020843D01*
X027925Y020795D02*
X027737Y020795D01*
X027705Y020746D02*
X027957Y020746D01*
X027989Y020698D02*
X027673Y020698D01*
X027640Y020649D02*
X028022Y020649D01*
X028054Y020601D02*
X027608Y020601D01*
D16*
X029181Y021435D02*
X029183Y021485D01*
X029189Y021535D01*
X029199Y021585D01*
X029212Y021633D01*
X029229Y021681D01*
X029250Y021727D01*
X029274Y021771D01*
X029302Y021813D01*
X029333Y021853D01*
X029367Y021890D01*
X029404Y021925D01*
X029443Y021956D01*
X029484Y021985D01*
X029528Y022010D01*
X029574Y022032D01*
X029621Y022050D01*
X029669Y022064D01*
X029718Y022075D01*
X029768Y022082D01*
X029818Y022085D01*
X029869Y022084D01*
X029919Y022079D01*
X029969Y022070D01*
X030017Y022058D01*
X030065Y022041D01*
X030111Y022021D01*
X030156Y021998D01*
X030199Y021971D01*
X030239Y021941D01*
X030277Y021908D01*
X030312Y021872D01*
X030345Y021833D01*
X030374Y021792D01*
X030400Y021749D01*
X030423Y021704D01*
X030442Y021657D01*
X030457Y021609D01*
X030469Y021560D01*
X030477Y021510D01*
X030481Y021460D01*
X030481Y021410D01*
X030477Y021360D01*
X030469Y021310D01*
X030457Y021261D01*
X030442Y021213D01*
X030423Y021166D01*
X030400Y021121D01*
X030374Y021078D01*
X030345Y021037D01*
X030312Y020998D01*
X030277Y020962D01*
X030239Y020929D01*
X030199Y020899D01*
X030156Y020872D01*
X030111Y020849D01*
X030065Y020829D01*
X030017Y020812D01*
X029969Y020800D01*
X029919Y020791D01*
X029869Y020786D01*
X029818Y020785D01*
X029768Y020788D01*
X029718Y020795D01*
X029669Y020806D01*
X029621Y020820D01*
X029574Y020838D01*
X029528Y020860D01*
X029484Y020885D01*
X029443Y020914D01*
X029404Y020945D01*
X029367Y020980D01*
X029333Y021017D01*
X029302Y021057D01*
X029274Y021099D01*
X029250Y021143D01*
X029229Y021189D01*
X029212Y021237D01*
X029199Y021285D01*
X029189Y021335D01*
X029183Y021385D01*
X029181Y021435D01*
X029181Y006435D02*
X029183Y006485D01*
X029189Y006535D01*
X029199Y006585D01*
X029212Y006633D01*
X029229Y006681D01*
X029250Y006727D01*
X029274Y006771D01*
X029302Y006813D01*
X029333Y006853D01*
X029367Y006890D01*
X029404Y006925D01*
X029443Y006956D01*
X029484Y006985D01*
X029528Y007010D01*
X029574Y007032D01*
X029621Y007050D01*
X029669Y007064D01*
X029718Y007075D01*
X029768Y007082D01*
X029818Y007085D01*
X029869Y007084D01*
X029919Y007079D01*
X029969Y007070D01*
X030017Y007058D01*
X030065Y007041D01*
X030111Y007021D01*
X030156Y006998D01*
X030199Y006971D01*
X030239Y006941D01*
X030277Y006908D01*
X030312Y006872D01*
X030345Y006833D01*
X030374Y006792D01*
X030400Y006749D01*
X030423Y006704D01*
X030442Y006657D01*
X030457Y006609D01*
X030469Y006560D01*
X030477Y006510D01*
X030481Y006460D01*
X030481Y006410D01*
X030477Y006360D01*
X030469Y006310D01*
X030457Y006261D01*
X030442Y006213D01*
X030423Y006166D01*
X030400Y006121D01*
X030374Y006078D01*
X030345Y006037D01*
X030312Y005998D01*
X030277Y005962D01*
X030239Y005929D01*
X030199Y005899D01*
X030156Y005872D01*
X030111Y005849D01*
X030065Y005829D01*
X030017Y005812D01*
X029969Y005800D01*
X029919Y005791D01*
X029869Y005786D01*
X029818Y005785D01*
X029768Y005788D01*
X029718Y005795D01*
X029669Y005806D01*
X029621Y005820D01*
X029574Y005838D01*
X029528Y005860D01*
X029484Y005885D01*
X029443Y005914D01*
X029404Y005945D01*
X029367Y005980D01*
X029333Y006017D01*
X029302Y006057D01*
X029274Y006099D01*
X029250Y006143D01*
X029229Y006189D01*
X029212Y006237D01*
X029199Y006285D01*
X029189Y006335D01*
X029183Y006385D01*
X029181Y006435D01*
X007181Y006435D02*
X007183Y006485D01*
X007189Y006535D01*
X007199Y006585D01*
X007212Y006633D01*
X007229Y006681D01*
X007250Y006727D01*
X007274Y006771D01*
X007302Y006813D01*
X007333Y006853D01*
X007367Y006890D01*
X007404Y006925D01*
X007443Y006956D01*
X007484Y006985D01*
X007528Y007010D01*
X007574Y007032D01*
X007621Y007050D01*
X007669Y007064D01*
X007718Y007075D01*
X007768Y007082D01*
X007818Y007085D01*
X007869Y007084D01*
X007919Y007079D01*
X007969Y007070D01*
X008017Y007058D01*
X008065Y007041D01*
X008111Y007021D01*
X008156Y006998D01*
X008199Y006971D01*
X008239Y006941D01*
X008277Y006908D01*
X008312Y006872D01*
X008345Y006833D01*
X008374Y006792D01*
X008400Y006749D01*
X008423Y006704D01*
X008442Y006657D01*
X008457Y006609D01*
X008469Y006560D01*
X008477Y006510D01*
X008481Y006460D01*
X008481Y006410D01*
X008477Y006360D01*
X008469Y006310D01*
X008457Y006261D01*
X008442Y006213D01*
X008423Y006166D01*
X008400Y006121D01*
X008374Y006078D01*
X008345Y006037D01*
X008312Y005998D01*
X008277Y005962D01*
X008239Y005929D01*
X008199Y005899D01*
X008156Y005872D01*
X008111Y005849D01*
X008065Y005829D01*
X008017Y005812D01*
X007969Y005800D01*
X007919Y005791D01*
X007869Y005786D01*
X007818Y005785D01*
X007768Y005788D01*
X007718Y005795D01*
X007669Y005806D01*
X007621Y005820D01*
X007574Y005838D01*
X007528Y005860D01*
X007484Y005885D01*
X007443Y005914D01*
X007404Y005945D01*
X007367Y005980D01*
X007333Y006017D01*
X007302Y006057D01*
X007274Y006099D01*
X007250Y006143D01*
X007229Y006189D01*
X007212Y006237D01*
X007199Y006285D01*
X007189Y006335D01*
X007183Y006385D01*
X007181Y006435D01*
X007181Y021435D02*
X007183Y021485D01*
X007189Y021535D01*
X007199Y021585D01*
X007212Y021633D01*
X007229Y021681D01*
X007250Y021727D01*
X007274Y021771D01*
X007302Y021813D01*
X007333Y021853D01*
X007367Y021890D01*
X007404Y021925D01*
X007443Y021956D01*
X007484Y021985D01*
X007528Y022010D01*
X007574Y022032D01*
X007621Y022050D01*
X007669Y022064D01*
X007718Y022075D01*
X007768Y022082D01*
X007818Y022085D01*
X007869Y022084D01*
X007919Y022079D01*
X007969Y022070D01*
X008017Y022058D01*
X008065Y022041D01*
X008111Y022021D01*
X008156Y021998D01*
X008199Y021971D01*
X008239Y021941D01*
X008277Y021908D01*
X008312Y021872D01*
X008345Y021833D01*
X008374Y021792D01*
X008400Y021749D01*
X008423Y021704D01*
X008442Y021657D01*
X008457Y021609D01*
X008469Y021560D01*
X008477Y021510D01*
X008481Y021460D01*
X008481Y021410D01*
X008477Y021360D01*
X008469Y021310D01*
X008457Y021261D01*
X008442Y021213D01*
X008423Y021166D01*
X008400Y021121D01*
X008374Y021078D01*
X008345Y021037D01*
X008312Y020998D01*
X008277Y020962D01*
X008239Y020929D01*
X008199Y020899D01*
X008156Y020872D01*
X008111Y020849D01*
X008065Y020829D01*
X008017Y020812D01*
X007969Y020800D01*
X007919Y020791D01*
X007869Y020786D01*
X007818Y020785D01*
X007768Y020788D01*
X007718Y020795D01*
X007669Y020806D01*
X007621Y020820D01*
X007574Y020838D01*
X007528Y020860D01*
X007484Y020885D01*
X007443Y020914D01*
X007404Y020945D01*
X007367Y020980D01*
X007333Y021017D01*
X007302Y021057D01*
X007274Y021099D01*
X007250Y021143D01*
X007229Y021189D01*
X007212Y021237D01*
X007199Y021285D01*
X007189Y021335D01*
X007183Y021385D01*
X007181Y021435D01*
D17*
X017201Y017485D02*
X017201Y016885D01*
X017451Y016885D02*
X017451Y017485D01*
D18*
X017331Y015355D03*
X017331Y012515D03*
X024331Y013515D03*
X024331Y016355D03*
X027331Y016355D03*
X027331Y013515D03*
X030331Y013515D03*
X030331Y016355D03*
D19*
X030381Y015302D02*
X030381Y014995D01*
X030151Y015225D01*
X030611Y015225D01*
X030611Y014841D02*
X030458Y014688D01*
X030458Y014764D02*
X030458Y014534D01*
X030611Y014534D02*
X030151Y014534D01*
X030151Y014764D01*
X030227Y014841D01*
X030381Y014841D01*
X030458Y014764D01*
X027611Y014841D02*
X027458Y014688D01*
X027458Y014764D02*
X027458Y014534D01*
X027611Y014534D02*
X027151Y014534D01*
X027151Y014764D01*
X027227Y014841D01*
X027381Y014841D01*
X027458Y014764D01*
X027534Y014995D02*
X027611Y015071D01*
X027611Y015225D01*
X027534Y015302D01*
X027381Y015302D01*
X027304Y015225D01*
X027304Y015148D01*
X027381Y014995D01*
X027151Y014995D01*
X027151Y015302D01*
X024511Y015225D02*
X024511Y015071D01*
X024434Y014995D01*
X024281Y014995D01*
X024281Y015225D01*
X024358Y015302D01*
X024434Y015302D01*
X024511Y015225D01*
X024281Y014995D02*
X024127Y015148D01*
X024051Y015302D01*
X024127Y014841D02*
X024281Y014841D01*
X024358Y014764D01*
X024358Y014534D01*
X024511Y014534D02*
X024051Y014534D01*
X024051Y014764D01*
X024127Y014841D01*
X024358Y014688D02*
X024511Y014841D01*
X028811Y009302D02*
X028811Y008995D01*
X028811Y009148D02*
X028351Y009148D01*
X028504Y008995D01*
X028351Y008841D02*
X028351Y008688D01*
X028351Y008764D02*
X028734Y008764D01*
X028811Y008688D01*
X028811Y008611D01*
X028734Y008534D01*
X017511Y013455D02*
X017051Y013455D01*
X017051Y013685D01*
X017127Y013762D01*
X017281Y013762D01*
X017358Y013685D01*
X017358Y013455D01*
X017358Y013608D02*
X017511Y013762D01*
X017511Y013915D02*
X017511Y014222D01*
X017511Y014069D02*
X017051Y014069D01*
X017204Y013915D01*
X014075Y009272D02*
X014075Y008965D01*
X013768Y009272D01*
X013691Y009272D01*
X013614Y009195D01*
X013614Y009041D01*
X013691Y008965D01*
X013614Y008811D02*
X013614Y008658D01*
X013614Y008734D02*
X013998Y008734D01*
X014075Y008658D01*
X014075Y008581D01*
X013998Y008504D01*
X011811Y013455D02*
X011811Y013608D01*
X011811Y013532D02*
X011351Y013532D01*
X011351Y013608D02*
X011351Y013455D01*
X011427Y013762D02*
X011351Y013839D01*
X011351Y013992D01*
X011427Y014069D01*
X011504Y014222D02*
X011351Y014376D01*
X011811Y014376D01*
X011811Y014529D02*
X011811Y014222D01*
X011734Y014069D02*
X011811Y013992D01*
X011811Y013839D01*
X011734Y013762D01*
X011427Y013762D01*
X009698Y016205D02*
X009391Y016205D01*
X009698Y016512D01*
X009698Y016589D01*
X009621Y016665D01*
X009467Y016665D01*
X009391Y016589D01*
X009237Y016589D02*
X009237Y016435D01*
X009160Y016358D01*
X008930Y016358D01*
X008930Y016205D02*
X008930Y016665D01*
X009160Y016665D01*
X009237Y016589D01*
X009084Y016358D02*
X009237Y016205D01*
X009237Y017205D02*
X009084Y017358D01*
X009160Y017358D02*
X008930Y017358D01*
X008930Y017205D02*
X008930Y017665D01*
X009160Y017665D01*
X009237Y017589D01*
X009237Y017435D01*
X009160Y017358D01*
X009391Y017282D02*
X009467Y017205D01*
X009621Y017205D01*
X009698Y017282D01*
X009698Y017358D01*
X009621Y017435D01*
X009544Y017435D01*
X009621Y017435D02*
X009698Y017512D01*
X009698Y017589D01*
X009621Y017665D01*
X009467Y017665D01*
X009391Y017589D01*
X009311Y018455D02*
X009311Y018608D01*
X009311Y018532D02*
X008851Y018532D01*
X008851Y018608D02*
X008851Y018455D01*
X008927Y018762D02*
X009234Y018762D01*
X009311Y018839D01*
X009311Y018992D01*
X009234Y019069D01*
X009311Y019222D02*
X009004Y019529D01*
X008927Y019529D01*
X008851Y019453D01*
X008851Y019299D01*
X008927Y019222D01*
X008927Y019069D02*
X008851Y018992D01*
X008851Y018839D01*
X008927Y018762D01*
X009311Y019222D02*
X009311Y019529D01*
X016851Y019532D02*
X017311Y019532D01*
X017311Y019608D02*
X017311Y019455D01*
X017234Y019762D02*
X016927Y019762D01*
X016851Y019839D01*
X016851Y019992D01*
X016927Y020069D01*
X016927Y020222D02*
X016851Y020299D01*
X016851Y020453D01*
X016927Y020529D01*
X017004Y020529D01*
X017081Y020453D01*
X017158Y020529D01*
X017234Y020529D01*
X017311Y020453D01*
X017311Y020299D01*
X017234Y020222D01*
X017234Y020069D02*
X017311Y019992D01*
X017311Y019839D01*
X017234Y019762D01*
X016851Y019608D02*
X016851Y019455D01*
X017081Y020376D02*
X017081Y020453D01*
X028601Y021205D02*
X028908Y021205D01*
X028754Y021205D02*
X028754Y021665D01*
X028601Y021512D01*
D20*
X028393Y015374D02*
X028426Y015336D01*
X028425Y015337D02*
X028396Y015309D01*
X028369Y015279D01*
X028344Y015246D01*
X028323Y015212D01*
X028304Y015176D01*
X028288Y015139D01*
X028275Y015101D01*
X028265Y015062D01*
X028259Y015022D01*
X028255Y014982D01*
X028255Y014941D01*
X028206Y014939D01*
X028205Y014939D01*
X028205Y014983D01*
X028209Y015028D01*
X028216Y015072D01*
X028227Y015115D01*
X028241Y015157D01*
X028259Y015198D01*
X028280Y015237D01*
X028303Y015275D01*
X028330Y015311D01*
X028360Y015344D01*
X028392Y015375D01*
X028398Y015368D01*
X028367Y015337D01*
X028337Y015305D01*
X028311Y015270D01*
X028287Y015233D01*
X028267Y015194D01*
X028250Y015154D01*
X028236Y015112D01*
X028225Y015070D01*
X028218Y015027D01*
X028214Y014983D01*
X028214Y014939D01*
X028223Y014940D01*
X028223Y014983D01*
X028227Y015026D01*
X028234Y015068D01*
X028244Y015110D01*
X028258Y015151D01*
X028275Y015190D01*
X028295Y015228D01*
X028318Y015265D01*
X028344Y015299D01*
X028373Y015331D01*
X028404Y015361D01*
X028410Y015354D01*
X028379Y015325D01*
X028351Y015293D01*
X028326Y015260D01*
X028303Y015224D01*
X028283Y015186D01*
X028266Y015147D01*
X028253Y015107D01*
X028243Y015066D01*
X028236Y015024D01*
X028232Y014982D01*
X028232Y014940D01*
X028241Y014940D01*
X028241Y014982D01*
X028245Y015023D01*
X028252Y015064D01*
X028262Y015105D01*
X028275Y015144D01*
X028291Y015183D01*
X028311Y015219D01*
X028333Y015254D01*
X028358Y015288D01*
X028386Y015319D01*
X028416Y015347D01*
X028422Y015340D01*
X028392Y015312D01*
X028365Y015282D01*
X028340Y015249D01*
X028318Y015215D01*
X028299Y015179D01*
X028283Y015141D01*
X028270Y015102D01*
X028260Y015063D01*
X028254Y015022D01*
X028250Y014982D01*
X028250Y014941D01*
X028206Y014931D02*
X028256Y014928D01*
X028255Y014929D02*
X028255Y014888D01*
X028259Y014848D01*
X028265Y014808D01*
X028275Y014769D01*
X028288Y014731D01*
X028304Y014694D01*
X028323Y014658D01*
X028344Y014624D01*
X028369Y014591D01*
X028396Y014561D01*
X028425Y014533D01*
X028393Y014496D01*
X028392Y014495D01*
X028360Y014526D01*
X028330Y014559D01*
X028303Y014595D01*
X028280Y014633D01*
X028259Y014672D01*
X028241Y014713D01*
X028227Y014755D01*
X028216Y014798D01*
X028209Y014842D01*
X028205Y014887D01*
X028205Y014931D01*
X028214Y014931D01*
X028214Y014887D01*
X028218Y014843D01*
X028225Y014800D01*
X028236Y014758D01*
X028250Y014716D01*
X028267Y014676D01*
X028287Y014637D01*
X028311Y014600D01*
X028337Y014565D01*
X028367Y014533D01*
X028398Y014502D01*
X028404Y014509D01*
X028373Y014539D01*
X028344Y014571D01*
X028318Y014605D01*
X028295Y014642D01*
X028275Y014680D01*
X028258Y014719D01*
X028244Y014760D01*
X028234Y014802D01*
X028227Y014844D01*
X028223Y014887D01*
X028223Y014930D01*
X028232Y014930D01*
X028232Y014888D01*
X028236Y014846D01*
X028243Y014804D01*
X028253Y014763D01*
X028266Y014723D01*
X028283Y014684D01*
X028303Y014646D01*
X028326Y014610D01*
X028351Y014577D01*
X028379Y014545D01*
X028410Y014516D01*
X028416Y014523D01*
X028386Y014551D01*
X028358Y014582D01*
X028333Y014616D01*
X028311Y014651D01*
X028291Y014687D01*
X028275Y014726D01*
X028262Y014765D01*
X028252Y014806D01*
X028245Y014847D01*
X028241Y014888D01*
X028241Y014930D01*
X028250Y014929D01*
X028250Y014888D01*
X028254Y014848D01*
X028260Y014807D01*
X028270Y014768D01*
X028283Y014729D01*
X028299Y014691D01*
X028318Y014655D01*
X028340Y014621D01*
X028365Y014588D01*
X028392Y014558D01*
X028422Y014530D01*
X029675Y014940D02*
X029585Y014940D01*
X029586Y014940D02*
X029584Y014994D01*
X029578Y015047D01*
X029568Y015100D01*
X029554Y015152D01*
X029537Y015203D01*
X029516Y015252D01*
X029492Y015300D01*
X029464Y015346D01*
X029433Y015390D01*
X029399Y015432D01*
X029363Y015471D01*
X029323Y015508D01*
X029281Y015541D01*
X029237Y015572D01*
X029191Y015599D01*
X029233Y015678D01*
X029282Y015650D01*
X029328Y015618D01*
X029373Y015583D01*
X029415Y015546D01*
X029455Y015505D01*
X029491Y015462D01*
X029525Y015417D01*
X029556Y015370D01*
X029583Y015320D01*
X029607Y015269D01*
X029628Y015217D01*
X029645Y015163D01*
X029658Y015108D01*
X029668Y015053D01*
X029674Y014996D01*
X029676Y014940D01*
X029667Y014940D01*
X029665Y014996D01*
X029659Y015051D01*
X029649Y015106D01*
X029636Y015161D01*
X029619Y015214D01*
X029599Y015266D01*
X029575Y015316D01*
X029548Y015365D01*
X029518Y015412D01*
X029484Y015457D01*
X029448Y015499D01*
X029409Y015539D01*
X029367Y015576D01*
X029323Y015611D01*
X029277Y015642D01*
X029229Y015670D01*
X029225Y015662D01*
X029272Y015634D01*
X029318Y015603D01*
X029361Y015569D01*
X029403Y015533D01*
X029441Y015493D01*
X029477Y015451D01*
X029510Y015407D01*
X029540Y015361D01*
X029567Y015312D01*
X029590Y015262D01*
X029611Y015211D01*
X029627Y015158D01*
X029640Y015105D01*
X029650Y015050D01*
X029656Y014995D01*
X029658Y014940D01*
X029649Y014940D01*
X029647Y014995D01*
X029641Y015049D01*
X029632Y015103D01*
X029619Y015156D01*
X029602Y015208D01*
X029582Y015259D01*
X029559Y015308D01*
X029532Y015356D01*
X029503Y015402D01*
X029470Y015446D01*
X029435Y015487D01*
X029396Y015526D01*
X029356Y015563D01*
X029313Y015596D01*
X029267Y015627D01*
X029220Y015654D01*
X029216Y015646D01*
X029263Y015619D01*
X029307Y015589D01*
X029350Y015556D01*
X029390Y015520D01*
X029428Y015481D01*
X029463Y015440D01*
X029495Y015397D01*
X029525Y015351D01*
X029551Y015304D01*
X029574Y015255D01*
X029594Y015205D01*
X029610Y015153D01*
X029623Y015101D01*
X029632Y015048D01*
X029638Y014994D01*
X029640Y014940D01*
X029631Y014940D01*
X029629Y014993D01*
X029623Y015046D01*
X029614Y015099D01*
X029601Y015151D01*
X029585Y015202D01*
X029566Y015252D01*
X029543Y015300D01*
X029517Y015347D01*
X029488Y015391D01*
X029456Y015434D01*
X029421Y015475D01*
X029384Y015513D01*
X029344Y015549D01*
X029302Y015582D01*
X029258Y015612D01*
X029212Y015639D01*
X029208Y015631D01*
X029253Y015604D01*
X029297Y015574D01*
X029338Y015542D01*
X029378Y015507D01*
X029415Y015469D01*
X029449Y015429D01*
X029481Y015386D01*
X029509Y015342D01*
X029535Y015296D01*
X029557Y015248D01*
X029577Y015199D01*
X029593Y015149D01*
X029605Y015097D01*
X029614Y015045D01*
X029620Y014993D01*
X029622Y014940D01*
X029613Y014940D01*
X029611Y014996D01*
X029604Y015051D01*
X029594Y015106D01*
X029580Y015160D01*
X029562Y015212D01*
X029541Y015264D01*
X029515Y015313D01*
X029487Y015361D01*
X029455Y015407D01*
X029420Y015450D01*
X029382Y015490D01*
X029341Y015528D01*
X029297Y015563D01*
X029251Y015594D01*
X029203Y015623D01*
X029199Y015615D01*
X029247Y015587D01*
X029292Y015556D01*
X029335Y015521D01*
X029375Y015484D01*
X029413Y015444D01*
X029448Y015401D01*
X029479Y015356D01*
X029508Y015309D01*
X029532Y015260D01*
X029554Y015209D01*
X029571Y015157D01*
X029585Y015104D01*
X029595Y015050D01*
X029602Y014995D01*
X029604Y014940D01*
X029595Y014940D01*
X029593Y014994D01*
X029587Y015048D01*
X029577Y015102D01*
X029563Y015154D01*
X029545Y015206D01*
X029524Y015256D01*
X029500Y015305D01*
X029472Y015351D01*
X029440Y015396D01*
X029406Y015438D01*
X029369Y015477D01*
X029329Y015514D01*
X029287Y015548D01*
X029242Y015579D01*
X029195Y015607D01*
X029456Y014939D02*
X029406Y014942D01*
X029407Y014941D02*
X029406Y014982D01*
X029403Y015024D01*
X029396Y015064D01*
X029386Y015104D01*
X029372Y015143D01*
X029356Y015181D01*
X029336Y015217D01*
X029313Y015252D01*
X029288Y015285D01*
X029260Y015315D01*
X029229Y015343D01*
X029261Y015381D01*
X029295Y015351D01*
X029326Y015317D01*
X029354Y015281D01*
X029379Y015243D01*
X029400Y015203D01*
X029419Y015162D01*
X029434Y015119D01*
X029445Y015075D01*
X029453Y015030D01*
X029456Y014984D01*
X029457Y014939D01*
X029448Y014939D01*
X029447Y014984D01*
X029444Y015029D01*
X029436Y015073D01*
X029425Y015116D01*
X029410Y015158D01*
X029392Y015199D01*
X029371Y015239D01*
X029346Y015276D01*
X029319Y015311D01*
X029288Y015344D01*
X029255Y015374D01*
X029250Y015368D01*
X029282Y015338D01*
X029312Y015305D01*
X029339Y015271D01*
X029363Y015234D01*
X029384Y015195D01*
X029402Y015155D01*
X029416Y015114D01*
X029427Y015071D01*
X029435Y015028D01*
X029438Y014984D01*
X029439Y014940D01*
X029430Y014940D01*
X029429Y014983D01*
X029426Y015026D01*
X029419Y015069D01*
X029408Y015111D01*
X029394Y015152D01*
X029376Y015191D01*
X029355Y015229D01*
X029332Y015266D01*
X029305Y015300D01*
X029276Y015331D01*
X029244Y015361D01*
X029238Y015354D01*
X029269Y015325D01*
X029298Y015294D01*
X029324Y015260D01*
X029348Y015225D01*
X029368Y015187D01*
X029385Y015149D01*
X029399Y015108D01*
X029410Y015067D01*
X029417Y015025D01*
X029420Y014983D01*
X029421Y014940D01*
X029412Y014941D01*
X029411Y014983D01*
X029408Y015024D01*
X029401Y015065D01*
X029391Y015106D01*
X029377Y015145D01*
X029360Y015183D01*
X029340Y015220D01*
X029317Y015255D01*
X029291Y015288D01*
X029263Y015318D01*
X029232Y015347D01*
X029299Y014532D02*
X029266Y014570D01*
X029267Y014569D02*
X029295Y014597D01*
X029320Y014628D01*
X029343Y014661D01*
X029362Y014695D01*
X029379Y014732D01*
X029391Y014770D01*
X029401Y014808D01*
X029406Y014848D01*
X029408Y014888D01*
X029406Y014928D01*
X029455Y014932D01*
X029456Y014933D01*
X029458Y014892D01*
X029457Y014852D01*
X029452Y014811D01*
X029444Y014772D01*
X029432Y014733D01*
X029417Y014695D01*
X029400Y014659D01*
X029379Y014624D01*
X029355Y014591D01*
X029329Y014560D01*
X029300Y014532D01*
X029294Y014538D01*
X029322Y014566D01*
X029348Y014597D01*
X029371Y014629D01*
X029392Y014663D01*
X029409Y014699D01*
X029424Y014736D01*
X029435Y014774D01*
X029443Y014813D01*
X029448Y014852D01*
X029449Y014892D01*
X029447Y014932D01*
X029438Y014931D01*
X029440Y014892D01*
X029439Y014853D01*
X029434Y014814D01*
X029426Y014776D01*
X029415Y014739D01*
X029401Y014702D01*
X029384Y014667D01*
X029364Y014634D01*
X029341Y014602D01*
X029316Y014573D01*
X029288Y014545D01*
X029282Y014552D01*
X029312Y014582D01*
X029339Y014614D01*
X029362Y014648D01*
X029383Y014685D01*
X029400Y014724D01*
X029414Y014763D01*
X029423Y014804D01*
X029429Y014846D01*
X029431Y014888D01*
X029429Y014930D01*
X029420Y014929D01*
X029422Y014888D01*
X029420Y014847D01*
X029414Y014806D01*
X029405Y014766D01*
X029392Y014727D01*
X029375Y014689D01*
X029355Y014653D01*
X029331Y014619D01*
X029305Y014588D01*
X029276Y014559D01*
X029270Y014565D01*
X029298Y014594D01*
X029324Y014625D01*
X029347Y014658D01*
X029367Y014693D01*
X029383Y014730D01*
X029396Y014768D01*
X029405Y014808D01*
X029411Y014847D01*
X029413Y014888D01*
X029411Y014928D01*
X028408Y015666D02*
X028453Y015588D01*
X028452Y015588D02*
X028408Y015560D01*
X028366Y015529D01*
X028326Y015496D01*
X028288Y015460D01*
X028253Y015421D01*
X028221Y015380D01*
X028191Y015336D01*
X028165Y015291D01*
X028142Y015244D01*
X028122Y015196D01*
X028106Y015146D01*
X028093Y015096D01*
X028084Y015044D01*
X028078Y014992D01*
X028076Y014940D01*
X027987Y014939D01*
X027986Y014940D01*
X027988Y014995D01*
X027994Y015049D01*
X028003Y015104D01*
X028016Y015157D01*
X028032Y015209D01*
X028051Y015261D01*
X028074Y015311D01*
X028100Y015359D01*
X028129Y015406D01*
X028161Y015450D01*
X028196Y015493D01*
X028234Y015533D01*
X028274Y015570D01*
X028316Y015605D01*
X028361Y015637D01*
X028407Y015666D01*
X028412Y015658D01*
X028366Y015630D01*
X028322Y015598D01*
X028280Y015563D01*
X028240Y015526D01*
X028203Y015487D01*
X028168Y015445D01*
X028137Y015401D01*
X028108Y015355D01*
X028082Y015307D01*
X028060Y015257D01*
X028040Y015207D01*
X028024Y015155D01*
X028012Y015102D01*
X028003Y015048D01*
X027997Y014994D01*
X027995Y014940D01*
X028004Y014940D01*
X028006Y014994D01*
X028012Y015047D01*
X028021Y015100D01*
X028033Y015152D01*
X028049Y015204D01*
X028068Y015254D01*
X028090Y015303D01*
X028116Y015350D01*
X028144Y015396D01*
X028176Y015439D01*
X028210Y015481D01*
X028246Y015520D01*
X028286Y015557D01*
X028327Y015591D01*
X028371Y015622D01*
X028416Y015651D01*
X028421Y015643D01*
X028373Y015613D01*
X028327Y015579D01*
X028284Y015543D01*
X028243Y015503D01*
X028205Y015461D01*
X028170Y015417D01*
X028138Y015370D01*
X028110Y015321D01*
X028085Y015270D01*
X028063Y015217D01*
X028046Y015164D01*
X028032Y015109D01*
X028022Y015053D01*
X028015Y014997D01*
X028013Y014940D01*
X028022Y014940D01*
X028024Y014996D01*
X028030Y015052D01*
X028040Y015107D01*
X028054Y015161D01*
X028072Y015214D01*
X028093Y015266D01*
X028118Y015317D01*
X028146Y015365D01*
X028177Y015411D01*
X028212Y015456D01*
X028249Y015497D01*
X028290Y015536D01*
X028332Y015572D01*
X028378Y015605D01*
X028425Y015635D01*
X028430Y015627D01*
X028383Y015598D01*
X028338Y015565D01*
X028296Y015529D01*
X028256Y015491D01*
X028219Y015450D01*
X028184Y015406D01*
X028153Y015360D01*
X028126Y015312D01*
X028101Y015263D01*
X028080Y015211D01*
X028063Y015159D01*
X028049Y015105D01*
X028039Y015050D01*
X028033Y014995D01*
X028031Y014940D01*
X028040Y014940D01*
X028042Y014995D01*
X028048Y015049D01*
X028058Y015103D01*
X028072Y015156D01*
X028089Y015208D01*
X028109Y015259D01*
X028134Y015308D01*
X028161Y015355D01*
X028192Y015401D01*
X028225Y015444D01*
X028262Y015485D01*
X028302Y015523D01*
X028344Y015558D01*
X028388Y015590D01*
X028434Y015619D01*
X028439Y015611D01*
X028393Y015583D01*
X028349Y015551D01*
X028308Y015516D01*
X028269Y015478D01*
X028232Y015438D01*
X028199Y015396D01*
X028169Y015351D01*
X028141Y015304D01*
X028118Y015255D01*
X028097Y015205D01*
X028080Y015154D01*
X028067Y015101D01*
X028057Y015048D01*
X028051Y014994D01*
X028049Y014940D01*
X028058Y014940D01*
X028060Y014993D01*
X028066Y015047D01*
X028076Y015099D01*
X028089Y015151D01*
X028106Y015202D01*
X028126Y015252D01*
X028149Y015300D01*
X028176Y015346D01*
X028206Y015390D01*
X028239Y015432D01*
X028275Y015472D01*
X028314Y015509D01*
X028355Y015544D01*
X028398Y015575D01*
X028443Y015604D01*
X028448Y015596D01*
X028403Y015568D01*
X028360Y015537D01*
X028320Y015503D01*
X028282Y015466D01*
X028246Y015427D01*
X028214Y015385D01*
X028184Y015341D01*
X028157Y015295D01*
X028134Y015248D01*
X028114Y015199D01*
X028097Y015149D01*
X028084Y015097D01*
X028075Y015045D01*
X028069Y014993D01*
X028067Y014940D01*
X027987Y014931D02*
X028077Y014931D01*
X028076Y014930D02*
X028078Y014876D01*
X028084Y014823D01*
X028094Y014770D01*
X028108Y014718D01*
X028125Y014667D01*
X028146Y014617D01*
X028170Y014569D01*
X028198Y014523D01*
X028229Y014479D01*
X028263Y014438D01*
X028300Y014398D01*
X028339Y014362D01*
X028282Y014294D01*
X028281Y014293D01*
X028240Y014331D01*
X028202Y014371D01*
X028166Y014414D01*
X028133Y014459D01*
X028103Y014506D01*
X028077Y014554D01*
X028053Y014605D01*
X028033Y014657D01*
X028017Y014710D01*
X028003Y014764D01*
X027994Y014819D01*
X027988Y014874D01*
X027986Y014930D01*
X027995Y014930D01*
X027997Y014875D01*
X028003Y014820D01*
X028012Y014766D01*
X028025Y014712D01*
X028042Y014660D01*
X028061Y014608D01*
X028085Y014558D01*
X028111Y014510D01*
X028141Y014464D01*
X028173Y014419D01*
X028208Y014377D01*
X028247Y014337D01*
X028287Y014300D01*
X028293Y014307D01*
X028253Y014344D01*
X028215Y014383D01*
X028180Y014425D01*
X028148Y014469D01*
X028119Y014515D01*
X028093Y014563D01*
X028070Y014612D01*
X028050Y014663D01*
X028034Y014715D01*
X028021Y014768D01*
X028012Y014821D01*
X028006Y014876D01*
X028004Y014930D01*
X028013Y014930D01*
X028015Y014876D01*
X028021Y014823D01*
X028030Y014770D01*
X028043Y014717D01*
X028059Y014666D01*
X028078Y014615D01*
X028101Y014567D01*
X028126Y014519D01*
X028155Y014474D01*
X028187Y014430D01*
X028222Y014389D01*
X028259Y014350D01*
X028299Y014314D01*
X028305Y014321D01*
X028265Y014357D01*
X028228Y014395D01*
X028194Y014436D01*
X028163Y014479D01*
X028134Y014524D01*
X028109Y014571D01*
X028086Y014619D01*
X028067Y014669D01*
X028051Y014720D01*
X028039Y014771D01*
X028030Y014824D01*
X028024Y014877D01*
X028022Y014930D01*
X028031Y014930D01*
X028033Y014877D01*
X028039Y014825D01*
X028048Y014773D01*
X028060Y014722D01*
X028076Y014672D01*
X028095Y014622D01*
X028117Y014575D01*
X028142Y014528D01*
X028170Y014484D01*
X028201Y014442D01*
X028235Y014401D01*
X028272Y014363D01*
X028310Y014328D01*
X028316Y014334D01*
X028278Y014370D01*
X028242Y014407D01*
X028208Y014447D01*
X028178Y014489D01*
X028150Y014533D01*
X028125Y014579D01*
X028103Y014626D01*
X028084Y014675D01*
X028069Y014724D01*
X028056Y014775D01*
X028048Y014826D01*
X028042Y014878D01*
X028040Y014930D01*
X028049Y014930D01*
X028051Y014874D01*
X028058Y014819D01*
X028068Y014764D01*
X028082Y014710D01*
X028100Y014657D01*
X028122Y014606D01*
X028147Y014556D01*
X028176Y014508D01*
X028208Y014463D01*
X028243Y014420D01*
X028281Y014379D01*
X028322Y014341D01*
X028328Y014348D01*
X028287Y014385D01*
X028250Y014426D01*
X028215Y014468D01*
X028183Y014513D01*
X028155Y014561D01*
X028130Y014610D01*
X028108Y014661D01*
X028091Y014713D01*
X028077Y014766D01*
X028067Y014820D01*
X028060Y014875D01*
X028058Y014930D01*
X028067Y014930D01*
X028069Y014876D01*
X028075Y014822D01*
X028085Y014768D01*
X028099Y014715D01*
X028117Y014664D01*
X028138Y014614D01*
X028163Y014565D01*
X028191Y014518D01*
X028222Y014474D01*
X028256Y014432D01*
X028294Y014392D01*
X028334Y014355D01*
X029375Y014290D02*
X029318Y014359D01*
X029318Y014358D02*
X029358Y014395D01*
X029396Y014434D01*
X029430Y014476D01*
X029462Y014520D01*
X029490Y014566D01*
X029515Y014615D01*
X029536Y014665D01*
X029554Y014716D01*
X029567Y014769D01*
X029577Y014822D01*
X029584Y014876D01*
X029586Y014930D01*
X029675Y014931D01*
X029676Y014930D01*
X029674Y014874D01*
X029668Y014818D01*
X029658Y014763D01*
X029645Y014708D01*
X029628Y014655D01*
X029608Y014602D01*
X029584Y014551D01*
X029557Y014502D01*
X029526Y014455D01*
X029493Y014410D01*
X029457Y014367D01*
X029418Y014327D01*
X029376Y014289D01*
X029370Y014296D01*
X029411Y014333D01*
X029450Y014373D01*
X029486Y014415D01*
X029519Y014460D01*
X029549Y014507D01*
X029576Y014555D01*
X029599Y014606D01*
X029620Y014658D01*
X029636Y014711D01*
X029649Y014765D01*
X029659Y014819D01*
X029665Y014874D01*
X029667Y014930D01*
X029658Y014930D01*
X029656Y014875D01*
X029650Y014820D01*
X029641Y014766D01*
X029628Y014713D01*
X029611Y014661D01*
X029591Y014609D01*
X029568Y014560D01*
X029541Y014511D01*
X029512Y014465D01*
X029479Y014421D01*
X029443Y014379D01*
X029405Y014340D01*
X029364Y014303D01*
X029359Y014310D01*
X029399Y014346D01*
X029437Y014385D01*
X029472Y014427D01*
X029504Y014470D01*
X029534Y014516D01*
X029560Y014564D01*
X029583Y014613D01*
X029603Y014663D01*
X029619Y014715D01*
X029632Y014768D01*
X029641Y014822D01*
X029647Y014876D01*
X029649Y014930D01*
X029640Y014930D01*
X029638Y014876D01*
X029632Y014823D01*
X029623Y014770D01*
X029610Y014718D01*
X029594Y014666D01*
X029575Y014616D01*
X029552Y014568D01*
X029526Y014521D01*
X029497Y014475D01*
X029465Y014432D01*
X029430Y014391D01*
X029393Y014353D01*
X029353Y014317D01*
X029347Y014324D01*
X029386Y014359D01*
X029423Y014397D01*
X029458Y014438D01*
X029489Y014481D01*
X029518Y014525D01*
X029544Y014572D01*
X029566Y014620D01*
X029586Y014669D01*
X029602Y014720D01*
X029614Y014772D01*
X029623Y014824D01*
X029629Y014877D01*
X029631Y014930D01*
X029622Y014930D01*
X029620Y014878D01*
X029614Y014825D01*
X029605Y014774D01*
X029593Y014723D01*
X029577Y014672D01*
X029558Y014623D01*
X029536Y014576D01*
X029510Y014530D01*
X029482Y014486D01*
X029451Y014444D01*
X029417Y014403D01*
X029380Y014366D01*
X029341Y014331D01*
X029335Y014337D01*
X029374Y014372D01*
X029410Y014410D01*
X029444Y014449D01*
X029475Y014491D01*
X029503Y014535D01*
X029528Y014580D01*
X029550Y014627D01*
X029569Y014675D01*
X029584Y014725D01*
X029597Y014775D01*
X029605Y014827D01*
X029611Y014878D01*
X029613Y014930D01*
X029604Y014930D01*
X029602Y014879D01*
X029597Y014828D01*
X029588Y014777D01*
X029576Y014727D01*
X029560Y014678D01*
X029542Y014631D01*
X029520Y014584D01*
X029495Y014539D01*
X029467Y014496D01*
X029437Y014455D01*
X029404Y014416D01*
X029368Y014379D01*
X029330Y014344D01*
X029324Y014351D01*
X029365Y014388D01*
X029403Y014428D01*
X029437Y014470D01*
X029469Y014515D01*
X029498Y014562D01*
X029523Y014611D01*
X029544Y014662D01*
X029562Y014713D01*
X029576Y014767D01*
X029586Y014821D01*
X029593Y014875D01*
X029595Y014930D01*
X026299Y014532D02*
X026266Y014570D01*
X026267Y014569D02*
X026295Y014597D01*
X026320Y014628D01*
X026343Y014661D01*
X026362Y014695D01*
X026379Y014732D01*
X026391Y014770D01*
X026401Y014808D01*
X026406Y014848D01*
X026408Y014888D01*
X026406Y014928D01*
X026455Y014932D01*
X026456Y014933D01*
X026458Y014892D01*
X026457Y014852D01*
X026452Y014811D01*
X026444Y014772D01*
X026432Y014733D01*
X026417Y014695D01*
X026400Y014659D01*
X026379Y014624D01*
X026355Y014591D01*
X026329Y014560D01*
X026300Y014532D01*
X026294Y014538D01*
X026322Y014566D01*
X026348Y014597D01*
X026371Y014629D01*
X026392Y014663D01*
X026409Y014699D01*
X026424Y014736D01*
X026435Y014774D01*
X026443Y014813D01*
X026448Y014852D01*
X026449Y014892D01*
X026447Y014932D01*
X026438Y014931D01*
X026440Y014892D01*
X026439Y014853D01*
X026434Y014814D01*
X026426Y014776D01*
X026415Y014739D01*
X026401Y014702D01*
X026384Y014667D01*
X026364Y014634D01*
X026341Y014602D01*
X026316Y014573D01*
X026288Y014545D01*
X026282Y014552D01*
X026312Y014582D01*
X026339Y014614D01*
X026362Y014648D01*
X026383Y014685D01*
X026400Y014724D01*
X026414Y014763D01*
X026423Y014804D01*
X026429Y014846D01*
X026431Y014888D01*
X026429Y014930D01*
X026420Y014929D01*
X026422Y014888D01*
X026420Y014847D01*
X026414Y014806D01*
X026405Y014766D01*
X026392Y014727D01*
X026375Y014689D01*
X026355Y014653D01*
X026331Y014619D01*
X026305Y014588D01*
X026276Y014559D01*
X026270Y014565D01*
X026298Y014594D01*
X026324Y014625D01*
X026347Y014658D01*
X026367Y014693D01*
X026383Y014730D01*
X026396Y014768D01*
X026405Y014808D01*
X026411Y014847D01*
X026413Y014888D01*
X026411Y014928D01*
X026456Y014939D02*
X026406Y014942D01*
X026407Y014941D02*
X026406Y014982D01*
X026403Y015024D01*
X026396Y015064D01*
X026386Y015104D01*
X026372Y015143D01*
X026356Y015181D01*
X026336Y015217D01*
X026313Y015252D01*
X026288Y015285D01*
X026260Y015315D01*
X026229Y015343D01*
X026261Y015381D01*
X026295Y015351D01*
X026326Y015317D01*
X026354Y015281D01*
X026379Y015243D01*
X026400Y015203D01*
X026419Y015162D01*
X026434Y015119D01*
X026445Y015075D01*
X026453Y015030D01*
X026456Y014984D01*
X026457Y014939D01*
X026448Y014939D01*
X026447Y014984D01*
X026444Y015029D01*
X026436Y015073D01*
X026425Y015116D01*
X026410Y015158D01*
X026392Y015199D01*
X026371Y015239D01*
X026346Y015276D01*
X026319Y015311D01*
X026288Y015344D01*
X026255Y015374D01*
X026250Y015368D01*
X026282Y015338D01*
X026312Y015305D01*
X026339Y015271D01*
X026363Y015234D01*
X026384Y015195D01*
X026402Y015155D01*
X026416Y015114D01*
X026427Y015071D01*
X026435Y015028D01*
X026438Y014984D01*
X026439Y014940D01*
X026430Y014940D01*
X026429Y014983D01*
X026426Y015026D01*
X026419Y015069D01*
X026408Y015111D01*
X026394Y015152D01*
X026376Y015191D01*
X026355Y015229D01*
X026332Y015266D01*
X026305Y015300D01*
X026276Y015331D01*
X026244Y015361D01*
X026238Y015354D01*
X026269Y015325D01*
X026298Y015294D01*
X026324Y015260D01*
X026348Y015225D01*
X026368Y015187D01*
X026385Y015149D01*
X026399Y015108D01*
X026410Y015067D01*
X026417Y015025D01*
X026420Y014983D01*
X026421Y014940D01*
X026412Y014941D01*
X026411Y014983D01*
X026408Y015024D01*
X026401Y015065D01*
X026391Y015106D01*
X026377Y015145D01*
X026360Y015183D01*
X026340Y015220D01*
X026317Y015255D01*
X026291Y015288D01*
X026263Y015318D01*
X026232Y015347D01*
X025408Y015666D02*
X025453Y015588D01*
X025452Y015588D02*
X025408Y015560D01*
X025366Y015529D01*
X025326Y015496D01*
X025288Y015460D01*
X025253Y015421D01*
X025221Y015380D01*
X025191Y015336D01*
X025165Y015291D01*
X025142Y015244D01*
X025122Y015196D01*
X025106Y015146D01*
X025093Y015096D01*
X025084Y015044D01*
X025078Y014992D01*
X025076Y014940D01*
X024987Y014939D01*
X024986Y014940D01*
X024988Y014995D01*
X024994Y015049D01*
X025003Y015104D01*
X025016Y015157D01*
X025032Y015209D01*
X025051Y015261D01*
X025074Y015311D01*
X025100Y015359D01*
X025129Y015406D01*
X025161Y015450D01*
X025196Y015493D01*
X025234Y015533D01*
X025274Y015570D01*
X025316Y015605D01*
X025361Y015637D01*
X025407Y015666D01*
X025412Y015658D01*
X025366Y015630D01*
X025322Y015598D01*
X025280Y015563D01*
X025240Y015526D01*
X025203Y015487D01*
X025168Y015445D01*
X025137Y015401D01*
X025108Y015355D01*
X025082Y015307D01*
X025060Y015257D01*
X025040Y015207D01*
X025024Y015155D01*
X025012Y015102D01*
X025003Y015048D01*
X024997Y014994D01*
X024995Y014940D01*
X025004Y014940D01*
X025006Y014994D01*
X025012Y015047D01*
X025021Y015100D01*
X025033Y015152D01*
X025049Y015204D01*
X025068Y015254D01*
X025090Y015303D01*
X025116Y015350D01*
X025144Y015396D01*
X025176Y015439D01*
X025210Y015481D01*
X025246Y015520D01*
X025286Y015557D01*
X025327Y015591D01*
X025371Y015622D01*
X025416Y015651D01*
X025421Y015643D01*
X025373Y015613D01*
X025327Y015579D01*
X025284Y015543D01*
X025243Y015503D01*
X025205Y015461D01*
X025170Y015417D01*
X025138Y015370D01*
X025110Y015321D01*
X025085Y015270D01*
X025063Y015217D01*
X025046Y015164D01*
X025032Y015109D01*
X025022Y015053D01*
X025015Y014997D01*
X025013Y014940D01*
X025022Y014940D01*
X025024Y014996D01*
X025030Y015052D01*
X025040Y015107D01*
X025054Y015161D01*
X025072Y015214D01*
X025093Y015266D01*
X025118Y015317D01*
X025146Y015365D01*
X025177Y015411D01*
X025212Y015456D01*
X025249Y015497D01*
X025290Y015536D01*
X025332Y015572D01*
X025378Y015605D01*
X025425Y015635D01*
X025430Y015627D01*
X025383Y015598D01*
X025338Y015565D01*
X025296Y015529D01*
X025256Y015491D01*
X025219Y015450D01*
X025184Y015406D01*
X025153Y015360D01*
X025126Y015312D01*
X025101Y015263D01*
X025080Y015211D01*
X025063Y015159D01*
X025049Y015105D01*
X025039Y015050D01*
X025033Y014995D01*
X025031Y014940D01*
X025040Y014940D01*
X025042Y014995D01*
X025048Y015049D01*
X025058Y015103D01*
X025072Y015156D01*
X025089Y015208D01*
X025109Y015259D01*
X025134Y015308D01*
X025161Y015355D01*
X025192Y015401D01*
X025225Y015444D01*
X025262Y015485D01*
X025302Y015523D01*
X025344Y015558D01*
X025388Y015590D01*
X025434Y015619D01*
X025439Y015611D01*
X025393Y015583D01*
X025349Y015551D01*
X025308Y015516D01*
X025269Y015478D01*
X025232Y015438D01*
X025199Y015396D01*
X025169Y015351D01*
X025141Y015304D01*
X025118Y015255D01*
X025097Y015205D01*
X025080Y015154D01*
X025067Y015101D01*
X025057Y015048D01*
X025051Y014994D01*
X025049Y014940D01*
X025058Y014940D01*
X025060Y014993D01*
X025066Y015047D01*
X025076Y015099D01*
X025089Y015151D01*
X025106Y015202D01*
X025126Y015252D01*
X025149Y015300D01*
X025176Y015346D01*
X025206Y015390D01*
X025239Y015432D01*
X025275Y015472D01*
X025314Y015509D01*
X025355Y015544D01*
X025398Y015575D01*
X025443Y015604D01*
X025448Y015596D01*
X025403Y015568D01*
X025360Y015537D01*
X025320Y015503D01*
X025282Y015466D01*
X025246Y015427D01*
X025214Y015385D01*
X025184Y015341D01*
X025157Y015295D01*
X025134Y015248D01*
X025114Y015199D01*
X025097Y015149D01*
X025084Y015097D01*
X025075Y015045D01*
X025069Y014993D01*
X025067Y014940D01*
X025393Y015374D02*
X025426Y015336D01*
X025425Y015337D02*
X025396Y015309D01*
X025369Y015279D01*
X025344Y015246D01*
X025323Y015212D01*
X025304Y015176D01*
X025288Y015139D01*
X025275Y015101D01*
X025265Y015062D01*
X025259Y015022D01*
X025255Y014982D01*
X025255Y014941D01*
X025206Y014939D01*
X025205Y014939D01*
X025205Y014983D01*
X025209Y015028D01*
X025216Y015072D01*
X025227Y015115D01*
X025241Y015157D01*
X025259Y015198D01*
X025280Y015237D01*
X025303Y015275D01*
X025330Y015311D01*
X025360Y015344D01*
X025392Y015375D01*
X025398Y015368D01*
X025367Y015337D01*
X025337Y015305D01*
X025311Y015270D01*
X025287Y015233D01*
X025267Y015194D01*
X025250Y015154D01*
X025236Y015112D01*
X025225Y015070D01*
X025218Y015027D01*
X025214Y014983D01*
X025214Y014939D01*
X025223Y014940D01*
X025223Y014983D01*
X025227Y015026D01*
X025234Y015068D01*
X025244Y015110D01*
X025258Y015151D01*
X025275Y015190D01*
X025295Y015228D01*
X025318Y015265D01*
X025344Y015299D01*
X025373Y015331D01*
X025404Y015361D01*
X025410Y015354D01*
X025379Y015325D01*
X025351Y015293D01*
X025326Y015260D01*
X025303Y015224D01*
X025283Y015186D01*
X025266Y015147D01*
X025253Y015107D01*
X025243Y015066D01*
X025236Y015024D01*
X025232Y014982D01*
X025232Y014940D01*
X025241Y014940D01*
X025241Y014982D01*
X025245Y015023D01*
X025252Y015064D01*
X025262Y015105D01*
X025275Y015144D01*
X025291Y015183D01*
X025311Y015219D01*
X025333Y015254D01*
X025358Y015288D01*
X025386Y015319D01*
X025416Y015347D01*
X025422Y015340D01*
X025392Y015312D01*
X025365Y015282D01*
X025340Y015249D01*
X025318Y015215D01*
X025299Y015179D01*
X025283Y015141D01*
X025270Y015102D01*
X025260Y015063D01*
X025254Y015022D01*
X025250Y014982D01*
X025250Y014941D01*
X025206Y014931D02*
X025256Y014928D01*
X025255Y014929D02*
X025255Y014888D01*
X025259Y014848D01*
X025265Y014808D01*
X025275Y014769D01*
X025288Y014731D01*
X025304Y014694D01*
X025323Y014658D01*
X025344Y014624D01*
X025369Y014591D01*
X025396Y014561D01*
X025425Y014533D01*
X025393Y014496D01*
X025392Y014495D01*
X025360Y014526D01*
X025330Y014559D01*
X025303Y014595D01*
X025280Y014633D01*
X025259Y014672D01*
X025241Y014713D01*
X025227Y014755D01*
X025216Y014798D01*
X025209Y014842D01*
X025205Y014887D01*
X025205Y014931D01*
X025214Y014931D01*
X025214Y014887D01*
X025218Y014843D01*
X025225Y014800D01*
X025236Y014758D01*
X025250Y014716D01*
X025267Y014676D01*
X025287Y014637D01*
X025311Y014600D01*
X025337Y014565D01*
X025367Y014533D01*
X025398Y014502D01*
X025404Y014509D01*
X025373Y014539D01*
X025344Y014571D01*
X025318Y014605D01*
X025295Y014642D01*
X025275Y014680D01*
X025258Y014719D01*
X025244Y014760D01*
X025234Y014802D01*
X025227Y014844D01*
X025223Y014887D01*
X025223Y014930D01*
X025232Y014930D01*
X025232Y014888D01*
X025236Y014846D01*
X025243Y014804D01*
X025253Y014763D01*
X025266Y014723D01*
X025283Y014684D01*
X025303Y014646D01*
X025326Y014610D01*
X025351Y014577D01*
X025379Y014545D01*
X025410Y014516D01*
X025416Y014523D01*
X025386Y014551D01*
X025358Y014582D01*
X025333Y014616D01*
X025311Y014651D01*
X025291Y014687D01*
X025275Y014726D01*
X025262Y014765D01*
X025252Y014806D01*
X025245Y014847D01*
X025241Y014888D01*
X025241Y014930D01*
X025250Y014929D01*
X025250Y014888D01*
X025254Y014848D01*
X025260Y014807D01*
X025270Y014768D01*
X025283Y014729D01*
X025299Y014691D01*
X025318Y014655D01*
X025340Y014621D01*
X025365Y014588D01*
X025392Y014558D01*
X025422Y014530D01*
X026675Y014940D02*
X026585Y014940D01*
X026586Y014940D02*
X026584Y014994D01*
X026578Y015047D01*
X026568Y015100D01*
X026554Y015152D01*
X026537Y015203D01*
X026516Y015252D01*
X026492Y015300D01*
X026464Y015346D01*
X026433Y015390D01*
X026399Y015432D01*
X026363Y015471D01*
X026323Y015508D01*
X026281Y015541D01*
X026237Y015572D01*
X026191Y015599D01*
X026233Y015678D01*
X026282Y015650D01*
X026328Y015618D01*
X026373Y015583D01*
X026415Y015546D01*
X026455Y015505D01*
X026491Y015462D01*
X026525Y015417D01*
X026556Y015370D01*
X026583Y015320D01*
X026607Y015269D01*
X026628Y015217D01*
X026645Y015163D01*
X026658Y015108D01*
X026668Y015053D01*
X026674Y014996D01*
X026676Y014940D01*
X026667Y014940D01*
X026665Y014996D01*
X026659Y015051D01*
X026649Y015106D01*
X026636Y015161D01*
X026619Y015214D01*
X026599Y015266D01*
X026575Y015316D01*
X026548Y015365D01*
X026518Y015412D01*
X026484Y015457D01*
X026448Y015499D01*
X026409Y015539D01*
X026367Y015576D01*
X026323Y015611D01*
X026277Y015642D01*
X026229Y015670D01*
X026225Y015662D01*
X026272Y015634D01*
X026318Y015603D01*
X026361Y015569D01*
X026403Y015533D01*
X026441Y015493D01*
X026477Y015451D01*
X026510Y015407D01*
X026540Y015361D01*
X026567Y015312D01*
X026590Y015262D01*
X026611Y015211D01*
X026627Y015158D01*
X026640Y015105D01*
X026650Y015050D01*
X026656Y014995D01*
X026658Y014940D01*
X026649Y014940D01*
X026647Y014995D01*
X026641Y015049D01*
X026632Y015103D01*
X026619Y015156D01*
X026602Y015208D01*
X026582Y015259D01*
X026559Y015308D01*
X026532Y015356D01*
X026503Y015402D01*
X026470Y015446D01*
X026435Y015487D01*
X026396Y015526D01*
X026356Y015563D01*
X026313Y015596D01*
X026267Y015627D01*
X026220Y015654D01*
X026216Y015646D01*
X026263Y015619D01*
X026307Y015589D01*
X026350Y015556D01*
X026390Y015520D01*
X026428Y015481D01*
X026463Y015440D01*
X026495Y015397D01*
X026525Y015351D01*
X026551Y015304D01*
X026574Y015255D01*
X026594Y015205D01*
X026610Y015153D01*
X026623Y015101D01*
X026632Y015048D01*
X026638Y014994D01*
X026640Y014940D01*
X026631Y014940D01*
X026629Y014993D01*
X026623Y015046D01*
X026614Y015099D01*
X026601Y015151D01*
X026585Y015202D01*
X026566Y015252D01*
X026543Y015300D01*
X026517Y015347D01*
X026488Y015391D01*
X026456Y015434D01*
X026421Y015475D01*
X026384Y015513D01*
X026344Y015549D01*
X026302Y015582D01*
X026258Y015612D01*
X026212Y015639D01*
X026208Y015631D01*
X026253Y015604D01*
X026297Y015574D01*
X026338Y015542D01*
X026378Y015507D01*
X026415Y015469D01*
X026449Y015429D01*
X026481Y015386D01*
X026509Y015342D01*
X026535Y015296D01*
X026557Y015248D01*
X026577Y015199D01*
X026593Y015149D01*
X026605Y015097D01*
X026614Y015045D01*
X026620Y014993D01*
X026622Y014940D01*
X026613Y014940D01*
X026611Y014996D01*
X026604Y015051D01*
X026594Y015106D01*
X026580Y015160D01*
X026562Y015212D01*
X026541Y015264D01*
X026515Y015313D01*
X026487Y015361D01*
X026455Y015407D01*
X026420Y015450D01*
X026382Y015490D01*
X026341Y015528D01*
X026297Y015563D01*
X026251Y015594D01*
X026203Y015623D01*
X026199Y015615D01*
X026247Y015587D01*
X026292Y015556D01*
X026335Y015521D01*
X026375Y015484D01*
X026413Y015444D01*
X026448Y015401D01*
X026479Y015356D01*
X026508Y015309D01*
X026532Y015260D01*
X026554Y015209D01*
X026571Y015157D01*
X026585Y015104D01*
X026595Y015050D01*
X026602Y014995D01*
X026604Y014940D01*
X026595Y014940D01*
X026593Y014994D01*
X026587Y015048D01*
X026577Y015102D01*
X026563Y015154D01*
X026545Y015206D01*
X026524Y015256D01*
X026500Y015305D01*
X026472Y015351D01*
X026440Y015396D01*
X026406Y015438D01*
X026369Y015477D01*
X026329Y015514D01*
X026287Y015548D01*
X026242Y015579D01*
X026195Y015607D01*
X026375Y014290D02*
X026318Y014359D01*
X026318Y014358D02*
X026358Y014395D01*
X026396Y014434D01*
X026430Y014476D01*
X026462Y014520D01*
X026490Y014566D01*
X026515Y014615D01*
X026536Y014665D01*
X026554Y014716D01*
X026567Y014769D01*
X026577Y014822D01*
X026584Y014876D01*
X026586Y014930D01*
X026675Y014931D01*
X026676Y014930D01*
X026674Y014874D01*
X026668Y014818D01*
X026658Y014763D01*
X026645Y014708D01*
X026628Y014655D01*
X026608Y014602D01*
X026584Y014551D01*
X026557Y014502D01*
X026526Y014455D01*
X026493Y014410D01*
X026457Y014367D01*
X026418Y014327D01*
X026376Y014289D01*
X026370Y014296D01*
X026411Y014333D01*
X026450Y014373D01*
X026486Y014415D01*
X026519Y014460D01*
X026549Y014507D01*
X026576Y014555D01*
X026599Y014606D01*
X026620Y014658D01*
X026636Y014711D01*
X026649Y014765D01*
X026659Y014819D01*
X026665Y014874D01*
X026667Y014930D01*
X026658Y014930D01*
X026656Y014875D01*
X026650Y014820D01*
X026641Y014766D01*
X026628Y014713D01*
X026611Y014661D01*
X026591Y014609D01*
X026568Y014560D01*
X026541Y014511D01*
X026512Y014465D01*
X026479Y014421D01*
X026443Y014379D01*
X026405Y014340D01*
X026364Y014303D01*
X026359Y014310D01*
X026399Y014346D01*
X026437Y014385D01*
X026472Y014427D01*
X026504Y014470D01*
X026534Y014516D01*
X026560Y014564D01*
X026583Y014613D01*
X026603Y014663D01*
X026619Y014715D01*
X026632Y014768D01*
X026641Y014822D01*
X026647Y014876D01*
X026649Y014930D01*
X026640Y014930D01*
X026638Y014876D01*
X026632Y014823D01*
X026623Y014770D01*
X026610Y014718D01*
X026594Y014666D01*
X026575Y014616D01*
X026552Y014568D01*
X026526Y014521D01*
X026497Y014475D01*
X026465Y014432D01*
X026430Y014391D01*
X026393Y014353D01*
X026353Y014317D01*
X026347Y014324D01*
X026386Y014359D01*
X026423Y014397D01*
X026458Y014438D01*
X026489Y014481D01*
X026518Y014525D01*
X026544Y014572D01*
X026566Y014620D01*
X026586Y014669D01*
X026602Y014720D01*
X026614Y014772D01*
X026623Y014824D01*
X026629Y014877D01*
X026631Y014930D01*
X026622Y014930D01*
X026620Y014878D01*
X026614Y014825D01*
X026605Y014774D01*
X026593Y014723D01*
X026577Y014672D01*
X026558Y014623D01*
X026536Y014576D01*
X026510Y014530D01*
X026482Y014486D01*
X026451Y014444D01*
X026417Y014403D01*
X026380Y014366D01*
X026341Y014331D01*
X026335Y014337D01*
X026374Y014372D01*
X026410Y014410D01*
X026444Y014449D01*
X026475Y014491D01*
X026503Y014535D01*
X026528Y014580D01*
X026550Y014627D01*
X026569Y014675D01*
X026584Y014725D01*
X026597Y014775D01*
X026605Y014827D01*
X026611Y014878D01*
X026613Y014930D01*
X026604Y014930D01*
X026602Y014879D01*
X026597Y014828D01*
X026588Y014777D01*
X026576Y014727D01*
X026560Y014678D01*
X026542Y014631D01*
X026520Y014584D01*
X026495Y014539D01*
X026467Y014496D01*
X026437Y014455D01*
X026404Y014416D01*
X026368Y014379D01*
X026330Y014344D01*
X026324Y014351D01*
X026365Y014388D01*
X026403Y014428D01*
X026437Y014470D01*
X026469Y014515D01*
X026498Y014562D01*
X026523Y014611D01*
X026544Y014662D01*
X026562Y014713D01*
X026576Y014767D01*
X026586Y014821D01*
X026593Y014875D01*
X026595Y014930D01*
X024987Y014931D02*
X025077Y014931D01*
X025076Y014930D02*
X025078Y014876D01*
X025084Y014823D01*
X025094Y014770D01*
X025108Y014718D01*
X025125Y014667D01*
X025146Y014617D01*
X025170Y014569D01*
X025198Y014523D01*
X025229Y014479D01*
X025263Y014438D01*
X025300Y014398D01*
X025339Y014362D01*
X025282Y014294D01*
X025281Y014293D01*
X025240Y014331D01*
X025202Y014371D01*
X025166Y014414D01*
X025133Y014459D01*
X025103Y014506D01*
X025077Y014554D01*
X025053Y014605D01*
X025033Y014657D01*
X025017Y014710D01*
X025003Y014764D01*
X024994Y014819D01*
X024988Y014874D01*
X024986Y014930D01*
X024995Y014930D01*
X024997Y014875D01*
X025003Y014820D01*
X025012Y014766D01*
X025025Y014712D01*
X025042Y014660D01*
X025061Y014608D01*
X025085Y014558D01*
X025111Y014510D01*
X025141Y014464D01*
X025173Y014419D01*
X025208Y014377D01*
X025247Y014337D01*
X025287Y014300D01*
X025293Y014307D01*
X025253Y014344D01*
X025215Y014383D01*
X025180Y014425D01*
X025148Y014469D01*
X025119Y014515D01*
X025093Y014563D01*
X025070Y014612D01*
X025050Y014663D01*
X025034Y014715D01*
X025021Y014768D01*
X025012Y014821D01*
X025006Y014876D01*
X025004Y014930D01*
X025013Y014930D01*
X025015Y014876D01*
X025021Y014823D01*
X025030Y014770D01*
X025043Y014717D01*
X025059Y014666D01*
X025078Y014615D01*
X025101Y014567D01*
X025126Y014519D01*
X025155Y014474D01*
X025187Y014430D01*
X025222Y014389D01*
X025259Y014350D01*
X025299Y014314D01*
X025305Y014321D01*
X025265Y014357D01*
X025228Y014395D01*
X025194Y014436D01*
X025163Y014479D01*
X025134Y014524D01*
X025109Y014571D01*
X025086Y014619D01*
X025067Y014669D01*
X025051Y014720D01*
X025039Y014771D01*
X025030Y014824D01*
X025024Y014877D01*
X025022Y014930D01*
X025031Y014930D01*
X025033Y014877D01*
X025039Y014825D01*
X025048Y014773D01*
X025060Y014722D01*
X025076Y014672D01*
X025095Y014622D01*
X025117Y014575D01*
X025142Y014528D01*
X025170Y014484D01*
X025201Y014442D01*
X025235Y014401D01*
X025272Y014363D01*
X025310Y014328D01*
X025316Y014334D01*
X025278Y014370D01*
X025242Y014407D01*
X025208Y014447D01*
X025178Y014489D01*
X025150Y014533D01*
X025125Y014579D01*
X025103Y014626D01*
X025084Y014675D01*
X025069Y014724D01*
X025056Y014775D01*
X025048Y014826D01*
X025042Y014878D01*
X025040Y014930D01*
X025049Y014930D01*
X025051Y014874D01*
X025058Y014819D01*
X025068Y014764D01*
X025082Y014710D01*
X025100Y014657D01*
X025122Y014606D01*
X025147Y014556D01*
X025176Y014508D01*
X025208Y014463D01*
X025243Y014420D01*
X025281Y014379D01*
X025322Y014341D01*
X025328Y014348D01*
X025287Y014385D01*
X025250Y014426D01*
X025215Y014468D01*
X025183Y014513D01*
X025155Y014561D01*
X025130Y014610D01*
X025108Y014661D01*
X025091Y014713D01*
X025077Y014766D01*
X025067Y014820D01*
X025060Y014875D01*
X025058Y014930D01*
X025067Y014930D01*
X025069Y014876D01*
X025075Y014822D01*
X025085Y014768D01*
X025099Y014715D01*
X025117Y014664D01*
X025138Y014614D01*
X025163Y014565D01*
X025191Y014518D01*
X025222Y014474D01*
X025256Y014432D01*
X025294Y014392D01*
X025334Y014355D01*
X023299Y014532D02*
X023266Y014570D01*
X023267Y014569D02*
X023295Y014597D01*
X023320Y014628D01*
X023343Y014661D01*
X023362Y014695D01*
X023379Y014732D01*
X023391Y014770D01*
X023401Y014808D01*
X023406Y014848D01*
X023408Y014888D01*
X023406Y014928D01*
X023455Y014932D01*
X023456Y014933D01*
X023458Y014892D01*
X023457Y014852D01*
X023452Y014811D01*
X023444Y014772D01*
X023432Y014733D01*
X023417Y014695D01*
X023400Y014659D01*
X023379Y014624D01*
X023355Y014591D01*
X023329Y014560D01*
X023300Y014532D01*
X023294Y014538D01*
X023322Y014566D01*
X023348Y014597D01*
X023371Y014629D01*
X023392Y014663D01*
X023409Y014699D01*
X023424Y014736D01*
X023435Y014774D01*
X023443Y014813D01*
X023448Y014852D01*
X023449Y014892D01*
X023447Y014932D01*
X023438Y014931D01*
X023440Y014892D01*
X023439Y014853D01*
X023434Y014814D01*
X023426Y014776D01*
X023415Y014739D01*
X023401Y014702D01*
X023384Y014667D01*
X023364Y014634D01*
X023341Y014602D01*
X023316Y014573D01*
X023288Y014545D01*
X023282Y014552D01*
X023312Y014582D01*
X023339Y014614D01*
X023362Y014648D01*
X023383Y014685D01*
X023400Y014724D01*
X023414Y014763D01*
X023423Y014804D01*
X023429Y014846D01*
X023431Y014888D01*
X023429Y014930D01*
X023420Y014929D01*
X023422Y014888D01*
X023420Y014847D01*
X023414Y014806D01*
X023405Y014766D01*
X023392Y014727D01*
X023375Y014689D01*
X023355Y014653D01*
X023331Y014619D01*
X023305Y014588D01*
X023276Y014559D01*
X023270Y014565D01*
X023298Y014594D01*
X023324Y014625D01*
X023347Y014658D01*
X023367Y014693D01*
X023383Y014730D01*
X023396Y014768D01*
X023405Y014808D01*
X023411Y014847D01*
X023413Y014888D01*
X023411Y014928D01*
X023456Y014939D02*
X023406Y014942D01*
X023407Y014941D02*
X023406Y014982D01*
X023403Y015024D01*
X023396Y015064D01*
X023386Y015104D01*
X023372Y015143D01*
X023356Y015181D01*
X023336Y015217D01*
X023313Y015252D01*
X023288Y015285D01*
X023260Y015315D01*
X023229Y015343D01*
X023261Y015381D01*
X023295Y015351D01*
X023326Y015317D01*
X023354Y015281D01*
X023379Y015243D01*
X023400Y015203D01*
X023419Y015162D01*
X023434Y015119D01*
X023445Y015075D01*
X023453Y015030D01*
X023456Y014984D01*
X023457Y014939D01*
X023448Y014939D01*
X023447Y014984D01*
X023444Y015029D01*
X023436Y015073D01*
X023425Y015116D01*
X023410Y015158D01*
X023392Y015199D01*
X023371Y015239D01*
X023346Y015276D01*
X023319Y015311D01*
X023288Y015344D01*
X023255Y015374D01*
X023250Y015368D01*
X023282Y015338D01*
X023312Y015305D01*
X023339Y015271D01*
X023363Y015234D01*
X023384Y015195D01*
X023402Y015155D01*
X023416Y015114D01*
X023427Y015071D01*
X023435Y015028D01*
X023438Y014984D01*
X023439Y014940D01*
X023430Y014940D01*
X023429Y014983D01*
X023426Y015026D01*
X023419Y015069D01*
X023408Y015111D01*
X023394Y015152D01*
X023376Y015191D01*
X023355Y015229D01*
X023332Y015266D01*
X023305Y015300D01*
X023276Y015331D01*
X023244Y015361D01*
X023238Y015354D01*
X023269Y015325D01*
X023298Y015294D01*
X023324Y015260D01*
X023348Y015225D01*
X023368Y015187D01*
X023385Y015149D01*
X023399Y015108D01*
X023410Y015067D01*
X023417Y015025D01*
X023420Y014983D01*
X023421Y014940D01*
X023412Y014941D01*
X023411Y014983D01*
X023408Y015024D01*
X023401Y015065D01*
X023391Y015106D01*
X023377Y015145D01*
X023360Y015183D01*
X023340Y015220D01*
X023317Y015255D01*
X023291Y015288D01*
X023263Y015318D01*
X023232Y015347D01*
X022408Y015666D02*
X022453Y015588D01*
X022452Y015588D02*
X022408Y015560D01*
X022366Y015529D01*
X022326Y015496D01*
X022288Y015460D01*
X022253Y015421D01*
X022221Y015380D01*
X022191Y015336D01*
X022165Y015291D01*
X022142Y015244D01*
X022122Y015196D01*
X022106Y015146D01*
X022093Y015096D01*
X022084Y015044D01*
X022078Y014992D01*
X022076Y014940D01*
X021987Y014939D01*
X021986Y014940D01*
X021988Y014995D01*
X021994Y015049D01*
X022003Y015104D01*
X022016Y015157D01*
X022032Y015209D01*
X022051Y015261D01*
X022074Y015311D01*
X022100Y015359D01*
X022129Y015406D01*
X022161Y015450D01*
X022196Y015493D01*
X022234Y015533D01*
X022274Y015570D01*
X022316Y015605D01*
X022361Y015637D01*
X022407Y015666D01*
X022412Y015658D01*
X022366Y015630D01*
X022322Y015598D01*
X022280Y015563D01*
X022240Y015526D01*
X022203Y015487D01*
X022168Y015445D01*
X022137Y015401D01*
X022108Y015355D01*
X022082Y015307D01*
X022060Y015257D01*
X022040Y015207D01*
X022024Y015155D01*
X022012Y015102D01*
X022003Y015048D01*
X021997Y014994D01*
X021995Y014940D01*
X022004Y014940D01*
X022006Y014994D01*
X022012Y015047D01*
X022021Y015100D01*
X022033Y015152D01*
X022049Y015204D01*
X022068Y015254D01*
X022090Y015303D01*
X022116Y015350D01*
X022144Y015396D01*
X022176Y015439D01*
X022210Y015481D01*
X022246Y015520D01*
X022286Y015557D01*
X022327Y015591D01*
X022371Y015622D01*
X022416Y015651D01*
X022421Y015643D01*
X022373Y015613D01*
X022327Y015579D01*
X022284Y015543D01*
X022243Y015503D01*
X022205Y015461D01*
X022170Y015417D01*
X022138Y015370D01*
X022110Y015321D01*
X022085Y015270D01*
X022063Y015217D01*
X022046Y015164D01*
X022032Y015109D01*
X022022Y015053D01*
X022015Y014997D01*
X022013Y014940D01*
X022022Y014940D01*
X022024Y014996D01*
X022030Y015052D01*
X022040Y015107D01*
X022054Y015161D01*
X022072Y015214D01*
X022093Y015266D01*
X022118Y015317D01*
X022146Y015365D01*
X022177Y015411D01*
X022212Y015456D01*
X022249Y015497D01*
X022290Y015536D01*
X022332Y015572D01*
X022378Y015605D01*
X022425Y015635D01*
X022430Y015627D01*
X022383Y015598D01*
X022338Y015565D01*
X022296Y015529D01*
X022256Y015491D01*
X022219Y015450D01*
X022184Y015406D01*
X022153Y015360D01*
X022126Y015312D01*
X022101Y015263D01*
X022080Y015211D01*
X022063Y015159D01*
X022049Y015105D01*
X022039Y015050D01*
X022033Y014995D01*
X022031Y014940D01*
X022040Y014940D01*
X022042Y014995D01*
X022048Y015049D01*
X022058Y015103D01*
X022072Y015156D01*
X022089Y015208D01*
X022109Y015259D01*
X022134Y015308D01*
X022161Y015355D01*
X022192Y015401D01*
X022225Y015444D01*
X022262Y015485D01*
X022302Y015523D01*
X022344Y015558D01*
X022388Y015590D01*
X022434Y015619D01*
X022439Y015611D01*
X022393Y015583D01*
X022349Y015551D01*
X022308Y015516D01*
X022269Y015478D01*
X022232Y015438D01*
X022199Y015396D01*
X022169Y015351D01*
X022141Y015304D01*
X022118Y015255D01*
X022097Y015205D01*
X022080Y015154D01*
X022067Y015101D01*
X022057Y015048D01*
X022051Y014994D01*
X022049Y014940D01*
X022058Y014940D01*
X022060Y014993D01*
X022066Y015047D01*
X022076Y015099D01*
X022089Y015151D01*
X022106Y015202D01*
X022126Y015252D01*
X022149Y015300D01*
X022176Y015346D01*
X022206Y015390D01*
X022239Y015432D01*
X022275Y015472D01*
X022314Y015509D01*
X022355Y015544D01*
X022398Y015575D01*
X022443Y015604D01*
X022448Y015596D01*
X022403Y015568D01*
X022360Y015537D01*
X022320Y015503D01*
X022282Y015466D01*
X022246Y015427D01*
X022214Y015385D01*
X022184Y015341D01*
X022157Y015295D01*
X022134Y015248D01*
X022114Y015199D01*
X022097Y015149D01*
X022084Y015097D01*
X022075Y015045D01*
X022069Y014993D01*
X022067Y014940D01*
X022393Y015374D02*
X022426Y015336D01*
X022425Y015337D02*
X022396Y015309D01*
X022369Y015279D01*
X022344Y015246D01*
X022323Y015212D01*
X022304Y015176D01*
X022288Y015139D01*
X022275Y015101D01*
X022265Y015062D01*
X022259Y015022D01*
X022255Y014982D01*
X022255Y014941D01*
X022206Y014939D01*
X022205Y014939D01*
X022205Y014983D01*
X022209Y015028D01*
X022216Y015072D01*
X022227Y015115D01*
X022241Y015157D01*
X022259Y015198D01*
X022280Y015237D01*
X022303Y015275D01*
X022330Y015311D01*
X022360Y015344D01*
X022392Y015375D01*
X022398Y015368D01*
X022367Y015337D01*
X022337Y015305D01*
X022311Y015270D01*
X022287Y015233D01*
X022267Y015194D01*
X022250Y015154D01*
X022236Y015112D01*
X022225Y015070D01*
X022218Y015027D01*
X022214Y014983D01*
X022214Y014939D01*
X022223Y014940D01*
X022223Y014983D01*
X022227Y015026D01*
X022234Y015068D01*
X022244Y015110D01*
X022258Y015151D01*
X022275Y015190D01*
X022295Y015228D01*
X022318Y015265D01*
X022344Y015299D01*
X022373Y015331D01*
X022404Y015361D01*
X022410Y015354D01*
X022379Y015325D01*
X022351Y015293D01*
X022326Y015260D01*
X022303Y015224D01*
X022283Y015186D01*
X022266Y015147D01*
X022253Y015107D01*
X022243Y015066D01*
X022236Y015024D01*
X022232Y014982D01*
X022232Y014940D01*
X022241Y014940D01*
X022241Y014982D01*
X022245Y015023D01*
X022252Y015064D01*
X022262Y015105D01*
X022275Y015144D01*
X022291Y015183D01*
X022311Y015219D01*
X022333Y015254D01*
X022358Y015288D01*
X022386Y015319D01*
X022416Y015347D01*
X022422Y015340D01*
X022392Y015312D01*
X022365Y015282D01*
X022340Y015249D01*
X022318Y015215D01*
X022299Y015179D01*
X022283Y015141D01*
X022270Y015102D01*
X022260Y015063D01*
X022254Y015022D01*
X022250Y014982D01*
X022250Y014941D01*
X022206Y014931D02*
X022256Y014928D01*
X022255Y014929D02*
X022255Y014888D01*
X022259Y014848D01*
X022265Y014808D01*
X022275Y014769D01*
X022288Y014731D01*
X022304Y014694D01*
X022323Y014658D01*
X022344Y014624D01*
X022369Y014591D01*
X022396Y014561D01*
X022425Y014533D01*
X022393Y014496D01*
X022392Y014495D01*
X022360Y014526D01*
X022330Y014559D01*
X022303Y014595D01*
X022280Y014633D01*
X022259Y014672D01*
X022241Y014713D01*
X022227Y014755D01*
X022216Y014798D01*
X022209Y014842D01*
X022205Y014887D01*
X022205Y014931D01*
X022214Y014931D01*
X022214Y014887D01*
X022218Y014843D01*
X022225Y014800D01*
X022236Y014758D01*
X022250Y014716D01*
X022267Y014676D01*
X022287Y014637D01*
X022311Y014600D01*
X022337Y014565D01*
X022367Y014533D01*
X022398Y014502D01*
X022404Y014509D01*
X022373Y014539D01*
X022344Y014571D01*
X022318Y014605D01*
X022295Y014642D01*
X022275Y014680D01*
X022258Y014719D01*
X022244Y014760D01*
X022234Y014802D01*
X022227Y014844D01*
X022223Y014887D01*
X022223Y014930D01*
X022232Y014930D01*
X022232Y014888D01*
X022236Y014846D01*
X022243Y014804D01*
X022253Y014763D01*
X022266Y014723D01*
X022283Y014684D01*
X022303Y014646D01*
X022326Y014610D01*
X022351Y014577D01*
X022379Y014545D01*
X022410Y014516D01*
X022416Y014523D01*
X022386Y014551D01*
X022358Y014582D01*
X022333Y014616D01*
X022311Y014651D01*
X022291Y014687D01*
X022275Y014726D01*
X022262Y014765D01*
X022252Y014806D01*
X022245Y014847D01*
X022241Y014888D01*
X022241Y014930D01*
X022250Y014929D01*
X022250Y014888D01*
X022254Y014848D01*
X022260Y014807D01*
X022270Y014768D01*
X022283Y014729D01*
X022299Y014691D01*
X022318Y014655D01*
X022340Y014621D01*
X022365Y014588D01*
X022392Y014558D01*
X022422Y014530D01*
X023675Y014940D02*
X023585Y014940D01*
X023586Y014940D02*
X023584Y014994D01*
X023578Y015047D01*
X023568Y015100D01*
X023554Y015152D01*
X023537Y015203D01*
X023516Y015252D01*
X023492Y015300D01*
X023464Y015346D01*
X023433Y015390D01*
X023399Y015432D01*
X023363Y015471D01*
X023323Y015508D01*
X023281Y015541D01*
X023237Y015572D01*
X023191Y015599D01*
X023233Y015678D01*
X023282Y015650D01*
X023328Y015618D01*
X023373Y015583D01*
X023415Y015546D01*
X023455Y015505D01*
X023491Y015462D01*
X023525Y015417D01*
X023556Y015370D01*
X023583Y015320D01*
X023607Y015269D01*
X023628Y015217D01*
X023645Y015163D01*
X023658Y015108D01*
X023668Y015053D01*
X023674Y014996D01*
X023676Y014940D01*
X023667Y014940D01*
X023665Y014996D01*
X023659Y015051D01*
X023649Y015106D01*
X023636Y015161D01*
X023619Y015214D01*
X023599Y015266D01*
X023575Y015316D01*
X023548Y015365D01*
X023518Y015412D01*
X023484Y015457D01*
X023448Y015499D01*
X023409Y015539D01*
X023367Y015576D01*
X023323Y015611D01*
X023277Y015642D01*
X023229Y015670D01*
X023225Y015662D01*
X023272Y015634D01*
X023318Y015603D01*
X023361Y015569D01*
X023403Y015533D01*
X023441Y015493D01*
X023477Y015451D01*
X023510Y015407D01*
X023540Y015361D01*
X023567Y015312D01*
X023590Y015262D01*
X023611Y015211D01*
X023627Y015158D01*
X023640Y015105D01*
X023650Y015050D01*
X023656Y014995D01*
X023658Y014940D01*
X023649Y014940D01*
X023647Y014995D01*
X023641Y015049D01*
X023632Y015103D01*
X023619Y015156D01*
X023602Y015208D01*
X023582Y015259D01*
X023559Y015308D01*
X023532Y015356D01*
X023503Y015402D01*
X023470Y015446D01*
X023435Y015487D01*
X023396Y015526D01*
X023356Y015563D01*
X023313Y015596D01*
X023267Y015627D01*
X023220Y015654D01*
X023216Y015646D01*
X023263Y015619D01*
X023307Y015589D01*
X023350Y015556D01*
X023390Y015520D01*
X023428Y015481D01*
X023463Y015440D01*
X023495Y015397D01*
X023525Y015351D01*
X023551Y015304D01*
X023574Y015255D01*
X023594Y015205D01*
X023610Y015153D01*
X023623Y015101D01*
X023632Y015048D01*
X023638Y014994D01*
X023640Y014940D01*
X023631Y014940D01*
X023629Y014993D01*
X023623Y015046D01*
X023614Y015099D01*
X023601Y015151D01*
X023585Y015202D01*
X023566Y015252D01*
X023543Y015300D01*
X023517Y015347D01*
X023488Y015391D01*
X023456Y015434D01*
X023421Y015475D01*
X023384Y015513D01*
X023344Y015549D01*
X023302Y015582D01*
X023258Y015612D01*
X023212Y015639D01*
X023208Y015631D01*
X023253Y015604D01*
X023297Y015574D01*
X023338Y015542D01*
X023378Y015507D01*
X023415Y015469D01*
X023449Y015429D01*
X023481Y015386D01*
X023509Y015342D01*
X023535Y015296D01*
X023557Y015248D01*
X023577Y015199D01*
X023593Y015149D01*
X023605Y015097D01*
X023614Y015045D01*
X023620Y014993D01*
X023622Y014940D01*
X023613Y014940D01*
X023611Y014996D01*
X023604Y015051D01*
X023594Y015106D01*
X023580Y015160D01*
X023562Y015212D01*
X023541Y015264D01*
X023515Y015313D01*
X023487Y015361D01*
X023455Y015407D01*
X023420Y015450D01*
X023382Y015490D01*
X023341Y015528D01*
X023297Y015563D01*
X023251Y015594D01*
X023203Y015623D01*
X023199Y015615D01*
X023247Y015587D01*
X023292Y015556D01*
X023335Y015521D01*
X023375Y015484D01*
X023413Y015444D01*
X023448Y015401D01*
X023479Y015356D01*
X023508Y015309D01*
X023532Y015260D01*
X023554Y015209D01*
X023571Y015157D01*
X023585Y015104D01*
X023595Y015050D01*
X023602Y014995D01*
X023604Y014940D01*
X023595Y014940D01*
X023593Y014994D01*
X023587Y015048D01*
X023577Y015102D01*
X023563Y015154D01*
X023545Y015206D01*
X023524Y015256D01*
X023500Y015305D01*
X023472Y015351D01*
X023440Y015396D01*
X023406Y015438D01*
X023369Y015477D01*
X023329Y015514D01*
X023287Y015548D01*
X023242Y015579D01*
X023195Y015607D01*
X023375Y014290D02*
X023318Y014359D01*
X023318Y014358D02*
X023358Y014395D01*
X023396Y014434D01*
X023430Y014476D01*
X023462Y014520D01*
X023490Y014566D01*
X023515Y014615D01*
X023536Y014665D01*
X023554Y014716D01*
X023567Y014769D01*
X023577Y014822D01*
X023584Y014876D01*
X023586Y014930D01*
X023675Y014931D01*
X023676Y014930D01*
X023674Y014874D01*
X023668Y014818D01*
X023658Y014763D01*
X023645Y014708D01*
X023628Y014655D01*
X023608Y014602D01*
X023584Y014551D01*
X023557Y014502D01*
X023526Y014455D01*
X023493Y014410D01*
X023457Y014367D01*
X023418Y014327D01*
X023376Y014289D01*
X023370Y014296D01*
X023411Y014333D01*
X023450Y014373D01*
X023486Y014415D01*
X023519Y014460D01*
X023549Y014507D01*
X023576Y014555D01*
X023599Y014606D01*
X023620Y014658D01*
X023636Y014711D01*
X023649Y014765D01*
X023659Y014819D01*
X023665Y014874D01*
X023667Y014930D01*
X023658Y014930D01*
X023656Y014875D01*
X023650Y014820D01*
X023641Y014766D01*
X023628Y014713D01*
X023611Y014661D01*
X023591Y014609D01*
X023568Y014560D01*
X023541Y014511D01*
X023512Y014465D01*
X023479Y014421D01*
X023443Y014379D01*
X023405Y014340D01*
X023364Y014303D01*
X023359Y014310D01*
X023399Y014346D01*
X023437Y014385D01*
X023472Y014427D01*
X023504Y014470D01*
X023534Y014516D01*
X023560Y014564D01*
X023583Y014613D01*
X023603Y014663D01*
X023619Y014715D01*
X023632Y014768D01*
X023641Y014822D01*
X023647Y014876D01*
X023649Y014930D01*
X023640Y014930D01*
X023638Y014876D01*
X023632Y014823D01*
X023623Y014770D01*
X023610Y014718D01*
X023594Y014666D01*
X023575Y014616D01*
X023552Y014568D01*
X023526Y014521D01*
X023497Y014475D01*
X023465Y014432D01*
X023430Y014391D01*
X023393Y014353D01*
X023353Y014317D01*
X023347Y014324D01*
X023386Y014359D01*
X023423Y014397D01*
X023458Y014438D01*
X023489Y014481D01*
X023518Y014525D01*
X023544Y014572D01*
X023566Y014620D01*
X023586Y014669D01*
X023602Y014720D01*
X023614Y014772D01*
X023623Y014824D01*
X023629Y014877D01*
X023631Y014930D01*
X023622Y014930D01*
X023620Y014878D01*
X023614Y014825D01*
X023605Y014774D01*
X023593Y014723D01*
X023577Y014672D01*
X023558Y014623D01*
X023536Y014576D01*
X023510Y014530D01*
X023482Y014486D01*
X023451Y014444D01*
X023417Y014403D01*
X023380Y014366D01*
X023341Y014331D01*
X023335Y014337D01*
X023374Y014372D01*
X023410Y014410D01*
X023444Y014449D01*
X023475Y014491D01*
X023503Y014535D01*
X023528Y014580D01*
X023550Y014627D01*
X023569Y014675D01*
X023584Y014725D01*
X023597Y014775D01*
X023605Y014827D01*
X023611Y014878D01*
X023613Y014930D01*
X023604Y014930D01*
X023602Y014879D01*
X023597Y014828D01*
X023588Y014777D01*
X023576Y014727D01*
X023560Y014678D01*
X023542Y014631D01*
X023520Y014584D01*
X023495Y014539D01*
X023467Y014496D01*
X023437Y014455D01*
X023404Y014416D01*
X023368Y014379D01*
X023330Y014344D01*
X023324Y014351D01*
X023365Y014388D01*
X023403Y014428D01*
X023437Y014470D01*
X023469Y014515D01*
X023498Y014562D01*
X023523Y014611D01*
X023544Y014662D01*
X023562Y014713D01*
X023576Y014767D01*
X023586Y014821D01*
X023593Y014875D01*
X023595Y014930D01*
X021987Y014931D02*
X022077Y014931D01*
X022076Y014930D02*
X022078Y014876D01*
X022084Y014823D01*
X022094Y014770D01*
X022108Y014718D01*
X022125Y014667D01*
X022146Y014617D01*
X022170Y014569D01*
X022198Y014523D01*
X022229Y014479D01*
X022263Y014438D01*
X022300Y014398D01*
X022339Y014362D01*
X022282Y014294D01*
X022281Y014293D01*
X022240Y014331D01*
X022202Y014371D01*
X022166Y014414D01*
X022133Y014459D01*
X022103Y014506D01*
X022077Y014554D01*
X022053Y014605D01*
X022033Y014657D01*
X022017Y014710D01*
X022003Y014764D01*
X021994Y014819D01*
X021988Y014874D01*
X021986Y014930D01*
X021995Y014930D01*
X021997Y014875D01*
X022003Y014820D01*
X022012Y014766D01*
X022025Y014712D01*
X022042Y014660D01*
X022061Y014608D01*
X022085Y014558D01*
X022111Y014510D01*
X022141Y014464D01*
X022173Y014419D01*
X022208Y014377D01*
X022247Y014337D01*
X022287Y014300D01*
X022293Y014307D01*
X022253Y014344D01*
X022215Y014383D01*
X022180Y014425D01*
X022148Y014469D01*
X022119Y014515D01*
X022093Y014563D01*
X022070Y014612D01*
X022050Y014663D01*
X022034Y014715D01*
X022021Y014768D01*
X022012Y014821D01*
X022006Y014876D01*
X022004Y014930D01*
X022013Y014930D01*
X022015Y014876D01*
X022021Y014823D01*
X022030Y014770D01*
X022043Y014717D01*
X022059Y014666D01*
X022078Y014615D01*
X022101Y014567D01*
X022126Y014519D01*
X022155Y014474D01*
X022187Y014430D01*
X022222Y014389D01*
X022259Y014350D01*
X022299Y014314D01*
X022305Y014321D01*
X022265Y014357D01*
X022228Y014395D01*
X022194Y014436D01*
X022163Y014479D01*
X022134Y014524D01*
X022109Y014571D01*
X022086Y014619D01*
X022067Y014669D01*
X022051Y014720D01*
X022039Y014771D01*
X022030Y014824D01*
X022024Y014877D01*
X022022Y014930D01*
X022031Y014930D01*
X022033Y014877D01*
X022039Y014825D01*
X022048Y014773D01*
X022060Y014722D01*
X022076Y014672D01*
X022095Y014622D01*
X022117Y014575D01*
X022142Y014528D01*
X022170Y014484D01*
X022201Y014442D01*
X022235Y014401D01*
X022272Y014363D01*
X022310Y014328D01*
X022316Y014334D01*
X022278Y014370D01*
X022242Y014407D01*
X022208Y014447D01*
X022178Y014489D01*
X022150Y014533D01*
X022125Y014579D01*
X022103Y014626D01*
X022084Y014675D01*
X022069Y014724D01*
X022056Y014775D01*
X022048Y014826D01*
X022042Y014878D01*
X022040Y014930D01*
X022049Y014930D01*
X022051Y014874D01*
X022058Y014819D01*
X022068Y014764D01*
X022082Y014710D01*
X022100Y014657D01*
X022122Y014606D01*
X022147Y014556D01*
X022176Y014508D01*
X022208Y014463D01*
X022243Y014420D01*
X022281Y014379D01*
X022322Y014341D01*
X022328Y014348D01*
X022287Y014385D01*
X022250Y014426D01*
X022215Y014468D01*
X022183Y014513D01*
X022155Y014561D01*
X022130Y014610D01*
X022108Y014661D01*
X022091Y014713D01*
X022077Y014766D01*
X022067Y014820D01*
X022060Y014875D01*
X022058Y014930D01*
X022067Y014930D01*
X022069Y014876D01*
X022075Y014822D01*
X022085Y014768D01*
X022099Y014715D01*
X022117Y014664D01*
X022138Y014614D01*
X022163Y014565D01*
X022191Y014518D01*
X022222Y014474D01*
X022256Y014432D01*
X022294Y014392D01*
X022334Y014355D01*
X019299Y014032D02*
X019266Y014070D01*
X019267Y014069D02*
X019295Y014097D01*
X019320Y014128D01*
X019343Y014161D01*
X019362Y014195D01*
X019379Y014232D01*
X019391Y014270D01*
X019401Y014308D01*
X019406Y014348D01*
X019408Y014388D01*
X019406Y014428D01*
X019455Y014432D01*
X019456Y014433D01*
X019458Y014392D01*
X019457Y014352D01*
X019452Y014311D01*
X019444Y014272D01*
X019432Y014233D01*
X019417Y014195D01*
X019400Y014159D01*
X019379Y014124D01*
X019355Y014091D01*
X019329Y014060D01*
X019300Y014032D01*
X019294Y014038D01*
X019322Y014066D01*
X019348Y014097D01*
X019371Y014129D01*
X019392Y014163D01*
X019409Y014199D01*
X019424Y014236D01*
X019435Y014274D01*
X019443Y014313D01*
X019448Y014352D01*
X019449Y014392D01*
X019447Y014432D01*
X019438Y014431D01*
X019440Y014392D01*
X019439Y014353D01*
X019434Y014314D01*
X019426Y014276D01*
X019415Y014239D01*
X019401Y014202D01*
X019384Y014167D01*
X019364Y014134D01*
X019341Y014102D01*
X019316Y014073D01*
X019288Y014045D01*
X019282Y014052D01*
X019312Y014082D01*
X019339Y014114D01*
X019362Y014148D01*
X019383Y014185D01*
X019400Y014224D01*
X019414Y014263D01*
X019423Y014304D01*
X019429Y014346D01*
X019431Y014388D01*
X019429Y014430D01*
X019420Y014429D01*
X019422Y014388D01*
X019420Y014347D01*
X019414Y014306D01*
X019405Y014266D01*
X019392Y014227D01*
X019375Y014189D01*
X019355Y014153D01*
X019331Y014119D01*
X019305Y014088D01*
X019276Y014059D01*
X019270Y014065D01*
X019298Y014094D01*
X019324Y014125D01*
X019347Y014158D01*
X019367Y014193D01*
X019383Y014230D01*
X019396Y014268D01*
X019405Y014308D01*
X019411Y014347D01*
X019413Y014388D01*
X019411Y014428D01*
X019456Y014439D02*
X019406Y014442D01*
X019407Y014441D02*
X019406Y014482D01*
X019403Y014524D01*
X019396Y014564D01*
X019386Y014604D01*
X019372Y014643D01*
X019356Y014681D01*
X019336Y014717D01*
X019313Y014752D01*
X019288Y014785D01*
X019260Y014815D01*
X019229Y014843D01*
X019261Y014881D01*
X019295Y014851D01*
X019326Y014817D01*
X019354Y014781D01*
X019379Y014743D01*
X019400Y014703D01*
X019419Y014662D01*
X019434Y014619D01*
X019445Y014575D01*
X019453Y014530D01*
X019456Y014484D01*
X019457Y014439D01*
X019448Y014439D01*
X019447Y014484D01*
X019444Y014529D01*
X019436Y014573D01*
X019425Y014616D01*
X019410Y014658D01*
X019392Y014699D01*
X019371Y014739D01*
X019346Y014776D01*
X019319Y014811D01*
X019288Y014844D01*
X019255Y014874D01*
X019250Y014868D01*
X019282Y014838D01*
X019312Y014805D01*
X019339Y014771D01*
X019363Y014734D01*
X019384Y014695D01*
X019402Y014655D01*
X019416Y014614D01*
X019427Y014571D01*
X019435Y014528D01*
X019438Y014484D01*
X019439Y014440D01*
X019430Y014440D01*
X019429Y014483D01*
X019426Y014526D01*
X019419Y014569D01*
X019408Y014611D01*
X019394Y014652D01*
X019376Y014691D01*
X019355Y014729D01*
X019332Y014766D01*
X019305Y014800D01*
X019276Y014831D01*
X019244Y014861D01*
X019238Y014854D01*
X019269Y014825D01*
X019298Y014794D01*
X019324Y014760D01*
X019348Y014725D01*
X019368Y014687D01*
X019385Y014649D01*
X019399Y014608D01*
X019410Y014567D01*
X019417Y014525D01*
X019420Y014483D01*
X019421Y014440D01*
X019412Y014441D01*
X019411Y014483D01*
X019408Y014524D01*
X019401Y014565D01*
X019391Y014606D01*
X019377Y014645D01*
X019360Y014683D01*
X019340Y014720D01*
X019317Y014755D01*
X019291Y014788D01*
X019263Y014818D01*
X019232Y014847D01*
X018408Y015166D02*
X018453Y015088D01*
X018452Y015088D02*
X018408Y015060D01*
X018366Y015029D01*
X018326Y014996D01*
X018288Y014960D01*
X018253Y014921D01*
X018221Y014880D01*
X018191Y014836D01*
X018165Y014791D01*
X018142Y014744D01*
X018122Y014696D01*
X018106Y014646D01*
X018093Y014596D01*
X018084Y014544D01*
X018078Y014492D01*
X018076Y014440D01*
X017987Y014439D01*
X017986Y014440D01*
X017988Y014495D01*
X017994Y014549D01*
X018003Y014604D01*
X018016Y014657D01*
X018032Y014709D01*
X018051Y014761D01*
X018074Y014811D01*
X018100Y014859D01*
X018129Y014906D01*
X018161Y014950D01*
X018196Y014993D01*
X018234Y015033D01*
X018274Y015070D01*
X018316Y015105D01*
X018361Y015137D01*
X018407Y015166D01*
X018412Y015158D01*
X018366Y015130D01*
X018322Y015098D01*
X018280Y015063D01*
X018240Y015026D01*
X018203Y014987D01*
X018168Y014945D01*
X018137Y014901D01*
X018108Y014855D01*
X018082Y014807D01*
X018060Y014757D01*
X018040Y014707D01*
X018024Y014655D01*
X018012Y014602D01*
X018003Y014548D01*
X017997Y014494D01*
X017995Y014440D01*
X018004Y014440D01*
X018006Y014494D01*
X018012Y014547D01*
X018021Y014600D01*
X018033Y014652D01*
X018049Y014704D01*
X018068Y014754D01*
X018090Y014803D01*
X018116Y014850D01*
X018144Y014896D01*
X018176Y014939D01*
X018210Y014981D01*
X018246Y015020D01*
X018286Y015057D01*
X018327Y015091D01*
X018371Y015122D01*
X018416Y015151D01*
X018421Y015143D01*
X018373Y015113D01*
X018327Y015079D01*
X018284Y015043D01*
X018243Y015003D01*
X018205Y014961D01*
X018170Y014917D01*
X018138Y014870D01*
X018110Y014821D01*
X018085Y014770D01*
X018063Y014717D01*
X018046Y014664D01*
X018032Y014609D01*
X018022Y014553D01*
X018015Y014497D01*
X018013Y014440D01*
X018022Y014440D01*
X018024Y014496D01*
X018030Y014552D01*
X018040Y014607D01*
X018054Y014661D01*
X018072Y014714D01*
X018093Y014766D01*
X018118Y014817D01*
X018146Y014865D01*
X018177Y014911D01*
X018212Y014956D01*
X018249Y014997D01*
X018290Y015036D01*
X018332Y015072D01*
X018378Y015105D01*
X018425Y015135D01*
X018430Y015127D01*
X018383Y015098D01*
X018338Y015065D01*
X018296Y015029D01*
X018256Y014991D01*
X018219Y014950D01*
X018184Y014906D01*
X018153Y014860D01*
X018126Y014812D01*
X018101Y014763D01*
X018080Y014711D01*
X018063Y014659D01*
X018049Y014605D01*
X018039Y014550D01*
X018033Y014495D01*
X018031Y014440D01*
X018040Y014440D01*
X018042Y014495D01*
X018048Y014549D01*
X018058Y014603D01*
X018072Y014656D01*
X018089Y014708D01*
X018109Y014759D01*
X018134Y014808D01*
X018161Y014855D01*
X018192Y014901D01*
X018225Y014944D01*
X018262Y014985D01*
X018302Y015023D01*
X018344Y015058D01*
X018388Y015090D01*
X018434Y015119D01*
X018439Y015111D01*
X018393Y015083D01*
X018349Y015051D01*
X018308Y015016D01*
X018269Y014978D01*
X018232Y014938D01*
X018199Y014896D01*
X018169Y014851D01*
X018141Y014804D01*
X018118Y014755D01*
X018097Y014705D01*
X018080Y014654D01*
X018067Y014601D01*
X018057Y014548D01*
X018051Y014494D01*
X018049Y014440D01*
X018058Y014440D01*
X018060Y014493D01*
X018066Y014547D01*
X018076Y014599D01*
X018089Y014651D01*
X018106Y014702D01*
X018126Y014752D01*
X018149Y014800D01*
X018176Y014846D01*
X018206Y014890D01*
X018239Y014932D01*
X018275Y014972D01*
X018314Y015009D01*
X018355Y015044D01*
X018398Y015075D01*
X018443Y015104D01*
X018448Y015096D01*
X018403Y015068D01*
X018360Y015037D01*
X018320Y015003D01*
X018282Y014966D01*
X018246Y014927D01*
X018214Y014885D01*
X018184Y014841D01*
X018157Y014795D01*
X018134Y014748D01*
X018114Y014699D01*
X018097Y014649D01*
X018084Y014597D01*
X018075Y014545D01*
X018069Y014493D01*
X018067Y014440D01*
X018393Y014874D02*
X018426Y014836D01*
X018425Y014837D02*
X018396Y014809D01*
X018369Y014779D01*
X018344Y014746D01*
X018323Y014712D01*
X018304Y014676D01*
X018288Y014639D01*
X018275Y014601D01*
X018265Y014562D01*
X018259Y014522D01*
X018255Y014482D01*
X018255Y014441D01*
X018206Y014439D01*
X018205Y014439D01*
X018205Y014483D01*
X018209Y014528D01*
X018216Y014572D01*
X018227Y014615D01*
X018241Y014657D01*
X018259Y014698D01*
X018280Y014737D01*
X018303Y014775D01*
X018330Y014811D01*
X018360Y014844D01*
X018392Y014875D01*
X018398Y014868D01*
X018367Y014837D01*
X018337Y014805D01*
X018311Y014770D01*
X018287Y014733D01*
X018267Y014694D01*
X018250Y014654D01*
X018236Y014612D01*
X018225Y014570D01*
X018218Y014527D01*
X018214Y014483D01*
X018214Y014439D01*
X018223Y014440D01*
X018223Y014483D01*
X018227Y014526D01*
X018234Y014568D01*
X018244Y014610D01*
X018258Y014651D01*
X018275Y014690D01*
X018295Y014728D01*
X018318Y014765D01*
X018344Y014799D01*
X018373Y014831D01*
X018404Y014861D01*
X018410Y014854D01*
X018379Y014825D01*
X018351Y014793D01*
X018326Y014760D01*
X018303Y014724D01*
X018283Y014686D01*
X018266Y014647D01*
X018253Y014607D01*
X018243Y014566D01*
X018236Y014524D01*
X018232Y014482D01*
X018232Y014440D01*
X018241Y014440D01*
X018241Y014482D01*
X018245Y014523D01*
X018252Y014564D01*
X018262Y014605D01*
X018275Y014644D01*
X018291Y014683D01*
X018311Y014719D01*
X018333Y014754D01*
X018358Y014788D01*
X018386Y014819D01*
X018416Y014847D01*
X018422Y014840D01*
X018392Y014812D01*
X018365Y014782D01*
X018340Y014749D01*
X018318Y014715D01*
X018299Y014679D01*
X018283Y014641D01*
X018270Y014602D01*
X018260Y014563D01*
X018254Y014522D01*
X018250Y014482D01*
X018250Y014441D01*
X018206Y014431D02*
X018256Y014428D01*
X018255Y014429D02*
X018255Y014388D01*
X018259Y014348D01*
X018265Y014308D01*
X018275Y014269D01*
X018288Y014231D01*
X018304Y014194D01*
X018323Y014158D01*
X018344Y014124D01*
X018369Y014091D01*
X018396Y014061D01*
X018425Y014033D01*
X018393Y013996D01*
X018392Y013995D01*
X018360Y014026D01*
X018330Y014059D01*
X018303Y014095D01*
X018280Y014133D01*
X018259Y014172D01*
X018241Y014213D01*
X018227Y014255D01*
X018216Y014298D01*
X018209Y014342D01*
X018205Y014387D01*
X018205Y014431D01*
X018214Y014431D01*
X018214Y014387D01*
X018218Y014343D01*
X018225Y014300D01*
X018236Y014258D01*
X018250Y014216D01*
X018267Y014176D01*
X018287Y014137D01*
X018311Y014100D01*
X018337Y014065D01*
X018367Y014033D01*
X018398Y014002D01*
X018404Y014009D01*
X018373Y014039D01*
X018344Y014071D01*
X018318Y014105D01*
X018295Y014142D01*
X018275Y014180D01*
X018258Y014219D01*
X018244Y014260D01*
X018234Y014302D01*
X018227Y014344D01*
X018223Y014387D01*
X018223Y014430D01*
X018232Y014430D01*
X018232Y014388D01*
X018236Y014346D01*
X018243Y014304D01*
X018253Y014263D01*
X018266Y014223D01*
X018283Y014184D01*
X018303Y014146D01*
X018326Y014110D01*
X018351Y014077D01*
X018379Y014045D01*
X018410Y014016D01*
X018416Y014023D01*
X018386Y014051D01*
X018358Y014082D01*
X018333Y014116D01*
X018311Y014151D01*
X018291Y014187D01*
X018275Y014226D01*
X018262Y014265D01*
X018252Y014306D01*
X018245Y014347D01*
X018241Y014388D01*
X018241Y014430D01*
X018250Y014429D01*
X018250Y014388D01*
X018254Y014348D01*
X018260Y014307D01*
X018270Y014268D01*
X018283Y014229D01*
X018299Y014191D01*
X018318Y014155D01*
X018340Y014121D01*
X018365Y014088D01*
X018392Y014058D01*
X018422Y014030D01*
X019675Y014440D02*
X019585Y014440D01*
X019586Y014440D02*
X019584Y014494D01*
X019578Y014547D01*
X019568Y014600D01*
X019554Y014652D01*
X019537Y014703D01*
X019516Y014752D01*
X019492Y014800D01*
X019464Y014846D01*
X019433Y014890D01*
X019399Y014932D01*
X019363Y014971D01*
X019323Y015008D01*
X019281Y015041D01*
X019237Y015072D01*
X019191Y015099D01*
X019233Y015178D01*
X019282Y015150D01*
X019328Y015118D01*
X019373Y015083D01*
X019415Y015046D01*
X019455Y015005D01*
X019491Y014962D01*
X019525Y014917D01*
X019556Y014870D01*
X019583Y014820D01*
X019607Y014769D01*
X019628Y014717D01*
X019645Y014663D01*
X019658Y014608D01*
X019668Y014553D01*
X019674Y014496D01*
X019676Y014440D01*
X019667Y014440D01*
X019665Y014496D01*
X019659Y014551D01*
X019649Y014606D01*
X019636Y014661D01*
X019619Y014714D01*
X019599Y014766D01*
X019575Y014816D01*
X019548Y014865D01*
X019518Y014912D01*
X019484Y014957D01*
X019448Y014999D01*
X019409Y015039D01*
X019367Y015076D01*
X019323Y015111D01*
X019277Y015142D01*
X019229Y015170D01*
X019225Y015162D01*
X019272Y015134D01*
X019318Y015103D01*
X019361Y015069D01*
X019403Y015033D01*
X019441Y014993D01*
X019477Y014951D01*
X019510Y014907D01*
X019540Y014861D01*
X019567Y014812D01*
X019590Y014762D01*
X019611Y014711D01*
X019627Y014658D01*
X019640Y014605D01*
X019650Y014550D01*
X019656Y014495D01*
X019658Y014440D01*
X019649Y014440D01*
X019647Y014495D01*
X019641Y014549D01*
X019632Y014603D01*
X019619Y014656D01*
X019602Y014708D01*
X019582Y014759D01*
X019559Y014808D01*
X019532Y014856D01*
X019503Y014902D01*
X019470Y014946D01*
X019435Y014987D01*
X019396Y015026D01*
X019356Y015063D01*
X019313Y015096D01*
X019267Y015127D01*
X019220Y015154D01*
X019216Y015146D01*
X019263Y015119D01*
X019307Y015089D01*
X019350Y015056D01*
X019390Y015020D01*
X019428Y014981D01*
X019463Y014940D01*
X019495Y014897D01*
X019525Y014851D01*
X019551Y014804D01*
X019574Y014755D01*
X019594Y014705D01*
X019610Y014653D01*
X019623Y014601D01*
X019632Y014548D01*
X019638Y014494D01*
X019640Y014440D01*
X019631Y014440D01*
X019629Y014493D01*
X019623Y014546D01*
X019614Y014599D01*
X019601Y014651D01*
X019585Y014702D01*
X019566Y014752D01*
X019543Y014800D01*
X019517Y014847D01*
X019488Y014891D01*
X019456Y014934D01*
X019421Y014975D01*
X019384Y015013D01*
X019344Y015049D01*
X019302Y015082D01*
X019258Y015112D01*
X019212Y015139D01*
X019208Y015131D01*
X019253Y015104D01*
X019297Y015074D01*
X019338Y015042D01*
X019378Y015007D01*
X019415Y014969D01*
X019449Y014929D01*
X019481Y014886D01*
X019509Y014842D01*
X019535Y014796D01*
X019557Y014748D01*
X019577Y014699D01*
X019593Y014649D01*
X019605Y014597D01*
X019614Y014545D01*
X019620Y014493D01*
X019622Y014440D01*
X019613Y014440D01*
X019611Y014496D01*
X019604Y014551D01*
X019594Y014606D01*
X019580Y014660D01*
X019562Y014712D01*
X019541Y014764D01*
X019515Y014813D01*
X019487Y014861D01*
X019455Y014907D01*
X019420Y014950D01*
X019382Y014990D01*
X019341Y015028D01*
X019297Y015063D01*
X019251Y015094D01*
X019203Y015123D01*
X019199Y015115D01*
X019247Y015087D01*
X019292Y015056D01*
X019335Y015021D01*
X019375Y014984D01*
X019413Y014944D01*
X019448Y014901D01*
X019479Y014856D01*
X019508Y014809D01*
X019532Y014760D01*
X019554Y014709D01*
X019571Y014657D01*
X019585Y014604D01*
X019595Y014550D01*
X019602Y014495D01*
X019604Y014440D01*
X019595Y014440D01*
X019593Y014494D01*
X019587Y014548D01*
X019577Y014602D01*
X019563Y014654D01*
X019545Y014706D01*
X019524Y014756D01*
X019500Y014805D01*
X019472Y014851D01*
X019440Y014896D01*
X019406Y014938D01*
X019369Y014977D01*
X019329Y015014D01*
X019287Y015048D01*
X019242Y015079D01*
X019195Y015107D01*
X019375Y013790D02*
X019318Y013859D01*
X019318Y013858D02*
X019358Y013895D01*
X019396Y013934D01*
X019430Y013976D01*
X019462Y014020D01*
X019490Y014066D01*
X019515Y014115D01*
X019536Y014165D01*
X019554Y014216D01*
X019567Y014269D01*
X019577Y014322D01*
X019584Y014376D01*
X019586Y014430D01*
X019675Y014431D01*
X019676Y014430D01*
X019674Y014374D01*
X019668Y014318D01*
X019658Y014263D01*
X019645Y014208D01*
X019628Y014155D01*
X019608Y014102D01*
X019584Y014051D01*
X019557Y014002D01*
X019526Y013955D01*
X019493Y013910D01*
X019457Y013867D01*
X019418Y013827D01*
X019376Y013789D01*
X019370Y013796D01*
X019411Y013833D01*
X019450Y013873D01*
X019486Y013915D01*
X019519Y013960D01*
X019549Y014007D01*
X019576Y014055D01*
X019599Y014106D01*
X019620Y014158D01*
X019636Y014211D01*
X019649Y014265D01*
X019659Y014319D01*
X019665Y014374D01*
X019667Y014430D01*
X019658Y014430D01*
X019656Y014375D01*
X019650Y014320D01*
X019641Y014266D01*
X019628Y014213D01*
X019611Y014161D01*
X019591Y014109D01*
X019568Y014060D01*
X019541Y014011D01*
X019512Y013965D01*
X019479Y013921D01*
X019443Y013879D01*
X019405Y013840D01*
X019364Y013803D01*
X019359Y013810D01*
X019399Y013846D01*
X019437Y013885D01*
X019472Y013927D01*
X019504Y013970D01*
X019534Y014016D01*
X019560Y014064D01*
X019583Y014113D01*
X019603Y014163D01*
X019619Y014215D01*
X019632Y014268D01*
X019641Y014322D01*
X019647Y014376D01*
X019649Y014430D01*
X019640Y014430D01*
X019638Y014376D01*
X019632Y014323D01*
X019623Y014270D01*
X019610Y014218D01*
X019594Y014166D01*
X019575Y014116D01*
X019552Y014068D01*
X019526Y014021D01*
X019497Y013975D01*
X019465Y013932D01*
X019430Y013891D01*
X019393Y013853D01*
X019353Y013817D01*
X019347Y013824D01*
X019386Y013859D01*
X019423Y013897D01*
X019458Y013938D01*
X019489Y013981D01*
X019518Y014025D01*
X019544Y014072D01*
X019566Y014120D01*
X019586Y014169D01*
X019602Y014220D01*
X019614Y014272D01*
X019623Y014324D01*
X019629Y014377D01*
X019631Y014430D01*
X019622Y014430D01*
X019620Y014378D01*
X019614Y014325D01*
X019605Y014274D01*
X019593Y014223D01*
X019577Y014172D01*
X019558Y014123D01*
X019536Y014076D01*
X019510Y014030D01*
X019482Y013986D01*
X019451Y013944D01*
X019417Y013903D01*
X019380Y013866D01*
X019341Y013831D01*
X019335Y013837D01*
X019374Y013872D01*
X019410Y013910D01*
X019444Y013949D01*
X019475Y013991D01*
X019503Y014035D01*
X019528Y014080D01*
X019550Y014127D01*
X019569Y014175D01*
X019584Y014225D01*
X019597Y014275D01*
X019605Y014327D01*
X019611Y014378D01*
X019613Y014430D01*
X019604Y014430D01*
X019602Y014379D01*
X019597Y014328D01*
X019588Y014277D01*
X019576Y014227D01*
X019560Y014178D01*
X019542Y014131D01*
X019520Y014084D01*
X019495Y014039D01*
X019467Y013996D01*
X019437Y013955D01*
X019404Y013916D01*
X019368Y013879D01*
X019330Y013844D01*
X019324Y013851D01*
X019365Y013888D01*
X019403Y013928D01*
X019437Y013970D01*
X019469Y014015D01*
X019498Y014062D01*
X019523Y014111D01*
X019544Y014162D01*
X019562Y014213D01*
X019576Y014267D01*
X019586Y014321D01*
X019593Y014375D01*
X019595Y014430D01*
X017987Y014431D02*
X018077Y014431D01*
X018076Y014430D02*
X018078Y014376D01*
X018084Y014323D01*
X018094Y014270D01*
X018108Y014218D01*
X018125Y014167D01*
X018146Y014117D01*
X018170Y014069D01*
X018198Y014023D01*
X018229Y013979D01*
X018263Y013938D01*
X018300Y013898D01*
X018339Y013862D01*
X018282Y013794D01*
X018281Y013793D01*
X018240Y013831D01*
X018202Y013871D01*
X018166Y013914D01*
X018133Y013959D01*
X018103Y014006D01*
X018077Y014054D01*
X018053Y014105D01*
X018033Y014157D01*
X018017Y014210D01*
X018003Y014264D01*
X017994Y014319D01*
X017988Y014374D01*
X017986Y014430D01*
X017995Y014430D01*
X017997Y014375D01*
X018003Y014320D01*
X018012Y014266D01*
X018025Y014212D01*
X018042Y014160D01*
X018061Y014108D01*
X018085Y014058D01*
X018111Y014010D01*
X018141Y013964D01*
X018173Y013919D01*
X018208Y013877D01*
X018247Y013837D01*
X018287Y013800D01*
X018293Y013807D01*
X018253Y013844D01*
X018215Y013883D01*
X018180Y013925D01*
X018148Y013969D01*
X018119Y014015D01*
X018093Y014063D01*
X018070Y014112D01*
X018050Y014163D01*
X018034Y014215D01*
X018021Y014268D01*
X018012Y014321D01*
X018006Y014376D01*
X018004Y014430D01*
X018013Y014430D01*
X018015Y014376D01*
X018021Y014323D01*
X018030Y014270D01*
X018043Y014217D01*
X018059Y014166D01*
X018078Y014115D01*
X018101Y014067D01*
X018126Y014019D01*
X018155Y013974D01*
X018187Y013930D01*
X018222Y013889D01*
X018259Y013850D01*
X018299Y013814D01*
X018305Y013821D01*
X018265Y013857D01*
X018228Y013895D01*
X018194Y013936D01*
X018163Y013979D01*
X018134Y014024D01*
X018109Y014071D01*
X018086Y014119D01*
X018067Y014169D01*
X018051Y014220D01*
X018039Y014271D01*
X018030Y014324D01*
X018024Y014377D01*
X018022Y014430D01*
X018031Y014430D01*
X018033Y014377D01*
X018039Y014325D01*
X018048Y014273D01*
X018060Y014222D01*
X018076Y014172D01*
X018095Y014122D01*
X018117Y014075D01*
X018142Y014028D01*
X018170Y013984D01*
X018201Y013942D01*
X018235Y013901D01*
X018272Y013863D01*
X018310Y013828D01*
X018316Y013834D01*
X018278Y013870D01*
X018242Y013907D01*
X018208Y013947D01*
X018178Y013989D01*
X018150Y014033D01*
X018125Y014079D01*
X018103Y014126D01*
X018084Y014175D01*
X018069Y014224D01*
X018056Y014275D01*
X018048Y014326D01*
X018042Y014378D01*
X018040Y014430D01*
X018049Y014430D01*
X018051Y014374D01*
X018058Y014319D01*
X018068Y014264D01*
X018082Y014210D01*
X018100Y014157D01*
X018122Y014106D01*
X018147Y014056D01*
X018176Y014008D01*
X018208Y013963D01*
X018243Y013920D01*
X018281Y013879D01*
X018322Y013841D01*
X018328Y013848D01*
X018287Y013885D01*
X018250Y013926D01*
X018215Y013968D01*
X018183Y014013D01*
X018155Y014061D01*
X018130Y014110D01*
X018108Y014161D01*
X018091Y014213D01*
X018077Y014266D01*
X018067Y014320D01*
X018060Y014375D01*
X018058Y014430D01*
X018067Y014430D01*
X018069Y014376D01*
X018075Y014322D01*
X018085Y014268D01*
X018099Y014215D01*
X018117Y014164D01*
X018138Y014114D01*
X018163Y014065D01*
X018191Y014018D01*
X018222Y013974D01*
X018256Y013932D01*
X018294Y013892D01*
X018334Y013855D01*
D21*
X010751Y016435D03*
X010751Y017435D03*
X007911Y017435D03*
X007911Y016435D03*
D22*
X007331Y011485D03*
X008831Y010385D03*
X020831Y013385D03*
D23*
X020831Y012760D03*
X020831Y015110D03*
X008831Y012110D03*
X007331Y012110D03*
X007331Y009760D03*
X008831Y009760D03*
D24*
X011041Y006885D03*
X012616Y006885D03*
X016366Y006885D03*
X017941Y006885D03*
X019491Y006885D03*
X021066Y006885D03*
X022616Y006885D03*
X024166Y006885D03*
X025741Y006885D03*
X027291Y006885D03*
X027291Y006885D03*
M02*
