G75*
G70*
%OFA0B0*%
%FSLAX24Y24*%
%IPPOS*%
%LPD*%
%AMOC8*
5,1,8,0,0,1.08239X$1,22.5*
%
%ADD10C,0.0080*%
%ADD11C,0.0640*%
%ADD12C,0.0000*%
%ADD13C,0.1340*%
%ADD14OC8,0.0560*%
%ADD15C,0.0560*%
%ADD16OC8,0.0670*%
%ADD17C,0.0670*%
%ADD18OC8,0.0700*%
%ADD19C,0.0560*%
%ADD20C,0.0512*%
%ADD21C,0.0800*%
%ADD22R,0.0780X0.0780*%
%ADD23C,0.0780*%
%ADD24C,0.0640*%
%ADD25R,0.0540X0.0290*%
%ADD26OC8,0.0890*%
%ADD27C,0.1044*%
D10*
X006371Y004935D02*
X006371Y022931D01*
X031271Y022931D01*
X031271Y004935D01*
X006371Y004935D01*
D11*
X022531Y011535D02*
X023131Y011535D01*
X023131Y012435D02*
X022531Y012435D01*
X022531Y013335D02*
X023131Y013335D01*
X025531Y013335D02*
X026131Y013335D01*
X026131Y012435D02*
X025531Y012435D01*
X025531Y011535D02*
X026131Y011535D01*
X028531Y011535D02*
X029131Y011535D01*
X029131Y012435D02*
X028531Y012435D01*
X028531Y013335D02*
X029131Y013335D01*
D12*
X029181Y006435D02*
X029183Y006485D01*
X029189Y006535D01*
X029199Y006585D01*
X029212Y006633D01*
X029229Y006681D01*
X029250Y006727D01*
X029274Y006771D01*
X029302Y006813D01*
X029333Y006853D01*
X029367Y006890D01*
X029404Y006925D01*
X029443Y006956D01*
X029484Y006985D01*
X029528Y007010D01*
X029574Y007032D01*
X029621Y007050D01*
X029669Y007064D01*
X029718Y007075D01*
X029768Y007082D01*
X029818Y007085D01*
X029869Y007084D01*
X029919Y007079D01*
X029969Y007070D01*
X030017Y007058D01*
X030065Y007041D01*
X030111Y007021D01*
X030156Y006998D01*
X030199Y006971D01*
X030239Y006941D01*
X030277Y006908D01*
X030312Y006872D01*
X030345Y006833D01*
X030374Y006792D01*
X030400Y006749D01*
X030423Y006704D01*
X030442Y006657D01*
X030457Y006609D01*
X030469Y006560D01*
X030477Y006510D01*
X030481Y006460D01*
X030481Y006410D01*
X030477Y006360D01*
X030469Y006310D01*
X030457Y006261D01*
X030442Y006213D01*
X030423Y006166D01*
X030400Y006121D01*
X030374Y006078D01*
X030345Y006037D01*
X030312Y005998D01*
X030277Y005962D01*
X030239Y005929D01*
X030199Y005899D01*
X030156Y005872D01*
X030111Y005849D01*
X030065Y005829D01*
X030017Y005812D01*
X029969Y005800D01*
X029919Y005791D01*
X029869Y005786D01*
X029818Y005785D01*
X029768Y005788D01*
X029718Y005795D01*
X029669Y005806D01*
X029621Y005820D01*
X029574Y005838D01*
X029528Y005860D01*
X029484Y005885D01*
X029443Y005914D01*
X029404Y005945D01*
X029367Y005980D01*
X029333Y006017D01*
X029302Y006057D01*
X029274Y006099D01*
X029250Y006143D01*
X029229Y006189D01*
X029212Y006237D01*
X029199Y006285D01*
X029189Y006335D01*
X029183Y006385D01*
X029181Y006435D01*
X029181Y021435D02*
X029183Y021485D01*
X029189Y021535D01*
X029199Y021585D01*
X029212Y021633D01*
X029229Y021681D01*
X029250Y021727D01*
X029274Y021771D01*
X029302Y021813D01*
X029333Y021853D01*
X029367Y021890D01*
X029404Y021925D01*
X029443Y021956D01*
X029484Y021985D01*
X029528Y022010D01*
X029574Y022032D01*
X029621Y022050D01*
X029669Y022064D01*
X029718Y022075D01*
X029768Y022082D01*
X029818Y022085D01*
X029869Y022084D01*
X029919Y022079D01*
X029969Y022070D01*
X030017Y022058D01*
X030065Y022041D01*
X030111Y022021D01*
X030156Y021998D01*
X030199Y021971D01*
X030239Y021941D01*
X030277Y021908D01*
X030312Y021872D01*
X030345Y021833D01*
X030374Y021792D01*
X030400Y021749D01*
X030423Y021704D01*
X030442Y021657D01*
X030457Y021609D01*
X030469Y021560D01*
X030477Y021510D01*
X030481Y021460D01*
X030481Y021410D01*
X030477Y021360D01*
X030469Y021310D01*
X030457Y021261D01*
X030442Y021213D01*
X030423Y021166D01*
X030400Y021121D01*
X030374Y021078D01*
X030345Y021037D01*
X030312Y020998D01*
X030277Y020962D01*
X030239Y020929D01*
X030199Y020899D01*
X030156Y020872D01*
X030111Y020849D01*
X030065Y020829D01*
X030017Y020812D01*
X029969Y020800D01*
X029919Y020791D01*
X029869Y020786D01*
X029818Y020785D01*
X029768Y020788D01*
X029718Y020795D01*
X029669Y020806D01*
X029621Y020820D01*
X029574Y020838D01*
X029528Y020860D01*
X029484Y020885D01*
X029443Y020914D01*
X029404Y020945D01*
X029367Y020980D01*
X029333Y021017D01*
X029302Y021057D01*
X029274Y021099D01*
X029250Y021143D01*
X029229Y021189D01*
X029212Y021237D01*
X029199Y021285D01*
X029189Y021335D01*
X029183Y021385D01*
X029181Y021435D01*
X007181Y021435D02*
X007183Y021485D01*
X007189Y021535D01*
X007199Y021585D01*
X007212Y021633D01*
X007229Y021681D01*
X007250Y021727D01*
X007274Y021771D01*
X007302Y021813D01*
X007333Y021853D01*
X007367Y021890D01*
X007404Y021925D01*
X007443Y021956D01*
X007484Y021985D01*
X007528Y022010D01*
X007574Y022032D01*
X007621Y022050D01*
X007669Y022064D01*
X007718Y022075D01*
X007768Y022082D01*
X007818Y022085D01*
X007869Y022084D01*
X007919Y022079D01*
X007969Y022070D01*
X008017Y022058D01*
X008065Y022041D01*
X008111Y022021D01*
X008156Y021998D01*
X008199Y021971D01*
X008239Y021941D01*
X008277Y021908D01*
X008312Y021872D01*
X008345Y021833D01*
X008374Y021792D01*
X008400Y021749D01*
X008423Y021704D01*
X008442Y021657D01*
X008457Y021609D01*
X008469Y021560D01*
X008477Y021510D01*
X008481Y021460D01*
X008481Y021410D01*
X008477Y021360D01*
X008469Y021310D01*
X008457Y021261D01*
X008442Y021213D01*
X008423Y021166D01*
X008400Y021121D01*
X008374Y021078D01*
X008345Y021037D01*
X008312Y020998D01*
X008277Y020962D01*
X008239Y020929D01*
X008199Y020899D01*
X008156Y020872D01*
X008111Y020849D01*
X008065Y020829D01*
X008017Y020812D01*
X007969Y020800D01*
X007919Y020791D01*
X007869Y020786D01*
X007818Y020785D01*
X007768Y020788D01*
X007718Y020795D01*
X007669Y020806D01*
X007621Y020820D01*
X007574Y020838D01*
X007528Y020860D01*
X007484Y020885D01*
X007443Y020914D01*
X007404Y020945D01*
X007367Y020980D01*
X007333Y021017D01*
X007302Y021057D01*
X007274Y021099D01*
X007250Y021143D01*
X007229Y021189D01*
X007212Y021237D01*
X007199Y021285D01*
X007189Y021335D01*
X007183Y021385D01*
X007181Y021435D01*
X007181Y006435D02*
X007183Y006485D01*
X007189Y006535D01*
X007199Y006585D01*
X007212Y006633D01*
X007229Y006681D01*
X007250Y006727D01*
X007274Y006771D01*
X007302Y006813D01*
X007333Y006853D01*
X007367Y006890D01*
X007404Y006925D01*
X007443Y006956D01*
X007484Y006985D01*
X007528Y007010D01*
X007574Y007032D01*
X007621Y007050D01*
X007669Y007064D01*
X007718Y007075D01*
X007768Y007082D01*
X007818Y007085D01*
X007869Y007084D01*
X007919Y007079D01*
X007969Y007070D01*
X008017Y007058D01*
X008065Y007041D01*
X008111Y007021D01*
X008156Y006998D01*
X008199Y006971D01*
X008239Y006941D01*
X008277Y006908D01*
X008312Y006872D01*
X008345Y006833D01*
X008374Y006792D01*
X008400Y006749D01*
X008423Y006704D01*
X008442Y006657D01*
X008457Y006609D01*
X008469Y006560D01*
X008477Y006510D01*
X008481Y006460D01*
X008481Y006410D01*
X008477Y006360D01*
X008469Y006310D01*
X008457Y006261D01*
X008442Y006213D01*
X008423Y006166D01*
X008400Y006121D01*
X008374Y006078D01*
X008345Y006037D01*
X008312Y005998D01*
X008277Y005962D01*
X008239Y005929D01*
X008199Y005899D01*
X008156Y005872D01*
X008111Y005849D01*
X008065Y005829D01*
X008017Y005812D01*
X007969Y005800D01*
X007919Y005791D01*
X007869Y005786D01*
X007818Y005785D01*
X007768Y005788D01*
X007718Y005795D01*
X007669Y005806D01*
X007621Y005820D01*
X007574Y005838D01*
X007528Y005860D01*
X007484Y005885D01*
X007443Y005914D01*
X007404Y005945D01*
X007367Y005980D01*
X007333Y006017D01*
X007302Y006057D01*
X007274Y006099D01*
X007250Y006143D01*
X007229Y006189D01*
X007212Y006237D01*
X007199Y006285D01*
X007189Y006335D01*
X007183Y006385D01*
X007181Y006435D01*
D13*
X007831Y006435D03*
X007831Y021435D03*
X029831Y021435D03*
X029831Y006435D03*
D14*
X030331Y012935D03*
X027331Y012935D03*
X024331Y012935D03*
X024331Y016935D03*
X027331Y016935D03*
X030331Y016935D03*
X017831Y017185D03*
X016831Y017185D03*
X017331Y015935D03*
X017331Y011935D03*
X011331Y016435D03*
X011331Y017435D03*
X008331Y014035D03*
X007331Y016435D03*
X007331Y017435D03*
D15*
X008331Y014835D03*
D16*
X015331Y015435D03*
D17*
X015331Y014435D03*
D18*
X018831Y013935D03*
X018831Y014935D03*
X022831Y014435D03*
X022831Y015435D03*
X025831Y015435D03*
X025831Y014435D03*
X028831Y014435D03*
X028831Y015435D03*
D19*
X019091Y018435D02*
X018571Y018435D01*
X018571Y019435D02*
X019091Y019435D01*
X019091Y020435D02*
X018571Y020435D01*
X018571Y021435D02*
X019091Y021435D01*
X016091Y021435D02*
X015571Y021435D01*
X015571Y020435D02*
X016091Y020435D01*
X016091Y019435D02*
X015571Y019435D01*
X015571Y018435D02*
X016091Y018435D01*
X013591Y014935D02*
X013071Y014935D01*
X013071Y013935D02*
X013591Y013935D01*
X013591Y012935D02*
X013071Y012935D01*
X013071Y011935D02*
X013591Y011935D01*
X010591Y011935D02*
X010071Y011935D01*
X010071Y012935D02*
X010591Y012935D01*
X010591Y013935D02*
X010071Y013935D01*
X010071Y014935D02*
X010591Y014935D01*
X010831Y018435D02*
X011351Y018435D01*
X011351Y019435D02*
X010831Y019435D01*
X007831Y019435D02*
X007311Y019435D01*
X007311Y018435D02*
X007831Y018435D01*
D20*
X015331Y012829D03*
X015331Y012041D03*
D21*
X020831Y011935D03*
X020831Y015935D03*
X008831Y012935D03*
X007331Y012935D03*
X007331Y008935D03*
X008831Y008935D03*
D22*
X010081Y021485D03*
X027831Y021435D03*
D23*
X026831Y021435D03*
X025831Y021435D03*
X024831Y021435D03*
X023831Y021435D03*
X022831Y021435D03*
X012081Y021485D03*
X011081Y021385D03*
D24*
X014381Y021435D03*
X014281Y020435D03*
X014381Y019435D03*
X014281Y018435D03*
X020281Y018435D03*
X020381Y019435D03*
X020281Y020435D03*
X020381Y021435D03*
D25*
X022831Y017635D03*
X022831Y017235D03*
X025831Y017235D03*
X025831Y017635D03*
X028831Y017635D03*
X028831Y017235D03*
X013331Y016635D03*
X013331Y016235D03*
D26*
X012331Y016435D03*
X022831Y016435D03*
X025831Y016435D03*
X028831Y016435D03*
D27*
X027288Y008937D02*
X027288Y007933D01*
X025729Y007933D02*
X025729Y008937D01*
X024170Y008937D02*
X024170Y007933D01*
X022610Y007933D02*
X022610Y008937D01*
X021051Y008937D02*
X021051Y007933D01*
X019492Y007933D02*
X019492Y008937D01*
X017933Y008937D02*
X017933Y007933D01*
X016374Y007933D02*
X016374Y008937D01*
X012610Y008937D02*
X012610Y007933D01*
X011051Y007933D02*
X011051Y008937D01*
M02*
