G75*
%MOIN*%
%OFA0B0*%
%FSLAX24Y24*%
%IPPOS*%
%LPD*%
%AMOC8*
5,1,8,0,0,1.08239X$1,22.5*
%
%ADD10C,0.0080*%
%ADD11C,0.0240*%
%ADD12C,0.0600*%
%ADD13C,0.0000*%
%ADD14OC8,0.0500*%
%ADD15C,0.0500*%
%ADD16OC8,0.0630*%
%ADD17C,0.0630*%
%ADD18OC8,0.0480*%
%ADD19OC8,0.0660*%
%ADD20C,0.0480*%
%ADD21C,0.0472*%
%ADD22C,0.0760*%
%ADD23R,0.0740X0.0740*%
%ADD24C,0.0740*%
%ADD25C,0.0600*%
%ADD26C,0.0100*%
%ADD27R,0.0500X0.0250*%
%ADD28OC8,0.0850*%
%ADD29C,0.1004*%
%ADD30C,0.0560*%
%ADD31C,0.0500*%
D10*
X006373Y004935D02*
X031273Y004935D01*
D11*
X006373Y004935D02*
X006373Y022931D01*
X031273Y022931D01*
X031273Y004935D01*
X029040Y005245D02*
X008626Y005245D01*
X008678Y005272D01*
X008678Y005272D01*
X008996Y005590D01*
X009201Y005991D01*
X009271Y006435D01*
X009201Y006879D01*
X009201Y006879D01*
X008996Y007280D01*
X008996Y007280D01*
X008842Y007435D01*
X010389Y007435D01*
X010588Y007236D01*
X010890Y007111D01*
X011217Y007111D01*
X011519Y007236D01*
X011750Y007467D01*
X011875Y007770D01*
X011875Y009100D01*
X011750Y009403D01*
X011519Y009634D01*
X011217Y009759D01*
X010890Y009759D01*
X010588Y009634D01*
X010357Y009403D01*
X010231Y009100D01*
X010231Y008635D01*
X009380Y008635D01*
X009453Y008812D01*
X009453Y009058D01*
X009359Y009286D01*
X009353Y009292D01*
X009353Y009720D01*
X009548Y009915D01*
X010781Y009915D01*
X010832Y009905D01*
X010884Y009915D01*
X010936Y009915D01*
X010984Y009935D01*
X011035Y009945D01*
X011079Y009974D01*
X011127Y009994D01*
X011164Y010031D01*
X011740Y010415D01*
X014936Y010415D01*
X015127Y010494D01*
X015274Y010640D01*
X015774Y011140D01*
X015853Y011332D01*
X015853Y012145D01*
X015774Y012336D01*
X015644Y012466D01*
X015737Y012559D01*
X015809Y012734D01*
X015809Y012923D01*
X015737Y013098D01*
X015603Y013232D01*
X015428Y013305D01*
X015238Y013305D01*
X015063Y013232D01*
X014929Y013098D01*
X014857Y012923D01*
X014857Y012734D01*
X014929Y012559D01*
X015022Y012466D01*
X014892Y012336D01*
X014813Y012145D01*
X014813Y011650D01*
X014618Y011455D01*
X012103Y011455D01*
X012103Y013038D01*
X012024Y013230D01*
X011877Y013376D01*
X011686Y013455D01*
X010230Y013455D01*
X010133Y013415D01*
X009997Y013415D01*
X009821Y013342D01*
X009686Y013207D01*
X009613Y013030D01*
X009613Y012840D01*
X009686Y012663D01*
X009821Y012528D01*
X009997Y012455D01*
X010133Y012455D01*
X010230Y012415D01*
X011063Y012415D01*
X011063Y011213D01*
X010675Y010955D01*
X009230Y010955D01*
X009038Y010876D01*
X008892Y010730D01*
X008392Y010230D01*
X008313Y010038D01*
X008313Y009292D01*
X008307Y009286D01*
X008213Y009058D01*
X008213Y008904D01*
X008026Y009090D01*
X007926Y009332D01*
X007729Y009528D01*
X007472Y009635D01*
X007194Y009635D01*
X006936Y009528D01*
X006763Y009355D01*
X006763Y012691D01*
X006807Y012584D01*
X006982Y012409D01*
X007210Y012315D01*
X007456Y012315D01*
X007684Y012409D01*
X007859Y012584D01*
X007953Y012812D01*
X007953Y013058D01*
X007859Y013286D01*
X007853Y013292D01*
X007853Y014220D01*
X007863Y014230D01*
X007863Y014035D01*
X007863Y013840D01*
X008138Y013565D01*
X008333Y013565D01*
X008528Y013565D01*
X008803Y013840D01*
X008803Y014035D01*
X008803Y014230D01*
X008633Y014400D01*
X008648Y014415D01*
X010436Y014415D01*
X010533Y014455D01*
X010668Y014455D01*
X010845Y014528D01*
X010980Y014663D01*
X011053Y014840D01*
X011053Y015030D01*
X010980Y015207D01*
X010845Y015342D01*
X010668Y015415D01*
X010533Y015415D01*
X010436Y015455D01*
X008330Y015455D01*
X008138Y015376D01*
X008118Y015355D01*
X007630Y015355D01*
X007438Y015276D01*
X007292Y015130D01*
X006892Y014730D01*
X006813Y014538D01*
X006813Y013292D01*
X006807Y013286D01*
X006763Y013179D01*
X006763Y020440D01*
X006964Y020239D01*
X006964Y020239D01*
X007376Y020029D01*
X007833Y019957D01*
X008290Y020029D01*
X008702Y020239D01*
X009029Y020566D01*
X009029Y020566D01*
X009239Y020978D01*
X009311Y021435D01*
X009239Y021892D01*
X009029Y022304D01*
X008791Y022541D01*
X013502Y022541D01*
X013379Y022490D01*
X013278Y022389D01*
X013129Y022240D01*
X013028Y022139D01*
X012973Y022007D01*
X012973Y016974D01*
X012947Y016963D01*
X012879Y016896D01*
X012860Y016849D01*
X012608Y017100D01*
X012057Y017100D01*
X011702Y016745D01*
X011532Y016915D01*
X011134Y016915D01*
X011014Y016795D01*
X009982Y016795D01*
X008313Y018464D01*
X008313Y018530D01*
X008240Y018707D01*
X008105Y018842D01*
X007928Y018915D01*
X007257Y018915D01*
X007081Y018842D01*
X006946Y018707D01*
X006873Y018530D01*
X006873Y018340D01*
X006946Y018163D01*
X007081Y018028D01*
X007257Y017955D01*
X007804Y017955D01*
X009528Y016231D01*
X009629Y016130D01*
X009761Y016075D01*
X011014Y016075D01*
X011134Y015955D01*
X011532Y015955D01*
X011702Y016125D01*
X012057Y015770D01*
X012608Y015770D01*
X012757Y015918D01*
X012861Y015875D01*
X013023Y015875D01*
X013035Y015870D01*
X013631Y015870D01*
X013719Y015907D01*
X013786Y015974D01*
X013823Y016062D01*
X013823Y016408D01*
X013812Y016435D01*
X013823Y016462D01*
X013823Y016808D01*
X013786Y016896D01*
X013719Y016963D01*
X013693Y016974D01*
X013693Y021786D01*
X013732Y021825D01*
X014009Y021825D01*
X013925Y021741D01*
X013843Y021542D01*
X013843Y021328D01*
X013925Y021129D01*
X014077Y020977D01*
X014129Y020956D01*
X013977Y020893D01*
X013825Y020741D01*
X013743Y020542D01*
X013743Y020328D01*
X013825Y020129D01*
X013977Y019977D01*
X014129Y019914D01*
X014077Y019893D01*
X013925Y019741D01*
X013843Y019542D01*
X013843Y019328D01*
X013925Y019129D01*
X014077Y018977D01*
X014161Y018942D01*
X014083Y018917D01*
X014010Y018880D01*
X013944Y018832D01*
X013886Y018774D01*
X013838Y018708D01*
X013801Y018635D01*
X013776Y018557D01*
X013763Y018476D01*
X013763Y018435D01*
X013763Y018394D01*
X013776Y018313D01*
X013801Y018235D01*
X013838Y018162D01*
X013886Y018096D01*
X013944Y018038D01*
X014010Y017990D01*
X014083Y017953D01*
X014161Y017928D01*
X014242Y017915D01*
X014283Y017915D01*
X014324Y017915D01*
X014405Y017928D01*
X014483Y017953D01*
X014555Y017990D01*
X014622Y018038D01*
X014680Y018096D01*
X014728Y018162D01*
X014765Y018235D01*
X014790Y018313D01*
X014803Y018394D01*
X014803Y018435D01*
X014803Y018476D01*
X014790Y018557D01*
X014765Y018635D01*
X014728Y018708D01*
X014680Y018774D01*
X014622Y018832D01*
X014555Y018880D01*
X014510Y018903D01*
X014689Y018977D01*
X014787Y019075D01*
X015274Y019075D01*
X015321Y019028D01*
X015497Y018955D01*
X016168Y018955D01*
X016345Y019028D01*
X016473Y019156D01*
X016473Y018863D01*
X016528Y018731D01*
X017614Y017645D01*
X017353Y017384D01*
X017353Y016986D01*
X017634Y016705D01*
X018032Y016705D01*
X018313Y016986D01*
X018313Y017325D01*
X022343Y017325D01*
X022343Y017062D01*
X022379Y016974D01*
X022406Y016948D01*
X022168Y016710D01*
X022168Y016160D01*
X022460Y015868D01*
X022263Y015671D01*
X022263Y015199D01*
X022541Y014921D01*
X022283Y014663D01*
X022283Y014435D01*
X022283Y014207D01*
X022605Y013885D01*
X022833Y013885D01*
X023061Y013885D01*
X023223Y014047D01*
X023223Y013875D01*
X022426Y013875D01*
X022227Y013793D01*
X022075Y013641D01*
X021993Y013442D01*
X021993Y013228D01*
X022075Y013029D01*
X022163Y012942D01*
X022007Y012786D01*
X021913Y012558D01*
X021913Y012312D01*
X022007Y012084D01*
X022177Y011914D01*
X022136Y011874D01*
X022088Y011808D01*
X022051Y011735D01*
X022026Y011657D01*
X022013Y011576D01*
X022013Y011535D01*
X022013Y011494D01*
X022026Y011413D01*
X022051Y011335D01*
X022088Y011262D01*
X022136Y011196D01*
X022194Y011138D01*
X022260Y011090D01*
X022333Y011053D01*
X022411Y011028D01*
X022492Y011015D01*
X022833Y011015D01*
X023174Y011015D01*
X023255Y011028D01*
X023333Y011053D01*
X023405Y011090D01*
X023472Y011138D01*
X023530Y011196D01*
X023578Y011262D01*
X023615Y011335D01*
X023640Y011413D01*
X023653Y011494D01*
X023653Y011535D01*
X023653Y011576D01*
X023640Y011657D01*
X023615Y011735D01*
X023578Y011808D01*
X023530Y011874D01*
X023489Y011914D01*
X023659Y012084D01*
X023753Y012312D01*
X023753Y012558D01*
X023659Y012786D01*
X023503Y012942D01*
X023537Y012975D01*
X023784Y012975D01*
X023853Y012906D01*
X023853Y012736D01*
X024134Y012455D01*
X024532Y012455D01*
X024813Y012736D01*
X024813Y013134D01*
X024532Y013415D01*
X024362Y013415D01*
X024238Y013539D01*
X024137Y013640D01*
X024005Y013695D01*
X023943Y013695D01*
X023943Y015757D01*
X023888Y015889D01*
X023787Y015990D01*
X023498Y016279D01*
X023498Y016710D01*
X023260Y016948D01*
X023286Y016974D01*
X023323Y017062D01*
X023323Y017408D01*
X023312Y017435D01*
X023323Y017462D01*
X023323Y017808D01*
X023286Y017896D01*
X023219Y017963D01*
X023131Y018000D01*
X023013Y018000D01*
X022905Y018045D01*
X020657Y018045D01*
X020741Y018129D01*
X020823Y018328D01*
X020823Y018542D01*
X020741Y018741D01*
X020589Y018893D01*
X020537Y018914D01*
X020689Y018977D01*
X020787Y019075D01*
X024184Y019075D01*
X025375Y017884D01*
X025343Y017808D01*
X025343Y017462D01*
X025354Y017435D01*
X025343Y017408D01*
X025343Y017062D01*
X025379Y016974D01*
X025406Y016948D01*
X025168Y016710D01*
X025168Y016160D01*
X025460Y015868D01*
X025263Y015671D01*
X025263Y015199D01*
X025541Y014921D01*
X025283Y014663D01*
X025283Y014435D01*
X025283Y014207D01*
X025605Y013885D01*
X025833Y013885D01*
X026061Y013885D01*
X026223Y014047D01*
X026223Y013875D01*
X025426Y013875D01*
X025227Y013793D01*
X025075Y013641D01*
X024993Y013442D01*
X024993Y013228D01*
X025075Y013029D01*
X025163Y012942D01*
X025007Y012786D01*
X024913Y012558D01*
X024913Y012312D01*
X025007Y012084D01*
X025177Y011914D01*
X025136Y011874D01*
X025088Y011808D01*
X025051Y011735D01*
X025026Y011657D01*
X025013Y011576D01*
X025013Y011535D01*
X025013Y011494D01*
X025026Y011413D01*
X025051Y011335D01*
X025088Y011262D01*
X025136Y011196D01*
X025194Y011138D01*
X025260Y011090D01*
X025333Y011053D01*
X025411Y011028D01*
X025492Y011015D01*
X025833Y011015D01*
X026174Y011015D01*
X026255Y011028D01*
X026333Y011053D01*
X026405Y011090D01*
X026472Y011138D01*
X026530Y011196D01*
X026578Y011262D01*
X026615Y011335D01*
X026640Y011413D01*
X026653Y011494D01*
X026653Y011535D01*
X026653Y011576D01*
X026640Y011657D01*
X026615Y011735D01*
X026578Y011808D01*
X026530Y011874D01*
X026489Y011914D01*
X026659Y012084D01*
X026753Y012312D01*
X026753Y012558D01*
X026659Y012786D01*
X026503Y012942D01*
X026537Y012975D01*
X026784Y012975D01*
X026853Y012906D01*
X026853Y012736D01*
X027134Y012455D01*
X027532Y012455D01*
X027813Y012736D01*
X027813Y013134D01*
X027532Y013415D01*
X027362Y013415D01*
X027238Y013539D01*
X027137Y013640D01*
X027005Y013695D01*
X026943Y013695D01*
X026943Y015900D01*
X026950Y015935D01*
X026943Y015971D01*
X026943Y016007D01*
X026929Y016040D01*
X026922Y016076D01*
X026902Y016106D01*
X026888Y016139D01*
X026862Y016165D01*
X026842Y016195D01*
X026812Y016215D01*
X026787Y016240D01*
X026753Y016254D01*
X026498Y016424D01*
X026498Y016710D01*
X026260Y016948D01*
X026286Y016974D01*
X026323Y017062D01*
X026323Y017408D01*
X026312Y017435D01*
X026323Y017462D01*
X026323Y017808D01*
X026286Y017896D01*
X026219Y017963D01*
X026193Y017974D01*
X026193Y018007D01*
X026138Y018139D01*
X026037Y018240D01*
X024638Y019639D01*
X024537Y019740D01*
X024405Y019795D01*
X020787Y019795D01*
X020689Y019893D01*
X020537Y019956D01*
X020589Y019977D01*
X020687Y020075D01*
X026184Y020075D01*
X028375Y017884D01*
X028343Y017808D01*
X028343Y017462D01*
X028354Y017435D01*
X028343Y017408D01*
X028343Y017062D01*
X028379Y016974D01*
X028406Y016948D01*
X028168Y016710D01*
X028168Y016160D01*
X028460Y015868D01*
X028263Y015671D01*
X028263Y015199D01*
X028541Y014921D01*
X028283Y014663D01*
X028283Y014435D01*
X028283Y014207D01*
X028605Y013885D01*
X028833Y013885D01*
X029061Y013885D01*
X029223Y014047D01*
X029223Y013875D01*
X028426Y013875D01*
X028227Y013793D01*
X028075Y013641D01*
X027993Y013442D01*
X027993Y013228D01*
X028075Y013029D01*
X028163Y012942D01*
X028007Y012786D01*
X027913Y012558D01*
X027913Y012312D01*
X028007Y012084D01*
X028177Y011914D01*
X028136Y011874D01*
X028088Y011808D01*
X028051Y011735D01*
X028026Y011657D01*
X028013Y011576D01*
X028013Y011535D01*
X028013Y011494D01*
X028026Y011413D01*
X028051Y011335D01*
X028088Y011262D01*
X028136Y011196D01*
X028194Y011138D01*
X028260Y011090D01*
X028333Y011053D01*
X028411Y011028D01*
X028492Y011015D01*
X028833Y011015D01*
X029174Y011015D01*
X029255Y011028D01*
X029333Y011053D01*
X029405Y011090D01*
X029472Y011138D01*
X029530Y011196D01*
X029578Y011262D01*
X029615Y011335D01*
X029640Y011413D01*
X029653Y011494D01*
X029653Y011535D01*
X029653Y011576D01*
X029640Y011657D01*
X029615Y011735D01*
X029578Y011808D01*
X029530Y011874D01*
X029489Y011914D01*
X029659Y012084D01*
X029753Y012312D01*
X029753Y012558D01*
X029659Y012786D01*
X029503Y012942D01*
X029537Y012975D01*
X029784Y012975D01*
X029853Y012906D01*
X029853Y012736D01*
X030134Y012455D01*
X030532Y012455D01*
X030813Y012736D01*
X030813Y013134D01*
X030532Y013415D01*
X030362Y013415D01*
X030238Y013539D01*
X030137Y013640D01*
X030005Y013695D01*
X029943Y013695D01*
X029943Y015900D01*
X029950Y015935D01*
X029943Y015971D01*
X029943Y016007D01*
X029929Y016040D01*
X029922Y016076D01*
X029902Y016106D01*
X029888Y016139D01*
X029862Y016165D01*
X029842Y016195D01*
X029812Y016215D01*
X029787Y016240D01*
X029753Y016254D01*
X029498Y016424D01*
X029498Y016710D01*
X029260Y016948D01*
X029286Y016974D01*
X029323Y017062D01*
X029323Y017408D01*
X029312Y017435D01*
X029323Y017462D01*
X029323Y017808D01*
X029286Y017896D01*
X029219Y017963D01*
X029193Y017974D01*
X029193Y018007D01*
X029138Y018139D01*
X026638Y020639D01*
X026537Y020740D01*
X026405Y020795D01*
X020687Y020795D01*
X020589Y020893D01*
X020537Y020914D01*
X020689Y020977D01*
X020841Y021129D01*
X020923Y021328D01*
X020923Y021416D01*
X021332Y021825D01*
X022360Y021825D01*
X022316Y021781D01*
X022223Y021556D01*
X022223Y021314D01*
X022316Y021089D01*
X022487Y020918D01*
X022712Y020825D01*
X022954Y020825D01*
X023178Y020918D01*
X023333Y021072D01*
X023487Y020918D01*
X023712Y020825D01*
X023954Y020825D01*
X024178Y020918D01*
X024333Y021072D01*
X024487Y020918D01*
X024712Y020825D01*
X024954Y020825D01*
X025178Y020918D01*
X025350Y021089D01*
X025352Y021094D01*
X025383Y021051D01*
X025449Y020985D01*
X025524Y020930D01*
X025606Y020888D01*
X025695Y020860D01*
X025787Y020845D01*
X025833Y020845D01*
X025879Y020845D01*
X025971Y020860D01*
X026059Y020888D01*
X026142Y020930D01*
X026217Y020985D01*
X026283Y021051D01*
X026314Y021094D01*
X026316Y021089D01*
X026487Y020918D01*
X026712Y020825D01*
X026954Y020825D01*
X027178Y020918D01*
X027239Y020978D01*
X027259Y020929D01*
X027327Y020862D01*
X027415Y020825D01*
X028251Y020825D01*
X028339Y020862D01*
X028406Y020929D01*
X028427Y020979D01*
X028427Y020978D01*
X028637Y020566D01*
X028964Y020239D01*
X028964Y020239D01*
X029376Y020029D01*
X029833Y019957D01*
X030290Y020029D01*
X030702Y020239D01*
X030883Y020421D01*
X030883Y007394D01*
X030678Y007598D01*
X030277Y007803D01*
X029833Y007873D01*
X029389Y007803D01*
X028988Y007598D01*
X028670Y007280D01*
X028465Y006879D01*
X028395Y006435D01*
X028465Y005991D01*
X028465Y005991D01*
X028670Y005590D01*
X028988Y005272D01*
X029040Y005245D01*
X028988Y005272D02*
X028988Y005272D01*
X028847Y005412D02*
X008819Y005412D01*
X008996Y005590D02*
X008996Y005590D01*
X009027Y005651D02*
X028639Y005651D01*
X028670Y005590D02*
X028670Y005590D01*
X028517Y005889D02*
X009149Y005889D01*
X009201Y005991D02*
X009201Y005991D01*
X009222Y006128D02*
X028444Y006128D01*
X028406Y006366D02*
X009260Y006366D01*
X009244Y006605D02*
X028422Y006605D01*
X028395Y006435D02*
X028395Y006435D01*
X028460Y006843D02*
X009206Y006843D01*
X009098Y007082D02*
X028568Y007082D01*
X028670Y007280D02*
X028670Y007280D01*
X028709Y007320D02*
X027839Y007320D01*
X027755Y007236D02*
X027453Y007111D01*
X027126Y007111D01*
X026824Y007236D01*
X026593Y007467D01*
X026510Y007667D01*
X026427Y007467D01*
X026196Y007236D01*
X025894Y007111D01*
X025567Y007111D01*
X025265Y007236D01*
X025034Y007467D01*
X024951Y007667D01*
X024868Y007467D01*
X024637Y007236D01*
X024335Y007111D01*
X024008Y007111D01*
X023706Y007236D01*
X023475Y007467D01*
X023392Y007667D01*
X023309Y007467D01*
X023078Y007236D01*
X022776Y007111D01*
X022449Y007111D01*
X022147Y007236D01*
X021916Y007467D01*
X021833Y007667D01*
X021750Y007467D01*
X021519Y007236D01*
X021217Y007111D01*
X020890Y007111D01*
X020588Y007236D01*
X020357Y007467D01*
X020274Y007667D01*
X020191Y007467D01*
X019960Y007236D01*
X019658Y007111D01*
X019331Y007111D01*
X019029Y007236D01*
X018798Y007467D01*
X018672Y007770D01*
X018672Y007774D01*
X018564Y007513D01*
X018356Y007304D01*
X018083Y007191D01*
X017788Y007191D01*
X017515Y007304D01*
X017306Y007513D01*
X017193Y007785D01*
X017193Y009085D01*
X017306Y009357D01*
X017515Y009566D01*
X017788Y009679D01*
X018083Y009679D01*
X018356Y009566D01*
X018564Y009357D01*
X018672Y009096D01*
X018672Y009100D01*
X018798Y009403D01*
X019029Y009634D01*
X019331Y009759D01*
X019658Y009759D01*
X019960Y009634D01*
X020191Y009403D01*
X020274Y009203D01*
X020357Y009403D01*
X020588Y009634D01*
X020890Y009759D01*
X021217Y009759D01*
X021519Y009634D01*
X021750Y009403D01*
X021833Y009203D01*
X021916Y009403D01*
X022147Y009634D01*
X022449Y009759D01*
X022776Y009759D01*
X023078Y009634D01*
X023309Y009403D01*
X023392Y009203D01*
X023475Y009403D01*
X023706Y009634D01*
X024008Y009759D01*
X024335Y009759D01*
X024637Y009634D01*
X024868Y009403D01*
X024951Y009203D01*
X025034Y009403D01*
X025265Y009634D01*
X025567Y009759D01*
X025894Y009759D01*
X026196Y009634D01*
X026427Y009403D01*
X026510Y009203D01*
X026593Y009403D01*
X026824Y009634D01*
X027126Y009759D01*
X027453Y009759D01*
X027755Y009634D01*
X027986Y009403D01*
X028112Y009100D01*
X028112Y007770D01*
X027986Y007467D01*
X027755Y007236D01*
X028024Y007559D02*
X028948Y007559D01*
X029377Y007797D02*
X028112Y007797D01*
X028112Y008036D02*
X030883Y008036D01*
X030883Y008274D02*
X028112Y008274D01*
X028112Y008513D02*
X030883Y008513D01*
X030883Y008751D02*
X028112Y008751D01*
X028112Y008990D02*
X030883Y008990D01*
X030883Y009228D02*
X028059Y009228D01*
X027923Y009467D02*
X030883Y009467D01*
X030883Y009705D02*
X027583Y009705D01*
X026996Y009705D02*
X026024Y009705D01*
X026363Y009467D02*
X026657Y009467D01*
X026520Y009228D02*
X026500Y009228D01*
X025437Y009705D02*
X024465Y009705D01*
X024804Y009467D02*
X025098Y009467D01*
X024961Y009228D02*
X024941Y009228D01*
X023878Y009705D02*
X022906Y009705D01*
X023245Y009467D02*
X023539Y009467D01*
X023402Y009228D02*
X023382Y009228D01*
X022319Y009705D02*
X021347Y009705D01*
X021686Y009467D02*
X021980Y009467D01*
X021843Y009228D02*
X021823Y009228D01*
X020760Y009705D02*
X019788Y009705D01*
X020127Y009467D02*
X020421Y009467D01*
X020284Y009228D02*
X020263Y009228D01*
X019201Y009705D02*
X011347Y009705D01*
X011028Y009944D02*
X030883Y009944D01*
X030883Y010182D02*
X011391Y010182D01*
X011686Y009467D02*
X012121Y009467D01*
X012135Y009481D02*
X012068Y009414D01*
X012011Y009339D01*
X011964Y009257D01*
X011927Y009170D01*
X011903Y009078D01*
X011890Y008984D01*
X011890Y008482D01*
X012565Y008482D01*
X012565Y008388D01*
X011890Y008388D01*
X011890Y007886D01*
X011903Y007792D01*
X011927Y007700D01*
X011964Y007613D01*
X012011Y007531D01*
X012068Y007456D01*
X012135Y007389D01*
X012211Y007331D01*
X012292Y007284D01*
X012380Y007248D01*
X012471Y007223D01*
X012565Y007211D01*
X012565Y008388D01*
X012660Y008388D01*
X012660Y008482D01*
X013334Y008482D01*
X013334Y008984D01*
X013322Y009078D01*
X013298Y009170D01*
X013261Y009257D01*
X013214Y009339D01*
X013156Y009414D01*
X013090Y009481D01*
X013014Y009539D01*
X012932Y009586D01*
X012845Y009622D01*
X012754Y009647D01*
X012660Y009659D01*
X012660Y008482D01*
X012565Y008482D01*
X012565Y009659D01*
X012471Y009647D01*
X012380Y009622D01*
X012292Y009586D01*
X012211Y009539D01*
X012135Y009481D01*
X011952Y009228D02*
X011823Y009228D01*
X011875Y008990D02*
X011891Y008990D01*
X011875Y008751D02*
X011890Y008751D01*
X011875Y008513D02*
X011890Y008513D01*
X011875Y008274D02*
X011890Y008274D01*
X011875Y008036D02*
X011890Y008036D01*
X011875Y007797D02*
X011902Y007797D01*
X011995Y007559D02*
X011788Y007559D01*
X011603Y007320D02*
X012230Y007320D01*
X012565Y007320D02*
X012660Y007320D01*
X012660Y007211D02*
X012754Y007223D01*
X012845Y007248D01*
X012932Y007284D01*
X013014Y007331D01*
X013090Y007389D01*
X013156Y007456D01*
X013214Y007531D01*
X013261Y007613D01*
X013298Y007700D01*
X013322Y007792D01*
X013334Y007886D01*
X013334Y008388D01*
X012660Y008388D01*
X012660Y007211D01*
X012660Y007559D02*
X012565Y007559D01*
X012565Y007797D02*
X012660Y007797D01*
X012660Y008036D02*
X012565Y008036D01*
X012565Y008274D02*
X012660Y008274D01*
X012660Y008513D02*
X012565Y008513D01*
X012565Y008751D02*
X012660Y008751D01*
X012660Y008990D02*
X012565Y008990D01*
X012565Y009228D02*
X012660Y009228D01*
X012660Y009467D02*
X012565Y009467D01*
X013104Y009467D02*
X015885Y009467D01*
X015899Y009481D02*
X015832Y009414D01*
X015775Y009339D01*
X015727Y009257D01*
X015691Y009170D01*
X015667Y009078D01*
X015654Y008984D01*
X015654Y008482D01*
X016329Y008482D01*
X016329Y008388D01*
X015654Y008388D01*
X015654Y007886D01*
X015667Y007792D01*
X015691Y007700D01*
X015727Y007613D01*
X015775Y007531D01*
X015832Y007456D01*
X015899Y007389D01*
X015974Y007331D01*
X016056Y007284D01*
X016144Y007248D01*
X016235Y007223D01*
X016329Y007211D01*
X016329Y008388D01*
X016424Y008388D01*
X016424Y008482D01*
X017098Y008482D01*
X017098Y008984D01*
X017086Y009078D01*
X017061Y009170D01*
X017025Y009257D01*
X016978Y009339D01*
X016920Y009414D01*
X016853Y009481D01*
X016778Y009539D01*
X016696Y009586D01*
X016609Y009622D01*
X016517Y009647D01*
X016424Y009659D01*
X016424Y008482D01*
X016329Y008482D01*
X016329Y009659D01*
X016235Y009647D01*
X016144Y009622D01*
X016056Y009586D01*
X015974Y009539D01*
X015899Y009481D01*
X015715Y009228D02*
X013273Y009228D01*
X013334Y008990D02*
X015655Y008990D01*
X015654Y008751D02*
X013334Y008751D01*
X013334Y008513D02*
X015654Y008513D01*
X015654Y008274D02*
X013334Y008274D01*
X013334Y008036D02*
X015654Y008036D01*
X015666Y007797D02*
X013323Y007797D01*
X013230Y007559D02*
X015759Y007559D01*
X015994Y007320D02*
X012995Y007320D01*
X010504Y007320D02*
X008957Y007320D01*
X009428Y008751D02*
X010231Y008751D01*
X010231Y008990D02*
X009453Y008990D01*
X009383Y009228D02*
X010284Y009228D01*
X010421Y009467D02*
X009353Y009467D01*
X009353Y009705D02*
X010760Y009705D01*
X010947Y011136D02*
X006763Y011136D01*
X006763Y010898D02*
X009091Y010898D01*
X008822Y010659D02*
X006763Y010659D01*
X006763Y010421D02*
X008583Y010421D01*
X008372Y010182D02*
X006763Y010182D01*
X006763Y009944D02*
X008313Y009944D01*
X008313Y009705D02*
X006763Y009705D01*
X006763Y009467D02*
X006874Y009467D01*
X007791Y009467D02*
X008313Y009467D01*
X008283Y009228D02*
X007969Y009228D01*
X008127Y008990D02*
X008213Y008990D01*
X006763Y011375D02*
X011063Y011375D01*
X011063Y011613D02*
X010930Y011613D01*
X010980Y011663D02*
X011053Y011840D01*
X011053Y012030D01*
X010980Y012207D01*
X010845Y012342D01*
X010668Y012415D01*
X009997Y012415D01*
X009821Y012342D01*
X009686Y012207D01*
X009613Y012030D01*
X009613Y011840D01*
X009686Y011663D01*
X009821Y011528D01*
X009997Y011455D01*
X010668Y011455D01*
X010845Y011528D01*
X010980Y011663D01*
X011053Y011852D02*
X011063Y011852D01*
X011063Y012090D02*
X011028Y012090D01*
X011063Y012329D02*
X010858Y012329D01*
X009808Y012329D02*
X007489Y012329D01*
X007177Y012329D02*
X006763Y012329D01*
X006763Y012567D02*
X006824Y012567D01*
X006763Y012090D02*
X009638Y012090D01*
X009613Y011852D02*
X006763Y011852D01*
X006763Y011613D02*
X009736Y011613D01*
X009147Y012422D02*
X009063Y012379D01*
X008973Y012350D01*
X008880Y012335D01*
X008833Y012335D01*
X008833Y012935D01*
X009433Y012935D01*
X009433Y012982D01*
X009418Y013075D01*
X009389Y013165D01*
X009346Y013249D01*
X009291Y013326D01*
X009224Y013393D01*
X009147Y013448D01*
X009063Y013491D01*
X008973Y013520D01*
X008880Y013535D01*
X008833Y013535D01*
X008833Y012935D01*
X008833Y012935D01*
X009433Y012935D01*
X009433Y012888D01*
X009418Y012794D01*
X009389Y012705D01*
X009346Y012621D01*
X009291Y012544D01*
X009224Y012477D01*
X009147Y012422D01*
X009307Y012567D02*
X009782Y012567D01*
X009627Y012806D02*
X009420Y012806D01*
X009423Y013044D02*
X009619Y013044D01*
X009762Y013283D02*
X009322Y013283D01*
X008968Y013521D02*
X009838Y013521D01*
X009821Y013528D02*
X009997Y013455D01*
X010668Y013455D01*
X010845Y013528D01*
X010980Y013663D01*
X011053Y013840D01*
X011053Y014030D01*
X010980Y014207D01*
X010845Y014342D01*
X010668Y014415D01*
X009997Y014415D01*
X009821Y014342D01*
X009686Y014207D01*
X009613Y014030D01*
X009613Y013840D01*
X009686Y013663D01*
X009821Y013528D01*
X009646Y013760D02*
X008722Y013760D01*
X008786Y013535D02*
X008692Y013520D01*
X008603Y013491D01*
X008518Y013448D01*
X008442Y013393D01*
X008375Y013326D01*
X008320Y013249D01*
X008277Y013165D01*
X008248Y013075D01*
X008233Y012982D01*
X008233Y012935D01*
X008233Y012888D01*
X008248Y012794D01*
X008277Y012705D01*
X008320Y012621D01*
X008375Y012544D01*
X008442Y012477D01*
X008518Y012422D01*
X008603Y012379D01*
X008692Y012350D01*
X008786Y012335D01*
X008833Y012335D01*
X008833Y012935D01*
X008833Y012935D01*
X008833Y012935D01*
X008833Y013535D01*
X008786Y013535D01*
X008833Y013521D02*
X008833Y013521D01*
X008697Y013521D02*
X007853Y013521D01*
X007853Y013760D02*
X007944Y013760D01*
X007863Y013998D02*
X007853Y013998D01*
X007863Y014035D02*
X008333Y014035D01*
X008803Y014035D01*
X008333Y014035D01*
X008333Y014035D01*
X008333Y013565D01*
X008333Y014035D01*
X008333Y014035D01*
X008333Y014035D01*
X007863Y014035D01*
X008333Y013998D02*
X008333Y013998D01*
X008333Y013760D02*
X008333Y013760D01*
X008803Y013998D02*
X009613Y013998D01*
X009716Y014237D02*
X008796Y014237D01*
X008833Y013283D02*
X008833Y013283D01*
X008833Y013044D02*
X008833Y013044D01*
X008833Y012935D02*
X008233Y012935D01*
X008833Y012935D01*
X008833Y012935D01*
X008833Y012806D02*
X008833Y012806D01*
X008833Y012567D02*
X008833Y012567D01*
X008359Y012567D02*
X007842Y012567D01*
X007950Y012806D02*
X008246Y012806D01*
X008243Y013044D02*
X007953Y013044D01*
X007860Y013283D02*
X008344Y013283D01*
X006806Y013283D02*
X006763Y013283D01*
X006763Y013521D02*
X006813Y013521D01*
X006813Y013760D02*
X006763Y013760D01*
X006763Y013998D02*
X006813Y013998D01*
X006813Y014237D02*
X006763Y014237D01*
X006763Y014475D02*
X006813Y014475D01*
X006763Y014714D02*
X006885Y014714D01*
X006763Y014952D02*
X007115Y014952D01*
X007353Y015191D02*
X006763Y015191D01*
X006763Y015429D02*
X008267Y015429D01*
X007721Y016145D02*
X009614Y016145D01*
X009376Y016383D02*
X007813Y016383D01*
X007813Y016236D02*
X007532Y015955D01*
X007134Y015955D01*
X006853Y016236D01*
X006853Y016634D01*
X007134Y016915D01*
X007532Y016915D01*
X007813Y016634D01*
X007813Y016236D01*
X007813Y016622D02*
X009137Y016622D01*
X008899Y016860D02*
X007587Y016860D01*
X007532Y016955D02*
X007813Y017236D01*
X007813Y017634D01*
X007532Y017915D01*
X007134Y017915D01*
X006853Y017634D01*
X006853Y017236D01*
X007134Y016955D01*
X007532Y016955D01*
X007675Y017099D02*
X008660Y017099D01*
X008422Y017337D02*
X007813Y017337D01*
X007813Y017576D02*
X008183Y017576D01*
X007945Y017814D02*
X007633Y017814D01*
X007033Y017814D02*
X006763Y017814D01*
X006763Y017576D02*
X006853Y017576D01*
X006853Y017337D02*
X006763Y017337D01*
X006763Y017099D02*
X006991Y017099D01*
X007079Y016860D02*
X006763Y016860D01*
X006763Y016622D02*
X006853Y016622D01*
X006853Y016383D02*
X006763Y016383D01*
X006763Y016145D02*
X006945Y016145D01*
X006763Y015906D02*
X011921Y015906D01*
X012333Y016435D02*
X012733Y016435D01*
X012933Y016235D01*
X013333Y016235D01*
X013333Y016635D02*
X013333Y021935D01*
X013583Y022185D01*
X018083Y022185D01*
X018833Y021435D01*
X020383Y021435D02*
X020433Y021435D01*
X021183Y022185D01*
X027083Y022185D01*
X027833Y021435D01*
X028427Y020978D02*
X028427Y020978D01*
X028460Y020915D02*
X028392Y020915D01*
X028581Y020676D02*
X026601Y020676D01*
X026495Y020915D02*
X026111Y020915D01*
X025833Y020915D02*
X025833Y020915D01*
X025833Y020845D02*
X025833Y021435D01*
X025833Y021435D01*
X025833Y020845D01*
X025555Y020915D02*
X025170Y020915D01*
X024495Y020915D02*
X024170Y020915D01*
X023495Y020915D02*
X023170Y020915D01*
X022495Y020915D02*
X020537Y020915D01*
X020851Y021153D02*
X022289Y021153D01*
X022223Y021392D02*
X020923Y021392D01*
X021137Y021630D02*
X022253Y021630D01*
X020549Y019961D02*
X026298Y019961D01*
X026537Y019722D02*
X024555Y019722D01*
X024794Y019484D02*
X026775Y019484D01*
X027014Y019245D02*
X025032Y019245D01*
X025271Y019007D02*
X027252Y019007D01*
X027491Y018768D02*
X025509Y018768D01*
X025748Y018530D02*
X027729Y018530D01*
X027968Y018291D02*
X025986Y018291D01*
X026174Y018053D02*
X028206Y018053D01*
X028346Y017814D02*
X026320Y017814D01*
X026323Y017576D02*
X028343Y017576D01*
X028343Y017337D02*
X027610Y017337D01*
X027532Y017415D02*
X027134Y017415D01*
X026853Y017134D01*
X026853Y016736D01*
X027134Y016455D01*
X027532Y016455D01*
X027813Y016736D01*
X027813Y017134D01*
X027532Y017415D01*
X027813Y017099D02*
X028343Y017099D01*
X028318Y016860D02*
X027813Y016860D01*
X027698Y016622D02*
X028168Y016622D01*
X028168Y016383D02*
X026560Y016383D01*
X026498Y016622D02*
X026968Y016622D01*
X026853Y016860D02*
X026348Y016860D01*
X026323Y017099D02*
X026853Y017099D01*
X027056Y017337D02*
X026323Y017337D01*
X025833Y017235D02*
X025833Y016435D01*
X026583Y015935D01*
X026583Y013335D01*
X026933Y013335D01*
X027333Y012935D01*
X027664Y013283D02*
X027993Y013283D01*
X028025Y013521D02*
X027256Y013521D01*
X026943Y013760D02*
X028194Y013760D01*
X028492Y013998D02*
X026943Y013998D01*
X026943Y014237D02*
X028283Y014237D01*
X028283Y014435D02*
X028833Y014435D01*
X028833Y013885D01*
X028833Y014435D01*
X028833Y014435D01*
X028833Y014435D01*
X028283Y014435D01*
X028283Y014475D02*
X026943Y014475D01*
X026943Y014714D02*
X028334Y014714D01*
X028510Y014952D02*
X026943Y014952D01*
X026943Y015191D02*
X028271Y015191D01*
X028263Y015429D02*
X026943Y015429D01*
X026943Y015668D02*
X028263Y015668D01*
X028421Y015906D02*
X026944Y015906D01*
X026883Y016145D02*
X028183Y016145D01*
X028833Y016435D02*
X029583Y015935D01*
X029583Y013335D01*
X028833Y013335D01*
X028833Y013998D02*
X028833Y013998D01*
X028833Y014237D02*
X028833Y014237D01*
X029174Y013998D02*
X029223Y013998D01*
X029943Y013998D02*
X030883Y013998D01*
X030883Y013760D02*
X029943Y013760D01*
X030256Y013521D02*
X030883Y013521D01*
X030883Y013283D02*
X030664Y013283D01*
X030813Y013044D02*
X030883Y013044D01*
X030883Y012806D02*
X030813Y012806D01*
X030883Y012567D02*
X030644Y012567D01*
X030883Y012329D02*
X029753Y012329D01*
X029749Y012567D02*
X030022Y012567D01*
X029853Y012806D02*
X029639Y012806D01*
X029583Y013335D02*
X029933Y013335D01*
X030333Y012935D01*
X030883Y012090D02*
X029661Y012090D01*
X029546Y011852D02*
X030883Y011852D01*
X030883Y011613D02*
X029647Y011613D01*
X029653Y011535D02*
X028833Y011535D01*
X028833Y011535D01*
X029653Y011535D01*
X029628Y011375D02*
X030883Y011375D01*
X030883Y011136D02*
X029468Y011136D01*
X028833Y011136D02*
X028833Y011136D01*
X028833Y011015D02*
X028833Y011535D01*
X028833Y011535D01*
X028833Y011015D01*
X028833Y011375D02*
X028833Y011375D01*
X028833Y011535D02*
X028013Y011535D01*
X028833Y011535D01*
X028833Y011535D01*
X028197Y011136D02*
X026468Y011136D01*
X026628Y011375D02*
X028038Y011375D01*
X028019Y011613D02*
X026647Y011613D01*
X026653Y011535D02*
X025833Y011535D01*
X025833Y011535D01*
X026653Y011535D01*
X026546Y011852D02*
X028120Y011852D01*
X028005Y012090D02*
X026661Y012090D01*
X026753Y012329D02*
X027913Y012329D01*
X027917Y012567D02*
X027644Y012567D01*
X027813Y012806D02*
X028027Y012806D01*
X028069Y013044D02*
X027813Y013044D01*
X027022Y012567D02*
X026749Y012567D01*
X026853Y012806D02*
X026639Y012806D01*
X026583Y013335D02*
X025833Y013335D01*
X025833Y013885D02*
X025833Y014435D01*
X025833Y014435D01*
X025833Y013885D01*
X025833Y013998D02*
X025833Y013998D01*
X025833Y014237D02*
X025833Y014237D01*
X025833Y014435D02*
X025283Y014435D01*
X025833Y014435D01*
X025833Y014435D01*
X025283Y014475D02*
X023943Y014475D01*
X023943Y014237D02*
X025283Y014237D01*
X025492Y013998D02*
X023943Y013998D01*
X023943Y013760D02*
X025194Y013760D01*
X025025Y013521D02*
X024256Y013521D01*
X023933Y013335D02*
X023583Y013335D01*
X022833Y013335D01*
X022833Y013885D02*
X022833Y014435D01*
X022833Y014435D01*
X022833Y013885D01*
X022833Y013998D02*
X022833Y013998D01*
X022833Y014237D02*
X022833Y014237D01*
X022833Y014435D02*
X022283Y014435D01*
X022833Y014435D01*
X022833Y014435D01*
X023174Y013998D02*
X023223Y013998D01*
X022492Y013998D02*
X021823Y013998D01*
X021823Y013760D02*
X022194Y013760D01*
X022025Y013521D02*
X021823Y013521D01*
X021823Y013283D02*
X021993Y013283D01*
X022069Y013044D02*
X021823Y013044D01*
X021823Y012806D02*
X022027Y012806D01*
X021917Y012567D02*
X021823Y012567D01*
X021823Y012387D02*
X021786Y012299D01*
X021719Y012232D01*
X021631Y012195D01*
X021483Y012195D01*
X021533Y012074D01*
X021533Y011796D01*
X021426Y011538D01*
X021229Y011342D01*
X020972Y011235D01*
X020694Y011235D01*
X020436Y011342D01*
X020240Y011538D01*
X020133Y011796D01*
X020133Y012074D01*
X020183Y012195D01*
X019785Y012195D01*
X019697Y012232D01*
X019629Y012299D01*
X019593Y012387D01*
X019593Y015483D01*
X019629Y015571D01*
X019697Y015638D01*
X019785Y015675D01*
X020183Y015675D01*
X020133Y015796D01*
X020133Y016074D01*
X020240Y016332D01*
X020436Y016528D01*
X020694Y016635D01*
X020972Y016635D01*
X021229Y016528D01*
X021426Y016332D01*
X021533Y016074D01*
X021533Y015796D01*
X021483Y015675D01*
X021631Y015675D01*
X021719Y015638D01*
X021786Y015571D01*
X021823Y015483D01*
X021823Y012387D01*
X021799Y012329D02*
X021913Y012329D01*
X022005Y012090D02*
X021526Y012090D01*
X021533Y011852D02*
X022120Y011852D01*
X022019Y011613D02*
X021457Y011613D01*
X021262Y011375D02*
X022038Y011375D01*
X022013Y011535D02*
X022833Y011535D01*
X023653Y011535D01*
X022833Y011535D01*
X022833Y011535D01*
X022833Y011015D01*
X022833Y011535D01*
X022833Y011535D01*
X022833Y011535D01*
X022013Y011535D01*
X022197Y011136D02*
X015769Y011136D01*
X015853Y011375D02*
X020403Y011375D01*
X020209Y011613D02*
X017690Y011613D01*
X017813Y011736D02*
X017532Y011455D01*
X017134Y011455D01*
X016853Y011736D01*
X016853Y012134D01*
X017134Y012415D01*
X017532Y012415D01*
X017813Y012134D01*
X017813Y011736D01*
X017813Y011852D02*
X020133Y011852D01*
X020139Y012090D02*
X017813Y012090D01*
X017618Y012329D02*
X019617Y012329D01*
X019593Y012567D02*
X015740Y012567D01*
X015777Y012329D02*
X017048Y012329D01*
X016853Y012090D02*
X015853Y012090D01*
X015853Y011852D02*
X016853Y011852D01*
X016976Y011613D02*
X015853Y011613D01*
X015531Y010898D02*
X030883Y010898D01*
X030883Y010659D02*
X015292Y010659D01*
X014950Y010421D02*
X030883Y010421D01*
X030883Y007797D02*
X030288Y007797D01*
X030678Y007598D02*
X030678Y007598D01*
X030718Y007559D02*
X030883Y007559D01*
X028465Y006879D02*
X028465Y006879D01*
X026740Y007320D02*
X026280Y007320D01*
X026465Y007559D02*
X026555Y007559D01*
X025181Y007320D02*
X024721Y007320D01*
X024906Y007559D02*
X024996Y007559D01*
X023622Y007320D02*
X023162Y007320D01*
X023347Y007559D02*
X023437Y007559D01*
X022063Y007320D02*
X021603Y007320D01*
X021788Y007559D02*
X021878Y007559D01*
X020504Y007320D02*
X020044Y007320D01*
X020229Y007559D02*
X020319Y007559D01*
X018945Y007320D02*
X018372Y007320D01*
X018583Y007559D02*
X018760Y007559D01*
X017499Y007320D02*
X016758Y007320D01*
X016778Y007331D02*
X016853Y007389D01*
X016920Y007456D01*
X016978Y007531D01*
X017025Y007613D01*
X017061Y007700D01*
X017086Y007792D01*
X017098Y007886D01*
X017098Y008388D01*
X016424Y008388D01*
X016424Y007211D01*
X016517Y007223D01*
X016609Y007248D01*
X016696Y007284D01*
X016778Y007331D01*
X016994Y007559D02*
X017287Y007559D01*
X017193Y007797D02*
X017087Y007797D01*
X017098Y008036D02*
X017193Y008036D01*
X017193Y008274D02*
X017098Y008274D01*
X017098Y008513D02*
X017193Y008513D01*
X017193Y008751D02*
X017098Y008751D01*
X017098Y008990D02*
X017193Y008990D01*
X017253Y009228D02*
X017037Y009228D01*
X016868Y009467D02*
X017416Y009467D01*
X016424Y009467D02*
X016329Y009467D01*
X016329Y009228D02*
X016424Y009228D01*
X016424Y008990D02*
X016329Y008990D01*
X016329Y008751D02*
X016424Y008751D01*
X016424Y008513D02*
X016329Y008513D01*
X016329Y008274D02*
X016424Y008274D01*
X016424Y008036D02*
X016329Y008036D01*
X016329Y007797D02*
X016424Y007797D01*
X016424Y007559D02*
X016329Y007559D01*
X016329Y007320D02*
X016424Y007320D01*
X018618Y009228D02*
X018725Y009228D01*
X018861Y009467D02*
X018455Y009467D01*
X019593Y012806D02*
X015809Y012806D01*
X015759Y013044D02*
X019593Y013044D01*
X019593Y013283D02*
X015482Y013283D01*
X015184Y013283D02*
X013876Y013283D01*
X013873Y013286D02*
X013814Y013328D01*
X013750Y013361D01*
X013681Y013384D01*
X013609Y013395D01*
X013333Y013395D01*
X013333Y012935D01*
X014033Y012935D01*
X014033Y012971D01*
X014022Y013043D01*
X013999Y013112D01*
X013966Y013176D01*
X013924Y013235D01*
X013873Y013286D01*
X013750Y013509D02*
X013814Y013542D01*
X013873Y013584D01*
X013924Y013635D01*
X013966Y013694D01*
X013999Y013758D01*
X014022Y013827D01*
X014033Y013899D01*
X014033Y013935D01*
X014033Y013971D01*
X014022Y014043D01*
X013999Y014112D01*
X013966Y014176D01*
X013924Y014235D01*
X013873Y014286D01*
X013814Y014328D01*
X013750Y014361D01*
X013681Y014384D01*
X013609Y014395D01*
X013333Y014395D01*
X013333Y013935D01*
X014033Y013935D01*
X013333Y013935D01*
X013333Y013935D01*
X013333Y013935D01*
X013333Y013475D01*
X013609Y013475D01*
X013681Y013486D01*
X013750Y013509D01*
X013774Y013521D02*
X018469Y013521D01*
X018605Y013385D02*
X018283Y013707D01*
X018283Y013935D01*
X018833Y013935D01*
X019383Y013935D01*
X019383Y014163D01*
X019125Y014421D01*
X019403Y014699D01*
X019403Y015171D01*
X019069Y015505D01*
X018597Y015505D01*
X018263Y015171D01*
X018263Y014699D01*
X018541Y014421D01*
X018283Y014163D01*
X018283Y013935D01*
X018833Y013935D01*
X018833Y013935D01*
X019383Y013935D01*
X019383Y013707D01*
X019061Y013385D01*
X018833Y013385D01*
X018833Y013935D01*
X018833Y013935D01*
X018833Y013385D01*
X018605Y013385D01*
X018833Y013521D02*
X018833Y013521D01*
X018833Y013760D02*
X018833Y013760D01*
X018833Y013935D02*
X018833Y013935D01*
X019197Y013521D02*
X019593Y013521D01*
X019593Y013760D02*
X019383Y013760D01*
X019383Y013998D02*
X019593Y013998D01*
X019593Y014237D02*
X019309Y014237D01*
X019179Y014475D02*
X019593Y014475D01*
X019593Y014714D02*
X019403Y014714D01*
X019403Y014952D02*
X019593Y014952D01*
X019593Y015191D02*
X019384Y015191D01*
X019593Y015429D02*
X019145Y015429D01*
X018521Y015429D02*
X015868Y015429D01*
X015868Y015435D02*
X015333Y015435D01*
X015868Y015435D01*
X015868Y015657D01*
X015555Y015970D01*
X015333Y015970D01*
X015333Y015435D01*
X015333Y015435D01*
X015333Y015435D01*
X015333Y015970D01*
X015111Y015970D01*
X014798Y015657D01*
X014798Y015435D01*
X014798Y015213D01*
X015080Y014931D01*
X015019Y014906D01*
X014862Y014749D01*
X014778Y014545D01*
X014778Y014325D01*
X014862Y014121D01*
X015019Y013964D01*
X015223Y013880D01*
X015443Y013880D01*
X015647Y013964D01*
X015803Y014121D01*
X015888Y014325D01*
X015888Y014545D01*
X015803Y014749D01*
X015647Y014906D01*
X015586Y014931D01*
X015868Y015213D01*
X015868Y015435D01*
X015857Y015668D02*
X016922Y015668D01*
X016853Y015736D02*
X017134Y015455D01*
X017532Y015455D01*
X017813Y015736D01*
X017813Y016134D01*
X017532Y016415D01*
X017134Y016415D01*
X016853Y016134D01*
X016853Y015736D01*
X016853Y015906D02*
X015619Y015906D01*
X015333Y015906D02*
X015333Y015906D01*
X015333Y015668D02*
X015333Y015668D01*
X015333Y015435D02*
X015333Y015435D01*
X014798Y015435D01*
X015333Y015435D01*
X015607Y014952D02*
X018263Y014952D01*
X018263Y014714D02*
X015818Y014714D01*
X015888Y014475D02*
X018487Y014475D01*
X018357Y014237D02*
X015851Y014237D01*
X015681Y013998D02*
X018283Y013998D01*
X018283Y013760D02*
X014000Y013760D01*
X014029Y013998D02*
X014985Y013998D01*
X014814Y014237D02*
X013922Y014237D01*
X013750Y014509D02*
X013814Y014542D01*
X013873Y014584D01*
X013924Y014635D01*
X013966Y014694D01*
X013999Y014758D01*
X014022Y014827D01*
X014033Y014899D01*
X014033Y014935D01*
X014033Y014971D01*
X014022Y015043D01*
X013999Y015112D01*
X013966Y015176D01*
X013924Y015235D01*
X013873Y015286D01*
X013814Y015328D01*
X013750Y015361D01*
X013681Y015384D01*
X013609Y015395D01*
X013333Y015395D01*
X013333Y014935D01*
X014033Y014935D01*
X013333Y014935D01*
X013333Y014935D01*
X013333Y014935D01*
X013333Y014475D01*
X013333Y014475D01*
X013609Y014475D01*
X013681Y014486D01*
X013750Y014509D01*
X013609Y014475D02*
X014778Y014475D01*
X014848Y014714D02*
X013976Y014714D01*
X014033Y014952D02*
X015059Y014952D01*
X014821Y015191D02*
X013956Y015191D01*
X013333Y015191D02*
X013333Y015191D01*
X013333Y015395D02*
X013057Y015395D01*
X012985Y015384D01*
X012916Y015361D01*
X012852Y015328D01*
X012793Y015286D01*
X012742Y015235D01*
X012700Y015176D01*
X012667Y015112D01*
X012644Y015043D01*
X012633Y014971D01*
X012633Y014935D01*
X012633Y014899D01*
X012644Y014827D01*
X012667Y014758D01*
X012700Y014694D01*
X012742Y014635D01*
X012793Y014584D01*
X012852Y014542D01*
X012916Y014509D01*
X012985Y014486D01*
X013057Y014475D01*
X013333Y014475D01*
X013333Y014935D01*
X013333Y014935D01*
X013333Y015395D01*
X013333Y014952D02*
X013333Y014952D01*
X013333Y014935D02*
X013333Y014935D01*
X012633Y014935D01*
X013333Y014935D01*
X013333Y014714D02*
X013333Y014714D01*
X013333Y014395D02*
X013057Y014395D01*
X012985Y014384D01*
X012916Y014361D01*
X012852Y014328D01*
X012793Y014286D01*
X012742Y014235D01*
X012700Y014176D01*
X012667Y014112D01*
X012644Y014043D01*
X012633Y013971D01*
X012633Y013935D01*
X012633Y013899D01*
X012644Y013827D01*
X012667Y013758D01*
X012700Y013694D01*
X012742Y013635D01*
X012793Y013584D01*
X012852Y013542D01*
X012916Y013509D01*
X012985Y013486D01*
X013057Y013475D01*
X013333Y013475D01*
X013333Y013935D01*
X013333Y013935D01*
X013333Y014395D01*
X013333Y014237D02*
X013333Y014237D01*
X013333Y013998D02*
X013333Y013998D01*
X013333Y013935D02*
X013333Y013935D01*
X012633Y013935D01*
X013333Y013935D01*
X013333Y013760D02*
X013333Y013760D01*
X013333Y013521D02*
X013333Y013521D01*
X013333Y013395D02*
X013057Y013395D01*
X012985Y013384D01*
X012916Y013361D01*
X012852Y013328D01*
X012793Y013286D01*
X012742Y013235D01*
X012700Y013176D01*
X012667Y013112D01*
X012644Y013043D01*
X012633Y012971D01*
X012633Y012935D01*
X012633Y012899D01*
X012644Y012827D01*
X012667Y012758D01*
X012700Y012694D01*
X012742Y012635D01*
X012793Y012584D01*
X012852Y012542D01*
X012916Y012509D01*
X012985Y012486D01*
X013057Y012475D01*
X013333Y012475D01*
X013609Y012475D01*
X013681Y012486D01*
X013750Y012509D01*
X013814Y012542D01*
X013873Y012584D01*
X013924Y012635D01*
X013966Y012694D01*
X013999Y012758D01*
X014022Y012827D01*
X014033Y012899D01*
X014033Y012935D01*
X013333Y012935D01*
X013333Y012935D01*
X013333Y012935D01*
X013333Y012475D01*
X013333Y012935D01*
X013333Y012935D01*
X013333Y013395D01*
X013333Y013283D02*
X013333Y013283D01*
X013333Y013044D02*
X013333Y013044D01*
X013333Y012935D02*
X013333Y012935D01*
X012633Y012935D01*
X013333Y012935D01*
X013333Y012806D02*
X013333Y012806D01*
X013333Y012567D02*
X013333Y012567D01*
X013668Y012415D02*
X013845Y012342D01*
X013980Y012207D01*
X014053Y012030D01*
X014053Y011840D01*
X013980Y011663D01*
X013845Y011528D01*
X013668Y011455D01*
X012997Y011455D01*
X012821Y011528D01*
X012686Y011663D01*
X012613Y011840D01*
X012613Y012030D01*
X012686Y012207D01*
X012821Y012342D01*
X012997Y012415D01*
X013668Y012415D01*
X013858Y012329D02*
X014889Y012329D01*
X014926Y012567D02*
X013849Y012567D01*
X014015Y012806D02*
X014857Y012806D01*
X014907Y013044D02*
X014021Y013044D01*
X014028Y012090D02*
X014813Y012090D01*
X014813Y011852D02*
X014053Y011852D01*
X013930Y011613D02*
X014776Y011613D01*
X012736Y011613D02*
X012103Y011613D01*
X012103Y011852D02*
X012613Y011852D01*
X012638Y012090D02*
X012103Y012090D01*
X012103Y012329D02*
X012808Y012329D01*
X012817Y012567D02*
X012103Y012567D01*
X012103Y012806D02*
X012651Y012806D01*
X012645Y013044D02*
X012101Y013044D01*
X011971Y013283D02*
X012790Y013283D01*
X012892Y013521D02*
X010828Y013521D01*
X011020Y013760D02*
X012666Y013760D01*
X012637Y013998D02*
X011053Y013998D01*
X010950Y014237D02*
X012744Y014237D01*
X013057Y014475D02*
X010717Y014475D01*
X011001Y014714D02*
X012690Y014714D01*
X012633Y014952D02*
X011053Y014952D01*
X010987Y015191D02*
X012710Y015191D01*
X012744Y015906D02*
X012786Y015906D01*
X013718Y015906D02*
X015047Y015906D01*
X014809Y015668D02*
X006763Y015668D01*
X008963Y017814D02*
X011033Y017814D01*
X011134Y017915D02*
X010853Y017634D01*
X010853Y017236D01*
X011134Y016955D01*
X011532Y016955D01*
X011813Y017236D01*
X011813Y017634D01*
X011532Y017915D01*
X011134Y017915D01*
X011408Y017955D02*
X011585Y018028D01*
X011720Y018163D01*
X011793Y018340D01*
X011793Y018530D01*
X011720Y018707D01*
X011585Y018842D01*
X011408Y018915D01*
X010737Y018915D01*
X010561Y018842D01*
X010426Y018707D01*
X010353Y018530D01*
X010353Y018340D01*
X010426Y018163D01*
X010561Y018028D01*
X010737Y017955D01*
X011408Y017955D01*
X011609Y018053D02*
X012973Y018053D01*
X012973Y018291D02*
X011773Y018291D01*
X011793Y018530D02*
X012973Y018530D01*
X012973Y018768D02*
X011659Y018768D01*
X011533Y019007D02*
X012973Y019007D01*
X012973Y019245D02*
X011754Y019245D01*
X011720Y019163D02*
X011793Y019340D01*
X011793Y019530D01*
X011720Y019707D01*
X011585Y019842D01*
X011408Y019915D01*
X010737Y019915D01*
X010561Y019842D01*
X010426Y019707D01*
X010353Y019530D01*
X010353Y019340D01*
X010426Y019163D01*
X010561Y019028D01*
X010737Y018955D01*
X011408Y018955D01*
X011585Y019028D01*
X011720Y019163D01*
X011793Y019484D02*
X012973Y019484D01*
X012973Y019722D02*
X011705Y019722D01*
X011204Y020775D02*
X010962Y020775D01*
X010737Y020868D01*
X010627Y020978D01*
X010588Y020939D01*
X010538Y020910D01*
X010482Y020895D01*
X010083Y020895D01*
X010083Y021485D01*
X010083Y021485D01*
X010083Y021485D01*
X010083Y022075D01*
X010482Y022075D01*
X010538Y022060D01*
X010588Y022031D01*
X010629Y021990D01*
X010658Y021940D01*
X010673Y021884D01*
X010673Y021838D01*
X010737Y021902D01*
X010962Y021995D01*
X011204Y021995D01*
X011428Y021902D01*
X011547Y021784D01*
X011566Y021831D01*
X011737Y022002D01*
X011962Y022095D01*
X012204Y022095D01*
X012428Y022002D01*
X012600Y021831D01*
X012693Y021606D01*
X012693Y021364D01*
X012600Y021139D01*
X012428Y020968D01*
X012204Y020875D01*
X011962Y020875D01*
X011737Y020968D01*
X011619Y021086D01*
X011600Y021039D01*
X011428Y020868D01*
X011204Y020775D01*
X011475Y020915D02*
X011866Y020915D01*
X012300Y020915D02*
X012973Y020915D01*
X012973Y021153D02*
X012606Y021153D01*
X012693Y021392D02*
X012973Y021392D01*
X012973Y021630D02*
X012683Y021630D01*
X012562Y021869D02*
X012973Y021869D01*
X013015Y022107D02*
X009129Y022107D01*
X009029Y022304D02*
X009029Y022304D01*
X008987Y022346D02*
X013234Y022346D01*
X013278Y022389D02*
X013278Y022389D01*
X013693Y021630D02*
X013879Y021630D01*
X013843Y021392D02*
X013693Y021392D01*
X013693Y021153D02*
X013915Y021153D01*
X014030Y020915D02*
X013693Y020915D01*
X013693Y020676D02*
X013798Y020676D01*
X013743Y020438D02*
X013693Y020438D01*
X013693Y020199D02*
X013796Y020199D01*
X013693Y019961D02*
X014017Y019961D01*
X013917Y019722D02*
X013693Y019722D01*
X013693Y019484D02*
X013843Y019484D01*
X013877Y019245D02*
X013693Y019245D01*
X013693Y019007D02*
X014048Y019007D01*
X014161Y018942D02*
X014161Y018942D01*
X013882Y018768D02*
X013693Y018768D01*
X013693Y018530D02*
X013771Y018530D01*
X013763Y018435D02*
X014283Y018435D01*
X014803Y018435D01*
X014283Y018435D01*
X014283Y018435D01*
X014283Y017915D01*
X014283Y018435D01*
X014283Y018435D01*
X013763Y018435D01*
X013783Y018291D02*
X013693Y018291D01*
X013693Y018053D02*
X013930Y018053D01*
X013693Y017814D02*
X017445Y017814D01*
X017545Y017576D02*
X017093Y017576D01*
X017023Y017645D02*
X017293Y017376D01*
X017293Y017185D01*
X016833Y017185D01*
X016833Y017185D01*
X017293Y017185D01*
X017293Y016994D01*
X017023Y016725D01*
X016833Y016725D01*
X016833Y017185D01*
X016833Y017185D01*
X016833Y017185D01*
X016833Y017645D01*
X017023Y017645D01*
X016833Y017645D02*
X016642Y017645D01*
X016373Y017376D01*
X016373Y017185D01*
X016373Y016994D01*
X016642Y016725D01*
X016833Y016725D01*
X016833Y017185D01*
X016833Y017645D01*
X016833Y017576D02*
X016833Y017576D01*
X016833Y017337D02*
X016833Y017337D01*
X016833Y017185D02*
X016833Y017185D01*
X016373Y017185D01*
X016833Y017185D01*
X016833Y017099D02*
X016833Y017099D01*
X016833Y016860D02*
X016833Y016860D01*
X017158Y016860D02*
X017479Y016860D01*
X017353Y017099D02*
X017293Y017099D01*
X017293Y017337D02*
X017353Y017337D01*
X016573Y017576D02*
X013693Y017576D01*
X013693Y017337D02*
X016373Y017337D01*
X016373Y017099D02*
X013693Y017099D01*
X013801Y016860D02*
X016507Y016860D01*
X017102Y016383D02*
X013823Y016383D01*
X013823Y016145D02*
X016864Y016145D01*
X017564Y016383D02*
X020291Y016383D01*
X020162Y016145D02*
X017802Y016145D01*
X017813Y015906D02*
X020133Y015906D01*
X019767Y015668D02*
X017744Y015668D01*
X018282Y015191D02*
X015845Y015191D01*
X014798Y015429D02*
X010499Y015429D01*
X009833Y016435D02*
X011333Y016435D01*
X011587Y016860D02*
X011818Y016860D01*
X011675Y017099D02*
X012056Y017099D01*
X011813Y017337D02*
X012973Y017337D01*
X012973Y017099D02*
X012610Y017099D01*
X012848Y016860D02*
X012865Y016860D01*
X012973Y017576D02*
X011813Y017576D01*
X011633Y017814D02*
X012973Y017814D01*
X014283Y018053D02*
X014283Y018053D01*
X014283Y018291D02*
X014283Y018291D01*
X014283Y018435D02*
X014283Y018435D01*
X014794Y018530D02*
X015142Y018530D01*
X015144Y018543D02*
X015133Y018471D01*
X015133Y018435D01*
X015133Y018399D01*
X015144Y018327D01*
X015167Y018258D01*
X015200Y018194D01*
X015242Y018135D01*
X015293Y018084D01*
X015352Y018042D01*
X015416Y018009D01*
X015485Y017986D01*
X015557Y017975D01*
X015833Y017975D01*
X016109Y017975D01*
X016181Y017986D01*
X016250Y018009D01*
X016314Y018042D01*
X016373Y018084D01*
X016424Y018135D01*
X016466Y018194D01*
X016499Y018258D01*
X016522Y018327D01*
X016533Y018399D01*
X016533Y018435D01*
X016533Y018471D01*
X016522Y018543D01*
X016499Y018612D01*
X016466Y018676D01*
X016424Y018735D01*
X016373Y018786D01*
X016314Y018828D01*
X016250Y018861D01*
X016181Y018884D01*
X016109Y018895D01*
X015833Y018895D01*
X015833Y018435D01*
X016533Y018435D01*
X015833Y018435D01*
X015833Y018435D01*
X015833Y018435D01*
X015833Y017975D01*
X015833Y018435D01*
X015833Y018435D01*
X015833Y018895D01*
X015557Y018895D01*
X015485Y018884D01*
X015416Y018861D01*
X015352Y018828D01*
X015293Y018786D01*
X015242Y018735D01*
X015200Y018676D01*
X015167Y018612D01*
X015144Y018543D01*
X015133Y018435D02*
X015833Y018435D01*
X015133Y018435D01*
X015156Y018291D02*
X014783Y018291D01*
X014636Y018053D02*
X015337Y018053D01*
X015833Y018053D02*
X015833Y018053D01*
X015833Y018291D02*
X015833Y018291D01*
X015833Y018435D02*
X015833Y018435D01*
X015833Y018530D02*
X015833Y018530D01*
X015833Y018768D02*
X015833Y018768D01*
X016293Y019007D02*
X016473Y019007D01*
X016512Y018768D02*
X016390Y018768D01*
X016524Y018530D02*
X016729Y018530D01*
X016510Y018291D02*
X016968Y018291D01*
X017206Y018053D02*
X016329Y018053D01*
X016833Y018935D02*
X018083Y017685D01*
X022833Y017685D01*
X022833Y017635D01*
X022833Y017235D02*
X022833Y016435D01*
X023583Y015685D01*
X023583Y013335D01*
X023933Y013335D02*
X024333Y012935D01*
X024664Y013283D02*
X024993Y013283D01*
X025069Y013044D02*
X024813Y013044D01*
X024813Y012806D02*
X025027Y012806D01*
X024917Y012567D02*
X024644Y012567D01*
X024913Y012329D02*
X023753Y012329D01*
X023749Y012567D02*
X024022Y012567D01*
X023853Y012806D02*
X023639Y012806D01*
X023661Y012090D02*
X025005Y012090D01*
X025120Y011852D02*
X023546Y011852D01*
X023647Y011613D02*
X025019Y011613D01*
X025013Y011535D02*
X025833Y011535D01*
X025833Y011015D01*
X025833Y011535D01*
X025833Y011535D01*
X025013Y011535D01*
X025038Y011375D02*
X023628Y011375D01*
X023468Y011136D02*
X025197Y011136D01*
X025833Y011136D02*
X025833Y011136D01*
X025833Y011375D02*
X025833Y011375D01*
X025833Y011535D02*
X025833Y011535D01*
X026174Y013998D02*
X026223Y013998D01*
X025334Y014714D02*
X023943Y014714D01*
X023943Y014952D02*
X025510Y014952D01*
X025271Y015191D02*
X023943Y015191D01*
X023943Y015429D02*
X025263Y015429D01*
X025263Y015668D02*
X023943Y015668D01*
X023871Y015906D02*
X025421Y015906D01*
X025183Y016145D02*
X023633Y016145D01*
X023498Y016383D02*
X025168Y016383D01*
X025168Y016622D02*
X024698Y016622D01*
X024813Y016736D02*
X024532Y016455D01*
X024134Y016455D01*
X023853Y016736D01*
X023853Y017134D01*
X024134Y017415D01*
X024532Y017415D01*
X024813Y017134D01*
X024813Y016736D01*
X024813Y016860D02*
X025318Y016860D01*
X025343Y017099D02*
X024813Y017099D01*
X024610Y017337D02*
X025343Y017337D01*
X025343Y017576D02*
X023323Y017576D01*
X023320Y017814D02*
X025346Y017814D01*
X025206Y018053D02*
X020664Y018053D01*
X020808Y018291D02*
X024968Y018291D01*
X024729Y018530D02*
X020823Y018530D01*
X020714Y018768D02*
X024491Y018768D01*
X024252Y019007D02*
X020718Y019007D01*
X020383Y019435D02*
X024333Y019435D01*
X025833Y017935D01*
X025833Y017635D01*
X024056Y017337D02*
X023323Y017337D01*
X023323Y017099D02*
X023853Y017099D01*
X023853Y016860D02*
X023348Y016860D01*
X023498Y016622D02*
X023968Y016622D01*
X022421Y015906D02*
X021533Y015906D01*
X021504Y016145D02*
X022183Y016145D01*
X022168Y016383D02*
X021375Y016383D01*
X021005Y016622D02*
X022168Y016622D01*
X022318Y016860D02*
X018187Y016860D01*
X018313Y017099D02*
X022343Y017099D01*
X022263Y015668D02*
X021649Y015668D01*
X021823Y015429D02*
X022263Y015429D01*
X022271Y015191D02*
X021823Y015191D01*
X021823Y014952D02*
X022510Y014952D01*
X022334Y014714D02*
X021823Y014714D01*
X021823Y014475D02*
X022283Y014475D01*
X022283Y014237D02*
X021823Y014237D01*
X020661Y016622D02*
X013823Y016622D01*
X014684Y018768D02*
X015275Y018768D01*
X015373Y019007D02*
X014718Y019007D01*
X014383Y019435D02*
X015833Y019435D01*
X015833Y020435D02*
X014283Y020435D01*
X012973Y020438D02*
X008900Y020438D01*
X008702Y020239D02*
X008702Y020239D01*
X008623Y020199D02*
X012973Y020199D01*
X012973Y019961D02*
X007855Y019961D01*
X007833Y019957D02*
X007833Y019957D01*
X007811Y019961D02*
X006763Y019961D01*
X006763Y020199D02*
X007043Y020199D01*
X007176Y019861D02*
X007112Y019828D01*
X007053Y019786D01*
X007002Y019735D01*
X006960Y019676D01*
X006927Y019612D01*
X006904Y019543D01*
X006893Y019471D01*
X006893Y019435D01*
X006893Y019399D01*
X006904Y019327D01*
X006927Y019258D01*
X006960Y019194D01*
X007002Y019135D01*
X007053Y019084D01*
X007112Y019042D01*
X007176Y019009D01*
X007245Y018986D01*
X007317Y018975D01*
X007833Y018975D01*
X007869Y018975D01*
X007941Y018986D01*
X008010Y019009D01*
X008074Y019042D01*
X008133Y019084D01*
X008184Y019135D01*
X008226Y019194D01*
X008259Y019258D01*
X008282Y019327D01*
X008293Y019399D01*
X008293Y019435D01*
X008293Y019471D01*
X008282Y019543D01*
X008259Y019612D01*
X008226Y019676D01*
X008184Y019735D01*
X008133Y019786D01*
X008074Y019828D01*
X008010Y019861D01*
X007941Y019884D01*
X007869Y019895D01*
X007833Y019895D01*
X007833Y019435D01*
X008293Y019435D01*
X007833Y019435D01*
X007833Y019435D01*
X007833Y019435D01*
X007833Y018975D01*
X007833Y019435D01*
X007833Y019435D01*
X007833Y019895D01*
X007317Y019895D01*
X007245Y019884D01*
X007176Y019861D01*
X006993Y019722D02*
X006763Y019722D01*
X006763Y019484D02*
X006895Y019484D01*
X006893Y019435D02*
X007833Y019435D01*
X006893Y019435D01*
X006933Y019245D02*
X006763Y019245D01*
X006763Y019007D02*
X007183Y019007D01*
X007007Y018768D02*
X006763Y018768D01*
X006763Y018530D02*
X006873Y018530D01*
X006893Y018291D02*
X006763Y018291D01*
X006763Y018053D02*
X007057Y018053D01*
X007833Y018435D02*
X009833Y016435D01*
X009917Y016860D02*
X011079Y016860D01*
X010991Y017099D02*
X009679Y017099D01*
X009440Y017337D02*
X010853Y017337D01*
X010853Y017576D02*
X009202Y017576D01*
X008725Y018053D02*
X010537Y018053D01*
X010373Y018291D02*
X008486Y018291D01*
X008313Y018530D02*
X010353Y018530D01*
X010487Y018768D02*
X008179Y018768D01*
X008003Y019007D02*
X010613Y019007D01*
X010392Y019245D02*
X008252Y019245D01*
X008291Y019484D02*
X010353Y019484D01*
X010441Y019722D02*
X008193Y019722D01*
X008290Y020029D02*
X008290Y020029D01*
X007833Y019722D02*
X007833Y019722D01*
X007833Y019484D02*
X007833Y019484D01*
X007833Y019435D02*
X007833Y019435D01*
X007833Y019245D02*
X007833Y019245D01*
X007833Y019007D02*
X007833Y019007D01*
X007376Y020029D02*
X007376Y020029D01*
X006766Y020438D02*
X006763Y020438D01*
X009085Y020676D02*
X012973Y020676D01*
X011604Y021869D02*
X011462Y021869D01*
X010704Y021869D02*
X010673Y021869D01*
X010083Y021869D02*
X010083Y021869D01*
X010083Y022075D02*
X009684Y022075D01*
X009628Y022060D01*
X009578Y022031D01*
X009537Y021990D01*
X009508Y021940D01*
X009493Y021884D01*
X009493Y021485D01*
X009493Y021086D01*
X009508Y021030D01*
X009537Y020980D01*
X009578Y020939D01*
X009628Y020910D01*
X009684Y020895D01*
X010083Y020895D01*
X010083Y021485D01*
X010083Y022075D01*
X009493Y021869D02*
X009242Y021869D01*
X009239Y021892D02*
X009239Y021892D01*
X009280Y021630D02*
X009493Y021630D01*
X009493Y021485D02*
X010083Y021485D01*
X009493Y021485D01*
X009493Y021392D02*
X009304Y021392D01*
X009266Y021153D02*
X009493Y021153D01*
X009620Y020915D02*
X009206Y020915D01*
X009239Y020978D02*
X009239Y020978D01*
X010083Y020915D02*
X010083Y020915D01*
X010083Y021153D02*
X010083Y021153D01*
X010083Y021392D02*
X010083Y021392D01*
X010083Y021485D02*
X010083Y021485D01*
X010083Y021630D02*
X010083Y021630D01*
X010546Y020915D02*
X010691Y020915D01*
X015833Y021435D02*
X016333Y021435D01*
X016833Y020935D01*
X016833Y018935D01*
X020283Y020435D02*
X020333Y020435D01*
X026333Y020435D01*
X028833Y017935D01*
X028833Y017635D01*
X028833Y017235D02*
X028833Y016435D01*
X029348Y016860D02*
X029853Y016860D01*
X029853Y016736D02*
X030134Y016455D01*
X030532Y016455D01*
X030813Y016736D01*
X030813Y017134D01*
X030532Y017415D01*
X030134Y017415D01*
X029853Y017134D01*
X029853Y016736D01*
X029968Y016622D02*
X029498Y016622D01*
X029560Y016383D02*
X030883Y016383D01*
X030883Y016145D02*
X029883Y016145D01*
X029944Y015906D02*
X030883Y015906D01*
X030883Y015668D02*
X029943Y015668D01*
X029943Y015429D02*
X030883Y015429D01*
X030883Y015191D02*
X029943Y015191D01*
X029943Y014952D02*
X030883Y014952D01*
X030883Y014714D02*
X029943Y014714D01*
X029943Y014475D02*
X030883Y014475D01*
X030883Y014237D02*
X029943Y014237D01*
X030698Y016622D02*
X030883Y016622D01*
X030883Y016860D02*
X030813Y016860D01*
X030813Y017099D02*
X030883Y017099D01*
X030883Y017337D02*
X030610Y017337D01*
X030883Y017576D02*
X029323Y017576D01*
X029320Y017814D02*
X030883Y017814D01*
X030883Y018053D02*
X029174Y018053D01*
X028986Y018291D02*
X030883Y018291D01*
X030883Y018530D02*
X028748Y018530D01*
X028509Y018768D02*
X030883Y018768D01*
X030883Y019007D02*
X028271Y019007D01*
X028032Y019245D02*
X030883Y019245D01*
X030883Y019484D02*
X027794Y019484D01*
X027555Y019722D02*
X030883Y019722D01*
X030883Y019961D02*
X029855Y019961D01*
X029833Y019957D02*
X029833Y019957D01*
X029811Y019961D02*
X027317Y019961D01*
X027078Y020199D02*
X029043Y020199D01*
X028766Y020438D02*
X026840Y020438D01*
X027170Y020915D02*
X027274Y020915D01*
X028637Y020566D02*
X028637Y020566D01*
X029376Y020029D02*
X029376Y020029D01*
X030290Y020029D02*
X030290Y020029D01*
X030623Y020199D02*
X030883Y020199D01*
X030702Y020239D02*
X030702Y020239D01*
X030702Y020239D01*
X030056Y017337D02*
X029323Y017337D01*
X029323Y017099D02*
X029853Y017099D01*
X025833Y021153D02*
X025833Y021153D01*
X025833Y021392D02*
X025833Y021392D01*
X022833Y011375D02*
X022833Y011375D01*
X022833Y011136D02*
X022833Y011136D01*
D12*
X022533Y011535D02*
X023133Y011535D01*
X023133Y012435D02*
X022533Y012435D01*
X022533Y013335D02*
X023133Y013335D01*
X025533Y013335D02*
X026133Y013335D01*
X026133Y012435D02*
X025533Y012435D01*
X025533Y011535D02*
X026133Y011535D01*
X028533Y011535D02*
X029133Y011535D01*
X029133Y012435D02*
X028533Y012435D01*
X028533Y013335D02*
X029133Y013335D01*
D13*
X029183Y006435D02*
X029185Y006485D01*
X029191Y006535D01*
X029201Y006585D01*
X029214Y006633D01*
X029231Y006681D01*
X029252Y006727D01*
X029276Y006771D01*
X029304Y006813D01*
X029335Y006853D01*
X029369Y006890D01*
X029406Y006925D01*
X029445Y006956D01*
X029486Y006985D01*
X029530Y007010D01*
X029576Y007032D01*
X029623Y007050D01*
X029671Y007064D01*
X029720Y007075D01*
X029770Y007082D01*
X029820Y007085D01*
X029871Y007084D01*
X029921Y007079D01*
X029971Y007070D01*
X030019Y007058D01*
X030067Y007041D01*
X030113Y007021D01*
X030158Y006998D01*
X030201Y006971D01*
X030241Y006941D01*
X030279Y006908D01*
X030314Y006872D01*
X030347Y006833D01*
X030376Y006792D01*
X030402Y006749D01*
X030425Y006704D01*
X030444Y006657D01*
X030459Y006609D01*
X030471Y006560D01*
X030479Y006510D01*
X030483Y006460D01*
X030483Y006410D01*
X030479Y006360D01*
X030471Y006310D01*
X030459Y006261D01*
X030444Y006213D01*
X030425Y006166D01*
X030402Y006121D01*
X030376Y006078D01*
X030347Y006037D01*
X030314Y005998D01*
X030279Y005962D01*
X030241Y005929D01*
X030201Y005899D01*
X030158Y005872D01*
X030113Y005849D01*
X030067Y005829D01*
X030019Y005812D01*
X029971Y005800D01*
X029921Y005791D01*
X029871Y005786D01*
X029820Y005785D01*
X029770Y005788D01*
X029720Y005795D01*
X029671Y005806D01*
X029623Y005820D01*
X029576Y005838D01*
X029530Y005860D01*
X029486Y005885D01*
X029445Y005914D01*
X029406Y005945D01*
X029369Y005980D01*
X029335Y006017D01*
X029304Y006057D01*
X029276Y006099D01*
X029252Y006143D01*
X029231Y006189D01*
X029214Y006237D01*
X029201Y006285D01*
X029191Y006335D01*
X029185Y006385D01*
X029183Y006435D01*
X029183Y021435D02*
X029185Y021485D01*
X029191Y021535D01*
X029201Y021585D01*
X029214Y021633D01*
X029231Y021681D01*
X029252Y021727D01*
X029276Y021771D01*
X029304Y021813D01*
X029335Y021853D01*
X029369Y021890D01*
X029406Y021925D01*
X029445Y021956D01*
X029486Y021985D01*
X029530Y022010D01*
X029576Y022032D01*
X029623Y022050D01*
X029671Y022064D01*
X029720Y022075D01*
X029770Y022082D01*
X029820Y022085D01*
X029871Y022084D01*
X029921Y022079D01*
X029971Y022070D01*
X030019Y022058D01*
X030067Y022041D01*
X030113Y022021D01*
X030158Y021998D01*
X030201Y021971D01*
X030241Y021941D01*
X030279Y021908D01*
X030314Y021872D01*
X030347Y021833D01*
X030376Y021792D01*
X030402Y021749D01*
X030425Y021704D01*
X030444Y021657D01*
X030459Y021609D01*
X030471Y021560D01*
X030479Y021510D01*
X030483Y021460D01*
X030483Y021410D01*
X030479Y021360D01*
X030471Y021310D01*
X030459Y021261D01*
X030444Y021213D01*
X030425Y021166D01*
X030402Y021121D01*
X030376Y021078D01*
X030347Y021037D01*
X030314Y020998D01*
X030279Y020962D01*
X030241Y020929D01*
X030201Y020899D01*
X030158Y020872D01*
X030113Y020849D01*
X030067Y020829D01*
X030019Y020812D01*
X029971Y020800D01*
X029921Y020791D01*
X029871Y020786D01*
X029820Y020785D01*
X029770Y020788D01*
X029720Y020795D01*
X029671Y020806D01*
X029623Y020820D01*
X029576Y020838D01*
X029530Y020860D01*
X029486Y020885D01*
X029445Y020914D01*
X029406Y020945D01*
X029369Y020980D01*
X029335Y021017D01*
X029304Y021057D01*
X029276Y021099D01*
X029252Y021143D01*
X029231Y021189D01*
X029214Y021237D01*
X029201Y021285D01*
X029191Y021335D01*
X029185Y021385D01*
X029183Y021435D01*
X007183Y021435D02*
X007185Y021485D01*
X007191Y021535D01*
X007201Y021585D01*
X007214Y021633D01*
X007231Y021681D01*
X007252Y021727D01*
X007276Y021771D01*
X007304Y021813D01*
X007335Y021853D01*
X007369Y021890D01*
X007406Y021925D01*
X007445Y021956D01*
X007486Y021985D01*
X007530Y022010D01*
X007576Y022032D01*
X007623Y022050D01*
X007671Y022064D01*
X007720Y022075D01*
X007770Y022082D01*
X007820Y022085D01*
X007871Y022084D01*
X007921Y022079D01*
X007971Y022070D01*
X008019Y022058D01*
X008067Y022041D01*
X008113Y022021D01*
X008158Y021998D01*
X008201Y021971D01*
X008241Y021941D01*
X008279Y021908D01*
X008314Y021872D01*
X008347Y021833D01*
X008376Y021792D01*
X008402Y021749D01*
X008425Y021704D01*
X008444Y021657D01*
X008459Y021609D01*
X008471Y021560D01*
X008479Y021510D01*
X008483Y021460D01*
X008483Y021410D01*
X008479Y021360D01*
X008471Y021310D01*
X008459Y021261D01*
X008444Y021213D01*
X008425Y021166D01*
X008402Y021121D01*
X008376Y021078D01*
X008347Y021037D01*
X008314Y020998D01*
X008279Y020962D01*
X008241Y020929D01*
X008201Y020899D01*
X008158Y020872D01*
X008113Y020849D01*
X008067Y020829D01*
X008019Y020812D01*
X007971Y020800D01*
X007921Y020791D01*
X007871Y020786D01*
X007820Y020785D01*
X007770Y020788D01*
X007720Y020795D01*
X007671Y020806D01*
X007623Y020820D01*
X007576Y020838D01*
X007530Y020860D01*
X007486Y020885D01*
X007445Y020914D01*
X007406Y020945D01*
X007369Y020980D01*
X007335Y021017D01*
X007304Y021057D01*
X007276Y021099D01*
X007252Y021143D01*
X007231Y021189D01*
X007214Y021237D01*
X007201Y021285D01*
X007191Y021335D01*
X007185Y021385D01*
X007183Y021435D01*
X007183Y006435D02*
X007185Y006485D01*
X007191Y006535D01*
X007201Y006585D01*
X007214Y006633D01*
X007231Y006681D01*
X007252Y006727D01*
X007276Y006771D01*
X007304Y006813D01*
X007335Y006853D01*
X007369Y006890D01*
X007406Y006925D01*
X007445Y006956D01*
X007486Y006985D01*
X007530Y007010D01*
X007576Y007032D01*
X007623Y007050D01*
X007671Y007064D01*
X007720Y007075D01*
X007770Y007082D01*
X007820Y007085D01*
X007871Y007084D01*
X007921Y007079D01*
X007971Y007070D01*
X008019Y007058D01*
X008067Y007041D01*
X008113Y007021D01*
X008158Y006998D01*
X008201Y006971D01*
X008241Y006941D01*
X008279Y006908D01*
X008314Y006872D01*
X008347Y006833D01*
X008376Y006792D01*
X008402Y006749D01*
X008425Y006704D01*
X008444Y006657D01*
X008459Y006609D01*
X008471Y006560D01*
X008479Y006510D01*
X008483Y006460D01*
X008483Y006410D01*
X008479Y006360D01*
X008471Y006310D01*
X008459Y006261D01*
X008444Y006213D01*
X008425Y006166D01*
X008402Y006121D01*
X008376Y006078D01*
X008347Y006037D01*
X008314Y005998D01*
X008279Y005962D01*
X008241Y005929D01*
X008201Y005899D01*
X008158Y005872D01*
X008113Y005849D01*
X008067Y005829D01*
X008019Y005812D01*
X007971Y005800D01*
X007921Y005791D01*
X007871Y005786D01*
X007820Y005785D01*
X007770Y005788D01*
X007720Y005795D01*
X007671Y005806D01*
X007623Y005820D01*
X007576Y005838D01*
X007530Y005860D01*
X007486Y005885D01*
X007445Y005914D01*
X007406Y005945D01*
X007369Y005980D01*
X007335Y006017D01*
X007304Y006057D01*
X007276Y006099D01*
X007252Y006143D01*
X007231Y006189D01*
X007214Y006237D01*
X007201Y006285D01*
X007191Y006335D01*
X007185Y006385D01*
X007183Y006435D01*
D14*
X008333Y014035D03*
D15*
X008333Y014835D03*
D16*
X015333Y015435D03*
D17*
X015333Y014435D03*
D18*
X017333Y015935D03*
X017833Y017185D03*
X016833Y017185D03*
X017333Y011935D03*
X011333Y016435D03*
X011333Y017435D03*
X007333Y017435D03*
X007333Y016435D03*
X024333Y016935D03*
X027333Y016935D03*
X030333Y016935D03*
X030333Y012935D03*
X027333Y012935D03*
X024333Y012935D03*
D19*
X025833Y014435D03*
X025833Y015435D03*
X022833Y015435D03*
X022833Y014435D03*
X018833Y013935D03*
X018833Y014935D03*
X028833Y014435D03*
X028833Y015435D03*
D20*
X019073Y018435D02*
X018593Y018435D01*
X018593Y019435D02*
X019073Y019435D01*
X019073Y020435D02*
X018593Y020435D01*
X018593Y021435D02*
X019073Y021435D01*
X016073Y021435D02*
X015593Y021435D01*
X015593Y020435D02*
X016073Y020435D01*
X016073Y019435D02*
X015593Y019435D01*
X015593Y018435D02*
X016073Y018435D01*
X013573Y014935D02*
X013093Y014935D01*
X013093Y013935D02*
X013573Y013935D01*
X013573Y012935D02*
X013093Y012935D01*
X013093Y011935D02*
X013573Y011935D01*
X010573Y011935D02*
X010093Y011935D01*
X010093Y012935D02*
X010573Y012935D01*
X010573Y013935D02*
X010093Y013935D01*
X010093Y014935D02*
X010573Y014935D01*
X010833Y018435D02*
X011313Y018435D01*
X011313Y019435D02*
X010833Y019435D01*
X007833Y019435D02*
X007353Y019435D01*
X007353Y018435D02*
X007833Y018435D01*
D21*
X015333Y012829D03*
X015333Y012041D03*
D22*
X020833Y011935D03*
X020833Y015935D03*
X008833Y012935D03*
X007333Y012935D03*
X007333Y008935D03*
X008833Y008935D03*
D23*
X010083Y021485D03*
X027833Y021435D03*
D24*
X026833Y021435D03*
X025833Y021435D03*
X024833Y021435D03*
X023833Y021435D03*
X022833Y021435D03*
X012083Y021485D03*
X011083Y021385D03*
D25*
X014383Y021435D03*
X014283Y020435D03*
X014383Y019435D03*
X014283Y018435D03*
X020283Y018435D03*
X020383Y019435D03*
X020283Y020435D03*
X020383Y021435D03*
D26*
X022833Y017585D02*
X022833Y017285D01*
X025833Y017285D02*
X025833Y017585D01*
X028833Y017585D02*
X028833Y017285D01*
X013333Y016585D02*
X013333Y016285D01*
D27*
X013333Y016235D03*
X013333Y016635D03*
X022833Y017235D03*
X022833Y017635D03*
X025833Y017635D03*
X025833Y017235D03*
X028833Y017235D03*
X028833Y017635D03*
D28*
X028833Y016435D03*
X025833Y016435D03*
X022833Y016435D03*
X012333Y016435D03*
D29*
X012612Y008937D02*
X012612Y007933D01*
X011053Y007933D02*
X011053Y008937D01*
X016376Y008937D02*
X016376Y007933D01*
X017935Y007933D02*
X017935Y008937D01*
X019494Y008937D02*
X019494Y007933D01*
X021053Y007933D02*
X021053Y008937D01*
X022612Y008937D02*
X022612Y007933D01*
X024172Y007933D02*
X024172Y008937D01*
X025731Y008937D02*
X025731Y007933D01*
X027290Y007933D02*
X027290Y008937D01*
D30*
X015333Y011435D02*
X014833Y010935D01*
X011583Y010935D01*
X010833Y010435D01*
X009333Y010435D01*
X008833Y009935D01*
X008833Y008935D01*
X008233Y008035D02*
X010633Y008035D01*
X008233Y008035D02*
X007333Y008935D01*
X007333Y012935D02*
X007333Y013935D01*
X007333Y014435D01*
X007733Y014835D01*
X008333Y014835D01*
X008433Y014935D01*
X010333Y014935D01*
X010333Y012935D02*
X011583Y012935D01*
X011583Y010935D01*
X015333Y011435D02*
X015333Y012041D01*
D31*
X011053Y008435D02*
X011033Y008435D01*
X010633Y008035D01*
M02*
