%
M48
M72
T01C0.0236
T02C0.0320
T03C0.0400
T04C0.0440
T05C0.0669
T06C0.1300
%
T01
X15333Y12041
X15333Y12829
T02
X15333Y14435
X15333Y15435
X17333Y15935
X17833Y17185
X16833Y17185
X15833Y18435
X15833Y19435
X15833Y20435
X15833Y21435
X18833Y21435
X18833Y20435
X18833Y19435
X18833Y18435
X18833Y14935
X18833Y13935
X17333Y11935
X13333Y11935
X13333Y12935
X13333Y13935
X13333Y14935
X11333Y16435
X11333Y17435
X10833Y18435
X10833Y19435
X7833Y19435
X7833Y18435
X7333Y17435
X7333Y16435
X8333Y14835
X8333Y14035
X10333Y13935
X10333Y12935
X10333Y11935
X10333Y14935
X22833Y14435
X22833Y15435
X24333Y16935
X25833Y15435
X25833Y14435
X27333Y12935
X28833Y14435
X28833Y15435
X30333Y16935
X27333Y16935
X30333Y12935
X24333Y12935
T03
X25833Y13335
X25833Y12435
X25833Y11535
X22833Y11535
X22833Y12435
X22833Y13335
X22833Y16435
X20283Y18435
X20383Y19435
X20283Y20435
X20383Y21435
X22833Y21435
X23833Y21435
X24833Y21435
X25833Y21435
X26833Y21435
X27833Y21435
X28833Y16435
X25833Y16435
X28833Y13335
X28833Y12435
X28833Y11535
X14283Y18435
X14383Y19435
X14283Y20435
X14383Y21435
X12083Y21485
X11083Y21385
X10083Y21485
X12333Y16435
T04
X8833Y12935
X7333Y12935
X7333Y8935
X8833Y8935
X20833Y11935
X20833Y15935
T05
X21053Y8435
X19494Y8435
X17935Y8435
X16376Y8435
X12612Y8435
X11053Y8435
X22612Y8435
X24172Y8435
X25731Y8435
X27290Y8435
T06
X7833Y6435
X7833Y21435
X29833Y21435
X29833Y6435
M30
