G75*
%MOIN*%
%OFA0B0*%
%FSLAX24Y24*%
%IPPOS*%
%LPD*%
%AMOC8*
5,1,8,0,0,1.08239X$1,22.5*
%
%ADD10C,0.0080*%
%ADD11C,0.0240*%
%ADD12C,0.0070*%
%ADD13C,0.0030*%
%ADD14C,0.0060*%
%ADD15C,0.0100*%
%ADD16C,0.0110*%
%ADD17C,0.0120*%
%ADD18C,0.0050*%
%ADD19C,0.0000*%
%ADD20R,0.0240X0.0340*%
%ADD21C,0.0040*%
%ADD22R,0.0340X0.0240*%
%ADD23R,0.1000X0.0200*%
%ADD24R,0.0300X0.0750*%
%ADD25R,0.0670X0.0900*%
D10*
X006373Y004935D02*
X031293Y004935D01*
X031293Y010895D01*
X031293Y017695D01*
X031293Y022935D01*
X006373Y022935D01*
X006373Y015435D01*
X006373Y007935D01*
X006373Y004935D01*
X031273Y004935D01*
X020583Y017935D02*
X020083Y017935D01*
X019833Y018185D01*
X019833Y018685D01*
X020083Y018935D01*
X019833Y019185D01*
X019833Y019685D01*
X020083Y019935D01*
X019833Y020185D01*
X019833Y020685D01*
X020083Y020935D01*
X019833Y021185D01*
X019833Y021685D01*
X020083Y021935D01*
X020583Y021935D01*
X020833Y021685D01*
X020833Y021185D01*
X020583Y020935D01*
X020833Y020685D01*
X020833Y020185D01*
X020583Y019935D01*
X020833Y019685D01*
X020833Y019185D01*
X020583Y018935D01*
X020833Y018685D01*
X020833Y018185D01*
X020583Y017935D01*
X014833Y018185D02*
X014833Y018685D01*
X014583Y018935D01*
X014833Y019185D01*
X014833Y019685D01*
X014583Y019935D01*
X014833Y020185D01*
X014833Y020685D01*
X014583Y020935D01*
X014833Y021185D01*
X014833Y021685D01*
X014583Y021935D01*
X014083Y021935D01*
X013833Y021685D01*
X013833Y021185D01*
X014083Y020935D01*
X013833Y020685D01*
X013833Y020185D01*
X014083Y019935D01*
X013833Y019685D01*
X013833Y019185D01*
X014083Y018935D01*
X013833Y018685D01*
X013833Y018185D01*
X014083Y017935D01*
X014583Y017935D01*
X014833Y018185D01*
D11*
X006373Y022931D02*
X006373Y004935D01*
X006373Y022931D02*
X031273Y022931D01*
X031273Y004935D01*
D12*
X027119Y019470D02*
X026855Y019470D01*
X026987Y019470D02*
X026987Y020261D01*
X026855Y020261D02*
X027119Y020261D01*
X026591Y020261D02*
X026327Y020261D01*
X026459Y020261D02*
X026459Y019470D01*
X026327Y019470D02*
X026591Y019470D01*
X026063Y019865D02*
X025535Y019865D01*
X025271Y019602D02*
X025139Y019470D01*
X024875Y019470D01*
X024744Y019602D01*
X024744Y020129D01*
X024875Y020261D01*
X025139Y020261D01*
X025271Y020129D01*
X024479Y020129D02*
X024347Y020261D01*
X024083Y020261D01*
X023952Y020129D01*
X023952Y019997D01*
X024083Y019865D01*
X024347Y019865D01*
X024479Y019734D01*
X024479Y019602D01*
X024347Y019470D01*
X024083Y019470D01*
X023952Y019602D01*
X023687Y019602D02*
X023555Y019470D01*
X023292Y019470D01*
X023160Y019602D01*
X023160Y020129D01*
X023292Y020261D01*
X023555Y020261D01*
X023687Y020129D01*
X022895Y020129D02*
X022763Y020261D01*
X022500Y020261D01*
X022368Y020129D01*
X022368Y019602D01*
X022500Y019470D01*
X022763Y019470D01*
X022895Y019602D01*
X022895Y019865D01*
X022631Y019865D01*
D13*
X021756Y019740D02*
X021562Y019740D01*
X021562Y019595D01*
X021659Y019643D01*
X021707Y019643D01*
X021756Y019595D01*
X021756Y019498D01*
X021707Y019450D01*
X021611Y019450D01*
X021562Y019498D01*
X021461Y019595D02*
X021413Y019547D01*
X021268Y019547D01*
X021268Y019450D02*
X021268Y019740D01*
X021413Y019740D01*
X021461Y019692D01*
X021461Y019595D01*
X021166Y019595D02*
X021166Y019498D01*
X021118Y019450D01*
X021021Y019450D01*
X020973Y019498D01*
X020973Y019692D01*
X021021Y019740D01*
X021118Y019740D01*
X021166Y019692D01*
X021166Y019595D02*
X021070Y019595D01*
X021118Y020450D02*
X021166Y020498D01*
X021166Y020595D01*
X021070Y020595D01*
X021166Y020692D02*
X021118Y020740D01*
X021021Y020740D01*
X020973Y020692D01*
X020973Y020498D01*
X021021Y020450D01*
X021118Y020450D01*
X021268Y020450D02*
X021268Y020740D01*
X021413Y020740D01*
X021461Y020692D01*
X021461Y020595D01*
X021413Y020547D01*
X021268Y020547D01*
X021562Y020595D02*
X021756Y020595D01*
X021707Y020450D02*
X021707Y020740D01*
X021562Y020595D01*
X021611Y021450D02*
X021562Y021498D01*
X021611Y021450D02*
X021707Y021450D01*
X021756Y021498D01*
X021756Y021547D01*
X021707Y021595D01*
X021659Y021595D01*
X021707Y021595D02*
X021756Y021643D01*
X021756Y021692D01*
X021707Y021740D01*
X021611Y021740D01*
X021562Y021692D01*
X021461Y021692D02*
X021461Y021595D01*
X021413Y021547D01*
X021268Y021547D01*
X021268Y021450D02*
X021268Y021740D01*
X021413Y021740D01*
X021461Y021692D01*
X021166Y021692D02*
X021118Y021740D01*
X021021Y021740D01*
X020973Y021692D01*
X020973Y021498D01*
X021021Y021450D01*
X021118Y021450D01*
X021166Y021498D01*
X021166Y021595D01*
X021070Y021595D01*
X021928Y021650D02*
X021928Y021747D01*
X021928Y021698D02*
X022218Y021698D01*
X022218Y021650D02*
X022218Y021747D01*
X022170Y021846D02*
X022218Y021895D01*
X022218Y021992D01*
X022170Y022040D01*
X022170Y022141D02*
X022218Y022189D01*
X022218Y022286D01*
X022170Y022335D01*
X022121Y022335D01*
X022073Y022286D01*
X022073Y022189D01*
X022024Y022141D01*
X021976Y022141D01*
X021928Y022189D01*
X021928Y022286D01*
X021976Y022335D01*
X021928Y022436D02*
X021928Y022581D01*
X021976Y022629D01*
X022073Y022629D01*
X022121Y022581D01*
X022121Y022436D01*
X022218Y022436D02*
X021928Y022436D01*
X021976Y022040D02*
X021928Y021992D01*
X021928Y021895D01*
X021976Y021846D01*
X022170Y021846D01*
X021756Y018740D02*
X021756Y018547D01*
X021659Y018450D01*
X021562Y018547D01*
X021562Y018740D01*
X021461Y018740D02*
X021268Y018740D01*
X021268Y018595D01*
X021364Y018643D01*
X021413Y018643D01*
X021461Y018595D01*
X021461Y018498D01*
X021413Y018450D01*
X021316Y018450D01*
X021268Y018498D01*
X021166Y018595D02*
X020973Y018595D01*
X021070Y018692D02*
X021070Y018498D01*
X022348Y018143D02*
X022348Y017998D01*
X022396Y017950D01*
X022445Y017998D01*
X022493Y017950D01*
X022541Y017998D01*
X022541Y018143D01*
X022643Y018143D02*
X022643Y017998D01*
X022691Y017950D01*
X022739Y017998D01*
X022788Y017950D01*
X022836Y017998D01*
X022836Y018143D01*
X022937Y018143D02*
X022937Y017998D01*
X022986Y017950D01*
X023034Y017998D01*
X023082Y017950D01*
X023131Y017998D01*
X023131Y018143D01*
X023232Y017998D02*
X023280Y017998D01*
X023280Y017950D01*
X023232Y017950D01*
X023232Y017998D01*
X023379Y017950D02*
X023379Y018240D01*
X023524Y018143D02*
X023379Y018047D01*
X023524Y017950D01*
X023625Y017998D02*
X023625Y018095D01*
X023673Y018143D01*
X023770Y018143D01*
X023818Y018095D01*
X023818Y018047D01*
X023625Y018047D01*
X023625Y017998D02*
X023673Y017950D01*
X023770Y017950D01*
X023919Y018143D02*
X024016Y017950D01*
X024113Y018143D01*
X024214Y018143D02*
X024262Y018143D01*
X024262Y017950D01*
X024214Y017950D02*
X024311Y017950D01*
X024411Y017950D02*
X024411Y018143D01*
X024556Y018143D01*
X024604Y018095D01*
X024604Y017950D01*
X024705Y017950D02*
X024705Y018143D01*
X024754Y018143D01*
X024802Y018095D01*
X024850Y018143D01*
X024899Y018095D01*
X024899Y017950D01*
X024802Y017950D02*
X024802Y018095D01*
X025000Y018095D02*
X025097Y018095D01*
X025196Y018095D02*
X025196Y017998D01*
X025245Y017950D01*
X025341Y017950D01*
X025390Y017998D01*
X025390Y018095D01*
X025341Y018143D01*
X025245Y018143D01*
X025196Y018095D01*
X025097Y018240D02*
X025048Y018192D01*
X025048Y017950D01*
X025098Y017520D02*
X025098Y017150D01*
X025345Y017150D01*
X025466Y017150D02*
X025466Y017397D01*
X025590Y017520D01*
X025713Y017397D01*
X025713Y017150D01*
X025835Y017150D02*
X025835Y017520D01*
X025958Y017397D01*
X026081Y017520D01*
X026081Y017150D01*
X026203Y017150D02*
X026203Y017520D01*
X026388Y017520D01*
X026450Y017459D01*
X026450Y017335D01*
X026388Y017273D01*
X026203Y017273D01*
X026571Y017150D02*
X026818Y017397D01*
X026818Y017459D01*
X026756Y017520D01*
X026633Y017520D01*
X026571Y017459D01*
X026571Y017150D02*
X026818Y017150D01*
X026816Y017950D02*
X026768Y017998D01*
X026768Y018095D01*
X026816Y018143D01*
X026913Y018143D01*
X026961Y018095D01*
X026961Y017998D01*
X026913Y017950D01*
X026816Y017950D01*
X026667Y017950D02*
X026521Y017950D01*
X026473Y017998D01*
X026473Y018095D01*
X026521Y018143D01*
X026667Y018143D01*
X026374Y017998D02*
X026374Y017950D01*
X026326Y017950D01*
X026326Y017998D01*
X026374Y017998D01*
X026225Y018143D02*
X026177Y018143D01*
X026080Y018047D01*
X026080Y018143D02*
X026080Y017950D01*
X025979Y017998D02*
X025931Y017950D01*
X025834Y017950D01*
X025786Y017998D01*
X025786Y018095D01*
X025834Y018143D01*
X025931Y018143D01*
X025979Y018095D01*
X025979Y017998D01*
X025684Y017950D02*
X025539Y017950D01*
X025491Y017998D01*
X025491Y018095D01*
X025539Y018143D01*
X025684Y018143D01*
X025684Y018240D02*
X025684Y017950D01*
X025713Y017335D02*
X025466Y017335D01*
X024262Y018240D02*
X024262Y018289D01*
X023453Y017520D02*
X023453Y017150D01*
X023700Y017150D01*
X023331Y017150D02*
X023085Y017150D01*
X023085Y017520D01*
X022963Y017520D02*
X022716Y017520D01*
X022716Y017150D01*
X022963Y017150D01*
X022840Y017335D02*
X022716Y017335D01*
X022595Y017273D02*
X022595Y017212D01*
X022533Y017150D01*
X022348Y017150D01*
X022348Y017520D01*
X022533Y017520D01*
X022595Y017459D01*
X022595Y017397D01*
X022533Y017335D01*
X022348Y017335D01*
X022533Y017335D02*
X022595Y017273D01*
X020568Y015503D02*
X020568Y015380D01*
X020506Y015318D01*
X020506Y015197D02*
X020259Y015197D01*
X020198Y015135D01*
X020198Y014950D01*
X020568Y014950D01*
X020568Y015135D01*
X020506Y015197D01*
X020383Y015442D02*
X020383Y015503D01*
X020445Y015565D01*
X020506Y015565D01*
X020568Y015503D01*
X020383Y015503D02*
X020321Y015565D01*
X020259Y015565D01*
X020198Y015503D01*
X020198Y015380D01*
X020259Y015318D01*
X019768Y015600D02*
X019645Y015723D01*
X019706Y015723D02*
X019521Y015723D01*
X019521Y015600D02*
X019521Y015970D01*
X019706Y015970D01*
X019768Y015909D01*
X019768Y015785D01*
X019706Y015723D01*
X019400Y015600D02*
X019153Y015600D01*
X019153Y015970D01*
X019400Y015970D01*
X019276Y015785D02*
X019153Y015785D01*
X019031Y015600D02*
X019031Y015970D01*
X018785Y015970D02*
X018785Y015600D01*
X018908Y015723D01*
X019031Y015600D01*
X018663Y015662D02*
X018663Y015909D01*
X018601Y015970D01*
X018478Y015970D01*
X018416Y015909D01*
X018416Y015662D01*
X018478Y015600D01*
X018601Y015600D01*
X018663Y015662D01*
X018295Y015785D02*
X018233Y015723D01*
X018048Y015723D01*
X018048Y015600D02*
X018048Y015970D01*
X018233Y015970D01*
X018295Y015909D01*
X018295Y015785D01*
X016218Y016775D02*
X016156Y016713D01*
X015909Y016713D01*
X015848Y016775D01*
X015848Y016899D01*
X015909Y016960D01*
X015909Y017082D02*
X015848Y017143D01*
X015848Y017267D01*
X015909Y017329D01*
X015971Y017329D01*
X016033Y017267D01*
X016095Y017329D01*
X016156Y017329D01*
X016218Y017267D01*
X016218Y017143D01*
X016156Y017082D01*
X016156Y016960D02*
X016218Y016899D01*
X016218Y016775D01*
X016033Y017205D02*
X016033Y017267D01*
X014182Y017259D02*
X014182Y017135D01*
X014120Y017073D01*
X013935Y017073D01*
X013935Y016950D02*
X013935Y017320D01*
X014120Y017320D01*
X014182Y017259D01*
X014058Y017073D02*
X014182Y016950D01*
X013814Y016950D02*
X013567Y016950D01*
X013567Y017320D01*
X013814Y017320D01*
X013690Y017135D02*
X013567Y017135D01*
X013445Y017135D02*
X013322Y017135D01*
X013445Y017135D02*
X013445Y017012D01*
X013384Y016950D01*
X013260Y016950D01*
X013198Y017012D01*
X013198Y017259D01*
X013260Y017320D01*
X013384Y017320D01*
X013445Y017259D01*
X013077Y017259D02*
X013015Y017320D01*
X012892Y017320D01*
X012830Y017259D01*
X012830Y017012D01*
X012892Y016950D01*
X013015Y016950D01*
X013077Y017012D01*
X013077Y017135D01*
X012954Y017135D01*
X012708Y016950D02*
X012585Y016950D01*
X012646Y016950D02*
X012646Y017320D01*
X012585Y017320D02*
X012708Y017320D01*
X012463Y017259D02*
X012463Y017135D01*
X012401Y017073D01*
X012216Y017073D01*
X012216Y016950D02*
X012216Y017320D01*
X012401Y017320D01*
X012463Y017259D01*
X012340Y017073D02*
X012463Y016950D01*
X012095Y017320D02*
X011848Y017320D01*
X011971Y017320D02*
X011971Y016950D01*
X012896Y018450D02*
X012993Y018450D01*
X013041Y018498D01*
X013041Y018595D01*
X012945Y018595D01*
X013041Y018692D02*
X012993Y018740D01*
X012896Y018740D01*
X012848Y018692D01*
X012848Y018498D01*
X012896Y018450D01*
X013143Y018450D02*
X013143Y018740D01*
X013336Y018450D01*
X013336Y018740D01*
X013437Y018740D02*
X013582Y018740D01*
X013631Y018692D01*
X013631Y018498D01*
X013582Y018450D01*
X013437Y018450D01*
X013437Y018740D01*
X013486Y019450D02*
X013437Y019498D01*
X013631Y019692D01*
X013631Y019498D01*
X013582Y019450D01*
X013486Y019450D01*
X013437Y019498D02*
X013437Y019692D01*
X013486Y019740D01*
X013582Y019740D01*
X013631Y019692D01*
X013336Y019692D02*
X013336Y019595D01*
X013288Y019547D01*
X013143Y019547D01*
X013143Y019450D02*
X013143Y019740D01*
X013288Y019740D01*
X013336Y019692D01*
X013041Y019692D02*
X012993Y019740D01*
X012896Y019740D01*
X012848Y019692D01*
X012848Y019498D01*
X012896Y019450D01*
X012993Y019450D01*
X013041Y019498D01*
X013041Y019595D01*
X012945Y019595D01*
X012896Y020450D02*
X012993Y020450D01*
X013041Y020498D01*
X013041Y020595D01*
X012945Y020595D01*
X013041Y020692D02*
X012993Y020740D01*
X012896Y020740D01*
X012848Y020692D01*
X012848Y020498D01*
X012896Y020450D01*
X013143Y020450D02*
X013143Y020740D01*
X013288Y020740D01*
X013336Y020692D01*
X013336Y020595D01*
X013288Y020547D01*
X013143Y020547D01*
X013437Y020643D02*
X013534Y020740D01*
X013534Y020450D01*
X013437Y020450D02*
X013631Y020450D01*
X013631Y021450D02*
X013437Y021450D01*
X013631Y021643D01*
X013631Y021692D01*
X013582Y021740D01*
X013486Y021740D01*
X013437Y021692D01*
X013336Y021692D02*
X013336Y021595D01*
X013288Y021547D01*
X013143Y021547D01*
X013143Y021450D02*
X013143Y021740D01*
X013288Y021740D01*
X013336Y021692D01*
X013041Y021692D02*
X012993Y021740D01*
X012896Y021740D01*
X012848Y021692D01*
X012848Y021498D01*
X012896Y021450D01*
X012993Y021450D01*
X013041Y021498D01*
X013041Y021595D01*
X012945Y021595D01*
X009418Y020890D02*
X009418Y020793D01*
X009370Y020745D01*
X009273Y020745D02*
X009224Y020841D01*
X009224Y020890D01*
X009273Y020938D01*
X009370Y020938D01*
X009418Y020890D01*
X009273Y020745D02*
X009128Y020745D01*
X009128Y020938D01*
X009128Y020643D02*
X009128Y020547D01*
X009128Y020595D02*
X009370Y020595D01*
X009418Y020547D01*
X009418Y020498D01*
X009370Y020450D01*
X007318Y015565D02*
X007318Y015318D01*
X007318Y015442D02*
X006948Y015442D01*
X007071Y015318D01*
X007009Y015197D02*
X006948Y015135D01*
X006948Y015012D01*
X007009Y014950D01*
X007256Y014950D01*
X007318Y015012D01*
X007318Y015135D01*
X007256Y015197D01*
X007068Y012565D02*
X007068Y012318D01*
X007068Y012442D02*
X006698Y012442D01*
X006821Y012318D01*
X006759Y012197D02*
X006698Y012135D01*
X006698Y011950D01*
X007068Y011950D01*
X007068Y012135D01*
X007006Y012197D01*
X006759Y012197D01*
X008198Y012135D02*
X008198Y011950D01*
X008568Y011950D01*
X008568Y012135D01*
X008506Y012197D01*
X008259Y012197D01*
X008198Y012135D01*
X008259Y012318D02*
X008198Y012380D01*
X008198Y012503D01*
X008259Y012565D01*
X008321Y012565D01*
X008568Y012318D01*
X008568Y012565D01*
X010971Y010259D02*
X010971Y010012D01*
X010848Y010135D02*
X011095Y010135D01*
X011216Y010073D02*
X011340Y009950D01*
X011463Y010073D01*
X011463Y010320D01*
X011216Y010320D02*
X011216Y010073D01*
X012348Y010012D02*
X012410Y009950D01*
X012533Y009950D01*
X012595Y010012D01*
X012595Y010135D01*
X012471Y010135D01*
X012348Y010012D02*
X012348Y010259D01*
X012410Y010320D01*
X012533Y010320D01*
X012595Y010259D01*
X012716Y010320D02*
X012716Y009950D01*
X012963Y009950D02*
X012716Y010320D01*
X012963Y010320D02*
X012963Y009950D01*
X013085Y009950D02*
X013270Y009950D01*
X013331Y010012D01*
X013331Y010259D01*
X013270Y010320D01*
X013085Y010320D01*
X013085Y009950D01*
X016048Y010720D02*
X016295Y010720D01*
X016416Y010720D02*
X016416Y010350D01*
X016416Y010473D02*
X016601Y010473D01*
X016663Y010535D01*
X016663Y010659D01*
X016601Y010720D01*
X016416Y010720D01*
X016171Y010720D02*
X016171Y010350D01*
X016540Y010473D02*
X016663Y010350D01*
X016785Y010350D02*
X016908Y010350D01*
X016846Y010350D02*
X016846Y010720D01*
X016785Y010720D02*
X016908Y010720D01*
X017030Y010659D02*
X017030Y010412D01*
X017092Y010350D01*
X017215Y010350D01*
X017277Y010412D01*
X017277Y010535D01*
X017154Y010535D01*
X017277Y010659D02*
X017215Y010720D01*
X017092Y010720D01*
X017030Y010659D01*
X017398Y010659D02*
X017398Y010412D01*
X017460Y010350D01*
X017584Y010350D01*
X017645Y010412D01*
X017645Y010535D01*
X017522Y010535D01*
X017645Y010659D02*
X017584Y010720D01*
X017460Y010720D01*
X017398Y010659D01*
X017767Y010720D02*
X017767Y010350D01*
X018014Y010350D01*
X018135Y010350D02*
X018135Y010720D01*
X018320Y010720D01*
X018382Y010659D01*
X018382Y010535D01*
X018320Y010473D01*
X018135Y010473D01*
X018258Y010473D02*
X018382Y010350D01*
X018014Y010720D02*
X017767Y010720D01*
X017767Y010535D02*
X017890Y010535D01*
X016718Y011213D02*
X016718Y011460D01*
X016718Y011582D02*
X016718Y011829D01*
X016718Y011705D02*
X016348Y011705D01*
X016471Y011582D01*
X016348Y011213D02*
X016718Y011213D01*
X016656Y013213D02*
X016718Y013275D01*
X016718Y013399D01*
X016656Y013460D01*
X016718Y013582D02*
X016471Y013829D01*
X016409Y013829D01*
X016348Y013767D01*
X016348Y013643D01*
X016409Y013582D01*
X016409Y013460D02*
X016348Y013399D01*
X016348Y013275D01*
X016409Y013213D01*
X016656Y013213D01*
X016718Y013582D02*
X016718Y013829D01*
X019648Y010720D02*
X019833Y010720D01*
X019895Y010659D01*
X019895Y010597D01*
X019833Y010535D01*
X019648Y010535D01*
X019648Y010350D02*
X019648Y010720D01*
X019833Y010535D02*
X019895Y010473D01*
X019895Y010412D01*
X019833Y010350D01*
X019648Y010350D01*
X020016Y010350D02*
X020016Y010720D01*
X020263Y010720D01*
X020385Y010720D02*
X020385Y010350D01*
X020631Y010350D01*
X020753Y010350D02*
X021000Y010350D01*
X020753Y010350D02*
X020753Y010720D01*
X020263Y010350D02*
X020016Y010350D01*
X020016Y010535D02*
X020140Y010535D01*
X022548Y010350D02*
X022795Y010350D01*
X022916Y010350D02*
X022916Y010597D01*
X023040Y010720D01*
X023163Y010597D01*
X023163Y010350D01*
X023285Y010350D02*
X023285Y010720D01*
X023408Y010597D01*
X023531Y010720D01*
X023531Y010350D01*
X023653Y010350D02*
X023653Y010720D01*
X023838Y010720D01*
X023900Y010659D01*
X023900Y010535D01*
X023838Y010473D01*
X023653Y010473D01*
X023163Y010535D02*
X022916Y010535D01*
X022548Y010720D02*
X022548Y010350D01*
X023948Y011512D02*
X023948Y011635D01*
X024009Y011697D01*
X024256Y011697D01*
X024318Y011635D01*
X024318Y011512D01*
X024256Y011450D01*
X024009Y011450D01*
X023948Y011512D01*
X024195Y011573D02*
X024318Y011697D01*
X024256Y011818D02*
X024318Y011880D01*
X024318Y012003D01*
X024256Y012065D01*
X024195Y012065D01*
X024133Y012003D01*
X024133Y011942D01*
X024133Y012003D02*
X024071Y012065D01*
X024009Y012065D01*
X023948Y012003D01*
X023948Y011880D01*
X024009Y011818D01*
X024083Y010720D02*
X024021Y010659D01*
X024083Y010720D02*
X024206Y010720D01*
X024268Y010659D01*
X024268Y010597D01*
X024021Y010350D01*
X024268Y010350D01*
X025648Y010350D02*
X025895Y010350D01*
X026016Y010350D02*
X026016Y010597D01*
X026140Y010720D01*
X026263Y010597D01*
X026263Y010350D01*
X026385Y010350D02*
X026385Y010720D01*
X026508Y010597D01*
X026631Y010720D01*
X026631Y010350D01*
X026753Y010350D02*
X026753Y010720D01*
X026938Y010720D01*
X027000Y010659D01*
X027000Y010535D01*
X026938Y010473D01*
X026753Y010473D01*
X027121Y010350D02*
X027368Y010350D01*
X027245Y010350D02*
X027245Y010720D01*
X027121Y010597D01*
X026263Y010535D02*
X026016Y010535D01*
X025648Y010720D02*
X025648Y010350D01*
X026948Y011512D02*
X026948Y011635D01*
X027009Y011697D01*
X027256Y011697D01*
X027318Y011635D01*
X027318Y011512D01*
X027256Y011450D01*
X027009Y011450D01*
X026948Y011512D01*
X027195Y011573D02*
X027318Y011697D01*
X027318Y011818D02*
X027071Y012065D01*
X027009Y012065D01*
X026948Y012003D01*
X026948Y011880D01*
X027009Y011818D01*
X027318Y011818D02*
X027318Y012065D01*
X029948Y011942D02*
X030318Y011942D01*
X030318Y012065D02*
X030318Y011818D01*
X030318Y011697D02*
X030195Y011573D01*
X030318Y011512D02*
X030256Y011450D01*
X030009Y011450D01*
X029948Y011512D01*
X029948Y011635D01*
X030009Y011697D01*
X030256Y011697D01*
X030318Y011635D01*
X030318Y011512D01*
X030071Y011818D02*
X029948Y011942D01*
X030528Y010545D02*
X030528Y010352D01*
X030673Y010352D01*
X030624Y010449D01*
X030624Y010497D01*
X030673Y010545D01*
X030770Y010545D01*
X030818Y010497D01*
X030818Y010400D01*
X030770Y010352D01*
X030818Y010251D02*
X030818Y010057D01*
X030818Y010154D02*
X030528Y010154D01*
X030624Y010057D01*
X030576Y009956D02*
X030770Y009956D01*
X030818Y009908D01*
X030818Y009811D01*
X030770Y009763D01*
X030576Y009956D01*
X030528Y009908D01*
X030528Y009811D01*
X030576Y009763D01*
X030770Y009763D01*
X030818Y009661D02*
X030818Y009468D01*
X030624Y009661D01*
X030576Y009661D01*
X030528Y009613D01*
X030528Y009516D01*
X030576Y009468D01*
X030673Y009367D02*
X030673Y009173D01*
X030818Y009072D02*
X030818Y008879D01*
X030818Y008975D02*
X030528Y008975D01*
X030624Y008879D01*
X030576Y008777D02*
X030770Y008777D01*
X030818Y008729D01*
X030818Y008632D01*
X030770Y008584D01*
X030576Y008777D01*
X030528Y008729D01*
X030528Y008632D01*
X030576Y008584D01*
X030770Y008584D01*
X030673Y008483D02*
X030673Y008289D01*
X030673Y008188D02*
X030770Y008188D01*
X030818Y008140D01*
X030818Y008043D01*
X030770Y007995D01*
X030673Y007995D02*
X030624Y008091D01*
X030624Y008140D01*
X030673Y008188D01*
X030528Y008188D02*
X030528Y007995D01*
X030673Y007995D01*
X030770Y007893D02*
X030818Y007845D01*
X030818Y007748D01*
X030770Y007700D01*
X030576Y007893D01*
X030770Y007893D01*
X030770Y007700D02*
X030576Y007700D01*
X030528Y007748D01*
X030528Y007845D01*
X030576Y007893D01*
X029818Y017150D02*
X029571Y017150D01*
X029695Y017150D02*
X029695Y017520D01*
X029571Y017397D01*
X029450Y017459D02*
X029450Y017335D01*
X029388Y017273D01*
X029203Y017273D01*
X029203Y017150D02*
X029203Y017520D01*
X029388Y017520D01*
X029450Y017459D01*
X029081Y017520D02*
X029081Y017150D01*
X028835Y017150D02*
X028835Y017520D01*
X028958Y017397D01*
X029081Y017520D01*
X028713Y017397D02*
X028713Y017150D01*
X028713Y017335D02*
X028466Y017335D01*
X028466Y017397D02*
X028466Y017150D01*
X028345Y017150D02*
X028098Y017150D01*
X028098Y017520D01*
X028466Y017397D02*
X028590Y017520D01*
X028713Y017397D01*
X027256Y017950D02*
X027256Y018095D01*
X027207Y018143D01*
X027159Y018095D01*
X027159Y017950D01*
X027062Y017950D02*
X027062Y018143D01*
X027111Y018143D01*
X027159Y018095D01*
D14*
X025933Y016935D02*
X025933Y016910D01*
X025933Y016935D02*
X025733Y016935D01*
X025733Y016910D01*
X025733Y015960D02*
X025733Y015935D01*
X025933Y015935D01*
X025933Y015960D01*
X026883Y015935D02*
X026933Y015885D01*
X026933Y013985D01*
X026883Y013935D01*
X026883Y013785D01*
X026885Y013768D01*
X026889Y013751D01*
X026896Y013735D01*
X026906Y013721D01*
X026919Y013708D01*
X026933Y013698D01*
X026949Y013691D01*
X026966Y013687D01*
X026983Y013685D01*
X027683Y013685D01*
X027700Y013687D01*
X027717Y013691D01*
X027733Y013698D01*
X027747Y013708D01*
X027760Y013721D01*
X027770Y013735D01*
X027777Y013751D01*
X027781Y013768D01*
X027783Y013785D01*
X027783Y013935D01*
X027733Y013985D01*
X027733Y015885D01*
X027783Y015935D01*
X027783Y016085D01*
X027781Y016102D01*
X027777Y016119D01*
X027770Y016135D01*
X027760Y016149D01*
X027747Y016162D01*
X027733Y016172D01*
X027717Y016179D01*
X027700Y016183D01*
X027683Y016185D01*
X026983Y016185D01*
X026966Y016183D01*
X026949Y016179D01*
X026933Y016172D01*
X026919Y016162D01*
X026906Y016149D01*
X026896Y016135D01*
X026889Y016119D01*
X026885Y016102D01*
X026883Y016085D01*
X026883Y015935D01*
X026433Y014935D02*
X026431Y014888D01*
X026425Y014840D01*
X026416Y014794D01*
X026403Y014748D01*
X026387Y014704D01*
X026366Y014660D01*
X026343Y014619D01*
X026317Y014580D01*
X026287Y014543D01*
X026254Y014508D01*
X026219Y014476D01*
X026182Y014447D01*
X025233Y014935D02*
X025235Y014980D01*
X025240Y015026D01*
X025248Y015070D01*
X025260Y015114D01*
X025276Y015157D01*
X025294Y015199D01*
X025316Y015239D01*
X025340Y015277D01*
X025367Y015313D01*
X025397Y015348D01*
X025430Y015379D01*
X025465Y015409D01*
X025233Y014935D02*
X025235Y014890D01*
X025240Y014844D01*
X025248Y014800D01*
X025260Y014756D01*
X025276Y014713D01*
X025294Y014671D01*
X025316Y014631D01*
X025340Y014593D01*
X025367Y014557D01*
X025397Y014522D01*
X025430Y014491D01*
X025465Y014461D01*
X026433Y014935D02*
X026431Y014981D01*
X026426Y015027D01*
X026417Y015073D01*
X026405Y015118D01*
X026389Y015161D01*
X026370Y015203D01*
X026347Y015244D01*
X026322Y015283D01*
X026294Y015319D01*
X026263Y015354D01*
X026229Y015386D01*
X026193Y015415D01*
X024783Y015935D02*
X024733Y015885D01*
X024733Y013985D01*
X024783Y013935D01*
X024783Y013785D01*
X024781Y013768D01*
X024777Y013751D01*
X024770Y013735D01*
X024760Y013721D01*
X024747Y013708D01*
X024733Y013698D01*
X024717Y013691D01*
X024700Y013687D01*
X024683Y013685D01*
X023983Y013685D01*
X023966Y013687D01*
X023949Y013691D01*
X023933Y013698D01*
X023919Y013708D01*
X023906Y013721D01*
X023896Y013735D01*
X023889Y013751D01*
X023885Y013768D01*
X023883Y013785D01*
X023883Y013935D01*
X023933Y013985D01*
X023933Y015885D01*
X023883Y015935D01*
X023883Y016085D01*
X023885Y016102D01*
X023889Y016119D01*
X023896Y016135D01*
X023906Y016149D01*
X023919Y016162D01*
X023933Y016172D01*
X023949Y016179D01*
X023966Y016183D01*
X023983Y016185D01*
X024683Y016185D01*
X024700Y016183D01*
X024717Y016179D01*
X024733Y016172D01*
X024747Y016162D01*
X024760Y016149D01*
X024770Y016135D01*
X024777Y016119D01*
X024781Y016102D01*
X024783Y016085D01*
X024783Y015935D01*
X022933Y015935D02*
X022933Y015960D01*
X022933Y015935D02*
X022733Y015935D01*
X022733Y015960D01*
X022733Y016910D02*
X022733Y016935D01*
X022933Y016935D01*
X022933Y016910D01*
X022962Y018465D02*
X022879Y018548D01*
X022879Y018715D01*
X022962Y018799D01*
X023129Y018799D01*
X023212Y018715D01*
X023212Y018632D01*
X022879Y018632D01*
X022962Y018465D02*
X023129Y018465D01*
X023394Y018799D02*
X023561Y018465D01*
X023728Y018799D01*
X023910Y018715D02*
X024243Y018715D01*
X024425Y018715D02*
X024676Y018715D01*
X024759Y018632D01*
X024759Y018548D01*
X024676Y018465D01*
X024425Y018465D01*
X024425Y018965D01*
X024676Y018965D01*
X024759Y018882D01*
X024759Y018799D01*
X024676Y018715D01*
X024941Y018548D02*
X025025Y018548D01*
X025025Y018465D01*
X024941Y018465D01*
X024941Y018548D01*
X025199Y018465D02*
X025533Y018799D01*
X025533Y018882D01*
X025449Y018965D01*
X025282Y018965D01*
X025199Y018882D01*
X025199Y018465D02*
X025533Y018465D01*
X022697Y018465D02*
X022530Y018632D01*
X022613Y018632D02*
X022363Y018632D01*
X022363Y018465D02*
X022363Y018965D01*
X022613Y018965D01*
X022697Y018882D01*
X022697Y018715D01*
X022613Y018632D01*
X023433Y014935D02*
X023431Y014888D01*
X023425Y014840D01*
X023416Y014794D01*
X023403Y014748D01*
X023387Y014704D01*
X023366Y014660D01*
X023343Y014619D01*
X023317Y014580D01*
X023287Y014543D01*
X023254Y014508D01*
X023219Y014476D01*
X023182Y014447D01*
X022233Y014935D02*
X022235Y014980D01*
X022240Y015026D01*
X022248Y015070D01*
X022260Y015114D01*
X022276Y015157D01*
X022294Y015199D01*
X022316Y015239D01*
X022340Y015277D01*
X022367Y015313D01*
X022397Y015348D01*
X022430Y015379D01*
X022465Y015409D01*
X022233Y014935D02*
X022235Y014890D01*
X022240Y014844D01*
X022248Y014800D01*
X022260Y014756D01*
X022276Y014713D01*
X022294Y014671D01*
X022316Y014631D01*
X022340Y014593D01*
X022367Y014557D01*
X022397Y014522D01*
X022430Y014491D01*
X022465Y014461D01*
X023433Y014935D02*
X023431Y014981D01*
X023426Y015027D01*
X023417Y015073D01*
X023405Y015118D01*
X023389Y015161D01*
X023370Y015203D01*
X023347Y015244D01*
X023322Y015283D01*
X023294Y015319D01*
X023263Y015354D01*
X023229Y015386D01*
X023193Y015415D01*
X021333Y014735D02*
X020333Y014735D01*
X020333Y013135D01*
X021333Y013135D01*
X021333Y014735D01*
X021083Y014335D02*
X020833Y013935D01*
X021083Y013935D01*
X020833Y013935D02*
X020583Y013935D01*
X020833Y013935D02*
X020583Y014335D01*
X021083Y014335D01*
X020833Y014535D02*
X020833Y013935D01*
X020833Y013685D01*
X018465Y014909D02*
X018430Y014879D01*
X018397Y014848D01*
X018367Y014813D01*
X018340Y014777D01*
X018316Y014739D01*
X018294Y014699D01*
X018276Y014657D01*
X018260Y014614D01*
X018248Y014570D01*
X018240Y014526D01*
X018235Y014480D01*
X018233Y014435D01*
X019193Y014915D02*
X019229Y014886D01*
X019263Y014854D01*
X019294Y014819D01*
X019322Y014783D01*
X019347Y014744D01*
X019370Y014703D01*
X019389Y014661D01*
X019405Y014618D01*
X019417Y014573D01*
X019426Y014527D01*
X019431Y014481D01*
X019433Y014435D01*
X018465Y013961D02*
X018430Y013991D01*
X018397Y014022D01*
X018367Y014057D01*
X018340Y014093D01*
X018316Y014131D01*
X018294Y014171D01*
X018276Y014213D01*
X018260Y014256D01*
X018248Y014300D01*
X018240Y014344D01*
X018235Y014390D01*
X018233Y014435D01*
X019182Y013947D02*
X019219Y013976D01*
X019254Y014008D01*
X019287Y014043D01*
X019317Y014080D01*
X019343Y014119D01*
X019366Y014160D01*
X019387Y014204D01*
X019403Y014248D01*
X019416Y014294D01*
X019425Y014340D01*
X019431Y014388D01*
X019433Y014435D01*
X017783Y014935D02*
X017783Y015085D01*
X017781Y015102D01*
X017777Y015119D01*
X017770Y015135D01*
X017760Y015149D01*
X017747Y015162D01*
X017733Y015172D01*
X017717Y015179D01*
X017700Y015183D01*
X017683Y015185D01*
X016983Y015185D01*
X016966Y015183D01*
X016949Y015179D01*
X016933Y015172D01*
X016919Y015162D01*
X016906Y015149D01*
X016896Y015135D01*
X016889Y015119D01*
X016885Y015102D01*
X016883Y015085D01*
X016883Y014935D01*
X016933Y014885D01*
X016933Y012985D01*
X016883Y012935D01*
X016883Y012785D01*
X016885Y012768D01*
X016889Y012751D01*
X016896Y012735D01*
X016906Y012721D01*
X016919Y012708D01*
X016933Y012698D01*
X016949Y012691D01*
X016966Y012687D01*
X016983Y012685D01*
X017683Y012685D01*
X017700Y012687D01*
X017717Y012691D01*
X017733Y012698D01*
X017747Y012708D01*
X017760Y012721D01*
X017770Y012735D01*
X017777Y012751D01*
X017781Y012768D01*
X017783Y012785D01*
X017783Y012935D01*
X017733Y012985D01*
X017733Y014885D01*
X017783Y014935D01*
X017983Y016485D02*
X016683Y016485D01*
X016657Y016487D01*
X016631Y016492D01*
X016606Y016500D01*
X016583Y016512D01*
X016561Y016526D01*
X016542Y016544D01*
X016524Y016563D01*
X016510Y016585D01*
X016498Y016608D01*
X016490Y016633D01*
X016485Y016659D01*
X016483Y016685D01*
X016483Y017185D01*
X016485Y017211D01*
X016490Y017237D01*
X016498Y017262D01*
X016510Y017285D01*
X016524Y017307D01*
X016542Y017326D01*
X016561Y017344D01*
X016583Y017358D01*
X016606Y017370D01*
X016631Y017378D01*
X016657Y017383D01*
X016683Y017385D01*
X017983Y017385D01*
X018009Y017383D01*
X018035Y017378D01*
X018060Y017370D01*
X018083Y017358D01*
X018105Y017344D01*
X018124Y017326D01*
X018142Y017307D01*
X018156Y017285D01*
X018168Y017262D01*
X018176Y017237D01*
X018181Y017211D01*
X018183Y017185D01*
X018183Y016685D01*
X018181Y016659D01*
X018176Y016633D01*
X018168Y016608D01*
X018156Y016585D01*
X018142Y016563D01*
X018124Y016544D01*
X018105Y016526D01*
X018083Y016512D01*
X018060Y016500D01*
X018035Y016492D01*
X018009Y016487D01*
X017983Y016485D01*
X018333Y017935D02*
X017583Y017935D01*
X017581Y017965D01*
X017576Y017995D01*
X017567Y018024D01*
X017554Y018051D01*
X017539Y018077D01*
X017520Y018101D01*
X017499Y018122D01*
X017475Y018141D01*
X017449Y018156D01*
X017422Y018169D01*
X017393Y018178D01*
X017363Y018183D01*
X017333Y018185D01*
X017303Y018183D01*
X017273Y018178D01*
X017244Y018169D01*
X017217Y018156D01*
X017191Y018141D01*
X017167Y018122D01*
X017146Y018101D01*
X017127Y018077D01*
X017112Y018051D01*
X017099Y018024D01*
X017090Y017995D01*
X017085Y017965D01*
X017083Y017935D01*
X016333Y017935D01*
X016333Y021935D01*
X018333Y021935D01*
X018333Y017935D01*
X014093Y014935D02*
X014095Y015005D01*
X014101Y015075D01*
X014111Y015145D01*
X014125Y015213D01*
X014142Y015281D01*
X014164Y015348D01*
X014189Y015414D01*
X014218Y015478D01*
X014250Y015540D01*
X014286Y015600D01*
X014326Y015658D01*
X014368Y015714D01*
X014414Y015767D01*
X014462Y015818D01*
X014514Y015866D01*
X014568Y015911D01*
X014624Y015952D01*
X014683Y015991D01*
X014744Y016026D01*
X014806Y016058D01*
X014871Y016086D01*
X014936Y016110D01*
X015004Y016130D01*
X015072Y016147D01*
X015141Y016160D01*
X015210Y016169D01*
X015280Y016174D01*
X015351Y016175D01*
X015421Y016172D01*
X015491Y016165D01*
X015560Y016154D01*
X015628Y016139D01*
X015696Y016121D01*
X015763Y016098D01*
X015828Y016072D01*
X015891Y016042D01*
X015953Y016009D01*
X016013Y015972D01*
X016070Y015932D01*
X016126Y015889D01*
X016178Y015842D01*
X016228Y015793D01*
X016275Y015741D01*
X016319Y015686D01*
X016360Y015629D01*
X016398Y015570D01*
X016432Y015509D01*
X016463Y015446D01*
X016490Y015381D01*
X016513Y015315D01*
X016533Y015247D01*
X016549Y015179D01*
X016561Y015110D01*
X016569Y015040D01*
X016573Y014970D01*
X016573Y014900D01*
X016569Y014830D01*
X016561Y014760D01*
X016549Y014691D01*
X016533Y014623D01*
X016513Y014555D01*
X016490Y014489D01*
X016463Y014424D01*
X016432Y014361D01*
X016398Y014300D01*
X016360Y014241D01*
X016319Y014184D01*
X016275Y014129D01*
X016228Y014077D01*
X016178Y014028D01*
X016126Y013981D01*
X016070Y013938D01*
X016013Y013898D01*
X015953Y013861D01*
X015891Y013828D01*
X015828Y013798D01*
X015763Y013772D01*
X015696Y013749D01*
X015628Y013731D01*
X015560Y013716D01*
X015491Y013705D01*
X015421Y013698D01*
X015351Y013695D01*
X015280Y013696D01*
X015210Y013701D01*
X015141Y013710D01*
X015072Y013723D01*
X015004Y013740D01*
X014936Y013760D01*
X014871Y013784D01*
X014806Y013812D01*
X014744Y013844D01*
X014683Y013879D01*
X014624Y013918D01*
X014568Y013959D01*
X014514Y014004D01*
X014462Y014052D01*
X014414Y014103D01*
X014368Y014156D01*
X014326Y014212D01*
X014286Y014270D01*
X014250Y014330D01*
X014218Y014392D01*
X014189Y014456D01*
X014164Y014522D01*
X014142Y014589D01*
X014125Y014657D01*
X014111Y014725D01*
X014101Y014795D01*
X014095Y014865D01*
X014093Y014935D01*
X014715Y014435D02*
X014715Y014285D01*
X014565Y014285D01*
X014715Y014285D02*
X014865Y014285D01*
X014715Y014285D02*
X014715Y014135D01*
X012833Y015435D02*
X010833Y015435D01*
X010833Y011435D01*
X011583Y011435D01*
X011585Y011465D01*
X011590Y011495D01*
X011599Y011524D01*
X011612Y011551D01*
X011627Y011577D01*
X011646Y011601D01*
X011667Y011622D01*
X011691Y011641D01*
X011717Y011656D01*
X011744Y011669D01*
X011773Y011678D01*
X011803Y011683D01*
X011833Y011685D01*
X011863Y011683D01*
X011893Y011678D01*
X011922Y011669D01*
X011949Y011656D01*
X011975Y011641D01*
X011999Y011622D01*
X012020Y011601D01*
X012039Y011577D01*
X012054Y011551D01*
X012067Y011524D01*
X012076Y011495D01*
X012081Y011465D01*
X012083Y011435D01*
X012833Y011435D01*
X012833Y015435D01*
X012833Y016335D02*
X012808Y016335D01*
X012833Y016335D02*
X012833Y016535D01*
X012808Y016535D01*
X011858Y016535D02*
X011833Y016535D01*
X011833Y016335D01*
X011858Y016335D01*
X010583Y016085D02*
X010583Y016785D01*
X010581Y016802D01*
X010577Y016819D01*
X010570Y016835D01*
X010560Y016849D01*
X010547Y016862D01*
X010533Y016872D01*
X010517Y016879D01*
X010500Y016883D01*
X010483Y016885D01*
X010333Y016885D01*
X010283Y016835D01*
X008383Y016835D01*
X008333Y016885D01*
X008183Y016885D01*
X008166Y016883D01*
X008149Y016879D01*
X008133Y016872D01*
X008119Y016862D01*
X008106Y016849D01*
X008096Y016835D01*
X008089Y016819D01*
X008085Y016802D01*
X008083Y016785D01*
X008083Y016085D01*
X008085Y016068D01*
X008089Y016051D01*
X008096Y016035D01*
X008106Y016021D01*
X008119Y016008D01*
X008133Y015998D01*
X008149Y015991D01*
X008166Y015987D01*
X008183Y015985D01*
X008333Y015985D01*
X008383Y016035D01*
X010283Y016035D01*
X010333Y015985D01*
X010483Y015985D01*
X010500Y015987D01*
X010517Y015991D01*
X010533Y015998D01*
X010547Y016008D01*
X010560Y016021D01*
X010570Y016035D01*
X010577Y016051D01*
X010581Y016068D01*
X010583Y016085D01*
X010483Y016985D02*
X010333Y016985D01*
X010283Y017035D01*
X008383Y017035D01*
X008333Y016985D01*
X008183Y016985D01*
X008166Y016987D01*
X008149Y016991D01*
X008133Y016998D01*
X008119Y017008D01*
X008106Y017021D01*
X008096Y017035D01*
X008089Y017051D01*
X008085Y017068D01*
X008083Y017085D01*
X008083Y017785D01*
X008085Y017802D01*
X008089Y017819D01*
X008096Y017835D01*
X008106Y017849D01*
X008119Y017862D01*
X008133Y017872D01*
X008149Y017879D01*
X008166Y017883D01*
X008183Y017885D01*
X008333Y017885D01*
X008383Y017835D01*
X010283Y017835D01*
X010333Y017885D01*
X010483Y017885D01*
X010483Y017935D02*
X009733Y017935D01*
X009731Y017974D01*
X009725Y018013D01*
X009716Y018051D01*
X009703Y018088D01*
X009686Y018124D01*
X009666Y018157D01*
X009642Y018189D01*
X009616Y018218D01*
X009587Y018244D01*
X009555Y018268D01*
X009522Y018288D01*
X009486Y018305D01*
X009449Y018318D01*
X009411Y018327D01*
X009372Y018333D01*
X009333Y018335D01*
X009294Y018333D01*
X009255Y018327D01*
X009217Y018318D01*
X009180Y018305D01*
X009144Y018288D01*
X009111Y018268D01*
X009079Y018244D01*
X009050Y018218D01*
X009024Y018189D01*
X009000Y018157D01*
X008980Y018124D01*
X008963Y018088D01*
X008950Y018051D01*
X008941Y018013D01*
X008935Y017974D01*
X008933Y017935D01*
X008183Y017935D01*
X008183Y019935D01*
X010483Y019935D01*
X010483Y017935D01*
X010483Y017885D02*
X010500Y017883D01*
X010517Y017879D01*
X010533Y017872D01*
X010547Y017862D01*
X010560Y017849D01*
X010570Y017835D01*
X010577Y017819D01*
X010581Y017802D01*
X010583Y017785D01*
X010583Y017085D01*
X010581Y017068D01*
X010577Y017051D01*
X010570Y017035D01*
X010560Y017021D01*
X010547Y017008D01*
X010533Y016998D01*
X010517Y016991D01*
X010500Y016987D01*
X010483Y016985D01*
X009033Y014935D02*
X009033Y014735D01*
X008933Y014835D02*
X009133Y014835D01*
X007333Y014435D02*
X007335Y014498D01*
X007341Y014560D01*
X007351Y014622D01*
X007364Y014684D01*
X007382Y014744D01*
X007403Y014803D01*
X007428Y014861D01*
X007457Y014917D01*
X007489Y014971D01*
X007524Y015023D01*
X007562Y015072D01*
X007604Y015120D01*
X007648Y015164D01*
X007696Y015206D01*
X007745Y015244D01*
X007797Y015279D01*
X007851Y015311D01*
X007907Y015340D01*
X007965Y015365D01*
X008024Y015386D01*
X008084Y015404D01*
X008146Y015417D01*
X008208Y015427D01*
X008270Y015433D01*
X008333Y015435D01*
X008396Y015433D01*
X008458Y015427D01*
X008520Y015417D01*
X008582Y015404D01*
X008642Y015386D01*
X008701Y015365D01*
X008759Y015340D01*
X008815Y015311D01*
X008869Y015279D01*
X008921Y015244D01*
X008970Y015206D01*
X009018Y015164D01*
X009062Y015120D01*
X009104Y015072D01*
X009142Y015023D01*
X009177Y014971D01*
X009209Y014917D01*
X009238Y014861D01*
X009263Y014803D01*
X009284Y014744D01*
X009302Y014684D01*
X009315Y014622D01*
X009325Y014560D01*
X009331Y014498D01*
X009333Y014435D01*
X009331Y014372D01*
X009325Y014310D01*
X009315Y014248D01*
X009302Y014186D01*
X009284Y014126D01*
X009263Y014067D01*
X009238Y014009D01*
X009209Y013953D01*
X009177Y013899D01*
X009142Y013847D01*
X009104Y013798D01*
X009062Y013750D01*
X009018Y013706D01*
X008970Y013664D01*
X008921Y013626D01*
X008869Y013591D01*
X008815Y013559D01*
X008759Y013530D01*
X008701Y013505D01*
X008642Y013484D01*
X008582Y013466D01*
X008520Y013453D01*
X008458Y013443D01*
X008396Y013437D01*
X008333Y013435D01*
X008270Y013437D01*
X008208Y013443D01*
X008146Y013453D01*
X008084Y013466D01*
X008024Y013484D01*
X007965Y013505D01*
X007907Y013530D01*
X007851Y013559D01*
X007797Y013591D01*
X007745Y013626D01*
X007696Y013664D01*
X007648Y013706D01*
X007604Y013750D01*
X007562Y013798D01*
X007524Y013847D01*
X007489Y013899D01*
X007457Y013953D01*
X007428Y014009D01*
X007403Y014067D01*
X007382Y014126D01*
X007364Y014186D01*
X007351Y014248D01*
X007341Y014310D01*
X007335Y014372D01*
X007333Y014435D01*
X007833Y011735D02*
X006833Y011735D01*
X006833Y010135D01*
X007833Y010135D01*
X007833Y011735D01*
X007333Y011185D02*
X007333Y010935D01*
X007083Y010935D01*
X007333Y010935D02*
X007083Y010535D01*
X007583Y010535D01*
X007333Y010935D01*
X007583Y010935D01*
X007333Y010935D02*
X007333Y010335D01*
X008333Y010135D02*
X009333Y010135D01*
X009333Y011735D01*
X008333Y011735D01*
X008333Y010135D01*
X008833Y010685D02*
X008833Y010935D01*
X009083Y010935D01*
X008833Y010935D02*
X008583Y011335D01*
X009083Y011335D01*
X008833Y010935D01*
X008583Y010935D01*
X008833Y010935D02*
X008833Y011535D01*
X029193Y015415D02*
X029229Y015386D01*
X029263Y015354D01*
X029294Y015319D01*
X029322Y015283D01*
X029347Y015244D01*
X029370Y015203D01*
X029389Y015161D01*
X029405Y015118D01*
X029417Y015073D01*
X029426Y015027D01*
X029431Y014981D01*
X029433Y014935D01*
X028465Y015409D02*
X028430Y015379D01*
X028397Y015348D01*
X028367Y015313D01*
X028340Y015277D01*
X028316Y015239D01*
X028294Y015199D01*
X028276Y015157D01*
X028260Y015114D01*
X028248Y015070D01*
X028240Y015026D01*
X028235Y014980D01*
X028233Y014935D01*
X029182Y014447D02*
X029219Y014476D01*
X029254Y014508D01*
X029287Y014543D01*
X029317Y014580D01*
X029343Y014619D01*
X029366Y014660D01*
X029387Y014704D01*
X029403Y014748D01*
X029416Y014794D01*
X029425Y014840D01*
X029431Y014888D01*
X029433Y014935D01*
X028465Y014461D02*
X028430Y014491D01*
X028397Y014522D01*
X028367Y014557D01*
X028340Y014593D01*
X028316Y014631D01*
X028294Y014671D01*
X028276Y014713D01*
X028260Y014756D01*
X028248Y014800D01*
X028240Y014844D01*
X028235Y014890D01*
X028233Y014935D01*
X028733Y015935D02*
X028733Y015960D01*
X028733Y015935D02*
X028933Y015935D01*
X028933Y015960D01*
X028933Y016910D02*
X028933Y016935D01*
X028733Y016935D01*
X028733Y016910D01*
X029883Y016085D02*
X029883Y015935D01*
X029933Y015885D01*
X029933Y013985D01*
X029883Y013935D01*
X029883Y013785D01*
X029885Y013768D01*
X029889Y013751D01*
X029896Y013735D01*
X029906Y013721D01*
X029919Y013708D01*
X029933Y013698D01*
X029949Y013691D01*
X029966Y013687D01*
X029983Y013685D01*
X030683Y013685D01*
X030700Y013687D01*
X030717Y013691D01*
X030733Y013698D01*
X030747Y013708D01*
X030760Y013721D01*
X030770Y013735D01*
X030777Y013751D01*
X030781Y013768D01*
X030783Y013785D01*
X030783Y013935D01*
X030733Y013985D01*
X030733Y015885D01*
X030783Y015935D01*
X030783Y016085D01*
X030781Y016102D01*
X030777Y016119D01*
X030770Y016135D01*
X030760Y016149D01*
X030747Y016162D01*
X030733Y016172D01*
X030717Y016179D01*
X030700Y016183D01*
X030683Y016185D01*
X029983Y016185D01*
X029966Y016183D01*
X029949Y016179D01*
X029933Y016172D01*
X029919Y016162D01*
X029906Y016149D01*
X029896Y016135D01*
X029889Y016119D01*
X029885Y016102D01*
X029883Y016085D01*
D15*
X028436Y015630D02*
X028388Y015600D01*
X028343Y015567D01*
X028300Y015531D01*
X028259Y015493D01*
X028222Y015451D01*
X028187Y015407D01*
X028156Y015361D01*
X028127Y015312D01*
X028103Y015262D01*
X028082Y015210D01*
X028064Y015156D01*
X028051Y015102D01*
X028041Y015047D01*
X028035Y014991D01*
X028033Y014935D01*
X029209Y015641D02*
X029256Y015614D01*
X029301Y015584D01*
X029344Y015551D01*
X029384Y015515D01*
X029422Y015476D01*
X029457Y015435D01*
X029490Y015392D01*
X029519Y015347D01*
X029545Y015299D01*
X029568Y015250D01*
X029588Y015200D01*
X029604Y015149D01*
X029617Y015096D01*
X029626Y015043D01*
X029631Y014989D01*
X029633Y014935D01*
X028316Y014324D02*
X028277Y014360D01*
X028239Y014399D01*
X028205Y014439D01*
X028173Y014482D01*
X028145Y014527D01*
X028119Y014574D01*
X028096Y014623D01*
X028077Y014673D01*
X028061Y014724D01*
X028049Y014776D01*
X028040Y014828D01*
X028035Y014882D01*
X028033Y014935D01*
X029345Y014320D02*
X029385Y014356D01*
X029423Y014395D01*
X029458Y014436D01*
X029490Y014479D01*
X029520Y014524D01*
X029546Y014571D01*
X029568Y014620D01*
X029588Y014671D01*
X029604Y014722D01*
X029617Y014774D01*
X029626Y014828D01*
X029631Y014881D01*
X029633Y014935D01*
X029701Y017693D02*
X028700Y017692D01*
X028429Y017692D02*
X028380Y017692D01*
X028109Y017691D02*
X027108Y017690D01*
X026837Y017690D02*
X026788Y017690D01*
X026518Y017690D02*
X025516Y017689D01*
X025246Y017688D02*
X025197Y017688D01*
X024926Y017688D02*
X023925Y017687D01*
X023654Y017686D02*
X023605Y017686D01*
X023334Y017686D02*
X022333Y017685D01*
X021833Y017685D01*
X021333Y017685D01*
X020083Y016435D02*
X018627Y016435D01*
X018356Y016435D02*
X018307Y016435D01*
X018036Y016435D02*
X016580Y016435D01*
X016309Y016435D02*
X016260Y016435D01*
X015989Y016435D02*
X014533Y016435D01*
X014333Y016435D02*
X014299Y016436D01*
X014265Y016433D01*
X014231Y016427D01*
X014199Y016417D01*
X014167Y016404D01*
X014137Y016388D01*
X014109Y016368D01*
X014083Y016346D01*
X014060Y016321D01*
X014039Y016294D01*
X014021Y016265D01*
X014007Y016234D01*
X013995Y016202D01*
X013987Y016169D01*
X013983Y016135D01*
X013981Y016093D01*
X013975Y016052D01*
X013966Y016012D01*
X013953Y015972D01*
X013936Y015934D01*
X013916Y015898D01*
X013892Y015864D01*
X013866Y015832D01*
X013836Y015802D01*
X013804Y015776D01*
X013770Y015752D01*
X013734Y015732D01*
X013696Y015715D01*
X013656Y015702D01*
X013616Y015693D01*
X013575Y015687D01*
X013533Y015685D01*
X006833Y015685D01*
X006833Y015686D02*
X006790Y015685D01*
X006748Y015681D01*
X006707Y015674D01*
X006666Y015663D01*
X006626Y015649D01*
X006588Y015632D01*
X006550Y015612D01*
X006515Y015589D01*
X006482Y015563D01*
X006451Y015535D01*
X006422Y015504D01*
X006396Y015471D01*
X006372Y015436D01*
X010333Y010935D02*
X011466Y010935D01*
X011737Y010935D02*
X011786Y010935D01*
X012056Y010935D02*
X013189Y010935D01*
X013460Y010935D02*
X013509Y010935D01*
X013780Y010935D02*
X014913Y010935D01*
X015183Y010935D02*
X015232Y010935D01*
X015503Y010935D02*
X016636Y010935D01*
X016907Y010935D02*
X016956Y010935D01*
X017227Y010935D02*
X018360Y010935D01*
X018630Y010935D02*
X018679Y010935D01*
X018950Y010935D02*
X020083Y010935D01*
X021178Y010931D01*
X021449Y010930D02*
X021498Y010930D01*
X021769Y010929D02*
X022864Y010925D01*
X023135Y010924D02*
X023184Y010924D01*
X023455Y010923D02*
X024550Y010919D01*
X024821Y010918D02*
X024870Y010918D01*
X025140Y010917D02*
X026236Y010913D01*
X026506Y010912D02*
X026555Y010912D01*
X026826Y010911D02*
X027921Y010907D01*
X028192Y010906D02*
X028241Y010906D01*
X028512Y010905D02*
X029607Y010901D01*
X029878Y010900D02*
X029927Y010900D01*
X030198Y010899D02*
X031293Y010895D01*
X027333Y010135D02*
X025633Y010135D01*
X025591Y010138D01*
X025549Y010137D01*
X025508Y010132D01*
X025467Y010123D01*
X025427Y010110D01*
X025389Y010094D01*
X025352Y010074D01*
X025317Y010051D01*
X025284Y010025D01*
X025254Y009996D01*
X025227Y009965D01*
X025202Y009930D01*
X025181Y009894D01*
X025164Y009856D01*
X025150Y009817D01*
X025139Y009776D01*
X025133Y009735D01*
X024733Y009735D02*
X024727Y009776D01*
X024716Y009817D01*
X024702Y009856D01*
X024685Y009894D01*
X024664Y009930D01*
X024639Y009965D01*
X024612Y009996D01*
X024582Y010025D01*
X024549Y010051D01*
X024514Y010074D01*
X024477Y010094D01*
X024439Y010110D01*
X024399Y010123D01*
X024358Y010132D01*
X024317Y010137D01*
X024275Y010138D01*
X024233Y010135D01*
X022533Y010135D01*
X022491Y010138D01*
X022449Y010137D01*
X022408Y010132D01*
X022367Y010123D01*
X022327Y010110D01*
X022289Y010094D01*
X022252Y010074D01*
X022217Y010051D01*
X022184Y010025D01*
X022154Y009996D01*
X022127Y009965D01*
X022102Y009930D01*
X022081Y009894D01*
X022064Y009856D01*
X022050Y009817D01*
X022039Y009776D01*
X022033Y009735D01*
X021633Y009735D02*
X021627Y009776D01*
X021616Y009817D01*
X021602Y009856D01*
X021585Y009894D01*
X021564Y009930D01*
X021539Y009965D01*
X021512Y009996D01*
X021482Y010025D01*
X021449Y010051D01*
X021414Y010074D01*
X021377Y010094D01*
X021339Y010110D01*
X021299Y010123D01*
X021258Y010132D01*
X021217Y010137D01*
X021175Y010138D01*
X021133Y010135D01*
X019433Y010135D01*
X019391Y010138D01*
X019349Y010137D01*
X019308Y010132D01*
X019267Y010123D01*
X019227Y010110D01*
X019189Y010094D01*
X019152Y010074D01*
X019117Y010051D01*
X019084Y010025D01*
X019054Y009996D01*
X019027Y009965D01*
X019002Y009930D01*
X018981Y009894D01*
X018964Y009856D01*
X018950Y009817D01*
X018939Y009776D01*
X018933Y009735D01*
X018533Y009735D02*
X018527Y009776D01*
X018516Y009817D01*
X018502Y009856D01*
X018485Y009894D01*
X018464Y009930D01*
X018439Y009965D01*
X018412Y009996D01*
X018382Y010025D01*
X018349Y010051D01*
X018314Y010074D01*
X018277Y010094D01*
X018239Y010110D01*
X018199Y010123D01*
X018158Y010132D01*
X018117Y010137D01*
X018075Y010138D01*
X018033Y010135D01*
X016333Y010135D01*
X016291Y010138D01*
X016249Y010137D01*
X016208Y010132D01*
X016167Y010123D01*
X016127Y010110D01*
X016089Y010094D01*
X016052Y010074D01*
X016017Y010051D01*
X015984Y010025D01*
X015954Y009996D01*
X015927Y009965D01*
X015902Y009930D01*
X015881Y009894D01*
X015864Y009856D01*
X015850Y009817D01*
X015839Y009776D01*
X015833Y009735D01*
X020083Y010935D02*
X020083Y012375D01*
X020083Y012645D02*
X020083Y012694D01*
X020083Y012965D02*
X020083Y014405D01*
X020083Y014676D02*
X020083Y014725D01*
X020083Y014995D02*
X020083Y016435D01*
X021333Y017685D02*
X021404Y017695D01*
X021475Y017702D01*
X021547Y017706D01*
X021619Y017706D01*
X021691Y017702D01*
X021762Y017695D01*
X021833Y017685D01*
X021333Y017685D02*
X021262Y017672D01*
X021192Y017655D01*
X021123Y017635D01*
X021055Y017611D01*
X020988Y017585D01*
X020923Y017555D01*
X020858Y017522D01*
X020796Y017487D01*
X020735Y017448D01*
X020320Y017033D02*
X020281Y016972D01*
X020246Y016910D01*
X020213Y016845D01*
X020183Y016780D01*
X020157Y016713D01*
X020133Y016645D01*
X020113Y016576D01*
X020096Y016506D01*
X020083Y016435D01*
X020490Y017243D02*
X020525Y017278D01*
X022436Y015630D02*
X022388Y015600D01*
X022343Y015567D01*
X022300Y015531D01*
X022259Y015493D01*
X022222Y015451D01*
X022187Y015407D01*
X022156Y015361D01*
X022127Y015312D01*
X022103Y015262D01*
X022082Y015210D01*
X022064Y015156D01*
X022051Y015102D01*
X022041Y015047D01*
X022035Y014991D01*
X022033Y014935D01*
X023209Y015641D02*
X023256Y015614D01*
X023301Y015584D01*
X023344Y015551D01*
X023384Y015515D01*
X023422Y015476D01*
X023457Y015435D01*
X023490Y015392D01*
X023519Y015347D01*
X023545Y015299D01*
X023568Y015250D01*
X023588Y015200D01*
X023604Y015149D01*
X023617Y015096D01*
X023626Y015043D01*
X023631Y014989D01*
X023633Y014935D01*
X022316Y014324D02*
X022277Y014360D01*
X022239Y014399D01*
X022205Y014439D01*
X022173Y014482D01*
X022145Y014527D01*
X022119Y014574D01*
X022096Y014623D01*
X022077Y014673D01*
X022061Y014724D01*
X022049Y014776D01*
X022040Y014828D01*
X022035Y014882D01*
X022033Y014935D01*
X023345Y014320D02*
X023385Y014356D01*
X023423Y014395D01*
X023458Y014436D01*
X023490Y014479D01*
X023520Y014524D01*
X023546Y014571D01*
X023568Y014620D01*
X023588Y014671D01*
X023604Y014722D01*
X023617Y014774D01*
X023626Y014828D01*
X023631Y014881D01*
X023633Y014935D01*
X026209Y015641D02*
X026256Y015614D01*
X026301Y015584D01*
X026344Y015551D01*
X026384Y015515D01*
X026422Y015476D01*
X026457Y015435D01*
X026490Y015392D01*
X026519Y015347D01*
X026545Y015299D01*
X026568Y015250D01*
X026588Y015200D01*
X026604Y015149D01*
X026617Y015096D01*
X026626Y015043D01*
X026631Y014989D01*
X026633Y014935D01*
X025436Y015630D02*
X025388Y015600D01*
X025343Y015567D01*
X025300Y015531D01*
X025259Y015493D01*
X025222Y015451D01*
X025187Y015407D01*
X025156Y015361D01*
X025127Y015312D01*
X025103Y015262D01*
X025082Y015210D01*
X025064Y015156D01*
X025051Y015102D01*
X025041Y015047D01*
X025035Y014991D01*
X025033Y014935D01*
X025035Y014882D01*
X025040Y014828D01*
X025049Y014776D01*
X025061Y014724D01*
X025077Y014673D01*
X025096Y014623D01*
X025119Y014574D01*
X025145Y014527D01*
X025173Y014482D01*
X025205Y014439D01*
X025239Y014399D01*
X025277Y014360D01*
X025316Y014324D01*
X026345Y014320D02*
X026385Y014356D01*
X026423Y014395D01*
X026458Y014436D01*
X026490Y014479D01*
X026520Y014524D01*
X026546Y014571D01*
X026568Y014620D01*
X026588Y014671D01*
X026604Y014722D01*
X026617Y014774D01*
X026626Y014828D01*
X026631Y014881D01*
X026633Y014935D01*
X029972Y017694D02*
X030021Y017694D01*
X030292Y017694D02*
X031293Y017695D01*
X027333Y010135D02*
X027375Y010138D01*
X027417Y010137D01*
X027458Y010132D01*
X027499Y010123D01*
X027539Y010110D01*
X027577Y010094D01*
X027614Y010074D01*
X027649Y010051D01*
X027682Y010025D01*
X027712Y009996D01*
X027739Y009965D01*
X027764Y009930D01*
X027785Y009894D01*
X027802Y009856D01*
X027816Y009817D01*
X027827Y009776D01*
X027833Y009735D01*
X019633Y014435D02*
X019631Y014489D01*
X019626Y014543D01*
X019617Y014596D01*
X019604Y014649D01*
X019588Y014700D01*
X019568Y014750D01*
X019545Y014799D01*
X019519Y014847D01*
X019490Y014892D01*
X019457Y014935D01*
X019422Y014976D01*
X019384Y015015D01*
X019344Y015051D01*
X019301Y015084D01*
X019256Y015114D01*
X019209Y015141D01*
X018436Y015130D02*
X018388Y015100D01*
X018343Y015067D01*
X018300Y015031D01*
X018259Y014993D01*
X018222Y014951D01*
X018187Y014907D01*
X018156Y014861D01*
X018127Y014812D01*
X018103Y014762D01*
X018082Y014710D01*
X018064Y014656D01*
X018051Y014602D01*
X018041Y014547D01*
X018035Y014491D01*
X018033Y014435D01*
X018035Y014382D01*
X018040Y014328D01*
X018049Y014276D01*
X018061Y014224D01*
X018077Y014173D01*
X018096Y014123D01*
X018119Y014074D01*
X018145Y014027D01*
X018173Y013982D01*
X018205Y013939D01*
X018239Y013899D01*
X018277Y013860D01*
X018316Y013824D01*
X019345Y013820D02*
X019385Y013856D01*
X019423Y013895D01*
X019458Y013936D01*
X019490Y013979D01*
X019520Y014024D01*
X019546Y014071D01*
X019568Y014120D01*
X019588Y014171D01*
X019604Y014222D01*
X019617Y014274D01*
X019626Y014328D01*
X019631Y014381D01*
X019633Y014435D01*
X010333Y010935D02*
X010289Y010933D01*
X010246Y010927D01*
X010204Y010918D01*
X010162Y010905D01*
X010122Y010888D01*
X010083Y010868D01*
X010046Y010845D01*
X010012Y010818D01*
X009979Y010789D01*
X009950Y010756D01*
X009923Y010722D01*
X009900Y010685D01*
X009880Y010646D01*
X009863Y010606D01*
X009850Y010564D01*
X009841Y010522D01*
X009835Y010479D01*
X009833Y010435D01*
X009833Y009935D01*
X009833Y008435D01*
X009831Y008391D01*
X009825Y008348D01*
X009816Y008306D01*
X009803Y008264D01*
X009786Y008224D01*
X009766Y008185D01*
X009743Y008148D01*
X009716Y008114D01*
X009687Y008081D01*
X009654Y008052D01*
X009620Y008025D01*
X009583Y008002D01*
X009544Y007982D01*
X009504Y007965D01*
X009462Y007952D01*
X009420Y007943D01*
X009377Y007937D01*
X009333Y007935D01*
X008148Y007935D01*
X007877Y007935D02*
X007828Y007935D01*
X007558Y007935D02*
X006373Y007935D01*
D16*
X017888Y015285D02*
X018282Y015285D01*
X018085Y015482D02*
X018085Y015088D01*
X021888Y015785D02*
X022282Y015785D01*
X022085Y015982D02*
X022085Y015588D01*
X024888Y015785D02*
X025282Y015785D01*
X025085Y015982D02*
X025085Y015588D01*
X027888Y015785D02*
X028282Y015785D01*
X028085Y015982D02*
X028085Y015588D01*
D17*
X029583Y013435D02*
X029583Y011435D01*
X026583Y011435D02*
X026583Y013435D01*
X023583Y013435D02*
X023583Y011435D01*
X017453Y016635D02*
X017453Y017235D01*
X017203Y017235D02*
X017203Y016635D01*
D18*
X014369Y012425D02*
X014371Y012487D01*
X014377Y012550D01*
X014387Y012611D01*
X014401Y012672D01*
X014418Y012732D01*
X014439Y012791D01*
X014465Y012848D01*
X014493Y012903D01*
X014525Y012957D01*
X014561Y013008D01*
X014599Y013058D01*
X014641Y013104D01*
X014685Y013148D01*
X014733Y013189D01*
X014782Y013227D01*
X014834Y013261D01*
X014888Y013292D01*
X014944Y013320D01*
X015002Y013344D01*
X015061Y013365D01*
X015121Y013381D01*
X015182Y013394D01*
X015244Y013403D01*
X015306Y013408D01*
X015369Y013409D01*
X015431Y013406D01*
X015493Y013399D01*
X015555Y013388D01*
X015615Y013373D01*
X015675Y013355D01*
X015733Y013333D01*
X015790Y013307D01*
X015845Y013277D01*
X015898Y013244D01*
X015949Y013208D01*
X015997Y013169D01*
X016043Y013126D01*
X016086Y013081D01*
X016126Y013033D01*
X016163Y012983D01*
X016197Y012930D01*
X016228Y012876D01*
X016254Y012820D01*
X016278Y012762D01*
X016297Y012702D01*
X016313Y012642D01*
X016325Y012580D01*
X016333Y012519D01*
X016337Y012456D01*
X016337Y012394D01*
X016333Y012331D01*
X016325Y012270D01*
X016313Y012208D01*
X016297Y012148D01*
X016278Y012088D01*
X016254Y012030D01*
X016228Y011974D01*
X016197Y011920D01*
X016163Y011867D01*
X016126Y011817D01*
X016086Y011769D01*
X016043Y011724D01*
X015997Y011681D01*
X015949Y011642D01*
X015898Y011606D01*
X015845Y011573D01*
X015790Y011543D01*
X015733Y011517D01*
X015675Y011495D01*
X015615Y011477D01*
X015555Y011462D01*
X015493Y011451D01*
X015431Y011444D01*
X015369Y011441D01*
X015306Y011442D01*
X015244Y011447D01*
X015182Y011456D01*
X015121Y011469D01*
X015061Y011485D01*
X015002Y011506D01*
X014944Y011530D01*
X014888Y011558D01*
X014834Y011589D01*
X014782Y011623D01*
X014733Y011661D01*
X014685Y011702D01*
X014641Y011746D01*
X014599Y011792D01*
X014561Y011842D01*
X014525Y011893D01*
X014493Y011947D01*
X014465Y012002D01*
X014439Y012059D01*
X014418Y012118D01*
X014401Y012178D01*
X014387Y012239D01*
X014377Y012300D01*
X014371Y012363D01*
X014369Y012425D01*
X014556Y012415D02*
X014558Y012471D01*
X014564Y012526D01*
X014574Y012580D01*
X014587Y012634D01*
X014605Y012687D01*
X014626Y012738D01*
X014650Y012788D01*
X014678Y012836D01*
X014710Y012882D01*
X014744Y012926D01*
X014782Y012967D01*
X014822Y013005D01*
X014865Y013040D01*
X014910Y013072D01*
X014958Y013101D01*
X015007Y013127D01*
X015058Y013149D01*
X015110Y013167D01*
X015164Y013181D01*
X015219Y013192D01*
X015274Y013199D01*
X015329Y013202D01*
X015385Y013201D01*
X015440Y013196D01*
X015495Y013187D01*
X015549Y013175D01*
X015602Y013158D01*
X015654Y013138D01*
X015704Y013114D01*
X015752Y013087D01*
X015799Y013057D01*
X015843Y013023D01*
X015885Y012986D01*
X015923Y012946D01*
X015960Y012904D01*
X015993Y012859D01*
X016022Y012813D01*
X016049Y012764D01*
X016071Y012713D01*
X016091Y012661D01*
X016106Y012607D01*
X016118Y012553D01*
X016126Y012498D01*
X016130Y012443D01*
X016130Y012387D01*
X016126Y012332D01*
X016118Y012277D01*
X016106Y012223D01*
X016091Y012169D01*
X016071Y012117D01*
X016049Y012066D01*
X016022Y012017D01*
X015993Y011971D01*
X015960Y011926D01*
X015923Y011884D01*
X015885Y011844D01*
X015843Y011807D01*
X015799Y011773D01*
X015752Y011743D01*
X015704Y011716D01*
X015654Y011692D01*
X015602Y011672D01*
X015549Y011655D01*
X015495Y011643D01*
X015440Y011634D01*
X015385Y011629D01*
X015329Y011628D01*
X015274Y011631D01*
X015219Y011638D01*
X015164Y011649D01*
X015110Y011663D01*
X015058Y011681D01*
X015007Y011703D01*
X014958Y011729D01*
X014910Y011758D01*
X014865Y011790D01*
X014822Y011825D01*
X014782Y011863D01*
X014744Y011904D01*
X014710Y011948D01*
X014678Y011994D01*
X014650Y012042D01*
X014626Y012092D01*
X014605Y012143D01*
X014587Y012196D01*
X014574Y012250D01*
X014564Y012304D01*
X014558Y012359D01*
X014556Y012415D01*
X015593Y009610D02*
X015593Y006095D01*
X015593Y004885D01*
X028073Y004885D01*
X028073Y006095D01*
X028073Y009610D01*
X015593Y009610D01*
X013393Y009595D02*
X010273Y009595D01*
X010273Y006195D01*
X010273Y006105D01*
X010273Y004895D01*
X013393Y004895D01*
X013393Y006105D01*
X013393Y006195D01*
X013393Y009595D01*
X013393Y006195D02*
X010273Y006195D01*
X010273Y006105D01*
X010693Y005690D02*
X010618Y005615D01*
X010693Y005690D02*
X010843Y005690D01*
X010918Y005615D01*
X010918Y005540D01*
X010618Y005240D01*
X010918Y005240D01*
X012178Y005240D02*
X012478Y005240D01*
X012328Y005240D02*
X012328Y005690D01*
X012178Y005540D01*
X013393Y006105D02*
X013393Y006195D01*
X015593Y006185D02*
X015593Y006095D01*
X015593Y006185D02*
X028073Y006185D01*
X028073Y006095D01*
X027008Y005680D02*
X027008Y005230D01*
X026858Y005230D02*
X027158Y005230D01*
X026858Y005530D02*
X027008Y005680D01*
X025598Y005605D02*
X025598Y005530D01*
X025298Y005230D01*
X025598Y005230D01*
X025598Y005605D02*
X025523Y005680D01*
X025373Y005680D01*
X025298Y005605D01*
X024038Y005605D02*
X024038Y005530D01*
X023963Y005455D01*
X024038Y005380D01*
X024038Y005305D01*
X023963Y005230D01*
X023813Y005230D01*
X023738Y005305D01*
X023888Y005455D02*
X023963Y005455D01*
X024038Y005605D02*
X023963Y005680D01*
X023813Y005680D01*
X023738Y005605D01*
X022478Y005455D02*
X022178Y005455D01*
X022403Y005680D01*
X022403Y005230D01*
X020918Y005305D02*
X020843Y005230D01*
X020693Y005230D01*
X020618Y005305D01*
X020618Y005455D02*
X020768Y005530D01*
X020843Y005530D01*
X020918Y005455D01*
X020918Y005305D01*
X020618Y005455D02*
X020618Y005680D01*
X020918Y005680D01*
X019358Y005680D02*
X019208Y005605D01*
X019058Y005455D01*
X019283Y005455D01*
X019358Y005380D01*
X019358Y005305D01*
X019283Y005230D01*
X019133Y005230D01*
X019058Y005305D01*
X019058Y005455D01*
X017798Y005605D02*
X017498Y005305D01*
X017498Y005230D01*
X017498Y005680D02*
X017798Y005680D01*
X017798Y005605D01*
X016238Y005605D02*
X016238Y005530D01*
X016163Y005455D01*
X016013Y005455D01*
X015938Y005530D01*
X015938Y005605D01*
X016013Y005680D01*
X016163Y005680D01*
X016238Y005605D01*
X016163Y005455D02*
X016238Y005380D01*
X016238Y005305D01*
X016163Y005230D01*
X016013Y005230D01*
X015938Y005305D01*
X015938Y005380D01*
X016013Y005455D01*
X022333Y010935D02*
X022333Y011035D01*
X022333Y010935D02*
X023333Y010935D01*
X023583Y011185D01*
X023583Y013685D01*
X023333Y013935D01*
X023333Y013835D01*
X023333Y013935D02*
X022333Y013935D01*
X022333Y013835D01*
X022333Y012935D02*
X022333Y012835D01*
X022333Y012035D02*
X022333Y011935D01*
X023333Y011935D02*
X023333Y012035D01*
X023333Y012835D02*
X023333Y012935D01*
X023333Y011035D02*
X023333Y010935D01*
X025333Y010935D02*
X025333Y011035D01*
X025333Y010935D02*
X026333Y010935D01*
X026583Y011185D01*
X026583Y013685D01*
X026333Y013935D01*
X026333Y013835D01*
X026333Y013935D02*
X025333Y013935D01*
X025333Y013835D01*
X025333Y012935D02*
X025333Y012835D01*
X025333Y012035D02*
X025333Y011935D01*
X026333Y011935D02*
X026333Y012035D01*
X026333Y012835D02*
X026333Y012935D01*
X026333Y011035D02*
X026333Y010935D01*
X028333Y010935D02*
X028333Y011035D01*
X028333Y010935D02*
X029333Y010935D01*
X029583Y011185D01*
X029583Y013685D01*
X029333Y013935D01*
X029333Y013835D01*
X029333Y013935D02*
X028333Y013935D01*
X028333Y013835D01*
X028333Y012935D02*
X028333Y012835D01*
X028333Y012035D02*
X028333Y011935D01*
X029333Y011935D02*
X029333Y012035D01*
X029333Y012835D02*
X029333Y012935D01*
X029333Y011035D02*
X029333Y010935D01*
X028083Y020560D02*
X027583Y020560D01*
X027833Y020935D01*
X028083Y020560D01*
X028056Y020601D02*
X027610Y020601D01*
X027642Y020649D02*
X028024Y020649D01*
X027991Y020698D02*
X027675Y020698D01*
X027707Y020746D02*
X027959Y020746D01*
X027927Y020795D02*
X027739Y020795D01*
X027772Y020843D02*
X027894Y020843D01*
X027862Y020892D02*
X027804Y020892D01*
X027833Y020935D02*
X028333Y020935D01*
X028333Y021935D01*
X022333Y021935D01*
X022333Y020935D01*
X027833Y020935D01*
X028333Y021935D02*
X028333Y022685D01*
X027833Y022685D01*
X022833Y022685D01*
X022333Y022685D01*
X022333Y021935D01*
X012583Y022635D02*
X012583Y020435D01*
X012083Y020435D01*
X012083Y020935D01*
X010083Y020935D01*
X010083Y020435D01*
X009583Y020435D01*
X009583Y022635D01*
X012583Y022635D01*
X012083Y020435D02*
X010083Y020435D01*
D19*
X007183Y021435D02*
X007185Y021485D01*
X007191Y021535D01*
X007201Y021585D01*
X007214Y021633D01*
X007231Y021681D01*
X007252Y021727D01*
X007276Y021771D01*
X007304Y021813D01*
X007335Y021853D01*
X007369Y021890D01*
X007406Y021925D01*
X007445Y021956D01*
X007486Y021985D01*
X007530Y022010D01*
X007576Y022032D01*
X007623Y022050D01*
X007671Y022064D01*
X007720Y022075D01*
X007770Y022082D01*
X007820Y022085D01*
X007871Y022084D01*
X007921Y022079D01*
X007971Y022070D01*
X008019Y022058D01*
X008067Y022041D01*
X008113Y022021D01*
X008158Y021998D01*
X008201Y021971D01*
X008241Y021941D01*
X008279Y021908D01*
X008314Y021872D01*
X008347Y021833D01*
X008376Y021792D01*
X008402Y021749D01*
X008425Y021704D01*
X008444Y021657D01*
X008459Y021609D01*
X008471Y021560D01*
X008479Y021510D01*
X008483Y021460D01*
X008483Y021410D01*
X008479Y021360D01*
X008471Y021310D01*
X008459Y021261D01*
X008444Y021213D01*
X008425Y021166D01*
X008402Y021121D01*
X008376Y021078D01*
X008347Y021037D01*
X008314Y020998D01*
X008279Y020962D01*
X008241Y020929D01*
X008201Y020899D01*
X008158Y020872D01*
X008113Y020849D01*
X008067Y020829D01*
X008019Y020812D01*
X007971Y020800D01*
X007921Y020791D01*
X007871Y020786D01*
X007820Y020785D01*
X007770Y020788D01*
X007720Y020795D01*
X007671Y020806D01*
X007623Y020820D01*
X007576Y020838D01*
X007530Y020860D01*
X007486Y020885D01*
X007445Y020914D01*
X007406Y020945D01*
X007369Y020980D01*
X007335Y021017D01*
X007304Y021057D01*
X007276Y021099D01*
X007252Y021143D01*
X007231Y021189D01*
X007214Y021237D01*
X007201Y021285D01*
X007191Y021335D01*
X007185Y021385D01*
X007183Y021435D01*
X007183Y006435D02*
X007185Y006485D01*
X007191Y006535D01*
X007201Y006585D01*
X007214Y006633D01*
X007231Y006681D01*
X007252Y006727D01*
X007276Y006771D01*
X007304Y006813D01*
X007335Y006853D01*
X007369Y006890D01*
X007406Y006925D01*
X007445Y006956D01*
X007486Y006985D01*
X007530Y007010D01*
X007576Y007032D01*
X007623Y007050D01*
X007671Y007064D01*
X007720Y007075D01*
X007770Y007082D01*
X007820Y007085D01*
X007871Y007084D01*
X007921Y007079D01*
X007971Y007070D01*
X008019Y007058D01*
X008067Y007041D01*
X008113Y007021D01*
X008158Y006998D01*
X008201Y006971D01*
X008241Y006941D01*
X008279Y006908D01*
X008314Y006872D01*
X008347Y006833D01*
X008376Y006792D01*
X008402Y006749D01*
X008425Y006704D01*
X008444Y006657D01*
X008459Y006609D01*
X008471Y006560D01*
X008479Y006510D01*
X008483Y006460D01*
X008483Y006410D01*
X008479Y006360D01*
X008471Y006310D01*
X008459Y006261D01*
X008444Y006213D01*
X008425Y006166D01*
X008402Y006121D01*
X008376Y006078D01*
X008347Y006037D01*
X008314Y005998D01*
X008279Y005962D01*
X008241Y005929D01*
X008201Y005899D01*
X008158Y005872D01*
X008113Y005849D01*
X008067Y005829D01*
X008019Y005812D01*
X007971Y005800D01*
X007921Y005791D01*
X007871Y005786D01*
X007820Y005785D01*
X007770Y005788D01*
X007720Y005795D01*
X007671Y005806D01*
X007623Y005820D01*
X007576Y005838D01*
X007530Y005860D01*
X007486Y005885D01*
X007445Y005914D01*
X007406Y005945D01*
X007369Y005980D01*
X007335Y006017D01*
X007304Y006057D01*
X007276Y006099D01*
X007252Y006143D01*
X007231Y006189D01*
X007214Y006237D01*
X007201Y006285D01*
X007191Y006335D01*
X007185Y006385D01*
X007183Y006435D01*
X029183Y006435D02*
X029185Y006485D01*
X029191Y006535D01*
X029201Y006585D01*
X029214Y006633D01*
X029231Y006681D01*
X029252Y006727D01*
X029276Y006771D01*
X029304Y006813D01*
X029335Y006853D01*
X029369Y006890D01*
X029406Y006925D01*
X029445Y006956D01*
X029486Y006985D01*
X029530Y007010D01*
X029576Y007032D01*
X029623Y007050D01*
X029671Y007064D01*
X029720Y007075D01*
X029770Y007082D01*
X029820Y007085D01*
X029871Y007084D01*
X029921Y007079D01*
X029971Y007070D01*
X030019Y007058D01*
X030067Y007041D01*
X030113Y007021D01*
X030158Y006998D01*
X030201Y006971D01*
X030241Y006941D01*
X030279Y006908D01*
X030314Y006872D01*
X030347Y006833D01*
X030376Y006792D01*
X030402Y006749D01*
X030425Y006704D01*
X030444Y006657D01*
X030459Y006609D01*
X030471Y006560D01*
X030479Y006510D01*
X030483Y006460D01*
X030483Y006410D01*
X030479Y006360D01*
X030471Y006310D01*
X030459Y006261D01*
X030444Y006213D01*
X030425Y006166D01*
X030402Y006121D01*
X030376Y006078D01*
X030347Y006037D01*
X030314Y005998D01*
X030279Y005962D01*
X030241Y005929D01*
X030201Y005899D01*
X030158Y005872D01*
X030113Y005849D01*
X030067Y005829D01*
X030019Y005812D01*
X029971Y005800D01*
X029921Y005791D01*
X029871Y005786D01*
X029820Y005785D01*
X029770Y005788D01*
X029720Y005795D01*
X029671Y005806D01*
X029623Y005820D01*
X029576Y005838D01*
X029530Y005860D01*
X029486Y005885D01*
X029445Y005914D01*
X029406Y005945D01*
X029369Y005980D01*
X029335Y006017D01*
X029304Y006057D01*
X029276Y006099D01*
X029252Y006143D01*
X029231Y006189D01*
X029214Y006237D01*
X029201Y006285D01*
X029191Y006335D01*
X029185Y006385D01*
X029183Y006435D01*
X029183Y021435D02*
X029185Y021485D01*
X029191Y021535D01*
X029201Y021585D01*
X029214Y021633D01*
X029231Y021681D01*
X029252Y021727D01*
X029276Y021771D01*
X029304Y021813D01*
X029335Y021853D01*
X029369Y021890D01*
X029406Y021925D01*
X029445Y021956D01*
X029486Y021985D01*
X029530Y022010D01*
X029576Y022032D01*
X029623Y022050D01*
X029671Y022064D01*
X029720Y022075D01*
X029770Y022082D01*
X029820Y022085D01*
X029871Y022084D01*
X029921Y022079D01*
X029971Y022070D01*
X030019Y022058D01*
X030067Y022041D01*
X030113Y022021D01*
X030158Y021998D01*
X030201Y021971D01*
X030241Y021941D01*
X030279Y021908D01*
X030314Y021872D01*
X030347Y021833D01*
X030376Y021792D01*
X030402Y021749D01*
X030425Y021704D01*
X030444Y021657D01*
X030459Y021609D01*
X030471Y021560D01*
X030479Y021510D01*
X030483Y021460D01*
X030483Y021410D01*
X030479Y021360D01*
X030471Y021310D01*
X030459Y021261D01*
X030444Y021213D01*
X030425Y021166D01*
X030402Y021121D01*
X030376Y021078D01*
X030347Y021037D01*
X030314Y020998D01*
X030279Y020962D01*
X030241Y020929D01*
X030201Y020899D01*
X030158Y020872D01*
X030113Y020849D01*
X030067Y020829D01*
X030019Y020812D01*
X029971Y020800D01*
X029921Y020791D01*
X029871Y020786D01*
X029820Y020785D01*
X029770Y020788D01*
X029720Y020795D01*
X029671Y020806D01*
X029623Y020820D01*
X029576Y020838D01*
X029530Y020860D01*
X029486Y020885D01*
X029445Y020914D01*
X029406Y020945D01*
X029369Y020980D01*
X029335Y021017D01*
X029304Y021057D01*
X029276Y021099D01*
X029252Y021143D01*
X029231Y021189D01*
X029214Y021237D01*
X029201Y021285D01*
X029191Y021335D01*
X029185Y021385D01*
X029183Y021435D01*
D20*
X030333Y016355D03*
X030333Y013515D03*
X027333Y013515D03*
X027333Y016355D03*
X024333Y016355D03*
X024333Y013515D03*
X017333Y012515D03*
X017333Y015355D03*
D21*
X017513Y014222D02*
X017513Y013915D01*
X017513Y013762D02*
X017359Y013608D01*
X017359Y013685D02*
X017359Y013455D01*
X017513Y013455D02*
X017053Y013455D01*
X017053Y013685D01*
X017129Y013762D01*
X017283Y013762D01*
X017359Y013685D01*
X017206Y013915D02*
X017053Y014069D01*
X017513Y014069D01*
X014077Y009272D02*
X014077Y008965D01*
X013770Y009272D01*
X013693Y009272D01*
X013616Y009195D01*
X013616Y009041D01*
X013693Y008965D01*
X013616Y008811D02*
X013616Y008658D01*
X013616Y008734D02*
X014000Y008734D01*
X014077Y008658D01*
X014077Y008581D01*
X014000Y008504D01*
X011813Y013455D02*
X011813Y013608D01*
X011813Y013532D02*
X011353Y013532D01*
X011353Y013608D02*
X011353Y013455D01*
X011429Y013762D02*
X011353Y013839D01*
X011353Y013992D01*
X011429Y014069D01*
X011506Y014222D02*
X011353Y014376D01*
X011813Y014376D01*
X011813Y014529D02*
X011813Y014222D01*
X011736Y014069D02*
X011813Y013992D01*
X011813Y013839D01*
X011736Y013762D01*
X011429Y013762D01*
X009699Y016205D02*
X009393Y016205D01*
X009699Y016512D01*
X009699Y016589D01*
X009623Y016665D01*
X009469Y016665D01*
X009393Y016589D01*
X009239Y016589D02*
X009239Y016435D01*
X009162Y016358D01*
X008932Y016358D01*
X008932Y016205D02*
X008932Y016665D01*
X009162Y016665D01*
X009239Y016589D01*
X009086Y016358D02*
X009239Y016205D01*
X009239Y017205D02*
X009086Y017358D01*
X009162Y017358D02*
X008932Y017358D01*
X008932Y017205D02*
X008932Y017665D01*
X009162Y017665D01*
X009239Y017589D01*
X009239Y017435D01*
X009162Y017358D01*
X009393Y017282D02*
X009469Y017205D01*
X009623Y017205D01*
X009699Y017282D01*
X009699Y017358D01*
X009623Y017435D01*
X009546Y017435D01*
X009623Y017435D02*
X009699Y017512D01*
X009699Y017589D01*
X009623Y017665D01*
X009469Y017665D01*
X009393Y017589D01*
X009313Y018455D02*
X009313Y018608D01*
X009313Y018532D02*
X008853Y018532D01*
X008853Y018608D02*
X008853Y018455D01*
X008929Y018762D02*
X009236Y018762D01*
X009313Y018839D01*
X009313Y018992D01*
X009236Y019069D01*
X009313Y019222D02*
X009006Y019529D01*
X008929Y019529D01*
X008853Y019453D01*
X008853Y019299D01*
X008929Y019222D01*
X008929Y019069D02*
X008853Y018992D01*
X008853Y018839D01*
X008929Y018762D01*
X009313Y019222D02*
X009313Y019529D01*
X016853Y019532D02*
X017313Y019532D01*
X017313Y019608D02*
X017313Y019455D01*
X017236Y019762D02*
X016929Y019762D01*
X016853Y019839D01*
X016853Y019992D01*
X016929Y020069D01*
X016929Y020222D02*
X016853Y020299D01*
X016853Y020453D01*
X016929Y020529D01*
X017006Y020529D01*
X017083Y020453D01*
X017159Y020529D01*
X017236Y020529D01*
X017313Y020453D01*
X017313Y020299D01*
X017236Y020222D01*
X017236Y020069D02*
X017313Y019992D01*
X017313Y019839D01*
X017236Y019762D01*
X016853Y019608D02*
X016853Y019455D01*
X017083Y020376D02*
X017083Y020453D01*
X024053Y015302D02*
X024129Y015148D01*
X024283Y014995D01*
X024283Y015225D01*
X024359Y015302D01*
X024436Y015302D01*
X024513Y015225D01*
X024513Y015071D01*
X024436Y014995D01*
X024283Y014995D01*
X024283Y014841D02*
X024359Y014764D01*
X024359Y014534D01*
X024359Y014688D02*
X024513Y014841D01*
X024283Y014841D02*
X024129Y014841D01*
X024053Y014764D01*
X024053Y014534D01*
X024513Y014534D01*
X027153Y014534D02*
X027153Y014764D01*
X027229Y014841D01*
X027383Y014841D01*
X027459Y014764D01*
X027459Y014534D01*
X027459Y014688D02*
X027613Y014841D01*
X027536Y014995D02*
X027613Y015071D01*
X027613Y015225D01*
X027536Y015302D01*
X027383Y015302D01*
X027306Y015225D01*
X027306Y015148D01*
X027383Y014995D01*
X027153Y014995D01*
X027153Y015302D01*
X027153Y014534D02*
X027613Y014534D01*
X030153Y014534D02*
X030153Y014764D01*
X030229Y014841D01*
X030383Y014841D01*
X030459Y014764D01*
X030459Y014534D01*
X030459Y014688D02*
X030613Y014841D01*
X030383Y014995D02*
X030383Y015302D01*
X030613Y015225D02*
X030153Y015225D01*
X030383Y014995D01*
X030613Y014534D02*
X030153Y014534D01*
X028813Y009302D02*
X028813Y008995D01*
X028813Y009148D02*
X028353Y009148D01*
X028506Y008995D01*
X028353Y008841D02*
X028353Y008688D01*
X028353Y008764D02*
X028736Y008764D01*
X028813Y008688D01*
X028813Y008611D01*
X028736Y008534D01*
X028756Y021205D02*
X028756Y021665D01*
X028603Y021512D01*
X028603Y021205D02*
X028910Y021205D01*
D22*
X010753Y017435D03*
X010753Y016435D03*
X007913Y016435D03*
X007913Y017435D03*
D23*
X007333Y011485D03*
X008833Y010385D03*
X020833Y013385D03*
D24*
X020833Y012760D03*
X020833Y015110D03*
X008833Y012110D03*
X007333Y012110D03*
X007333Y009760D03*
X008833Y009760D03*
D25*
X011043Y006885D03*
X012618Y006885D03*
X016368Y006885D03*
X017943Y006885D03*
X019493Y006885D03*
X021068Y006885D03*
X022618Y006885D03*
X024168Y006885D03*
X025743Y006885D03*
X027293Y006885D03*
X027293Y006885D03*
M02*
