G75*
%MOIN*%
%OFA0B0*%
%FSLAX24Y24*%
%IPPOS*%
%LPD*%
%AMOC8*
5,1,8,0,0,1.08239X$1,22.5*
%
%ADD10C,0.0080*%
%ADD11C,0.0240*%
%ADD12C,0.0600*%
%ADD13C,0.0000*%
%ADD14C,0.0500*%
%ADD15OC8,0.0500*%
%ADD16OC8,0.0630*%
%ADD17C,0.0630*%
%ADD18OC8,0.0480*%
%ADD19C,0.0480*%
%ADD20C,0.0472*%
%ADD21C,0.0760*%
%ADD22R,0.0740X0.0740*%
%ADD23C,0.0740*%
%ADD24OC8,0.0850*%
%ADD25C,0.1004*%
%ADD26C,0.0560*%
%ADD27C,0.0500*%
%ADD28C,0.0160*%
%ADD29C,0.0200*%
D10*
X006373Y004935D02*
X031273Y004935D01*
X020383Y019435D02*
X020333Y019435D01*
X020283Y020435D02*
X020233Y020435D01*
X020333Y021435D02*
X020383Y021435D01*
D11*
X006373Y022931D02*
X006373Y004935D01*
X016083Y010435D02*
X016083Y015935D01*
X015583Y016435D01*
X013583Y016435D01*
X013333Y016685D01*
X013333Y018935D01*
X012833Y019435D01*
X010833Y019435D01*
X011083Y019685D01*
X011083Y021385D01*
X010833Y018435D02*
X011333Y018435D01*
X011333Y017435D01*
X011333Y016435D02*
X012333Y016435D01*
X017333Y011935D02*
X017933Y012535D01*
X017933Y014235D01*
X018633Y014935D01*
X018833Y014935D01*
X022833Y015435D02*
X023583Y015435D01*
X024333Y016185D01*
X024333Y016935D01*
X025833Y015435D02*
X026583Y015435D01*
X027333Y016185D01*
X027333Y016935D01*
X028833Y015435D02*
X029833Y015435D01*
X030333Y015935D01*
X030333Y016935D01*
X031273Y022931D02*
X006373Y022931D01*
X014383Y021435D02*
X015833Y021435D01*
X018833Y021435D02*
X020333Y021435D01*
X020233Y020435D02*
X018833Y020435D01*
X018833Y019435D02*
X020333Y019435D01*
X016083Y010435D02*
X016333Y010185D01*
X017583Y010185D01*
X017833Y009935D01*
X017833Y008685D01*
X017935Y008435D01*
X031273Y004935D02*
X031273Y022931D01*
D12*
X029133Y013335D02*
X028533Y013335D01*
X028533Y012435D02*
X029133Y012435D01*
X029133Y011535D02*
X028533Y011535D01*
X026133Y011535D02*
X025533Y011535D01*
X025533Y012435D02*
X026133Y012435D01*
X026133Y013335D02*
X025533Y013335D01*
X023133Y013335D02*
X022533Y013335D01*
X022533Y012435D02*
X023133Y012435D01*
X023133Y011535D02*
X022533Y011535D01*
D13*
X029183Y006435D02*
X029185Y006485D01*
X029191Y006535D01*
X029201Y006585D01*
X029214Y006633D01*
X029231Y006681D01*
X029252Y006727D01*
X029276Y006771D01*
X029304Y006813D01*
X029335Y006853D01*
X029369Y006890D01*
X029406Y006925D01*
X029445Y006956D01*
X029486Y006985D01*
X029530Y007010D01*
X029576Y007032D01*
X029623Y007050D01*
X029671Y007064D01*
X029720Y007075D01*
X029770Y007082D01*
X029820Y007085D01*
X029871Y007084D01*
X029921Y007079D01*
X029971Y007070D01*
X030019Y007058D01*
X030067Y007041D01*
X030113Y007021D01*
X030158Y006998D01*
X030201Y006971D01*
X030241Y006941D01*
X030279Y006908D01*
X030314Y006872D01*
X030347Y006833D01*
X030376Y006792D01*
X030402Y006749D01*
X030425Y006704D01*
X030444Y006657D01*
X030459Y006609D01*
X030471Y006560D01*
X030479Y006510D01*
X030483Y006460D01*
X030483Y006410D01*
X030479Y006360D01*
X030471Y006310D01*
X030459Y006261D01*
X030444Y006213D01*
X030425Y006166D01*
X030402Y006121D01*
X030376Y006078D01*
X030347Y006037D01*
X030314Y005998D01*
X030279Y005962D01*
X030241Y005929D01*
X030201Y005899D01*
X030158Y005872D01*
X030113Y005849D01*
X030067Y005829D01*
X030019Y005812D01*
X029971Y005800D01*
X029921Y005791D01*
X029871Y005786D01*
X029820Y005785D01*
X029770Y005788D01*
X029720Y005795D01*
X029671Y005806D01*
X029623Y005820D01*
X029576Y005838D01*
X029530Y005860D01*
X029486Y005885D01*
X029445Y005914D01*
X029406Y005945D01*
X029369Y005980D01*
X029335Y006017D01*
X029304Y006057D01*
X029276Y006099D01*
X029252Y006143D01*
X029231Y006189D01*
X029214Y006237D01*
X029201Y006285D01*
X029191Y006335D01*
X029185Y006385D01*
X029183Y006435D01*
X029183Y021435D02*
X029185Y021485D01*
X029191Y021535D01*
X029201Y021585D01*
X029214Y021633D01*
X029231Y021681D01*
X029252Y021727D01*
X029276Y021771D01*
X029304Y021813D01*
X029335Y021853D01*
X029369Y021890D01*
X029406Y021925D01*
X029445Y021956D01*
X029486Y021985D01*
X029530Y022010D01*
X029576Y022032D01*
X029623Y022050D01*
X029671Y022064D01*
X029720Y022075D01*
X029770Y022082D01*
X029820Y022085D01*
X029871Y022084D01*
X029921Y022079D01*
X029971Y022070D01*
X030019Y022058D01*
X030067Y022041D01*
X030113Y022021D01*
X030158Y021998D01*
X030201Y021971D01*
X030241Y021941D01*
X030279Y021908D01*
X030314Y021872D01*
X030347Y021833D01*
X030376Y021792D01*
X030402Y021749D01*
X030425Y021704D01*
X030444Y021657D01*
X030459Y021609D01*
X030471Y021560D01*
X030479Y021510D01*
X030483Y021460D01*
X030483Y021410D01*
X030479Y021360D01*
X030471Y021310D01*
X030459Y021261D01*
X030444Y021213D01*
X030425Y021166D01*
X030402Y021121D01*
X030376Y021078D01*
X030347Y021037D01*
X030314Y020998D01*
X030279Y020962D01*
X030241Y020929D01*
X030201Y020899D01*
X030158Y020872D01*
X030113Y020849D01*
X030067Y020829D01*
X030019Y020812D01*
X029971Y020800D01*
X029921Y020791D01*
X029871Y020786D01*
X029820Y020785D01*
X029770Y020788D01*
X029720Y020795D01*
X029671Y020806D01*
X029623Y020820D01*
X029576Y020838D01*
X029530Y020860D01*
X029486Y020885D01*
X029445Y020914D01*
X029406Y020945D01*
X029369Y020980D01*
X029335Y021017D01*
X029304Y021057D01*
X029276Y021099D01*
X029252Y021143D01*
X029231Y021189D01*
X029214Y021237D01*
X029201Y021285D01*
X029191Y021335D01*
X029185Y021385D01*
X029183Y021435D01*
X007183Y021435D02*
X007185Y021485D01*
X007191Y021535D01*
X007201Y021585D01*
X007214Y021633D01*
X007231Y021681D01*
X007252Y021727D01*
X007276Y021771D01*
X007304Y021813D01*
X007335Y021853D01*
X007369Y021890D01*
X007406Y021925D01*
X007445Y021956D01*
X007486Y021985D01*
X007530Y022010D01*
X007576Y022032D01*
X007623Y022050D01*
X007671Y022064D01*
X007720Y022075D01*
X007770Y022082D01*
X007820Y022085D01*
X007871Y022084D01*
X007921Y022079D01*
X007971Y022070D01*
X008019Y022058D01*
X008067Y022041D01*
X008113Y022021D01*
X008158Y021998D01*
X008201Y021971D01*
X008241Y021941D01*
X008279Y021908D01*
X008314Y021872D01*
X008347Y021833D01*
X008376Y021792D01*
X008402Y021749D01*
X008425Y021704D01*
X008444Y021657D01*
X008459Y021609D01*
X008471Y021560D01*
X008479Y021510D01*
X008483Y021460D01*
X008483Y021410D01*
X008479Y021360D01*
X008471Y021310D01*
X008459Y021261D01*
X008444Y021213D01*
X008425Y021166D01*
X008402Y021121D01*
X008376Y021078D01*
X008347Y021037D01*
X008314Y020998D01*
X008279Y020962D01*
X008241Y020929D01*
X008201Y020899D01*
X008158Y020872D01*
X008113Y020849D01*
X008067Y020829D01*
X008019Y020812D01*
X007971Y020800D01*
X007921Y020791D01*
X007871Y020786D01*
X007820Y020785D01*
X007770Y020788D01*
X007720Y020795D01*
X007671Y020806D01*
X007623Y020820D01*
X007576Y020838D01*
X007530Y020860D01*
X007486Y020885D01*
X007445Y020914D01*
X007406Y020945D01*
X007369Y020980D01*
X007335Y021017D01*
X007304Y021057D01*
X007276Y021099D01*
X007252Y021143D01*
X007231Y021189D01*
X007214Y021237D01*
X007201Y021285D01*
X007191Y021335D01*
X007185Y021385D01*
X007183Y021435D01*
X007183Y006435D02*
X007185Y006485D01*
X007191Y006535D01*
X007201Y006585D01*
X007214Y006633D01*
X007231Y006681D01*
X007252Y006727D01*
X007276Y006771D01*
X007304Y006813D01*
X007335Y006853D01*
X007369Y006890D01*
X007406Y006925D01*
X007445Y006956D01*
X007486Y006985D01*
X007530Y007010D01*
X007576Y007032D01*
X007623Y007050D01*
X007671Y007064D01*
X007720Y007075D01*
X007770Y007082D01*
X007820Y007085D01*
X007871Y007084D01*
X007921Y007079D01*
X007971Y007070D01*
X008019Y007058D01*
X008067Y007041D01*
X008113Y007021D01*
X008158Y006998D01*
X008201Y006971D01*
X008241Y006941D01*
X008279Y006908D01*
X008314Y006872D01*
X008347Y006833D01*
X008376Y006792D01*
X008402Y006749D01*
X008425Y006704D01*
X008444Y006657D01*
X008459Y006609D01*
X008471Y006560D01*
X008479Y006510D01*
X008483Y006460D01*
X008483Y006410D01*
X008479Y006360D01*
X008471Y006310D01*
X008459Y006261D01*
X008444Y006213D01*
X008425Y006166D01*
X008402Y006121D01*
X008376Y006078D01*
X008347Y006037D01*
X008314Y005998D01*
X008279Y005962D01*
X008241Y005929D01*
X008201Y005899D01*
X008158Y005872D01*
X008113Y005849D01*
X008067Y005829D01*
X008019Y005812D01*
X007971Y005800D01*
X007921Y005791D01*
X007871Y005786D01*
X007820Y005785D01*
X007770Y005788D01*
X007720Y005795D01*
X007671Y005806D01*
X007623Y005820D01*
X007576Y005838D01*
X007530Y005860D01*
X007486Y005885D01*
X007445Y005914D01*
X007406Y005945D01*
X007369Y005980D01*
X007335Y006017D01*
X007304Y006057D01*
X007276Y006099D01*
X007252Y006143D01*
X007231Y006189D01*
X007214Y006237D01*
X007201Y006285D01*
X007191Y006335D01*
X007185Y006385D01*
X007183Y006435D01*
D14*
X008333Y014835D03*
D15*
X008333Y014035D03*
D16*
X015333Y015435D03*
D17*
X015333Y014435D03*
D18*
X017333Y015935D03*
X017833Y016935D03*
X016833Y016935D03*
X018833Y014935D03*
X018833Y013935D03*
X017333Y011935D03*
X022833Y014435D03*
X022833Y015435D03*
X024333Y016935D03*
X025833Y015435D03*
X025833Y014435D03*
X027333Y012935D03*
X028833Y014435D03*
X028833Y015435D03*
X030333Y016935D03*
X027333Y016935D03*
X030333Y012935D03*
X024333Y012935D03*
X011333Y016435D03*
X011333Y017435D03*
X007333Y017435D03*
X007333Y016435D03*
D19*
X007593Y018435D02*
X008073Y018435D01*
X008073Y019435D02*
X007593Y019435D01*
X010593Y019435D02*
X011073Y019435D01*
X011073Y018435D02*
X010593Y018435D01*
X010573Y014935D02*
X010093Y014935D01*
X010093Y013935D02*
X010573Y013935D01*
X010573Y012935D02*
X010093Y012935D01*
X010093Y011935D02*
X010573Y011935D01*
X013093Y011935D02*
X013573Y011935D01*
X013573Y012935D02*
X013093Y012935D01*
X013093Y013935D02*
X013573Y013935D01*
X013573Y014935D02*
X013093Y014935D01*
X015593Y018435D02*
X016073Y018435D01*
X016073Y019435D02*
X015593Y019435D01*
X015593Y020435D02*
X016073Y020435D01*
X016073Y021435D02*
X015593Y021435D01*
X018593Y021435D02*
X019073Y021435D01*
X019073Y020435D02*
X018593Y020435D01*
X018593Y019435D02*
X019073Y019435D01*
X019073Y018435D02*
X018593Y018435D01*
D20*
X015333Y012829D03*
X015333Y012041D03*
D21*
X020833Y011935D03*
X020833Y015935D03*
X008833Y012935D03*
X007333Y012935D03*
X007333Y008935D03*
X008833Y008935D03*
D22*
X014283Y018435D03*
X010083Y021485D03*
X020283Y018435D03*
X027833Y021435D03*
D23*
X026833Y021435D03*
X025833Y021435D03*
X024833Y021435D03*
X023833Y021435D03*
X022833Y021435D03*
X020383Y021435D03*
X020283Y020435D03*
X020383Y019435D03*
X014383Y019435D03*
X014283Y020435D03*
X014383Y021435D03*
X012083Y021485D03*
X011083Y021385D03*
D24*
X012333Y016435D03*
X022833Y016435D03*
X025833Y016435D03*
X028833Y016435D03*
D25*
X027290Y008937D02*
X027290Y007933D01*
X025731Y007933D02*
X025731Y008937D01*
X024172Y008937D02*
X024172Y007933D01*
X022612Y007933D02*
X022612Y008937D01*
X021053Y008937D02*
X021053Y007933D01*
X019494Y007933D02*
X019494Y008937D01*
X017935Y008937D02*
X017935Y007933D01*
X016376Y007933D02*
X016376Y008937D01*
X012612Y008937D02*
X012612Y007933D01*
X011053Y007933D02*
X011053Y008937D01*
D26*
X011053Y008435D02*
X011333Y008435D01*
X011333Y007435D01*
X011333Y006935D01*
X011833Y006435D01*
X018833Y006435D01*
X022333Y006435D01*
X025333Y006435D01*
X025731Y006833D01*
X025731Y008435D01*
X022612Y008435D02*
X022612Y006715D01*
X022333Y006435D01*
X019833Y008774D02*
X019833Y010935D01*
X020833Y011935D01*
X019833Y008774D02*
X019494Y008435D01*
X019333Y008274D01*
X019333Y006935D01*
X018833Y006435D01*
D27*
X021053Y008435D02*
X021133Y008435D01*
X021633Y008935D01*
X021633Y011435D01*
X021733Y011635D01*
X021733Y012435D01*
X022833Y012435D01*
X021733Y012435D02*
X021533Y012685D01*
X021533Y015235D01*
X020833Y015935D01*
X024933Y012435D02*
X024933Y012135D01*
X024233Y011435D01*
X024233Y008435D01*
X024172Y008435D01*
X027290Y008435D02*
X027333Y008435D01*
X027333Y011535D01*
X027933Y012135D01*
X027933Y012435D01*
X028833Y012435D01*
X025833Y012435D02*
X024933Y012435D01*
D28*
X023833Y017435D02*
X024833Y018435D01*
X024833Y021435D01*
X023833Y021435D02*
X023833Y018435D01*
X023083Y017685D01*
X017583Y017685D01*
X017083Y018185D01*
X017083Y020185D01*
X016833Y020435D01*
X015833Y020435D01*
X015833Y019435D02*
X016583Y019435D01*
X016833Y019185D01*
X016833Y017935D01*
X017333Y017435D01*
X023833Y017435D01*
D29*
X023882Y017135D02*
X023873Y017126D01*
X023873Y016744D01*
X023993Y016624D01*
X023993Y016326D01*
X023442Y015775D01*
X023143Y015775D01*
X023114Y015804D01*
X023478Y016168D01*
X023478Y016702D01*
X023100Y017080D01*
X022566Y017080D01*
X022188Y016702D01*
X022188Y016168D01*
X022552Y015804D01*
X022373Y015626D01*
X022373Y015244D01*
X022642Y014975D01*
X023023Y014975D01*
X023143Y015095D01*
X023651Y015095D01*
X023776Y015147D01*
X024526Y015897D01*
X024621Y015992D01*
X024673Y016117D01*
X024673Y016624D01*
X024793Y016744D01*
X024793Y017126D01*
X024523Y017395D01*
X024217Y017395D01*
X025003Y018181D01*
X025087Y018265D01*
X025133Y018375D01*
X025133Y020921D01*
X025167Y020935D01*
X025333Y021101D01*
X025499Y020935D01*
X025716Y020845D01*
X025950Y020845D01*
X026167Y020935D01*
X026333Y021101D01*
X026347Y021134D01*
X026398Y021064D01*
X026462Y021000D01*
X026534Y020947D01*
X026614Y020907D01*
X026699Y020879D01*
X026788Y020865D01*
X026833Y020865D01*
X026878Y020865D01*
X026966Y020879D01*
X027052Y020907D01*
X027132Y020947D01*
X027204Y021000D01*
X027243Y021039D01*
X027243Y020974D01*
X027372Y020845D01*
X028294Y020845D01*
X028423Y020974D01*
X028423Y021896D01*
X028294Y022025D01*
X027372Y022025D01*
X027243Y021896D01*
X027243Y021831D01*
X027204Y021870D01*
X027132Y021923D01*
X027052Y021963D01*
X026966Y021991D01*
X026878Y022005D01*
X026833Y022005D01*
X026833Y021435D01*
X026833Y021435D01*
X026833Y020865D01*
X026833Y021435D01*
X026833Y021435D01*
X026833Y022005D01*
X026788Y022005D01*
X026699Y021991D01*
X026614Y021963D01*
X026534Y021923D01*
X026462Y021870D01*
X026398Y021806D01*
X026347Y021736D01*
X026333Y021769D01*
X026167Y021935D01*
X025950Y022025D01*
X025716Y022025D01*
X025499Y021935D01*
X025333Y021769D01*
X025167Y021935D01*
X024950Y022025D01*
X024716Y022025D01*
X024499Y021935D01*
X024333Y021769D01*
X024167Y021935D01*
X023950Y022025D01*
X023716Y022025D01*
X023499Y021935D01*
X023333Y021769D01*
X023167Y021935D01*
X022950Y022025D01*
X022716Y022025D01*
X022499Y021935D01*
X022333Y021769D01*
X022243Y021552D01*
X022243Y021318D01*
X022333Y021101D01*
X022499Y020935D01*
X022716Y020845D01*
X022950Y020845D01*
X023167Y020935D01*
X023333Y021101D01*
X023499Y020935D01*
X023533Y020921D01*
X023533Y018559D01*
X022959Y017985D01*
X020838Y017985D01*
X020839Y017988D01*
X020853Y018039D01*
X020853Y018435D01*
X020853Y018831D01*
X020839Y018882D01*
X020813Y018928D01*
X020776Y018965D01*
X020758Y018975D01*
X020883Y019101D01*
X020973Y019318D01*
X020973Y019552D01*
X020883Y019769D01*
X020717Y019935D01*
X020647Y019964D01*
X020783Y020101D01*
X020873Y020318D01*
X020873Y020552D01*
X020783Y020769D01*
X020647Y020906D01*
X020717Y020935D01*
X020883Y021101D01*
X020973Y021318D01*
X020973Y021552D01*
X020883Y021769D01*
X020717Y021935D01*
X020500Y022025D01*
X020266Y022025D01*
X020049Y021935D01*
X019889Y021775D01*
X019383Y021775D01*
X019334Y021825D01*
X019164Y021895D01*
X018501Y021895D01*
X018332Y021825D01*
X018203Y021696D01*
X018133Y021526D01*
X018133Y021343D01*
X018203Y021174D01*
X018332Y021045D01*
X018501Y020975D01*
X019164Y020975D01*
X019334Y021045D01*
X019383Y021095D01*
X019889Y021095D01*
X020019Y020964D01*
X019949Y020935D01*
X019789Y020775D01*
X019383Y020775D01*
X019334Y020825D01*
X019164Y020895D01*
X018501Y020895D01*
X018332Y020825D01*
X018203Y020696D01*
X018133Y020526D01*
X018133Y020343D01*
X018203Y020174D01*
X018332Y020045D01*
X018501Y019975D01*
X019164Y019975D01*
X019334Y020045D01*
X019383Y020095D01*
X019789Y020095D01*
X019949Y019935D01*
X020019Y019906D01*
X019889Y019775D01*
X019383Y019775D01*
X019334Y019825D01*
X019164Y019895D01*
X018501Y019895D01*
X018332Y019825D01*
X018203Y019696D01*
X018133Y019526D01*
X018133Y019343D01*
X018203Y019174D01*
X018332Y019045D01*
X018501Y018975D01*
X019164Y018975D01*
X019334Y019045D01*
X019383Y019095D01*
X019889Y019095D01*
X019979Y019005D01*
X019887Y019005D01*
X019836Y018991D01*
X019790Y018965D01*
X019753Y018928D01*
X019727Y018882D01*
X019713Y018831D01*
X019713Y018435D01*
X019713Y018039D01*
X019727Y017988D01*
X019728Y017985D01*
X017707Y017985D01*
X017383Y018309D01*
X017383Y020245D01*
X017337Y020355D01*
X017087Y020605D01*
X017003Y020689D01*
X016893Y020735D01*
X016423Y020735D01*
X016334Y020825D01*
X016164Y020895D01*
X015501Y020895D01*
X015332Y020825D01*
X015203Y020696D01*
X015133Y020526D01*
X015133Y020343D01*
X015203Y020174D01*
X015332Y020045D01*
X015501Y019975D01*
X016164Y019975D01*
X016334Y020045D01*
X016423Y020135D01*
X016709Y020135D01*
X016783Y020061D01*
X016783Y019659D01*
X016753Y019689D01*
X016643Y019735D01*
X016423Y019735D01*
X016334Y019825D01*
X016164Y019895D01*
X015501Y019895D01*
X015332Y019825D01*
X015203Y019696D01*
X015133Y019526D01*
X015133Y019343D01*
X015203Y019174D01*
X015332Y019045D01*
X015501Y018975D01*
X016164Y018975D01*
X016334Y019045D01*
X016423Y019135D01*
X016459Y019135D01*
X016533Y019061D01*
X016533Y017875D01*
X016579Y017765D01*
X016663Y017681D01*
X016949Y017395D01*
X016642Y017395D01*
X016373Y017126D01*
X016373Y016744D01*
X016642Y016475D01*
X017023Y016475D01*
X017293Y016744D01*
X017293Y017126D01*
X017283Y017135D01*
X017411Y017135D01*
X017393Y017117D01*
X017393Y016935D01*
X017393Y016753D01*
X017651Y016495D01*
X017833Y016495D01*
X018015Y016495D01*
X018273Y016753D01*
X018273Y016935D01*
X018273Y017117D01*
X018255Y017135D01*
X023882Y017135D01*
X023873Y017044D02*
X023137Y017044D01*
X023335Y016845D02*
X023873Y016845D01*
X023971Y016647D02*
X023478Y016647D01*
X023478Y016448D02*
X023993Y016448D01*
X023917Y016250D02*
X023478Y016250D01*
X023361Y016051D02*
X023718Y016051D01*
X023520Y015853D02*
X023163Y015853D01*
X022503Y015853D02*
X021693Y015853D01*
X021513Y016033D02*
X021513Y016070D01*
X021409Y016320D01*
X021218Y016511D01*
X020968Y016615D01*
X020698Y016615D01*
X020448Y016511D01*
X020256Y016320D01*
X020167Y016105D01*
X019742Y016105D01*
X019613Y015976D01*
X019613Y011794D01*
X019742Y011665D01*
X019743Y011665D01*
X019341Y011264D01*
X019253Y011050D01*
X019253Y009705D01*
X019040Y009617D01*
X018814Y009391D01*
X018692Y009096D01*
X018692Y007774D01*
X018753Y007627D01*
X018753Y007175D01*
X018593Y007015D01*
X012073Y007015D01*
X011913Y007175D01*
X011913Y007735D01*
X012000Y007524D01*
X012204Y007321D01*
X012469Y007211D01*
X012756Y007211D01*
X013021Y007321D01*
X013225Y007524D01*
X013334Y007789D01*
X013334Y009081D01*
X013225Y009346D01*
X013021Y009549D01*
X012756Y009659D01*
X012469Y009659D01*
X012204Y009549D01*
X012000Y009346D01*
X011890Y009081D01*
X011890Y008605D01*
X011855Y008689D01*
X011855Y009096D01*
X011733Y009391D01*
X011508Y009617D01*
X011213Y009739D01*
X010894Y009739D01*
X010599Y009617D01*
X010374Y009391D01*
X010251Y009096D01*
X010251Y007774D01*
X010374Y007479D01*
X010599Y007253D01*
X010753Y007189D01*
X010753Y006820D01*
X010841Y006606D01*
X011504Y005943D01*
X011718Y005855D01*
X025448Y005855D01*
X025661Y005943D01*
X025825Y006106D01*
X026222Y006504D01*
X026311Y006717D01*
X026311Y007379D01*
X026410Y007479D01*
X026510Y007719D01*
X026610Y007479D01*
X026835Y007253D01*
X027130Y007131D01*
X027449Y007131D01*
X027744Y007253D01*
X027970Y007479D01*
X028092Y007774D01*
X028092Y009096D01*
X027970Y009391D01*
X027883Y009478D01*
X027883Y011307D01*
X028013Y011437D01*
X028013Y011432D01*
X028092Y011240D01*
X028238Y011094D01*
X028430Y011015D01*
X029236Y011015D01*
X029427Y011094D01*
X029574Y011240D01*
X029653Y011432D01*
X029653Y011638D01*
X029574Y011830D01*
X029475Y011928D01*
X029642Y012095D01*
X029733Y012316D01*
X029733Y012554D01*
X029642Y012775D01*
X029475Y012942D01*
X029574Y013040D01*
X029653Y013232D01*
X029653Y013438D01*
X029574Y013630D01*
X029427Y013776D01*
X029236Y013855D01*
X028430Y013855D01*
X028238Y013776D01*
X028092Y013630D01*
X028013Y013438D01*
X028013Y013232D01*
X028092Y013040D01*
X028148Y012985D01*
X027824Y012985D01*
X027793Y012972D01*
X027793Y013126D01*
X027523Y013395D01*
X027142Y013395D01*
X026873Y013126D01*
X026873Y012744D01*
X027142Y012475D01*
X027383Y012475D01*
X027383Y012363D01*
X027021Y012001D01*
X026867Y011847D01*
X026783Y011644D01*
X026783Y009564D01*
X026610Y009391D01*
X026510Y009151D01*
X026410Y009391D01*
X026185Y009617D01*
X025890Y009739D01*
X025571Y009739D01*
X025276Y009617D01*
X025051Y009391D01*
X024951Y009151D01*
X024851Y009391D01*
X024783Y009460D01*
X024783Y011207D01*
X025013Y011437D01*
X025013Y011432D01*
X025092Y011240D01*
X025238Y011094D01*
X025430Y011015D01*
X026236Y011015D01*
X026427Y011094D01*
X026574Y011240D01*
X026653Y011432D01*
X026653Y011638D01*
X026574Y011830D01*
X026475Y011928D01*
X026642Y012095D01*
X026733Y012316D01*
X026733Y012554D01*
X026642Y012775D01*
X026475Y012942D01*
X026574Y013040D01*
X026653Y013232D01*
X026653Y013438D01*
X026574Y013630D01*
X026427Y013776D01*
X026236Y013855D01*
X025430Y013855D01*
X025238Y013776D01*
X025092Y013630D01*
X025013Y013438D01*
X025013Y013232D01*
X025092Y013040D01*
X025148Y012985D01*
X024824Y012985D01*
X024793Y012972D01*
X024793Y013126D01*
X024523Y013395D01*
X024142Y013395D01*
X023873Y013126D01*
X023873Y012744D01*
X024142Y012475D01*
X024383Y012475D01*
X024383Y012363D01*
X023921Y011901D01*
X023767Y011747D01*
X023683Y011544D01*
X023683Y009583D01*
X023492Y009391D01*
X023392Y009151D01*
X023292Y009391D01*
X023067Y009617D01*
X022772Y009739D01*
X022453Y009739D01*
X022183Y009627D01*
X022183Y011150D01*
X022238Y011094D01*
X022430Y011015D01*
X023236Y011015D01*
X023427Y011094D01*
X023574Y011240D01*
X023653Y011432D01*
X023653Y011638D01*
X023574Y011830D01*
X023475Y011928D01*
X023642Y012095D01*
X023733Y012316D01*
X023733Y012554D01*
X023642Y012775D01*
X023475Y012942D01*
X023574Y013040D01*
X023653Y013232D01*
X023653Y013438D01*
X023574Y013630D01*
X023427Y013776D01*
X023236Y013855D01*
X022430Y013855D01*
X022238Y013776D01*
X022092Y013630D01*
X022083Y013607D01*
X022083Y015344D01*
X021999Y015547D01*
X021513Y016033D01*
X021513Y016051D02*
X022305Y016051D01*
X022188Y016250D02*
X021439Y016250D01*
X021282Y016448D02*
X022188Y016448D01*
X022188Y016647D02*
X018167Y016647D01*
X018273Y016845D02*
X022331Y016845D01*
X022529Y017044D02*
X018273Y017044D01*
X018273Y016935D02*
X017833Y016935D01*
X017833Y016935D01*
X018273Y016935D01*
X017833Y016935D02*
X017833Y016495D01*
X017833Y016935D01*
X017833Y016935D01*
X017393Y016935D01*
X017833Y016935D01*
X017833Y016935D01*
X017833Y016845D02*
X017833Y016845D01*
X017833Y016647D02*
X017833Y016647D01*
X017499Y016647D02*
X017195Y016647D01*
X017293Y016845D02*
X017393Y016845D01*
X017393Y017044D02*
X017293Y017044D01*
X016903Y017441D02*
X013673Y017441D01*
X013673Y017639D02*
X016705Y017639D01*
X016663Y017681D02*
X016663Y017681D01*
X016549Y017838D02*
X013673Y017838D01*
X013693Y017974D02*
X013822Y017845D01*
X014744Y017845D01*
X014873Y017974D01*
X014873Y018896D01*
X014776Y018993D01*
X014883Y019101D01*
X014973Y019318D01*
X014973Y019552D01*
X014883Y019769D01*
X014717Y019935D01*
X014647Y019964D01*
X014783Y020101D01*
X014873Y020318D01*
X014873Y020552D01*
X014783Y020769D01*
X014647Y020906D01*
X014717Y020935D01*
X014877Y021095D01*
X015282Y021095D01*
X015332Y021045D01*
X015501Y020975D01*
X016164Y020975D01*
X016334Y021045D01*
X016463Y021174D01*
X016533Y021343D01*
X016533Y021526D01*
X016463Y021696D01*
X016334Y021825D01*
X016164Y021895D01*
X015501Y021895D01*
X015332Y021825D01*
X015282Y021775D01*
X014877Y021775D01*
X014717Y021935D01*
X014500Y022025D01*
X014266Y022025D01*
X014049Y021935D01*
X013883Y021769D01*
X013793Y021552D01*
X013793Y021318D01*
X013883Y021101D01*
X014019Y020964D01*
X013949Y020935D01*
X013783Y020769D01*
X013693Y020552D01*
X013693Y020318D01*
X013783Y020101D01*
X013949Y019935D01*
X014019Y019906D01*
X013883Y019769D01*
X013793Y019552D01*
X013793Y019318D01*
X013883Y019101D01*
X013959Y019025D01*
X013822Y019025D01*
X013693Y018896D01*
X013693Y017974D01*
X013693Y018036D02*
X013673Y018036D01*
X013673Y018235D02*
X013693Y018235D01*
X013693Y018433D02*
X013673Y018433D01*
X013673Y018632D02*
X013693Y018632D01*
X013693Y018830D02*
X013673Y018830D01*
X013673Y019003D02*
X013621Y019128D01*
X013121Y019628D01*
X013026Y019723D01*
X012901Y019775D01*
X011423Y019775D01*
X011423Y020891D01*
X011583Y021051D01*
X011623Y021148D01*
X011648Y021114D01*
X011712Y021050D01*
X011784Y020997D01*
X011864Y020957D01*
X011949Y020929D01*
X012038Y020915D01*
X012083Y020915D01*
X012128Y020915D01*
X012216Y020929D01*
X012302Y020957D01*
X012382Y020997D01*
X012454Y021050D01*
X012518Y021114D01*
X012570Y021186D01*
X012611Y021266D01*
X012639Y021352D01*
X012653Y021440D01*
X012653Y021485D01*
X012653Y021530D01*
X012639Y021618D01*
X012611Y021704D01*
X012570Y021784D01*
X012518Y021856D01*
X012454Y021920D01*
X012382Y021973D01*
X012302Y022013D01*
X012216Y022041D01*
X012128Y022055D01*
X012083Y022055D01*
X012083Y021485D01*
X012653Y021485D01*
X012083Y021485D01*
X012083Y021485D01*
X012083Y020915D01*
X012083Y021485D01*
X012083Y021485D01*
X012083Y021485D01*
X012083Y022055D01*
X012038Y022055D01*
X011949Y022041D01*
X011864Y022013D01*
X011784Y021973D01*
X011712Y021920D01*
X011648Y021856D01*
X011595Y021784D01*
X011569Y021733D01*
X011417Y021885D01*
X011200Y021975D01*
X010966Y021975D01*
X010749Y021885D01*
X010673Y021809D01*
X010673Y021946D01*
X010544Y022075D01*
X009622Y022075D01*
X009493Y021946D01*
X009493Y021024D01*
X009622Y020895D01*
X010544Y020895D01*
X010641Y020992D01*
X010743Y020891D01*
X010743Y019895D01*
X010501Y019895D01*
X010332Y019825D01*
X010203Y019696D01*
X010133Y019526D01*
X010133Y019343D01*
X010203Y019174D01*
X010332Y019045D01*
X010501Y018975D01*
X011164Y018975D01*
X011334Y019045D01*
X011383Y019095D01*
X012692Y019095D01*
X012993Y018794D01*
X012993Y016617D01*
X013045Y016492D01*
X013390Y016147D01*
X013515Y016095D01*
X015442Y016095D01*
X015743Y015794D01*
X015743Y015782D01*
X015555Y015970D01*
X015111Y015970D01*
X014798Y015657D01*
X014798Y015213D01*
X015111Y014900D01*
X015063Y014875D01*
X014997Y014828D01*
X014940Y014770D01*
X014892Y014705D01*
X014856Y014633D01*
X014831Y014556D01*
X014818Y014476D01*
X014818Y014435D01*
X014818Y014394D01*
X014831Y014314D01*
X014856Y014237D01*
X014892Y014165D01*
X014940Y014099D01*
X014997Y014042D01*
X015063Y013995D01*
X015135Y013958D01*
X015212Y013933D01*
X015292Y013920D01*
X015333Y013920D01*
X015373Y013920D01*
X015454Y013933D01*
X015531Y013958D01*
X015603Y013995D01*
X015668Y014042D01*
X015726Y014099D01*
X015743Y014123D01*
X015743Y012978D01*
X015737Y012996D01*
X015706Y013057D01*
X015666Y013113D01*
X015617Y013161D01*
X015562Y013202D01*
X015500Y013233D01*
X015435Y013254D01*
X015367Y013265D01*
X015333Y013265D01*
X015333Y012829D01*
X015333Y012829D01*
X015333Y013265D01*
X015299Y013265D01*
X015231Y013254D01*
X015165Y013233D01*
X015104Y013202D01*
X015049Y013161D01*
X015000Y013113D01*
X014960Y013057D01*
X014929Y012996D01*
X014907Y012931D01*
X014897Y012863D01*
X014897Y012829D01*
X015333Y012829D01*
X015333Y012829D01*
X014897Y012829D01*
X014897Y012794D01*
X014907Y012727D01*
X014929Y012661D01*
X014960Y012600D01*
X015000Y012545D01*
X015049Y012496D01*
X015104Y012456D01*
X015121Y012447D01*
X015075Y012428D01*
X014946Y012300D01*
X014877Y012132D01*
X014877Y011951D01*
X014946Y011783D01*
X015075Y011655D01*
X015242Y011585D01*
X015424Y011585D01*
X015591Y011655D01*
X015720Y011783D01*
X015743Y011839D01*
X015743Y010367D01*
X015795Y010242D01*
X015890Y010147D01*
X016045Y009992D01*
X016140Y009897D01*
X016265Y009845D01*
X017442Y009845D01*
X017493Y009794D01*
X017493Y009516D01*
X017323Y009346D01*
X017213Y009081D01*
X017213Y007789D01*
X017323Y007524D01*
X017526Y007321D01*
X017792Y007211D01*
X018079Y007211D01*
X018344Y007321D01*
X018547Y007524D01*
X018657Y007789D01*
X018657Y009081D01*
X018547Y009346D01*
X018344Y009549D01*
X018173Y009620D01*
X018173Y010003D01*
X018121Y010128D01*
X018026Y010223D01*
X017776Y010473D01*
X017651Y010525D01*
X016474Y010525D01*
X016423Y010576D01*
X016423Y016003D01*
X016371Y016128D01*
X015871Y016628D01*
X015776Y016723D01*
X015651Y016775D01*
X013724Y016775D01*
X013673Y016826D01*
X013673Y019003D01*
X013662Y019029D02*
X013955Y019029D01*
X013830Y019227D02*
X013522Y019227D01*
X013323Y019426D02*
X013793Y019426D01*
X013823Y019624D02*
X013125Y019624D01*
X013121Y019628D02*
X013121Y019628D01*
X012759Y019029D02*
X011294Y019029D01*
X011164Y018895D02*
X010501Y018895D01*
X010332Y018825D01*
X010203Y018696D01*
X010133Y018526D01*
X010133Y018343D01*
X010203Y018174D01*
X010332Y018045D01*
X010501Y017975D01*
X010993Y017975D01*
X010993Y017746D01*
X010873Y017626D01*
X010873Y017244D01*
X011142Y016975D01*
X011523Y016975D01*
X011793Y017244D01*
X011793Y017626D01*
X011673Y017746D01*
X011673Y018503D01*
X011621Y018628D01*
X011526Y018723D01*
X011401Y018775D01*
X011383Y018775D01*
X011334Y018825D01*
X011164Y018895D01*
X011321Y018830D02*
X012957Y018830D01*
X012993Y018632D02*
X011617Y018632D01*
X011673Y018433D02*
X012993Y018433D01*
X012993Y018235D02*
X011673Y018235D01*
X011673Y018036D02*
X012993Y018036D01*
X012993Y017838D02*
X011673Y017838D01*
X011779Y017639D02*
X012993Y017639D01*
X012993Y017441D02*
X011793Y017441D01*
X011790Y017242D02*
X012993Y017242D01*
X012993Y017044D02*
X012637Y017044D01*
X012600Y017080D02*
X012066Y017080D01*
X011761Y016775D01*
X011643Y016775D01*
X011523Y016895D01*
X011142Y016895D01*
X010873Y016626D01*
X010873Y016244D01*
X011142Y015975D01*
X011523Y015975D01*
X011643Y016095D01*
X011761Y016095D01*
X012066Y015790D01*
X012600Y015790D01*
X012978Y016168D01*
X012978Y016702D01*
X012600Y017080D01*
X012835Y016845D02*
X012993Y016845D01*
X012978Y016647D02*
X012993Y016647D01*
X012978Y016448D02*
X013089Y016448D01*
X012978Y016250D02*
X013288Y016250D01*
X012861Y016051D02*
X015486Y016051D01*
X015672Y015853D02*
X015685Y015853D01*
X016249Y016250D02*
X017025Y016250D01*
X017151Y016375D02*
X016893Y016117D01*
X016893Y015935D01*
X016893Y015753D01*
X017151Y015495D01*
X017333Y015495D01*
X017515Y015495D01*
X017773Y015753D01*
X017773Y015935D01*
X017773Y016117D01*
X017515Y016375D01*
X017333Y016375D01*
X017333Y015935D01*
X017773Y015935D01*
X017333Y015935D01*
X017333Y015935D01*
X017333Y015935D01*
X017333Y015495D01*
X017333Y015935D01*
X017333Y015935D01*
X017333Y016375D01*
X017151Y016375D01*
X017333Y016250D02*
X017333Y016250D01*
X017333Y016051D02*
X017333Y016051D01*
X017333Y015935D02*
X017333Y015935D01*
X016893Y015935D01*
X017333Y015935D01*
X017333Y015853D02*
X017333Y015853D01*
X017333Y015654D02*
X017333Y015654D01*
X016992Y015654D02*
X016423Y015654D01*
X016423Y015456D02*
X019613Y015456D01*
X019613Y015654D02*
X017674Y015654D01*
X017773Y015853D02*
X019613Y015853D01*
X019688Y016051D02*
X017773Y016051D01*
X017641Y016250D02*
X020227Y016250D01*
X020384Y016448D02*
X016051Y016448D01*
X015852Y016647D02*
X016471Y016647D01*
X016373Y016845D02*
X013673Y016845D01*
X013673Y017044D02*
X016373Y017044D01*
X016489Y017242D02*
X013673Y017242D01*
X014873Y018036D02*
X015354Y018036D01*
X015332Y018045D02*
X015501Y017975D01*
X016164Y017975D01*
X016334Y018045D01*
X016463Y018174D01*
X016533Y018343D01*
X016533Y018526D01*
X016463Y018696D01*
X016334Y018825D01*
X016164Y018895D01*
X015501Y018895D01*
X015332Y018825D01*
X015203Y018696D01*
X015133Y018526D01*
X015133Y018343D01*
X015203Y018174D01*
X015332Y018045D01*
X015178Y018235D02*
X014873Y018235D01*
X014873Y018433D02*
X015133Y018433D01*
X015176Y018632D02*
X014873Y018632D01*
X014873Y018830D02*
X015345Y018830D01*
X015372Y019029D02*
X014811Y019029D01*
X014935Y019227D02*
X015181Y019227D01*
X015133Y019426D02*
X014973Y019426D01*
X014943Y019624D02*
X015173Y019624D01*
X015330Y019823D02*
X014830Y019823D01*
X014703Y020021D02*
X015390Y020021D01*
X015184Y020220D02*
X014832Y020220D01*
X014873Y020418D02*
X015133Y020418D01*
X015170Y020617D02*
X014846Y020617D01*
X014737Y020815D02*
X015322Y020815D01*
X015408Y021014D02*
X014796Y021014D01*
X013970Y021014D02*
X012404Y021014D01*
X012584Y021212D02*
X013837Y021212D01*
X013793Y021411D02*
X012648Y021411D01*
X012640Y021609D02*
X013816Y021609D01*
X013921Y021808D02*
X012553Y021808D01*
X012316Y022006D02*
X014220Y022006D01*
X014546Y022006D02*
X020220Y022006D01*
X020546Y022006D02*
X022670Y022006D01*
X022996Y022006D02*
X023670Y022006D01*
X023996Y022006D02*
X024670Y022006D01*
X024996Y022006D02*
X025670Y022006D01*
X025996Y022006D02*
X027353Y022006D01*
X026833Y021808D02*
X026833Y021808D01*
X026833Y021609D02*
X026833Y021609D01*
X026833Y021411D02*
X026833Y021411D01*
X026833Y021212D02*
X026833Y021212D01*
X026833Y021014D02*
X026833Y021014D01*
X027218Y021014D02*
X027243Y021014D01*
X026448Y021014D02*
X026246Y021014D01*
X026295Y021808D02*
X026399Y021808D01*
X025371Y021808D02*
X025295Y021808D01*
X025246Y021014D02*
X025420Y021014D01*
X025133Y020815D02*
X028567Y020815D01*
X028586Y020760D02*
X028586Y020760D01*
X028873Y020392D01*
X029263Y020136D01*
X029716Y020022D01*
X030181Y020060D01*
X030609Y020248D01*
X030903Y020519D01*
X030903Y007351D01*
X030609Y007622D01*
X030609Y007622D01*
X030181Y007810D01*
X029716Y007848D01*
X029716Y007848D01*
X029263Y007734D01*
X028873Y007478D01*
X028586Y007110D01*
X028434Y006668D01*
X028434Y006202D01*
X028586Y005760D01*
X028873Y005392D01*
X029128Y005225D01*
X008556Y005225D01*
X008609Y005248D01*
X008952Y005564D01*
X009174Y005975D01*
X009251Y006435D01*
X009174Y006895D01*
X008952Y007306D01*
X008609Y007622D01*
X008609Y007622D01*
X008181Y007810D01*
X007716Y007848D01*
X007716Y007848D01*
X007263Y007734D01*
X006873Y007478D01*
X006743Y007312D01*
X006743Y008582D01*
X006756Y008550D01*
X006948Y008359D01*
X007198Y008255D01*
X007468Y008255D01*
X007718Y008359D01*
X007909Y008550D01*
X008013Y008800D01*
X008013Y009070D01*
X007909Y009320D01*
X007718Y009511D01*
X007468Y009615D01*
X007198Y009615D01*
X006948Y009511D01*
X006756Y009320D01*
X006743Y009288D01*
X006743Y012792D01*
X006824Y012595D01*
X006993Y012426D01*
X007214Y012335D01*
X007452Y012335D01*
X007673Y012426D01*
X007842Y012595D01*
X007933Y012816D01*
X007933Y013054D01*
X007842Y013275D01*
X007673Y013444D01*
X007452Y013535D01*
X007214Y013535D01*
X006993Y013444D01*
X006824Y013275D01*
X006743Y013078D01*
X006743Y020488D01*
X006976Y020255D01*
X007382Y020048D01*
X007382Y020048D01*
X007833Y019977D01*
X008283Y020048D01*
X008283Y020048D01*
X008690Y020255D01*
X009013Y020578D01*
X009220Y020984D01*
X009220Y020984D01*
X009291Y021435D01*
X009220Y021886D01*
X009013Y022292D01*
X009013Y022292D01*
X009013Y022292D01*
X008743Y022561D01*
X028999Y022561D01*
X028873Y022478D01*
X028586Y022110D01*
X028434Y021668D01*
X028434Y021202D01*
X028586Y020760D01*
X028698Y020617D02*
X025133Y020617D01*
X025133Y020418D02*
X028852Y020418D01*
X028873Y020392D02*
X028873Y020392D01*
X028873Y020392D01*
X029136Y020220D02*
X025133Y020220D01*
X025133Y020021D02*
X030903Y020021D01*
X030903Y019823D02*
X025133Y019823D01*
X025133Y019624D02*
X030903Y019624D01*
X030903Y019426D02*
X025133Y019426D01*
X025133Y019227D02*
X030903Y019227D01*
X030903Y019029D02*
X025133Y019029D01*
X025133Y018830D02*
X030903Y018830D01*
X030903Y018632D02*
X025133Y018632D01*
X025133Y018433D02*
X030903Y018433D01*
X030903Y018235D02*
X025057Y018235D01*
X024858Y018036D02*
X030903Y018036D01*
X030903Y017838D02*
X024660Y017838D01*
X024461Y017639D02*
X030903Y017639D01*
X030903Y017441D02*
X024263Y017441D01*
X024676Y017242D02*
X026989Y017242D01*
X026873Y017126D02*
X026873Y016744D01*
X026993Y016624D01*
X026993Y016326D01*
X026442Y015775D01*
X026143Y015775D01*
X026114Y015804D01*
X026478Y016168D01*
X026478Y016702D01*
X026100Y017080D01*
X025566Y017080D01*
X025188Y016702D01*
X025188Y016168D01*
X025552Y015804D01*
X025373Y015626D01*
X025373Y015244D01*
X025642Y014975D01*
X026023Y014975D01*
X026143Y015095D01*
X026651Y015095D01*
X026776Y015147D01*
X027526Y015897D01*
X027621Y015992D01*
X027673Y016117D01*
X027673Y016624D01*
X027793Y016744D01*
X027793Y017126D01*
X027523Y017395D01*
X027142Y017395D01*
X026873Y017126D01*
X026873Y017044D02*
X026137Y017044D01*
X026335Y016845D02*
X026873Y016845D01*
X026971Y016647D02*
X026478Y016647D01*
X026478Y016448D02*
X026993Y016448D01*
X026917Y016250D02*
X026478Y016250D01*
X026361Y016051D02*
X026718Y016051D01*
X026520Y015853D02*
X026163Y015853D01*
X025503Y015853D02*
X024481Y015853D01*
X024645Y016051D02*
X025305Y016051D01*
X025188Y016250D02*
X024673Y016250D01*
X024673Y016448D02*
X025188Y016448D01*
X025188Y016647D02*
X024695Y016647D01*
X024793Y016845D02*
X025331Y016845D01*
X025529Y017044D02*
X024793Y017044D01*
X023407Y018433D02*
X020853Y018433D01*
X020853Y018435D02*
X020283Y018435D01*
X020853Y018435D01*
X020853Y018632D02*
X023533Y018632D01*
X023533Y018830D02*
X020853Y018830D01*
X020811Y019029D02*
X023533Y019029D01*
X023533Y019227D02*
X020935Y019227D01*
X020973Y019426D02*
X023533Y019426D01*
X023533Y019624D02*
X020943Y019624D01*
X020830Y019823D02*
X023533Y019823D01*
X023533Y020021D02*
X020703Y020021D01*
X020832Y020220D02*
X023533Y020220D01*
X023533Y020418D02*
X020873Y020418D01*
X020846Y020617D02*
X023533Y020617D01*
X023533Y020815D02*
X020737Y020815D01*
X020796Y021014D02*
X022420Y021014D01*
X022287Y021212D02*
X020929Y021212D01*
X020973Y021411D02*
X022243Y021411D01*
X022266Y021609D02*
X020949Y021609D01*
X020845Y021808D02*
X022371Y021808D01*
X023295Y021808D02*
X023371Y021808D01*
X024295Y021808D02*
X024371Y021808D01*
X023420Y021014D02*
X023246Y021014D01*
X023208Y018235D02*
X020853Y018235D01*
X020852Y018036D02*
X023010Y018036D01*
X022401Y015654D02*
X021892Y015654D01*
X022037Y015456D02*
X022373Y015456D01*
X022373Y015257D02*
X022083Y015257D01*
X022083Y015059D02*
X022559Y015059D01*
X022642Y014895D02*
X022373Y014626D01*
X022373Y014244D01*
X022642Y013975D01*
X023023Y013975D01*
X023293Y014244D01*
X023293Y014626D01*
X023023Y014895D01*
X022642Y014895D01*
X022607Y014860D02*
X022083Y014860D01*
X022083Y014662D02*
X022409Y014662D01*
X022373Y014463D02*
X022083Y014463D01*
X022083Y014265D02*
X022373Y014265D01*
X022551Y014066D02*
X022083Y014066D01*
X022083Y013868D02*
X030903Y013868D01*
X030903Y014066D02*
X029114Y014066D01*
X029023Y013975D02*
X029293Y014244D01*
X029293Y014626D01*
X029023Y014895D01*
X028642Y014895D01*
X028373Y014626D01*
X028373Y014244D01*
X028642Y013975D01*
X029023Y013975D01*
X029293Y014265D02*
X030903Y014265D01*
X030903Y014463D02*
X029293Y014463D01*
X029257Y014662D02*
X030903Y014662D01*
X030903Y014860D02*
X029058Y014860D01*
X029023Y014975D02*
X029143Y015095D01*
X029901Y015095D01*
X030026Y015147D01*
X030526Y015647D01*
X030621Y015742D01*
X030673Y015867D01*
X030673Y016624D01*
X030793Y016744D01*
X030793Y017126D01*
X030523Y017395D01*
X030142Y017395D01*
X029873Y017126D01*
X029873Y016744D01*
X029993Y016624D01*
X029993Y016076D01*
X029692Y015775D01*
X029143Y015775D01*
X029114Y015804D01*
X029478Y016168D01*
X029478Y016702D01*
X029100Y017080D01*
X028566Y017080D01*
X028188Y016702D01*
X028188Y016168D01*
X028552Y015804D01*
X028373Y015626D01*
X028373Y015244D01*
X028642Y014975D01*
X029023Y014975D01*
X029107Y015059D02*
X030903Y015059D01*
X030903Y015257D02*
X030136Y015257D01*
X030334Y015456D02*
X030903Y015456D01*
X030903Y015654D02*
X030533Y015654D01*
X030667Y015853D02*
X030903Y015853D01*
X030903Y016051D02*
X030673Y016051D01*
X030673Y016250D02*
X030903Y016250D01*
X030903Y016448D02*
X030673Y016448D01*
X030695Y016647D02*
X030903Y016647D01*
X030903Y016845D02*
X030793Y016845D01*
X030793Y017044D02*
X030903Y017044D01*
X030903Y017242D02*
X030676Y017242D01*
X029989Y017242D02*
X027676Y017242D01*
X027793Y017044D02*
X028529Y017044D01*
X028331Y016845D02*
X027793Y016845D01*
X027695Y016647D02*
X028188Y016647D01*
X028188Y016448D02*
X027673Y016448D01*
X027673Y016250D02*
X028188Y016250D01*
X028305Y016051D02*
X027645Y016051D01*
X027481Y015853D02*
X028503Y015853D01*
X028401Y015654D02*
X027283Y015654D01*
X027084Y015456D02*
X028373Y015456D01*
X028373Y015257D02*
X026886Y015257D01*
X026257Y014662D02*
X028409Y014662D01*
X028373Y014463D02*
X026293Y014463D01*
X026293Y014626D02*
X026293Y014244D01*
X026023Y013975D01*
X025642Y013975D01*
X025373Y014244D01*
X025373Y014626D01*
X025642Y014895D01*
X026023Y014895D01*
X026293Y014626D01*
X026058Y014860D02*
X028607Y014860D01*
X028559Y015059D02*
X026107Y015059D01*
X025607Y014860D02*
X023058Y014860D01*
X023107Y015059D02*
X025559Y015059D01*
X025373Y015257D02*
X023886Y015257D01*
X024084Y015456D02*
X025373Y015456D01*
X025401Y015654D02*
X024283Y015654D01*
X023257Y014662D02*
X025409Y014662D01*
X025373Y014463D02*
X023293Y014463D01*
X023293Y014265D02*
X025373Y014265D01*
X025551Y014066D02*
X023114Y014066D01*
X023534Y013669D02*
X025132Y013669D01*
X025026Y013471D02*
X023640Y013471D01*
X023653Y013272D02*
X024019Y013272D01*
X023873Y013074D02*
X023587Y013074D01*
X023541Y012875D02*
X023873Y012875D01*
X023941Y012677D02*
X023682Y012677D01*
X023733Y012478D02*
X024139Y012478D01*
X024300Y012280D02*
X023718Y012280D01*
X023627Y012081D02*
X024101Y012081D01*
X023903Y011883D02*
X023521Y011883D01*
X023634Y011684D02*
X023741Y011684D01*
X023683Y011486D02*
X023653Y011486D01*
X023683Y011287D02*
X023593Y011287D01*
X023683Y011089D02*
X023414Y011089D01*
X023683Y010890D02*
X022183Y010890D01*
X022183Y010692D02*
X023683Y010692D01*
X023683Y010493D02*
X022183Y010493D01*
X022183Y010295D02*
X023683Y010295D01*
X023683Y010096D02*
X022183Y010096D01*
X022183Y009898D02*
X023683Y009898D01*
X023683Y009699D02*
X022868Y009699D01*
X023183Y009501D02*
X023601Y009501D01*
X023455Y009302D02*
X023329Y009302D01*
X022357Y009699D02*
X022183Y009699D01*
X022183Y011089D02*
X022252Y011089D01*
X024783Y011089D02*
X025252Y011089D01*
X025073Y011287D02*
X024863Y011287D01*
X024783Y010890D02*
X026783Y010890D01*
X026783Y010692D02*
X024783Y010692D01*
X024783Y010493D02*
X026783Y010493D01*
X026783Y010295D02*
X024783Y010295D01*
X024783Y010096D02*
X026783Y010096D01*
X026783Y009898D02*
X024783Y009898D01*
X024783Y009699D02*
X025475Y009699D01*
X025160Y009501D02*
X024783Y009501D01*
X024888Y009302D02*
X025014Y009302D01*
X025986Y009699D02*
X026783Y009699D01*
X026719Y009501D02*
X026301Y009501D01*
X026447Y009302D02*
X026573Y009302D01*
X027883Y009501D02*
X030903Y009501D01*
X030903Y009699D02*
X027883Y009699D01*
X027883Y009898D02*
X030903Y009898D01*
X030903Y010096D02*
X027883Y010096D01*
X027883Y010295D02*
X030903Y010295D01*
X030903Y010493D02*
X027883Y010493D01*
X027883Y010692D02*
X030903Y010692D01*
X030903Y010890D02*
X027883Y010890D01*
X027883Y011089D02*
X028252Y011089D01*
X028073Y011287D02*
X027883Y011287D01*
X027101Y012081D02*
X026627Y012081D01*
X026718Y012280D02*
X027300Y012280D01*
X027139Y012478D02*
X026733Y012478D01*
X026682Y012677D02*
X026941Y012677D01*
X026873Y012875D02*
X026541Y012875D01*
X026587Y013074D02*
X026873Y013074D01*
X027019Y013272D02*
X026653Y013272D01*
X026640Y013471D02*
X028026Y013471D01*
X028013Y013272D02*
X027646Y013272D01*
X027793Y013074D02*
X028078Y013074D01*
X028132Y013669D02*
X026534Y013669D01*
X026114Y014066D02*
X028551Y014066D01*
X028373Y014265D02*
X026293Y014265D01*
X025013Y013272D02*
X024646Y013272D01*
X024793Y013074D02*
X025078Y013074D01*
X026521Y011883D02*
X026903Y011883D01*
X027021Y012001D02*
X027021Y012001D01*
X026799Y011684D02*
X026634Y011684D01*
X026653Y011486D02*
X026783Y011486D01*
X026783Y011287D02*
X026593Y011287D01*
X026414Y011089D02*
X026783Y011089D01*
X028006Y009302D02*
X030903Y009302D01*
X030903Y009104D02*
X028089Y009104D01*
X028092Y008905D02*
X030903Y008905D01*
X030903Y008707D02*
X028092Y008707D01*
X028092Y008508D02*
X030903Y008508D01*
X030903Y008310D02*
X028092Y008310D01*
X028092Y008111D02*
X030903Y008111D01*
X030903Y007913D02*
X028092Y007913D01*
X028067Y007714D02*
X029233Y007714D01*
X029263Y007734D02*
X029263Y007734D01*
X028930Y007516D02*
X027985Y007516D01*
X027808Y007317D02*
X028747Y007317D01*
X028873Y007478D02*
X028873Y007478D01*
X028873Y007478D01*
X028593Y007119D02*
X026311Y007119D01*
X026311Y007317D02*
X026772Y007317D01*
X026595Y007516D02*
X026426Y007516D01*
X026508Y007714D02*
X026512Y007714D01*
X026311Y006920D02*
X028521Y006920D01*
X028586Y007110D02*
X028586Y007110D01*
X028452Y006722D02*
X026311Y006722D01*
X026230Y006523D02*
X028434Y006523D01*
X028434Y006325D02*
X026043Y006325D01*
X025844Y006126D02*
X028460Y006126D01*
X028528Y005928D02*
X025623Y005928D01*
X028586Y005760D02*
X028586Y005760D01*
X028610Y005729D02*
X009041Y005729D01*
X008952Y005564D02*
X008952Y005564D01*
X008916Y005531D02*
X028765Y005531D01*
X028873Y005392D02*
X028873Y005392D01*
X028964Y005332D02*
X008700Y005332D01*
X008609Y005248D02*
X008609Y005248D01*
X009149Y005928D02*
X011543Y005928D01*
X011322Y006126D02*
X009199Y006126D01*
X009174Y005975D02*
X009174Y005975D01*
X009233Y006325D02*
X011123Y006325D01*
X010925Y006523D02*
X009236Y006523D01*
X009203Y006722D02*
X010794Y006722D01*
X010753Y006920D02*
X009161Y006920D01*
X009174Y006895D02*
X009174Y006895D01*
X009053Y007119D02*
X010753Y007119D01*
X010535Y007317D02*
X008940Y007317D01*
X008952Y007306D02*
X008952Y007306D01*
X008724Y007516D02*
X010358Y007516D01*
X010276Y007714D02*
X008399Y007714D01*
X008181Y007810D02*
X008181Y007810D01*
X007600Y008310D02*
X010251Y008310D01*
X010251Y008508D02*
X009254Y008508D01*
X009173Y008426D02*
X009342Y008595D01*
X009433Y008816D01*
X009433Y009054D01*
X009342Y009275D01*
X009173Y009444D01*
X008952Y009535D01*
X008714Y009535D01*
X008493Y009444D01*
X008324Y009275D01*
X008233Y009054D01*
X008233Y008816D01*
X008324Y008595D01*
X008493Y008426D01*
X008714Y008335D01*
X008952Y008335D01*
X009173Y008426D01*
X009388Y008707D02*
X010251Y008707D01*
X010251Y008905D02*
X009433Y008905D01*
X009413Y009104D02*
X010254Y009104D01*
X010337Y009302D02*
X009314Y009302D01*
X009036Y009501D02*
X010483Y009501D01*
X010797Y009699D02*
X006743Y009699D01*
X006743Y009501D02*
X006937Y009501D01*
X006749Y009302D02*
X006743Y009302D01*
X006743Y009898D02*
X016140Y009898D01*
X016233Y009659D02*
X015967Y009549D01*
X015764Y009346D01*
X015654Y009081D01*
X015654Y007789D01*
X015764Y007524D01*
X015967Y007321D01*
X016233Y007211D01*
X016520Y007211D01*
X016785Y007321D01*
X016988Y007524D01*
X017098Y007789D01*
X017098Y009081D01*
X016988Y009346D01*
X016785Y009549D01*
X016520Y009659D01*
X016233Y009659D01*
X015919Y009501D02*
X013070Y009501D01*
X013243Y009302D02*
X015746Y009302D01*
X015664Y009104D02*
X013325Y009104D01*
X013334Y008905D02*
X015654Y008905D01*
X015654Y008707D02*
X013334Y008707D01*
X013334Y008508D02*
X015654Y008508D01*
X015654Y008310D02*
X013334Y008310D01*
X013334Y008111D02*
X015654Y008111D01*
X015654Y007913D02*
X013334Y007913D01*
X013303Y007714D02*
X015686Y007714D01*
X015773Y007516D02*
X013216Y007516D01*
X013012Y007317D02*
X015977Y007317D01*
X016776Y007317D02*
X017536Y007317D01*
X017332Y007516D02*
X016980Y007516D01*
X017067Y007714D02*
X017245Y007714D01*
X017213Y007913D02*
X017098Y007913D01*
X017098Y008111D02*
X017213Y008111D01*
X017213Y008310D02*
X017098Y008310D01*
X017098Y008508D02*
X017213Y008508D01*
X017213Y008707D02*
X017098Y008707D01*
X017098Y008905D02*
X017213Y008905D01*
X017223Y009104D02*
X017089Y009104D01*
X017006Y009302D02*
X017305Y009302D01*
X017478Y009501D02*
X016834Y009501D01*
X017493Y009699D02*
X011309Y009699D01*
X011624Y009501D02*
X012155Y009501D01*
X011982Y009302D02*
X011770Y009302D01*
X011852Y009104D02*
X011900Y009104D01*
X011890Y008905D02*
X011855Y008905D01*
X011855Y008707D02*
X011890Y008707D01*
X011913Y007714D02*
X011922Y007714D01*
X011913Y007516D02*
X012009Y007516D01*
X011913Y007317D02*
X012213Y007317D01*
X011970Y007119D02*
X018696Y007119D01*
X018753Y007317D02*
X018335Y007317D01*
X018539Y007516D02*
X018753Y007516D01*
X018717Y007714D02*
X018626Y007714D01*
X018657Y007913D02*
X018692Y007913D01*
X018692Y008111D02*
X018657Y008111D01*
X018657Y008310D02*
X018692Y008310D01*
X018692Y008508D02*
X018657Y008508D01*
X018657Y008707D02*
X018692Y008707D01*
X018692Y008905D02*
X018657Y008905D01*
X018648Y009104D02*
X018695Y009104D01*
X018778Y009302D02*
X018566Y009302D01*
X018393Y009501D02*
X018924Y009501D01*
X019238Y009699D02*
X018173Y009699D01*
X018173Y009898D02*
X019253Y009898D01*
X019253Y010096D02*
X018134Y010096D01*
X017954Y010295D02*
X019253Y010295D01*
X019253Y010493D02*
X017728Y010493D01*
X017523Y011475D02*
X017142Y011475D01*
X016873Y011744D01*
X016873Y012126D01*
X017142Y012395D01*
X017312Y012395D01*
X017593Y012676D01*
X017593Y014303D01*
X017645Y014428D01*
X018345Y015128D01*
X018440Y015223D01*
X018492Y015245D01*
X018642Y015395D01*
X019023Y015395D01*
X019293Y015126D01*
X019293Y014744D01*
X019023Y014475D01*
X018654Y014475D01*
X018273Y014094D01*
X018273Y012467D01*
X018221Y012342D01*
X018126Y012247D01*
X017793Y011914D01*
X017793Y011744D01*
X017523Y011475D01*
X017534Y011486D02*
X019563Y011486D01*
X019723Y011684D02*
X017732Y011684D01*
X017793Y011883D02*
X019613Y011883D01*
X019613Y012081D02*
X017960Y012081D01*
X018158Y012280D02*
X019613Y012280D01*
X019613Y012478D02*
X018273Y012478D01*
X018273Y012677D02*
X019613Y012677D01*
X019613Y012875D02*
X018273Y012875D01*
X018273Y013074D02*
X019613Y013074D01*
X019613Y013272D02*
X018273Y013272D01*
X018273Y013471D02*
X019613Y013471D01*
X019613Y013669D02*
X019217Y013669D01*
X019293Y013744D02*
X019023Y013475D01*
X018642Y013475D01*
X018373Y013744D01*
X018373Y014126D01*
X018642Y014395D01*
X019023Y014395D01*
X019293Y014126D01*
X019293Y013744D01*
X019293Y013868D02*
X019613Y013868D01*
X019613Y014066D02*
X019293Y014066D01*
X019154Y014265D02*
X019613Y014265D01*
X019613Y014463D02*
X018642Y014463D01*
X018512Y014265D02*
X018443Y014265D01*
X018373Y014066D02*
X018273Y014066D01*
X018273Y013868D02*
X018373Y013868D01*
X018448Y013669D02*
X018273Y013669D01*
X017593Y013669D02*
X016423Y013669D01*
X016423Y013471D02*
X017593Y013471D01*
X017593Y013272D02*
X016423Y013272D01*
X016423Y013074D02*
X017593Y013074D01*
X017593Y012875D02*
X016423Y012875D01*
X016423Y012677D02*
X017593Y012677D01*
X017395Y012478D02*
X016423Y012478D01*
X016423Y012280D02*
X017027Y012280D01*
X016873Y012081D02*
X016423Y012081D01*
X016423Y011883D02*
X016873Y011883D01*
X016933Y011684D02*
X016423Y011684D01*
X016423Y011486D02*
X017132Y011486D01*
X016423Y011287D02*
X019365Y011287D01*
X019269Y011089D02*
X016423Y011089D01*
X016423Y010890D02*
X019253Y010890D01*
X019253Y010692D02*
X016423Y010692D01*
X015941Y010096D02*
X006743Y010096D01*
X006743Y010295D02*
X015773Y010295D01*
X015743Y010493D02*
X006743Y010493D01*
X006743Y010692D02*
X015743Y010692D01*
X015743Y010890D02*
X006743Y010890D01*
X006743Y011089D02*
X015743Y011089D01*
X015743Y011287D02*
X006743Y011287D01*
X006743Y011486D02*
X009976Y011486D01*
X010001Y011475D02*
X009832Y011545D01*
X009703Y011674D01*
X009633Y011843D01*
X009633Y012026D01*
X009703Y012196D01*
X009832Y012325D01*
X010001Y012395D01*
X010664Y012395D01*
X010834Y012325D01*
X010963Y012196D01*
X011033Y012026D01*
X011033Y011843D01*
X010963Y011674D01*
X010834Y011545D01*
X010664Y011475D01*
X010001Y011475D01*
X009699Y011684D02*
X006743Y011684D01*
X006743Y011883D02*
X009633Y011883D01*
X009656Y012081D02*
X006743Y012081D01*
X006743Y012280D02*
X009787Y012280D01*
X009832Y012545D02*
X009703Y012674D01*
X009633Y012843D01*
X009633Y013026D01*
X009703Y013196D01*
X009832Y013325D01*
X010001Y013395D01*
X010664Y013395D01*
X010834Y013325D01*
X010963Y013196D01*
X011033Y013026D01*
X011033Y012843D01*
X010963Y012674D01*
X010834Y012545D01*
X010664Y012475D01*
X010001Y012475D01*
X009832Y012545D01*
X009994Y012478D02*
X009224Y012478D01*
X009173Y012426D02*
X009342Y012595D01*
X009433Y012816D01*
X009433Y013054D01*
X009342Y013275D01*
X009173Y013444D01*
X008952Y013535D01*
X008714Y013535D01*
X008493Y013444D01*
X008324Y013275D01*
X008233Y013054D01*
X008233Y012816D01*
X008324Y012595D01*
X008493Y012426D01*
X008714Y012335D01*
X008952Y012335D01*
X009173Y012426D01*
X009375Y012677D02*
X009702Y012677D01*
X009633Y012875D02*
X009433Y012875D01*
X009425Y013074D02*
X009652Y013074D01*
X009779Y013272D02*
X009343Y013272D01*
X009108Y013471D02*
X015743Y013471D01*
X015743Y013669D02*
X013957Y013669D01*
X013963Y013674D02*
X014033Y013843D01*
X014033Y014026D01*
X013963Y014196D01*
X013834Y014325D01*
X013664Y014395D01*
X013001Y014395D01*
X012832Y014325D01*
X012703Y014196D01*
X012633Y014026D01*
X012633Y013843D01*
X012703Y013674D01*
X012832Y013545D01*
X013001Y013475D01*
X013664Y013475D01*
X013834Y013545D01*
X013963Y013674D01*
X014033Y013868D02*
X015743Y013868D01*
X015743Y014066D02*
X015692Y014066D01*
X015333Y014066D02*
X015333Y014066D01*
X015333Y013920D02*
X015333Y014435D01*
X015333Y014435D01*
X015333Y013920D01*
X014974Y014066D02*
X014017Y014066D01*
X013894Y014265D02*
X014847Y014265D01*
X014818Y014435D02*
X015333Y014435D01*
X015333Y014435D01*
X014818Y014435D01*
X014818Y014463D02*
X008626Y014463D01*
X008599Y014437D02*
X008731Y014569D01*
X008803Y014742D01*
X008803Y014928D01*
X008731Y015101D01*
X008599Y015233D01*
X008426Y015305D01*
X008239Y015305D01*
X008067Y015233D01*
X007934Y015101D01*
X007863Y014928D01*
X007863Y014742D01*
X007934Y014569D01*
X008067Y014437D01*
X008069Y014436D01*
X007863Y014230D01*
X007863Y013840D01*
X008138Y013565D01*
X008528Y013565D01*
X008803Y013840D01*
X008803Y014230D01*
X008597Y014436D01*
X008599Y014437D01*
X008768Y014265D02*
X009772Y014265D01*
X009832Y014325D02*
X009703Y014196D01*
X009633Y014026D01*
X009633Y013843D01*
X009703Y013674D01*
X009832Y013545D01*
X010001Y013475D01*
X010664Y013475D01*
X010834Y013545D01*
X010963Y013674D01*
X011033Y013843D01*
X011033Y014026D01*
X010963Y014196D01*
X010834Y014325D01*
X010664Y014395D01*
X010001Y014395D01*
X009832Y014325D01*
X009832Y014545D02*
X010001Y014475D01*
X010664Y014475D01*
X010834Y014545D01*
X010963Y014674D01*
X011033Y014843D01*
X011033Y015026D01*
X010963Y015196D01*
X010834Y015325D01*
X010664Y015395D01*
X010001Y015395D01*
X009832Y015325D01*
X009703Y015196D01*
X009633Y015026D01*
X009633Y014843D01*
X009703Y014674D01*
X009832Y014545D01*
X009716Y014662D02*
X008770Y014662D01*
X008803Y014860D02*
X009633Y014860D01*
X009646Y015059D02*
X008749Y015059D01*
X008542Y015257D02*
X009764Y015257D01*
X010901Y015257D02*
X012764Y015257D01*
X012703Y015196D02*
X012633Y015026D01*
X012633Y014843D01*
X012703Y014674D01*
X012832Y014545D01*
X013001Y014475D01*
X013664Y014475D01*
X013834Y014545D01*
X013963Y014674D01*
X014033Y014843D01*
X014033Y015026D01*
X013963Y015196D01*
X013834Y015325D01*
X013664Y015395D01*
X013001Y015395D01*
X012832Y015325D01*
X012703Y015196D01*
X012646Y015059D02*
X011020Y015059D01*
X011033Y014860D02*
X012633Y014860D01*
X012716Y014662D02*
X010950Y014662D01*
X010894Y014265D02*
X012772Y014265D01*
X012649Y014066D02*
X011017Y014066D01*
X011033Y013868D02*
X012633Y013868D01*
X012708Y013669D02*
X010957Y013669D01*
X010886Y013272D02*
X012779Y013272D01*
X012832Y013325D02*
X012703Y013196D01*
X012633Y013026D01*
X012633Y012843D01*
X012703Y012674D01*
X012832Y012545D01*
X013001Y012475D01*
X013664Y012475D01*
X013834Y012545D01*
X013963Y012674D01*
X014033Y012843D01*
X014033Y013026D01*
X013963Y013196D01*
X013834Y013325D01*
X013664Y013395D01*
X013001Y013395D01*
X012832Y013325D01*
X012652Y013074D02*
X011013Y013074D01*
X011033Y012875D02*
X012633Y012875D01*
X012702Y012677D02*
X010964Y012677D01*
X010672Y012478D02*
X012994Y012478D01*
X012990Y012364D02*
X012924Y012343D01*
X012862Y012311D01*
X012806Y012271D01*
X012757Y012222D01*
X012717Y012166D01*
X012685Y012104D01*
X012664Y012038D01*
X012653Y011970D01*
X012653Y011935D01*
X012653Y011900D01*
X012664Y011832D01*
X012685Y011766D01*
X012717Y011704D01*
X012757Y011648D01*
X012806Y011599D01*
X012862Y011559D01*
X012924Y011527D01*
X012990Y011506D01*
X013058Y011495D01*
X013333Y011495D01*
X013608Y011495D01*
X013676Y011506D01*
X013742Y011527D01*
X013804Y011559D01*
X013860Y011599D01*
X013909Y011648D01*
X013949Y011704D01*
X013981Y011766D01*
X014002Y011832D01*
X014013Y011900D01*
X014013Y011935D01*
X014013Y011970D01*
X014002Y012038D01*
X013981Y012104D01*
X013949Y012166D01*
X013909Y012222D01*
X013860Y012271D01*
X013804Y012311D01*
X013742Y012343D01*
X013676Y012364D01*
X013608Y012375D01*
X013333Y012375D01*
X013333Y011935D01*
X014013Y011935D01*
X013333Y011935D01*
X013333Y011935D01*
X013333Y011935D01*
X013333Y011495D01*
X013333Y011935D01*
X013333Y011935D01*
X013333Y012375D01*
X013058Y012375D01*
X012990Y012364D01*
X012819Y012280D02*
X010879Y012280D01*
X011010Y012081D02*
X012678Y012081D01*
X012653Y011935D02*
X013333Y011935D01*
X012653Y011935D01*
X012656Y011883D02*
X011033Y011883D01*
X010967Y011684D02*
X012731Y011684D01*
X013333Y011684D02*
X013333Y011684D01*
X013333Y011883D02*
X013333Y011883D01*
X013333Y011935D02*
X013333Y011935D01*
X013333Y012081D02*
X013333Y012081D01*
X013333Y012280D02*
X013333Y012280D01*
X013672Y012478D02*
X015073Y012478D01*
X014938Y012280D02*
X013847Y012280D01*
X013988Y012081D02*
X014877Y012081D01*
X014905Y011883D02*
X014010Y011883D01*
X013934Y011684D02*
X015045Y011684D01*
X015621Y011684D02*
X015743Y011684D01*
X015743Y011486D02*
X010690Y011486D01*
X008558Y013471D02*
X007608Y013471D01*
X007843Y013272D02*
X008323Y013272D01*
X008241Y013074D02*
X007925Y013074D01*
X007933Y012875D02*
X008233Y012875D01*
X008291Y012677D02*
X007875Y012677D01*
X007724Y012478D02*
X008441Y012478D01*
X008632Y013669D02*
X009708Y013669D01*
X009633Y013868D02*
X008803Y013868D01*
X008803Y014066D02*
X009649Y014066D01*
X008040Y014463D02*
X006743Y014463D01*
X006743Y014265D02*
X007898Y014265D01*
X007863Y014066D02*
X006743Y014066D01*
X006743Y013868D02*
X007863Y013868D01*
X008034Y013669D02*
X006743Y013669D01*
X006743Y013471D02*
X007058Y013471D01*
X006823Y013272D02*
X006743Y013272D01*
X006743Y012677D02*
X006791Y012677D01*
X006743Y012478D02*
X006941Y012478D01*
X006743Y014662D02*
X007896Y014662D01*
X007863Y014860D02*
X006743Y014860D01*
X006743Y015059D02*
X007917Y015059D01*
X008124Y015257D02*
X006743Y015257D01*
X006743Y015456D02*
X014798Y015456D01*
X014798Y015654D02*
X006743Y015654D01*
X006743Y015853D02*
X012003Y015853D01*
X011805Y016051D02*
X011599Y016051D01*
X011066Y016051D02*
X007571Y016051D01*
X007515Y015995D02*
X007773Y016253D01*
X007773Y016435D01*
X007773Y016617D01*
X007515Y016875D01*
X007333Y016875D01*
X007333Y016435D01*
X007773Y016435D01*
X007333Y016435D01*
X007333Y016435D01*
X007333Y015995D01*
X007515Y015995D01*
X007333Y015995D02*
X007333Y016435D01*
X007333Y016435D01*
X007333Y016435D01*
X007333Y016875D01*
X007151Y016875D01*
X006893Y016617D01*
X006893Y016435D01*
X006893Y016253D01*
X007151Y015995D01*
X007333Y015995D01*
X007333Y016051D02*
X007333Y016051D01*
X007333Y016250D02*
X007333Y016250D01*
X007333Y016435D02*
X006893Y016435D01*
X007333Y016435D01*
X007333Y016435D01*
X007333Y016448D02*
X007333Y016448D01*
X007333Y016647D02*
X007333Y016647D01*
X007333Y016845D02*
X007333Y016845D01*
X007333Y016995D02*
X007515Y016995D01*
X007773Y017253D01*
X007773Y017435D01*
X007773Y017617D01*
X007515Y017875D01*
X007333Y017875D01*
X007333Y017435D01*
X007773Y017435D01*
X007333Y017435D01*
X007333Y017435D01*
X007333Y016995D01*
X007333Y017435D01*
X007333Y017435D01*
X007333Y017435D01*
X007333Y017875D01*
X007151Y017875D01*
X006893Y017617D01*
X006893Y017435D01*
X006893Y017253D01*
X007151Y016995D01*
X007333Y016995D01*
X007333Y017044D02*
X007333Y017044D01*
X007333Y017242D02*
X007333Y017242D01*
X007333Y017435D02*
X006893Y017435D01*
X007333Y017435D01*
X007333Y017435D01*
X007333Y017441D02*
X007333Y017441D01*
X007333Y017639D02*
X007333Y017639D01*
X007333Y017838D02*
X007333Y017838D01*
X007354Y018036D02*
X006743Y018036D01*
X006743Y017838D02*
X007113Y017838D01*
X006915Y017639D02*
X006743Y017639D01*
X006743Y017441D02*
X006893Y017441D01*
X006904Y017242D02*
X006743Y017242D01*
X006743Y017044D02*
X007102Y017044D01*
X007121Y016845D02*
X006743Y016845D01*
X006743Y016647D02*
X006922Y016647D01*
X006893Y016448D02*
X006743Y016448D01*
X006743Y016250D02*
X006896Y016250D01*
X006743Y016051D02*
X007095Y016051D01*
X007770Y016250D02*
X010873Y016250D01*
X010873Y016448D02*
X007773Y016448D01*
X007744Y016647D02*
X010894Y016647D01*
X011092Y016845D02*
X007545Y016845D01*
X007564Y017044D02*
X011074Y017044D01*
X010875Y017242D02*
X007762Y017242D01*
X007773Y017441D02*
X010873Y017441D01*
X010886Y017639D02*
X007751Y017639D01*
X007553Y017838D02*
X010993Y017838D01*
X010354Y018036D02*
X008312Y018036D01*
X008334Y018045D02*
X008463Y018174D01*
X008533Y018343D01*
X008533Y018526D01*
X008463Y018696D01*
X008334Y018825D01*
X008164Y018895D01*
X007501Y018895D01*
X007332Y018825D01*
X007203Y018696D01*
X007133Y018526D01*
X007133Y018343D01*
X007203Y018174D01*
X007332Y018045D01*
X007501Y017975D01*
X008164Y017975D01*
X008334Y018045D01*
X008488Y018235D02*
X010178Y018235D01*
X010133Y018433D02*
X008533Y018433D01*
X008489Y018632D02*
X010176Y018632D01*
X010345Y018830D02*
X008321Y018830D01*
X008294Y019029D02*
X010372Y019029D01*
X010181Y019227D02*
X008485Y019227D01*
X008463Y019174D02*
X008533Y019343D01*
X008533Y019526D01*
X008463Y019696D01*
X008334Y019825D01*
X008164Y019895D01*
X007501Y019895D01*
X007332Y019825D01*
X007203Y019696D01*
X007133Y019526D01*
X007133Y019343D01*
X007203Y019174D01*
X007332Y019045D01*
X007501Y018975D01*
X008164Y018975D01*
X008334Y019045D01*
X008463Y019174D01*
X008533Y019426D02*
X010133Y019426D01*
X010173Y019624D02*
X008493Y019624D01*
X008336Y019823D02*
X010330Y019823D01*
X010743Y020021D02*
X008111Y020021D01*
X007833Y019977D02*
X007833Y019977D01*
X007555Y020021D02*
X006743Y020021D01*
X006743Y019823D02*
X007330Y019823D01*
X007173Y019624D02*
X006743Y019624D01*
X006743Y019426D02*
X007133Y019426D01*
X007181Y019227D02*
X006743Y019227D01*
X006743Y019029D02*
X007372Y019029D01*
X007345Y018830D02*
X006743Y018830D01*
X006743Y018632D02*
X007176Y018632D01*
X007133Y018433D02*
X006743Y018433D01*
X006743Y018235D02*
X007178Y018235D01*
X007046Y020220D02*
X006743Y020220D01*
X006743Y020418D02*
X006813Y020418D01*
X006976Y020255D02*
X006976Y020255D01*
X008619Y020220D02*
X010743Y020220D01*
X010743Y020418D02*
X008853Y020418D01*
X009013Y020578D02*
X009013Y020578D01*
X009032Y020617D02*
X010743Y020617D01*
X010743Y020815D02*
X009133Y020815D01*
X009224Y021014D02*
X009503Y021014D01*
X009493Y021212D02*
X009256Y021212D01*
X009287Y021411D02*
X009493Y021411D01*
X009493Y021609D02*
X009263Y021609D01*
X009232Y021808D02*
X009493Y021808D01*
X009553Y022006D02*
X009158Y022006D01*
X009220Y021886D02*
X009220Y021886D01*
X009057Y022205D02*
X028659Y022205D01*
X028586Y022110D02*
X028586Y022110D01*
X028550Y022006D02*
X028313Y022006D01*
X028423Y021808D02*
X028482Y021808D01*
X028434Y021609D02*
X028423Y021609D01*
X028423Y021411D02*
X028434Y021411D01*
X028423Y021212D02*
X028434Y021212D01*
X028423Y021014D02*
X028499Y021014D01*
X029263Y020136D02*
X029263Y020136D01*
X029716Y020022D02*
X029716Y020022D01*
X030181Y020060D02*
X030181Y020060D01*
X030544Y020220D02*
X030903Y020220D01*
X030903Y020418D02*
X030793Y020418D01*
X030609Y020248D02*
X030609Y020248D01*
X028814Y022403D02*
X008902Y022403D01*
X010613Y022006D02*
X011850Y022006D01*
X012083Y022006D02*
X012083Y022006D01*
X012083Y021808D02*
X012083Y021808D01*
X012083Y021609D02*
X012083Y021609D01*
X012083Y021411D02*
X012083Y021411D01*
X012083Y021212D02*
X012083Y021212D01*
X012083Y021014D02*
X012083Y021014D01*
X011762Y021014D02*
X011546Y021014D01*
X011423Y020815D02*
X013829Y020815D01*
X013720Y020617D02*
X011423Y020617D01*
X011423Y020418D02*
X013693Y020418D01*
X013734Y020220D02*
X011423Y020220D01*
X011423Y020021D02*
X013863Y020021D01*
X013936Y019823D02*
X011423Y019823D01*
X011495Y021808D02*
X011613Y021808D01*
X008690Y020255D02*
X008690Y020255D01*
X011592Y017044D02*
X012029Y017044D01*
X011831Y016845D02*
X011573Y016845D01*
X012663Y015853D02*
X014994Y015853D01*
X014798Y015257D02*
X013901Y015257D01*
X014020Y015059D02*
X014953Y015059D01*
X015042Y014860D02*
X014033Y014860D01*
X013950Y014662D02*
X014870Y014662D01*
X015333Y014265D02*
X015333Y014265D01*
X015743Y013272D02*
X013886Y013272D01*
X014013Y013074D02*
X014972Y013074D01*
X014899Y012875D02*
X014033Y012875D01*
X013964Y012677D02*
X014924Y012677D01*
X015333Y012875D02*
X015333Y012875D01*
X015333Y013074D02*
X015333Y013074D01*
X015694Y013074D02*
X015743Y013074D01*
X016423Y013868D02*
X017593Y013868D01*
X017593Y014066D02*
X016423Y014066D01*
X016423Y014265D02*
X017593Y014265D01*
X017680Y014463D02*
X016423Y014463D01*
X016423Y014662D02*
X017879Y014662D01*
X018077Y014860D02*
X016423Y014860D01*
X016423Y015059D02*
X018276Y015059D01*
X018504Y015257D02*
X016423Y015257D01*
X016423Y015853D02*
X016893Y015853D01*
X016893Y016051D02*
X016403Y016051D01*
X016312Y018036D02*
X016533Y018036D01*
X016533Y018235D02*
X016488Y018235D01*
X016533Y018433D02*
X016533Y018433D01*
X016533Y018632D02*
X016489Y018632D01*
X016533Y018830D02*
X016321Y018830D01*
X016294Y019029D02*
X016533Y019029D01*
X016336Y019823D02*
X016783Y019823D01*
X016783Y020021D02*
X016276Y020021D01*
X016343Y020815D02*
X018322Y020815D01*
X018408Y021014D02*
X016257Y021014D01*
X016478Y021212D02*
X018187Y021212D01*
X018133Y021411D02*
X016533Y021411D01*
X016499Y021609D02*
X018167Y021609D01*
X018315Y021808D02*
X016351Y021808D01*
X015315Y021808D02*
X014845Y021808D01*
X017076Y020617D02*
X018170Y020617D01*
X018133Y020418D02*
X017274Y020418D01*
X017383Y020220D02*
X018184Y020220D01*
X018390Y020021D02*
X017383Y020021D01*
X017383Y019823D02*
X018330Y019823D01*
X018173Y019624D02*
X017383Y019624D01*
X017383Y019426D02*
X018133Y019426D01*
X018181Y019227D02*
X017383Y019227D01*
X017383Y019029D02*
X018372Y019029D01*
X018424Y018843D02*
X018362Y018811D01*
X018306Y018771D01*
X018257Y018722D01*
X018217Y018666D01*
X018185Y018604D01*
X018164Y018538D01*
X018153Y018470D01*
X018153Y018435D01*
X018153Y018400D01*
X018164Y018332D01*
X018185Y018266D01*
X018217Y018204D01*
X018257Y018148D01*
X018306Y018099D01*
X018362Y018059D01*
X018424Y018027D01*
X018490Y018006D01*
X018558Y017995D01*
X018833Y017995D01*
X019108Y017995D01*
X019176Y018006D01*
X019242Y018027D01*
X019304Y018059D01*
X019360Y018099D01*
X019409Y018148D01*
X019449Y018204D01*
X019481Y018266D01*
X019502Y018332D01*
X019513Y018400D01*
X019513Y018435D01*
X019513Y018470D01*
X019502Y018538D01*
X019481Y018604D01*
X019449Y018666D01*
X019409Y018722D01*
X019360Y018771D01*
X019304Y018811D01*
X019242Y018843D01*
X019176Y018864D01*
X019108Y018875D01*
X018833Y018875D01*
X018833Y018435D01*
X019513Y018435D01*
X018833Y018435D01*
X018833Y018435D01*
X018833Y018435D01*
X018833Y017995D01*
X018833Y018435D01*
X018833Y018435D01*
X018833Y018875D01*
X018558Y018875D01*
X018490Y018864D01*
X018424Y018843D01*
X018399Y018830D02*
X017383Y018830D01*
X017383Y018632D02*
X018199Y018632D01*
X018153Y018435D02*
X018833Y018435D01*
X018153Y018435D01*
X018153Y018433D02*
X017383Y018433D01*
X017458Y018235D02*
X018201Y018235D01*
X018407Y018036D02*
X017656Y018036D01*
X018833Y018036D02*
X018833Y018036D01*
X018833Y018235D02*
X018833Y018235D01*
X018833Y018433D02*
X018833Y018433D01*
X018833Y018435D02*
X018833Y018435D01*
X018833Y018632D02*
X018833Y018632D01*
X018833Y018830D02*
X018833Y018830D01*
X019267Y018830D02*
X019713Y018830D01*
X019713Y018632D02*
X019467Y018632D01*
X019513Y018433D02*
X019713Y018433D01*
X019713Y018435D02*
X020283Y018435D01*
X020283Y018435D01*
X020283Y018435D01*
X019713Y018435D01*
X019713Y018235D02*
X019465Y018235D01*
X019259Y018036D02*
X019714Y018036D01*
X019955Y019029D02*
X019294Y019029D01*
X019336Y019823D02*
X019936Y019823D01*
X019863Y020021D02*
X019276Y020021D01*
X019343Y020815D02*
X019829Y020815D01*
X019970Y021014D02*
X019257Y021014D01*
X019351Y021808D02*
X019921Y021808D01*
X019613Y015257D02*
X019161Y015257D01*
X019293Y015059D02*
X019613Y015059D01*
X019613Y014860D02*
X019293Y014860D01*
X019210Y014662D02*
X019613Y014662D01*
X022083Y013669D02*
X022132Y013669D01*
X029163Y015853D02*
X029770Y015853D01*
X029968Y016051D02*
X029361Y016051D01*
X029478Y016250D02*
X029993Y016250D01*
X029993Y016448D02*
X029478Y016448D01*
X029478Y016647D02*
X029971Y016647D01*
X029873Y016845D02*
X029335Y016845D01*
X029137Y017044D02*
X029873Y017044D01*
X029534Y013669D02*
X030903Y013669D01*
X030903Y013471D02*
X029640Y013471D01*
X029653Y013272D02*
X030019Y013272D01*
X030142Y013395D02*
X029873Y013126D01*
X029873Y012744D01*
X030142Y012475D01*
X030523Y012475D01*
X030793Y012744D01*
X030793Y013126D01*
X030523Y013395D01*
X030142Y013395D01*
X029873Y013074D02*
X029587Y013074D01*
X029541Y012875D02*
X029873Y012875D01*
X029941Y012677D02*
X029682Y012677D01*
X029733Y012478D02*
X030139Y012478D01*
X030526Y012478D02*
X030903Y012478D01*
X030903Y012280D02*
X029718Y012280D01*
X029627Y012081D02*
X030903Y012081D01*
X030903Y011883D02*
X029521Y011883D01*
X029634Y011684D02*
X030903Y011684D01*
X030903Y011486D02*
X029653Y011486D01*
X029593Y011287D02*
X030903Y011287D01*
X030903Y011089D02*
X029414Y011089D01*
X030725Y012677D02*
X030903Y012677D01*
X030903Y012875D02*
X030793Y012875D01*
X030793Y013074D02*
X030903Y013074D01*
X030903Y013272D02*
X030646Y013272D01*
X030181Y007810D02*
X030181Y007810D01*
X030399Y007714D02*
X030903Y007714D01*
X030903Y007516D02*
X030724Y007516D01*
X028873Y022478D02*
X028873Y022478D01*
X028873Y022478D01*
X010251Y008111D02*
X006743Y008111D01*
X006743Y007913D02*
X010251Y007913D01*
X008630Y009501D02*
X007729Y009501D01*
X007917Y009302D02*
X008351Y009302D01*
X008253Y009104D02*
X007999Y009104D01*
X008013Y008905D02*
X008233Y008905D01*
X008278Y008707D02*
X007974Y008707D01*
X007868Y008508D02*
X008411Y008508D01*
X007263Y007734D02*
X007263Y007734D01*
X007233Y007714D02*
X006743Y007714D01*
X006743Y007516D02*
X006930Y007516D01*
X006873Y007478D02*
X006873Y007478D01*
X006873Y007478D01*
X006747Y007317D02*
X006743Y007317D01*
X006743Y008310D02*
X007066Y008310D01*
X006798Y008508D02*
X006743Y008508D01*
M02*
